<?xml version="1.0" encoding="UTF-8" standalone="no"?>
<!-- This is a Stata 15.0 generated SVG file (http://www.stata.com) -->

<svg version="1.1" width="700px" height="509px" viewBox="0 0 3960 2880" xmlns="http://www.w3.org/2000/svg" xmlns:xlink="http://www.w3.org/1999/xlink">
	<desc>Stata Graph - Graph</desc>
	<rect x="0" y="0" width="3960" height="2880" style="fill:#EAF2F3;stroke:none"/>
	<rect x="0.00" y="0.00" width="3959.88" height="2880.00" style="fill:#EAF2F3"/>
	<rect x="2.88" y="2.88" width="3954.12" height="2874.24" style="fill:none;stroke:#EAF2F3;stroke-width:5.76"/>
	<rect x="465.80" y="100.86" width="3393.22" height="2388.33" style="fill:#FFFFFF"/>
	<rect x="468.67" y="103.74" width="3387.47" height="2382.57" style="fill:none;stroke:#FFFFFF;stroke-width:5.76"/>
	<line x1="465.80" y1="2425.82" x2="3859.02" y2="2425.82" style="stroke:#EAF2F3;stroke-width:8.64"/>
	<line x1="465.80" y1="1973.50" x2="3859.02" y2="1973.50" style="stroke:#EAF2F3;stroke-width:8.64"/>
	<line x1="465.80" y1="1521.18" x2="3859.02" y2="1521.18" style="stroke:#EAF2F3;stroke-width:8.64"/>
	<line x1="465.80" y1="1068.86" x2="3859.02" y2="1068.86" style="stroke:#EAF2F3;stroke-width:8.64"/>
	<line x1="465.80" y1="616.54" x2="3859.02" y2="616.54" style="stroke:#EAF2F3;stroke-width:8.64"/>
	<line x1="465.80" y1="164.22" x2="3859.02" y2="164.22" style="stroke:#EAF2F3;stroke-width:8.64"/>
	<defs>
		<path id="path1" d="M529.15 164.22 L529.15 164.22 L562.07 164.96 L595.11 168.06 L628.15 173.50 L661.07 181.67 L694.11 192.44 L727.15 205.56 L760.07 221.27 L793.11 239.22 L826.15 259.39 L859.07 281.66 L892.11 306.04 L925.03 332.16 L958.07 360.00 L991.11 389.45 L1024.03 420.02 L1057.07 451.83 L1090.11 484.50 L1123.03 518.03 L1156.07 552.19 L1189.11 586.84 L1222.03 621.86 L1255.07 657.13 L1287.99 692.65 L1321.03 728.29 L1354.07 763.93 L1386.99 799.57 L1420.03 835.09 L1453.07 870.36 L1485.99 905.51 L1519.03 940.28 L1551.95 974.69 L1584.99 1008.72 L1618.03 1042.38 L1650.95 1075.42 L1683.99 1107.97 L1717.03 1139.90 L1749.95 1171.21 L1782.99 1201.90 L1816.03 1231.97 L1848.95 1261.42 L1881.99 1290.13 L1914.91 1318.35 L1947.95 1345.95 L1980.99 1372.93 L2013.91 1399.53 L2046.95 1425.52 L2079.99 1451.14 L2112.91 1476.26 L2145.95 1501.01 L2178.87 1525.39 L2211.91 1549.40 L2244.95 1572.91 L2277.87 1596.18 L2310.91 1619.20 L2343.95 1641.72 L2376.87 1663.99 L2409.91 1686.02 L2442.95 1707.68 L2475.87 1729.09 L2508.91 1750.25 L2541.82 1771.17 L2574.87 1791.71 L2607.91 1812.13 L2640.82 1832.18 L2673.87 1852.10 L2706.91 1871.78 L2739.82 1891.08 L2772.87 1910.26 L2805.91 1929.32 L2838.82 1948.01 L2871.87 1966.57 L2904.78 1984.89 L2937.82 2003.08 L2970.87 2021.15 L3003.78 2038.84 L3036.82 2056.54 L3069.87 2073.99 L3102.78 2091.32 L3135.82 2108.39 L3168.74 2125.35 L3201.78 2142.18 L3234.82 2158.89 L3267.74 2175.47 L3300.78 2191.80 L3333.82 2208.02 L3366.74 2224.23 L3399.78 2240.19 L3432.82 2256.03 L3465.74 2271.75 L3498.78 2287.47 L3531.70 2302.94 L3564.74 2318.28 L3597.78 2333.63 L3630.70 2348.72 L3663.74 2363.82 L3696.78 2378.80 L3729.70 2393.65 L3762.74 2408.37 L3795.78 2422.98 L3795.78 2015.58 L3762.74 2003.45 L3729.70 1991.08 L3696.78 1978.58 L3663.74 1966.08 L3630.70 1953.33 L3597.78 1940.58 L3564.74 1927.71 L3531.70 1914.72 L3498.78 1901.60 L3465.74 1888.36 L3432.82 1874.99 L3399.78 1861.38 L3366.74 1847.77 L3333.82 1834.03 L3300.78 1820.17 L3267.74 1806.19 L3234.82 1791.96 L3201.78 1777.72 L3168.74 1763.25 L3135.82 1748.64 L3102.78 1733.92 L3069.87 1719.06 L3036.82 1704.09 L3003.78 1688.99 L2970.87 1673.65 L2937.82 1658.18 L2904.78 1642.59 L2871.87 1626.74 L2838.82 1610.90 L2805.91 1594.82 L2772.87 1578.48 L2739.82 1562.15 L2706.91 1545.56 L2673.87 1528.73 L2640.82 1511.78 L2607.91 1494.70 L2574.87 1477.37 L2541.82 1459.92 L2508.91 1442.23 L2475.87 1424.41 L2442.95 1406.34 L2409.91 1388.15 L2376.87 1369.58 L2343.95 1350.90 L2310.91 1331.84 L2277.87 1312.66 L2244.95 1293.10 L2211.91 1273.30 L2178.87 1253.13 L2145.95 1232.59 L2112.91 1211.80 L2079.99 1190.51 L2046.95 1168.98 L2013.91 1147.07 L1980.99 1124.68 L1947.95 1101.90 L1914.91 1078.76 L1881.99 1055.13 L1848.95 1031.12 L1816.03 1006.61 L1782.99 981.74 L1749.95 956.37 L1717.03 930.63 L1683.99 904.39 L1650.95 877.79 L1618.03 850.81 L1584.99 823.33 L1551.95 795.61 L1519.03 767.52 L1485.99 739.18 L1453.07 710.47 L1420.03 681.64 L1386.99 652.68 L1354.07 623.60 L1321.03 594.64 L1287.99 565.68 L1255.07 537.09 L1222.03 508.63 L1189.11 480.66 L1156.07 453.19 L1123.03 426.33 L1090.11 399.97 L1057.07 374.48 L1024.03 349.73 L991.11 325.97 L958.07 303.32 L925.03 281.79 L892.11 261.62 L859.07 242.93 L826.15 225.85 L793.11 210.51 L760.07 197.26 L727.15 186.13 L694.11 177.46 L661.07 171.03 L628.15 166.94 L595.11 164.84 L562.07 164.22 L529.15 164.22 L529.15 164.22 Z" stroke-linecap="round"/>
	</defs>
	<defs>
		<clipPath id="clipPath1">
			<use xlink:href="#path1"/>
		</clipPath>
	</defs>
	<use xlink:href="#path1" style="stroke:none;fill:#FF3333;fill-opacity:0.25"/>
	<use xlink:href="#path1" style="fill:none;stroke:#FF0000;stroke-opacity:0.25;stroke-width:17.28" clip-path="url(#clipPath1)"/>
	<defs>
		<path id="path2" d="M529.15 164.22 L529.15 164.22 L562.07 164.96 L595.11 167.56 L628.15 172.27 L661.07 179.20 L694.11 188.11 L727.15 199.00 L760.07 211.87 L793.11 226.59 L826.15 243.18 L859.07 261.49 L892.11 281.42 L925.03 302.95 L958.07 325.97 L991.11 350.10 L1024.03 375.47 L1057.07 401.71 L1090.11 428.81 L1123.03 456.65 L1156.07 485.12 L1189.11 513.95 L1222.03 543.16 L1255.07 572.73 L1287.99 602.43 L1321.03 632.26 L1354.07 662.33 L1386.99 692.28 L1420.03 722.23 L1453.07 752.18 L1485.99 782.00 L1519.03 811.58 L1551.95 840.91 L1584.99 869.99 L1618.03 898.82 L1650.95 927.16 L1683.99 955.13 L1717.03 982.73 L1749.95 1009.71 L1782.99 1036.31 L1816.03 1062.30 L1848.95 1087.80 L1881.99 1112.79 L1914.91 1137.42 L1947.95 1161.43 L1980.99 1185.07 L2013.91 1208.33 L2046.95 1231.10 L2079.99 1253.63 L2112.91 1275.78 L2145.95 1297.56 L2178.87 1319.09 L2211.91 1340.25 L2244.95 1361.17 L2277.87 1381.84 L2310.91 1402.13 L2343.95 1422.30 L2376.87 1442.10 L2409.91 1461.78 L2442.95 1481.09 L2475.87 1500.27 L2508.91 1519.20 L2541.82 1538.01 L2574.87 1556.45 L2607.91 1574.77 L2640.82 1592.96 L2673.87 1610.78 L2706.91 1628.60 L2739.82 1646.05 L2772.87 1663.50 L2805.91 1680.58 L2838.82 1697.66 L2871.87 1714.49 L2904.78 1731.19 L2937.82 1747.78 L2970.87 1764.11 L3003.78 1780.32 L3036.82 1796.41 L3069.87 1812.38 L3102.78 1828.22 L3135.82 1843.93 L3168.74 1859.53 L3201.78 1874.99 L3234.82 1890.34 L3267.74 1905.56 L3300.78 1920.66 L3333.82 1935.76 L3366.74 1950.61 L3399.78 1965.46 L3432.82 1980.19 L3465.74 1994.79 L3498.78 2009.27 L3531.70 2023.62 L3564.74 2037.98 L3597.78 2052.21 L3630.70 2066.32 L3663.74 2080.43 L3696.78 2094.29 L3729.70 2108.27 L3762.74 2122.01 L3795.78 2135.74 L3795.78 1728.47 L3762.74 1717.21 L3729.70 1705.82 L3696.78 1694.31 L3663.74 1682.68 L3630.70 1671.05 L3597.78 1659.29 L3564.74 1647.41 L3531.70 1635.53 L3498.78 1623.40 L3465.74 1611.28 L3432.82 1599.02 L3399.78 1586.77 L3366.74 1574.27 L3333.82 1561.77 L3300.78 1549.15 L3267.74 1536.40 L3234.82 1523.53 L3201.78 1510.54 L3168.74 1497.55 L3135.82 1484.30 L3102.78 1471.06 L3069.87 1457.57 L3036.82 1444.08 L3003.78 1430.47 L2970.87 1416.73 L2937.82 1402.87 L2904.78 1388.89 L2871.87 1374.78 L2838.82 1360.55 L2805.91 1346.19 L2772.87 1331.72 L2739.82 1317.11 L2706.91 1302.39 L2673.87 1287.54 L2640.82 1272.56 L2607.91 1257.46 L2574.87 1242.12 L2541.82 1226.77 L2508.91 1211.30 L2475.87 1195.59 L2442.95 1179.87 L2409.91 1163.91 L2376.87 1147.69 L2343.95 1131.36 L2310.91 1114.90 L2277.87 1098.19 L2244.95 1081.36 L2211.91 1064.16 L2178.87 1046.83 L2145.95 1029.14 L2112.91 1011.19 L2079.99 993.00 L2046.95 974.56 L2013.91 955.87 L1980.99 936.82 L1947.95 917.51 L1914.91 897.83 L1881.99 877.79 L1848.95 857.61 L1816.03 836.95 L1782.99 816.03 L1749.95 794.87 L1717.03 773.34 L1683.99 751.56 L1650.95 729.53 L1618.03 707.25 L1584.99 684.61 L1551.95 661.84 L1519.03 638.82 L1485.99 615.68 L1453.07 592.29 L1420.03 568.90 L1386.99 545.38 L1354.07 521.99 L1321.03 498.60 L1287.99 475.46 L1255.07 452.57 L1222.03 429.92 L1189.11 407.77 L1156.07 386.11 L1123.03 364.95 L1090.11 344.28 L1057.07 324.36 L1024.03 305.18 L991.11 286.74 L958.07 269.16 L925.03 252.58 L892.11 236.99 L859.07 222.63 L826.15 209.64 L793.11 198.01 L760.07 187.86 L727.15 179.57 L694.11 173.13 L661.07 168.43 L628.15 165.71 L595.11 164.35 L562.07 164.22 L529.15 164.22 L529.15 164.22 Z" stroke-linecap="round"/>
	</defs>
	<defs>
		<clipPath id="clipPath2">
			<use xlink:href="#path2"/>
		</clipPath>
	</defs>
	<use xlink:href="#path2" style="stroke:none;fill:#3333FF;fill-opacity:0.25"/>
	<use xlink:href="#path2" style="fill:none;stroke:#0000FF;stroke-opacity:0.25;stroke-width:17.28" clip-path="url(#clipPath2)"/>
	<line x1="529.03" y1="164.35" x2="562.07" y2="164.72" stroke-linecap="round" style="stroke:#FF0000;stroke-width:8.64"/>
	<line x1="562.07" y1="164.72" x2="595.11" y2="166.45" stroke-linecap="round" style="stroke:#FF0000;stroke-width:8.64"/>
	<line x1="595.11" y1="166.45" x2="628.03" y2="170.29" stroke-linecap="round" style="stroke:#FF0000;stroke-width:8.64"/>
	<line x1="628.03" y1="170.29" x2="661.07" y2="176.47" stroke-linecap="round" style="stroke:#FF0000;stroke-width:8.64"/>
	<line x1="661.07" y1="176.47" x2="694.11" y2="185.01" stroke-linecap="round" style="stroke:#FF0000;stroke-width:8.64"/>
	<line x1="694.11" y1="185.01" x2="727.03" y2="195.90" stroke-linecap="round" style="stroke:#FF0000;stroke-width:8.64"/>
	<line x1="727.03" y1="195.90" x2="760.07" y2="209.27" stroke-linecap="round" style="stroke:#FF0000;stroke-width:8.64"/>
	<line x1="760.07" y1="209.27" x2="792.99" y2="224.98" stroke-linecap="round" style="stroke:#FF0000;stroke-width:8.64"/>
	<line x1="792.99" y1="224.98" x2="826.03" y2="242.68" stroke-linecap="round" style="stroke:#FF0000;stroke-width:8.64"/>
	<line x1="826.03" y1="242.68" x2="859.07" y2="262.36" stroke-linecap="round" style="stroke:#FF0000;stroke-width:8.64"/>
	<line x1="859.07" y1="262.36" x2="891.99" y2="283.89" stroke-linecap="round" style="stroke:#FF0000;stroke-width:8.64"/>
	<line x1="891.99" y1="283.89" x2="925.03" y2="307.16" stroke-linecap="round" style="stroke:#FF0000;stroke-width:8.64"/>
	<line x1="925.03" y1="307.16" x2="958.07" y2="331.91" stroke-linecap="round" style="stroke:#FF0000;stroke-width:8.64"/>
	<line x1="958.07" y1="331.91" x2="990.99" y2="357.90" stroke-linecap="round" style="stroke:#FF0000;stroke-width:8.64"/>
	<line x1="990.99" y1="357.90" x2="1024.03" y2="385.12" stroke-linecap="round" style="stroke:#FF0000;stroke-width:8.64"/>
	<line x1="1024.03" y1="385.12" x2="1056.95" y2="413.34" stroke-linecap="round" style="stroke:#FF0000;stroke-width:8.64"/>
	<line x1="1056.95" y1="413.34" x2="1089.99" y2="442.54" stroke-linecap="round" style="stroke:#FF0000;stroke-width:8.64"/>
	<line x1="1089.99" y1="442.54" x2="1123.03" y2="472.49" stroke-linecap="round" style="stroke:#FF0000;stroke-width:8.64"/>
	<line x1="1123.03" y1="472.49" x2="1155.95" y2="503.06" stroke-linecap="round" style="stroke:#FF0000;stroke-width:8.64"/>
	<line x1="1155.95" y1="503.06" x2="1188.99" y2="534.12" stroke-linecap="round" style="stroke:#FF0000;stroke-width:8.64"/>
	<line x1="1188.99" y1="534.12" x2="1222.03" y2="565.68" stroke-linecap="round" style="stroke:#FF0000;stroke-width:8.64"/>
	<line x1="1222.03" y1="565.68" x2="1254.95" y2="597.61" stroke-linecap="round" style="stroke:#FF0000;stroke-width:8.64"/>
	<line x1="1254.95" y1="597.61" x2="1287.99" y2="629.78" stroke-linecap="round" style="stroke:#FF0000;stroke-width:8.64"/>
	<line x1="1287.99" y1="629.78" x2="1321.03" y2="662.08" stroke-linecap="round" style="stroke:#FF0000;stroke-width:8.64"/>
	<line x1="1321.03" y1="662.08" x2="1353.95" y2="694.51" stroke-linecap="round" style="stroke:#FF0000;stroke-width:8.64"/>
	<line x1="1353.95" y1="694.51" x2="1386.99" y2="726.81" stroke-linecap="round" style="stroke:#FF0000;stroke-width:8.64"/>
	<line x1="1386.99" y1="726.81" x2="1419.91" y2="759.11" stroke-linecap="round" style="stroke:#FF0000;stroke-width:8.64"/>
	<line x1="1419.91" y1="759.11" x2="1452.95" y2="791.28" stroke-linecap="round" style="stroke:#FF0000;stroke-width:8.64"/>
	<line x1="1452.95" y1="791.28" x2="1485.99" y2="823.21" stroke-linecap="round" style="stroke:#FF0000;stroke-width:8.64"/>
	<line x1="1485.99" y1="823.21" x2="1518.91" y2="854.89" stroke-linecap="round" style="stroke:#FF0000;stroke-width:8.64"/>
	<line x1="1518.91" y1="854.89" x2="1551.95" y2="886.33" stroke-linecap="round" style="stroke:#FF0000;stroke-width:8.64"/>
	<line x1="1551.95" y1="886.33" x2="1584.99" y2="917.26" stroke-linecap="round" style="stroke:#FF0000;stroke-width:8.64"/>
	<line x1="1584.99" y1="917.26" x2="1617.91" y2="947.83" stroke-linecap="round" style="stroke:#FF0000;stroke-width:8.64"/>
	<line x1="1617.91" y1="947.83" x2="1650.95" y2="978.03" stroke-linecap="round" style="stroke:#FF0000;stroke-width:8.64"/>
	<line x1="1650.95" y1="978.03" x2="1683.87" y2="1007.60" stroke-linecap="round" style="stroke:#FF0000;stroke-width:8.64"/>
	<line x1="1683.87" y1="1007.60" x2="1716.91" y2="1036.81" stroke-linecap="round" style="stroke:#FF0000;stroke-width:8.64"/>
	<line x1="1716.91" y1="1036.81" x2="1749.95" y2="1065.52" stroke-linecap="round" style="stroke:#FF0000;stroke-width:8.64"/>
	<line x1="1749.95" y1="1065.52" x2="1782.87" y2="1093.61" stroke-linecap="round" style="stroke:#FF0000;stroke-width:8.64"/>
	<line x1="1782.87" y1="1093.61" x2="1815.91" y2="1121.21" stroke-linecap="round" style="stroke:#FF0000;stroke-width:8.64"/>
	<line x1="1815.91" y1="1121.21" x2="1848.95" y2="1148.19" stroke-linecap="round" style="stroke:#FF0000;stroke-width:8.64"/>
	<line x1="1848.95" y1="1148.19" x2="1881.87" y2="1174.67" stroke-linecap="round" style="stroke:#FF0000;stroke-width:8.64"/>
	<line x1="1881.87" y1="1174.67" x2="1914.91" y2="1200.66" stroke-linecap="round" style="stroke:#FF0000;stroke-width:8.64"/>
	<line x1="1914.91" y1="1200.66" x2="1947.95" y2="1226.15" stroke-linecap="round" style="stroke:#FF0000;stroke-width:8.64"/>
	<line x1="1947.95" y1="1226.15" x2="1980.87" y2="1251.15" stroke-linecap="round" style="stroke:#FF0000;stroke-width:8.64"/>
	<line x1="1980.87" y1="1251.15" x2="2013.91" y2="1275.65" stroke-linecap="round" style="stroke:#FF0000;stroke-width:8.64"/>
	<line x1="2013.91" y1="1275.65" x2="2046.83" y2="1299.79" stroke-linecap="round" style="stroke:#FF0000;stroke-width:8.64"/>
	<line x1="2046.83" y1="1299.79" x2="2079.87" y2="1323.42" stroke-linecap="round" style="stroke:#FF0000;stroke-width:8.64"/>
	<line x1="2079.87" y1="1323.42" x2="2112.91" y2="1346.69" stroke-linecap="round" style="stroke:#FF0000;stroke-width:8.64"/>
	<line x1="2112.91" y1="1346.69" x2="2145.82" y2="1369.58" stroke-linecap="round" style="stroke:#FF0000;stroke-width:8.64"/>
	<line x1="2145.82" y1="1369.58" x2="2178.87" y2="1392.11" stroke-linecap="round" style="stroke:#FF0000;stroke-width:8.64"/>
	<line x1="2178.87" y1="1392.11" x2="2211.91" y2="1414.26" stroke-linecap="round" style="stroke:#FF0000;stroke-width:8.64"/>
	<line x1="2211.91" y1="1414.26" x2="2244.82" y2="1436.04" stroke-linecap="round" style="stroke:#FF0000;stroke-width:8.64"/>
	<line x1="2244.82" y1="1436.04" x2="2277.87" y2="1457.57" stroke-linecap="round" style="stroke:#FF0000;stroke-width:8.64"/>
	<line x1="2277.87" y1="1457.57" x2="2310.91" y2="1478.73" stroke-linecap="round" style="stroke:#FF0000;stroke-width:8.64"/>
	<line x1="2310.91" y1="1478.73" x2="2343.82" y2="1499.65" stroke-linecap="round" style="stroke:#FF0000;stroke-width:8.64"/>
	<line x1="2343.82" y1="1499.65" x2="2376.87" y2="1520.32" stroke-linecap="round" style="stroke:#FF0000;stroke-width:8.64"/>
	<line x1="2376.87" y1="1520.32" x2="2409.78" y2="1540.61" stroke-linecap="round" style="stroke:#FF0000;stroke-width:8.64"/>
	<line x1="2409.78" y1="1540.61" x2="2442.82" y2="1560.78" stroke-linecap="round" style="stroke:#FF0000;stroke-width:8.64"/>
	<line x1="2442.82" y1="1560.78" x2="2475.87" y2="1580.58" stroke-linecap="round" style="stroke:#FF0000;stroke-width:8.64"/>
	<line x1="2475.87" y1="1580.58" x2="2508.78" y2="1600.14" stroke-linecap="round" style="stroke:#FF0000;stroke-width:8.64"/>
	<line x1="2508.78" y1="1600.14" x2="2541.82" y2="1619.57" stroke-linecap="round" style="stroke:#FF0000;stroke-width:8.64"/>
	<line x1="2541.82" y1="1619.57" x2="2574.87" y2="1638.75" stroke-linecap="round" style="stroke:#FF0000;stroke-width:8.64"/>
	<line x1="2574.87" y1="1638.75" x2="2607.78" y2="1657.68" stroke-linecap="round" style="stroke:#FF0000;stroke-width:8.64"/>
	<line x1="2607.78" y1="1657.68" x2="2640.82" y2="1676.37" stroke-linecap="round" style="stroke:#FF0000;stroke-width:8.64"/>
	<line x1="2640.82" y1="1676.37" x2="2673.74" y2="1694.81" stroke-linecap="round" style="stroke:#FF0000;stroke-width:8.64"/>
	<line x1="2673.74" y1="1694.81" x2="2706.78" y2="1713.12" stroke-linecap="round" style="stroke:#FF0000;stroke-width:8.64"/>
	<line x1="2706.78" y1="1713.12" x2="2739.82" y2="1731.19" stroke-linecap="round" style="stroke:#FF0000;stroke-width:8.64"/>
	<line x1="2739.82" y1="1731.19" x2="2772.74" y2="1749.14" stroke-linecap="round" style="stroke:#FF0000;stroke-width:8.64"/>
	<line x1="2772.74" y1="1749.14" x2="2805.78" y2="1766.83" stroke-linecap="round" style="stroke:#FF0000;stroke-width:8.64"/>
	<line x1="2805.78" y1="1766.83" x2="2838.82" y2="1784.41" stroke-linecap="round" style="stroke:#FF0000;stroke-width:8.64"/>
	<line x1="2838.82" y1="1784.41" x2="2871.74" y2="1801.73" stroke-linecap="round" style="stroke:#FF0000;stroke-width:8.64"/>
	<line x1="2871.74" y1="1801.73" x2="2904.78" y2="1818.93" stroke-linecap="round" style="stroke:#FF0000;stroke-width:8.64"/>
	<line x1="2904.78" y1="1818.93" x2="2937.82" y2="1835.89" stroke-linecap="round" style="stroke:#FF0000;stroke-width:8.64"/>
	<line x1="2937.82" y1="1835.89" x2="2970.74" y2="1852.72" stroke-linecap="round" style="stroke:#FF0000;stroke-width:8.64"/>
	<line x1="2970.74" y1="1852.72" x2="3003.78" y2="1869.43" stroke-linecap="round" style="stroke:#FF0000;stroke-width:8.64"/>
	<line x1="3003.78" y1="1869.43" x2="3036.70" y2="1885.89" stroke-linecap="round" style="stroke:#FF0000;stroke-width:8.64"/>
	<line x1="3036.70" y1="1885.89" x2="3069.74" y2="1902.22" stroke-linecap="round" style="stroke:#FF0000;stroke-width:8.64"/>
	<line x1="3069.74" y1="1902.22" x2="3102.78" y2="1918.43" stroke-linecap="round" style="stroke:#FF0000;stroke-width:8.64"/>
	<line x1="3102.78" y1="1918.43" x2="3135.70" y2="1934.52" stroke-linecap="round" style="stroke:#FF0000;stroke-width:8.64"/>
	<line x1="3135.70" y1="1934.52" x2="3168.74" y2="1950.36" stroke-linecap="round" style="stroke:#FF0000;stroke-width:8.64"/>
	<line x1="3168.74" y1="1950.36" x2="3201.78" y2="1966.08" stroke-linecap="round" style="stroke:#FF0000;stroke-width:8.64"/>
	<line x1="3201.78" y1="1966.08" x2="3234.70" y2="1981.67" stroke-linecap="round" style="stroke:#FF0000;stroke-width:8.64"/>
	<line x1="3234.70" y1="1981.67" x2="3267.74" y2="1997.14" stroke-linecap="round" style="stroke:#FF0000;stroke-width:8.64"/>
	<line x1="3267.74" y1="1997.14" x2="3300.78" y2="2012.49" stroke-linecap="round" style="stroke:#FF0000;stroke-width:8.64"/>
	<line x1="3300.78" y1="2012.49" x2="3333.70" y2="2027.71" stroke-linecap="round" style="stroke:#FF0000;stroke-width:8.64"/>
	<line x1="3333.70" y1="2027.71" x2="3366.74" y2="2042.81" stroke-linecap="round" style="stroke:#FF0000;stroke-width:8.64"/>
	<line x1="3366.74" y1="2042.81" x2="3399.66" y2="2057.66" stroke-linecap="round" style="stroke:#FF0000;stroke-width:8.64"/>
	<line x1="3399.66" y1="2057.66" x2="3432.70" y2="2072.51" stroke-linecap="round" style="stroke:#FF0000;stroke-width:8.64"/>
	<line x1="3432.70" y1="2072.51" x2="3465.74" y2="2087.23" stroke-linecap="round" style="stroke:#FF0000;stroke-width:8.64"/>
	<line x1="3465.74" y1="2087.23" x2="3498.66" y2="2101.71" stroke-linecap="round" style="stroke:#FF0000;stroke-width:8.64"/>
	<line x1="3498.66" y1="2101.71" x2="3531.70" y2="2116.19" stroke-linecap="round" style="stroke:#FF0000;stroke-width:8.64"/>
	<line x1="3531.70" y1="2116.19" x2="3564.74" y2="2130.55" stroke-linecap="round" style="stroke:#FF0000;stroke-width:8.64"/>
	<line x1="3564.74" y1="2130.55" x2="3597.66" y2="2144.78" stroke-linecap="round" style="stroke:#FF0000;stroke-width:8.64"/>
	<line x1="3597.66" y1="2144.78" x2="3630.70" y2="2158.89" stroke-linecap="round" style="stroke:#FF0000;stroke-width:8.64"/>
	<line x1="3630.70" y1="2158.89" x2="3663.62" y2="2172.87" stroke-linecap="round" style="stroke:#FF0000;stroke-width:8.64"/>
	<line x1="3663.62" y1="2172.87" x2="3696.66" y2="2186.73" stroke-linecap="round" style="stroke:#FF0000;stroke-width:8.64"/>
	<line x1="3696.66" y1="2186.73" x2="3729.70" y2="2200.47" stroke-linecap="round" style="stroke:#FF0000;stroke-width:8.64"/>
	<line x1="3729.70" y1="2200.47" x2="3762.62" y2="2214.20" stroke-linecap="round" style="stroke:#FF0000;stroke-width:8.64"/>
	<line x1="3762.62" y1="2214.20" x2="3795.66" y2="2227.82" stroke-linecap="round" style="stroke:#FF0000;stroke-width:8.64"/>
	<line x1="529.03" y1="164.35" x2="562.07" y2="164.59" stroke-linecap="round" style="stroke:#0000FF;stroke-width:8.64"/>
	<line x1="562.07" y1="164.59" x2="595.11" y2="166.08" stroke-linecap="round" style="stroke:#0000FF;stroke-width:8.64"/>
	<line x1="595.11" y1="166.08" x2="628.03" y2="169.05" stroke-linecap="round" style="stroke:#0000FF;stroke-width:8.64"/>
	<line x1="628.03" y1="169.05" x2="661.07" y2="173.87" stroke-linecap="round" style="stroke:#0000FF;stroke-width:8.64"/>
	<line x1="661.07" y1="173.87" x2="694.11" y2="180.68" stroke-linecap="round" style="stroke:#0000FF;stroke-width:8.64"/>
	<line x1="694.11" y1="180.68" x2="727.03" y2="189.34" stroke-linecap="round" style="stroke:#0000FF;stroke-width:8.64"/>
	<line x1="727.03" y1="189.34" x2="760.07" y2="199.99" stroke-linecap="round" style="stroke:#0000FF;stroke-width:8.64"/>
	<line x1="760.07" y1="199.99" x2="792.99" y2="212.36" stroke-linecap="round" style="stroke:#0000FF;stroke-width:8.64"/>
	<line x1="792.99" y1="212.36" x2="826.03" y2="226.47" stroke-linecap="round" style="stroke:#0000FF;stroke-width:8.64"/>
	<line x1="826.03" y1="226.47" x2="859.07" y2="242.19" stroke-linecap="round" style="stroke:#0000FF;stroke-width:8.64"/>
	<line x1="859.07" y1="242.19" x2="891.99" y2="259.39" stroke-linecap="round" style="stroke:#0000FF;stroke-width:8.64"/>
	<line x1="891.99" y1="259.39" x2="925.03" y2="277.95" stroke-linecap="round" style="stroke:#0000FF;stroke-width:8.64"/>
	<line x1="925.03" y1="277.95" x2="958.07" y2="297.75" stroke-linecap="round" style="stroke:#0000FF;stroke-width:8.64"/>
	<line x1="958.07" y1="297.75" x2="990.99" y2="318.54" stroke-linecap="round" style="stroke:#0000FF;stroke-width:8.64"/>
	<line x1="990.99" y1="318.54" x2="1024.03" y2="340.45" stroke-linecap="round" style="stroke:#0000FF;stroke-width:8.64"/>
	<line x1="1024.03" y1="340.45" x2="1056.95" y2="363.22" stroke-linecap="round" style="stroke:#0000FF;stroke-width:8.64"/>
	<line x1="1056.95" y1="363.22" x2="1089.99" y2="386.85" stroke-linecap="round" style="stroke:#0000FF;stroke-width:8.64"/>
	<line x1="1089.99" y1="386.85" x2="1123.03" y2="411.11" stroke-linecap="round" style="stroke:#0000FF;stroke-width:8.64"/>
	<line x1="1123.03" y1="411.11" x2="1155.95" y2="435.86" stroke-linecap="round" style="stroke:#0000FF;stroke-width:8.64"/>
	<line x1="1155.95" y1="435.86" x2="1188.99" y2="461.23" stroke-linecap="round" style="stroke:#0000FF;stroke-width:8.64"/>
	<line x1="1188.99" y1="461.23" x2="1222.03" y2="486.97" stroke-linecap="round" style="stroke:#0000FF;stroke-width:8.64"/>
	<line x1="1222.03" y1="486.97" x2="1254.95" y2="513.08" stroke-linecap="round" style="stroke:#0000FF;stroke-width:8.64"/>
	<line x1="1254.95" y1="513.08" x2="1287.99" y2="539.44" stroke-linecap="round" style="stroke:#0000FF;stroke-width:8.64"/>
	<line x1="1287.99" y1="539.44" x2="1321.03" y2="566.05" stroke-linecap="round" style="stroke:#0000FF;stroke-width:8.64"/>
	<line x1="1321.03" y1="566.05" x2="1353.95" y2="592.78" stroke-linecap="round" style="stroke:#0000FF;stroke-width:8.64"/>
	<line x1="1353.95" y1="592.78" x2="1386.99" y2="619.51" stroke-linecap="round" style="stroke:#0000FF;stroke-width:8.64"/>
	<line x1="1386.99" y1="619.51" x2="1419.91" y2="646.37" stroke-linecap="round" style="stroke:#0000FF;stroke-width:8.64"/>
	<line x1="1419.91" y1="646.37" x2="1452.95" y2="673.10" stroke-linecap="round" style="stroke:#0000FF;stroke-width:8.64"/>
	<line x1="1452.95" y1="673.10" x2="1485.99" y2="699.70" stroke-linecap="round" style="stroke:#0000FF;stroke-width:8.64"/>
	<line x1="1485.99" y1="699.70" x2="1518.91" y2="726.19" stroke-linecap="round" style="stroke:#0000FF;stroke-width:8.64"/>
	<line x1="1518.91" y1="726.19" x2="1551.95" y2="752.42" stroke-linecap="round" style="stroke:#0000FF;stroke-width:8.64"/>
	<line x1="1551.95" y1="752.42" x2="1584.99" y2="778.54" stroke-linecap="round" style="stroke:#0000FF;stroke-width:8.64"/>
	<line x1="1584.99" y1="778.54" x2="1617.91" y2="804.28" stroke-linecap="round" style="stroke:#0000FF;stroke-width:8.64"/>
	<line x1="1617.91" y1="804.28" x2="1650.95" y2="829.65" stroke-linecap="round" style="stroke:#0000FF;stroke-width:8.64"/>
	<line x1="1650.95" y1="829.65" x2="1683.87" y2="854.77" stroke-linecap="round" style="stroke:#0000FF;stroke-width:8.64"/>
	<line x1="1683.87" y1="854.77" x2="1716.91" y2="879.52" stroke-linecap="round" style="stroke:#0000FF;stroke-width:8.64"/>
	<line x1="1716.91" y1="879.52" x2="1749.95" y2="903.90" stroke-linecap="round" style="stroke:#0000FF;stroke-width:8.64"/>
	<line x1="1749.95" y1="903.90" x2="1782.87" y2="927.91" stroke-linecap="round" style="stroke:#0000FF;stroke-width:8.64"/>
	<line x1="1782.87" y1="927.91" x2="1815.91" y2="951.42" stroke-linecap="round" style="stroke:#0000FF;stroke-width:8.64"/>
	<line x1="1815.91" y1="951.42" x2="1848.95" y2="974.56" stroke-linecap="round" style="stroke:#0000FF;stroke-width:8.64"/>
	<line x1="1848.95" y1="974.56" x2="1881.87" y2="997.33" stroke-linecap="round" style="stroke:#0000FF;stroke-width:8.64"/>
	<line x1="1881.87" y1="997.33" x2="1914.91" y2="1019.61" stroke-linecap="round" style="stroke:#0000FF;stroke-width:8.64"/>
	<line x1="1914.91" y1="1019.61" x2="1947.95" y2="1041.51" stroke-linecap="round" style="stroke:#0000FF;stroke-width:8.64"/>
	<line x1="1947.95" y1="1041.51" x2="1980.87" y2="1063.17" stroke-linecap="round" style="stroke:#0000FF;stroke-width:8.64"/>
	<line x1="1980.87" y1="1063.17" x2="2013.91" y2="1084.33" stroke-linecap="round" style="stroke:#0000FF;stroke-width:8.64"/>
	<line x1="2013.91" y1="1084.33" x2="2046.83" y2="1105.25" stroke-linecap="round" style="stroke:#0000FF;stroke-width:8.64"/>
	<line x1="2046.83" y1="1105.25" x2="2079.87" y2="1125.79" stroke-linecap="round" style="stroke:#0000FF;stroke-width:8.64"/>
	<line x1="2079.87" y1="1125.79" x2="2112.91" y2="1146.08" stroke-linecap="round" style="stroke:#0000FF;stroke-width:8.64"/>
	<line x1="2112.91" y1="1146.08" x2="2145.82" y2="1166.01" stroke-linecap="round" style="stroke:#0000FF;stroke-width:8.64"/>
	<line x1="2145.82" y1="1166.01" x2="2178.87" y2="1185.69" stroke-linecap="round" style="stroke:#0000FF;stroke-width:8.64"/>
	<line x1="2178.87" y1="1185.69" x2="2211.91" y2="1204.99" stroke-linecap="round" style="stroke:#0000FF;stroke-width:8.64"/>
	<line x1="2211.91" y1="1204.99" x2="2244.82" y2="1224.17" stroke-linecap="round" style="stroke:#0000FF;stroke-width:8.64"/>
	<line x1="2244.82" y1="1224.17" x2="2277.87" y2="1242.98" stroke-linecap="round" style="stroke:#0000FF;stroke-width:8.64"/>
	<line x1="2277.87" y1="1242.98" x2="2310.91" y2="1261.67" stroke-linecap="round" style="stroke:#0000FF;stroke-width:8.64"/>
	<line x1="2310.91" y1="1261.67" x2="2343.82" y2="1279.99" stroke-linecap="round" style="stroke:#0000FF;stroke-width:8.64"/>
	<line x1="2343.82" y1="1279.99" x2="2376.87" y2="1298.18" stroke-linecap="round" style="stroke:#0000FF;stroke-width:8.64"/>
	<line x1="2376.87" y1="1298.18" x2="2409.78" y2="1316.12" stroke-linecap="round" style="stroke:#0000FF;stroke-width:8.64"/>
	<line x1="2409.78" y1="1316.12" x2="2442.82" y2="1333.94" stroke-linecap="round" style="stroke:#0000FF;stroke-width:8.64"/>
	<line x1="2442.82" y1="1333.94" x2="2475.87" y2="1351.52" stroke-linecap="round" style="stroke:#0000FF;stroke-width:8.64"/>
	<line x1="2475.87" y1="1351.52" x2="2508.78" y2="1368.84" stroke-linecap="round" style="stroke:#0000FF;stroke-width:8.64"/>
	<line x1="2508.78" y1="1368.84" x2="2541.82" y2="1386.17" stroke-linecap="round" style="stroke:#0000FF;stroke-width:8.64"/>
	<line x1="2541.82" y1="1386.17" x2="2574.87" y2="1403.12" stroke-linecap="round" style="stroke:#0000FF;stroke-width:8.64"/>
	<line x1="2574.87" y1="1403.12" x2="2607.78" y2="1420.08" stroke-linecap="round" style="stroke:#0000FF;stroke-width:8.64"/>
	<line x1="2607.78" y1="1420.08" x2="2640.82" y2="1436.78" stroke-linecap="round" style="stroke:#0000FF;stroke-width:8.64"/>
	<line x1="2640.82" y1="1436.78" x2="2673.74" y2="1453.24" stroke-linecap="round" style="stroke:#0000FF;stroke-width:8.64"/>
	<line x1="2673.74" y1="1453.24" x2="2706.78" y2="1469.70" stroke-linecap="round" style="stroke:#0000FF;stroke-width:8.64"/>
	<line x1="2706.78" y1="1469.70" x2="2739.82" y2="1485.91" stroke-linecap="round" style="stroke:#0000FF;stroke-width:8.64"/>
	<line x1="2739.82" y1="1485.91" x2="2772.74" y2="1501.88" stroke-linecap="round" style="stroke:#0000FF;stroke-width:8.64"/>
	<line x1="2772.74" y1="1501.88" x2="2805.78" y2="1517.84" stroke-linecap="round" style="stroke:#0000FF;stroke-width:8.64"/>
	<line x1="2805.78" y1="1517.84" x2="2838.82" y2="1533.68" stroke-linecap="round" style="stroke:#0000FF;stroke-width:8.64"/>
	<line x1="2838.82" y1="1533.68" x2="2871.74" y2="1549.27" stroke-linecap="round" style="stroke:#0000FF;stroke-width:8.64"/>
	<line x1="2871.74" y1="1549.27" x2="2904.78" y2="1564.74" stroke-linecap="round" style="stroke:#0000FF;stroke-width:8.64"/>
	<line x1="2904.78" y1="1564.74" x2="2937.82" y2="1580.09" stroke-linecap="round" style="stroke:#0000FF;stroke-width:8.64"/>
	<line x1="2937.82" y1="1580.09" x2="2970.74" y2="1595.31" stroke-linecap="round" style="stroke:#0000FF;stroke-width:8.64"/>
	<line x1="2970.74" y1="1595.31" x2="3003.78" y2="1610.41" stroke-linecap="round" style="stroke:#0000FF;stroke-width:8.64"/>
	<line x1="3003.78" y1="1610.41" x2="3036.70" y2="1625.38" stroke-linecap="round" style="stroke:#0000FF;stroke-width:8.64"/>
	<line x1="3036.70" y1="1625.38" x2="3069.74" y2="1640.23" stroke-linecap="round" style="stroke:#0000FF;stroke-width:8.64"/>
	<line x1="3069.74" y1="1640.23" x2="3102.78" y2="1654.96" stroke-linecap="round" style="stroke:#0000FF;stroke-width:8.64"/>
	<line x1="3102.78" y1="1654.96" x2="3135.70" y2="1669.56" stroke-linecap="round" style="stroke:#0000FF;stroke-width:8.64"/>
	<line x1="3135.70" y1="1669.56" x2="3168.74" y2="1684.04" stroke-linecap="round" style="stroke:#0000FF;stroke-width:8.64"/>
	<line x1="3168.74" y1="1684.04" x2="3201.78" y2="1698.40" stroke-linecap="round" style="stroke:#0000FF;stroke-width:8.64"/>
	<line x1="3201.78" y1="1698.40" x2="3234.70" y2="1712.63" stroke-linecap="round" style="stroke:#0000FF;stroke-width:8.64"/>
	<line x1="3234.70" y1="1712.63" x2="3267.74" y2="1726.86" stroke-linecap="round" style="stroke:#0000FF;stroke-width:8.64"/>
	<line x1="3267.74" y1="1726.86" x2="3300.78" y2="1740.85" stroke-linecap="round" style="stroke:#0000FF;stroke-width:8.64"/>
	<line x1="3300.78" y1="1740.85" x2="3333.70" y2="1754.71" stroke-linecap="round" style="stroke:#0000FF;stroke-width:8.64"/>
	<line x1="3333.70" y1="1754.71" x2="3366.74" y2="1768.57" stroke-linecap="round" style="stroke:#0000FF;stroke-width:8.64"/>
	<line x1="3366.74" y1="1768.57" x2="3399.66" y2="1782.30" stroke-linecap="round" style="stroke:#0000FF;stroke-width:8.64"/>
	<line x1="3399.66" y1="1782.30" x2="3432.70" y2="1795.92" stroke-linecap="round" style="stroke:#0000FF;stroke-width:8.64"/>
	<line x1="3432.70" y1="1795.92" x2="3465.74" y2="1809.41" stroke-linecap="round" style="stroke:#0000FF;stroke-width:8.64"/>
	<line x1="3465.74" y1="1809.41" x2="3498.66" y2="1822.89" stroke-linecap="round" style="stroke:#0000FF;stroke-width:8.64"/>
	<line x1="3498.66" y1="1822.89" x2="3531.70" y2="1836.26" stroke-linecap="round" style="stroke:#0000FF;stroke-width:8.64"/>
	<line x1="3531.70" y1="1836.26" x2="3564.74" y2="1849.50" stroke-linecap="round" style="stroke:#0000FF;stroke-width:8.64"/>
	<line x1="3564.74" y1="1849.50" x2="3597.66" y2="1862.62" stroke-linecap="round" style="stroke:#0000FF;stroke-width:8.64"/>
	<line x1="3597.66" y1="1862.62" x2="3630.70" y2="1875.74" stroke-linecap="round" style="stroke:#0000FF;stroke-width:8.64"/>
	<line x1="3630.70" y1="1875.74" x2="3663.62" y2="1888.61" stroke-linecap="round" style="stroke:#0000FF;stroke-width:8.64"/>
	<line x1="3663.62" y1="1888.61" x2="3696.66" y2="1901.60" stroke-linecap="round" style="stroke:#0000FF;stroke-width:8.64"/>
	<line x1="3696.66" y1="1901.60" x2="3729.70" y2="1914.35" stroke-linecap="round" style="stroke:#0000FF;stroke-width:8.64"/>
	<line x1="3729.70" y1="1914.35" x2="3762.62" y2="1927.10" stroke-linecap="round" style="stroke:#0000FF;stroke-width:8.64"/>
	<line x1="3762.62" y1="1927.10" x2="3795.66" y2="1939.72" stroke-linecap="round" style="stroke:#0000FF;stroke-width:8.64"/>
	<line x1="465.80" y1="2489.19" x2="465.80" y2="100.86" style="stroke:#000000;stroke-width:5.76"/>
	<line x1="465.80" y1="2425.82" x2="425.82" y2="2425.82" style="stroke:#000000;stroke-width:5.76"/>
	<text x="405.78" y="2460.85" style="font-family:'Helvetica';font-size:99.99px;fill:#000000" text-anchor="end">0.5</text>
	<line x1="465.80" y1="1973.50" x2="425.82" y2="1973.50" style="stroke:#000000;stroke-width:5.76"/>
	<text x="405.78" y="2008.53" style="font-family:'Helvetica';font-size:99.99px;fill:#000000" text-anchor="end">0.6</text>
	<line x1="465.80" y1="1521.18" x2="425.82" y2="1521.18" style="stroke:#000000;stroke-width:5.76"/>
	<text x="405.78" y="1556.21" style="font-family:'Helvetica';font-size:99.99px;fill:#000000" text-anchor="end">0.7</text>
	<line x1="465.80" y1="1068.86" x2="425.82" y2="1068.86" style="stroke:#000000;stroke-width:5.76"/>
	<text x="405.78" y="1103.89" style="font-family:'Helvetica';font-size:99.99px;fill:#000000" text-anchor="end">0.8</text>
	<line x1="465.80" y1="616.54" x2="425.82" y2="616.54" style="stroke:#000000;stroke-width:5.76"/>
	<text x="405.78" y="651.57" style="font-family:'Helvetica';font-size:99.99px;fill:#000000" text-anchor="end">0.9</text>
	<line x1="465.80" y1="164.22" x2="425.82" y2="164.22" style="stroke:#000000;stroke-width:5.76"/>
	<text x="405.78" y="199.25" style="font-family:'Helvetica';font-size:99.99px;fill:#000000" text-anchor="end">1.0</text>
	<text x="190.71" y="1294.96" style="font-family:'Helvetica';font-size:99.99px;fill:#000000" transform="rotate(-90 190.71,1294.96)" text-anchor="middle">S(t)</text>
	<line x1="465.80" y1="2489.19" x2="3859.02" y2="2489.19" style="stroke:#000000;stroke-width:5.76"/>
	<line x1="529.15" y1="2489.19" x2="529.15" y2="2529.16" style="stroke:#000000;stroke-width:5.76"/>
	<text x="529.15" y="2619.14" style="font-family:'Helvetica';font-size:99.99px;fill:#000000" text-anchor="middle">0</text>
	<line x1="1182.43" y1="2489.19" x2="1182.43" y2="2529.16" style="stroke:#000000;stroke-width:5.76"/>
	<text x="1182.43" y="2619.14" style="font-family:'Helvetica';font-size:99.99px;fill:#000000" text-anchor="middle">2</text>
	<line x1="1835.83" y1="2489.19" x2="1835.83" y2="2529.16" style="stroke:#000000;stroke-width:5.76"/>
	<text x="1835.83" y="2619.14" style="font-family:'Helvetica';font-size:99.99px;fill:#000000" text-anchor="middle">4</text>
	<line x1="2489.11" y1="2489.19" x2="2489.11" y2="2529.16" style="stroke:#000000;stroke-width:5.76"/>
	<text x="2489.11" y="2619.14" style="font-family:'Helvetica';font-size:99.99px;fill:#000000" text-anchor="middle">6</text>
	<line x1="3142.38" y1="2489.19" x2="3142.38" y2="2529.16" style="stroke:#000000;stroke-width:5.76"/>
	<text x="3142.38" y="2619.14" style="font-family:'Helvetica';font-size:99.99px;fill:#000000" text-anchor="middle">8</text>
	<line x1="3795.78" y1="2489.19" x2="3795.78" y2="2529.16" style="stroke:#000000;stroke-width:5.76"/>
	<text x="3795.78" y="2619.14" style="font-family:'Helvetica';font-size:99.99px;fill:#000000" text-anchor="middle">10</text>
	<text x="2162.41" y="2729.16" style="font-family:'Helvetica';font-size:99.99px;fill:#000000" text-anchor="middle">Years from surgery</text>
	<rect x="2236.29" y="135.39" width="1588.21" height="326.34" style="fill:#FFFFFF"/>
	<rect x="2239.17" y="138.27" width="1582.45" height="320.58" style="fill:none;stroke:#000000;stroke-width:5.76"/>
	<rect x="2279.47" y="178.58" width="374.34" height="99.99" style="fill:#FF3333;fill-opacity:0.25"/>
	<rect x="2283.79" y="182.90" width="365.70" height="91.35" style="fill:none;stroke:#FF0000;stroke-opacity:0.25;stroke-width:8.64"/>
	<rect x="2279.47" y="318.54" width="374.34" height="99.99" style="fill:#3333FF;fill-opacity:0.25"/>
	<rect x="2283.79" y="322.86" width="365.70" height="91.35" style="fill:none;stroke:#0000FF;stroke-opacity:0.25;stroke-width:8.64"/>
	<text x="2713.84" y="263.60" style="font-family:'Helvetica';font-size:99.99px;fill:#000000">No hormonal treatment</text>
	<text x="2713.84" y="403.57" style="font-family:'Helvetica';font-size:99.99px;fill:#000000">Hormonal treatment</text>
</svg>
