<?xml version="1.0" encoding="UTF-8" standalone="no"?>
<!-- This is a Stata 15.0 generated SVG file (http://www.stata.com) -->

<svg version="1.1" width="700px" height="509px" viewBox="0 0 3960 2880" xmlns="http://www.w3.org/2000/svg" xmlns:xlink="http://www.w3.org/1999/xlink">
	<desc>Stata Graph - Graph</desc>
	<rect x="0" y="0" width="3960" height="2880" style="fill:#EAF2F3;stroke:none"/>
	<rect x="0.00" y="0.00" width="3959.88" height="2880.00" style="fill:#EAF2F3"/>
	<rect x="2.88" y="2.88" width="3954.12" height="2874.24" style="fill:none;stroke:#EAF2F3;stroke-width:5.76"/>
	<rect x="524.08" y="100.86" width="3334.94" height="2388.33" style="fill:#FFFFFF"/>
	<rect x="526.96" y="103.74" width="3329.18" height="2382.57" style="fill:none;stroke:#FFFFFF;stroke-width:5.76"/>
	<line x1="524.08" y1="2425.82" x2="3859.02" y2="2425.82" style="stroke:#EAF2F3;stroke-width:8.64"/>
	<line x1="524.08" y1="1715.60" x2="3859.02" y2="1715.60" style="stroke:#EAF2F3;stroke-width:8.64"/>
	<line x1="524.08" y1="1005.25" x2="3859.02" y2="1005.25" style="stroke:#EAF2F3;stroke-width:8.64"/>
	<line x1="524.08" y1="295.03" x2="3859.02" y2="295.03" style="stroke:#EAF2F3;stroke-width:8.64"/>
	<defs>
		<path id="path1" d="M587.44 2425.82 L587.44 2425.82 L619.86 2425.20 L652.29 2422.36 L684.71 2416.05 L717.13 2406.02 L749.55 2392.04 L781.85 2374.09 L814.27 2352.44 L846.70 2327.19 L879.12 2298.60 L911.54 2267.05 L943.97 2232.89 L976.39 2196.38 L1008.81 2157.65 L1041.11 2117.30 L1073.53 2075.48 L1105.95 2032.53 L1138.38 1988.60 L1170.80 1943.93 L1203.22 1898.76 L1235.64 1853.34 L1268.07 1807.80 L1300.37 1762.26 L1332.79 1716.96 L1365.21 1672.04 L1397.63 1627.49 L1430.06 1583.55 L1462.48 1540.24 L1494.90 1497.67 L1527.20 1455.96 L1559.62 1415.13 L1592.04 1375.28 L1624.47 1336.29 L1656.89 1298.43 L1689.31 1261.55 L1721.73 1225.78 L1754.16 1191.01 L1786.45 1157.35 L1818.88 1124.80 L1851.30 1093.12 L1883.72 1062.67 L1916.15 1033.10 L1948.57 1004.39 L1980.99 976.67 L2013.41 949.81 L2045.71 923.82 L2078.13 898.58 L2110.56 874.07 L2142.98 850.19 L2175.40 827.05 L2207.82 804.65 L2240.25 782.74 L2272.67 761.58 L2304.97 740.79 L2337.39 720.62 L2369.81 701.07 L2402.24 681.88 L2434.66 663.20 L2467.08 645.01 L2499.50 627.18 L2531.93 609.86 L2564.22 592.90 L2596.65 576.45 L2629.07 560.23 L2661.49 544.39 L2693.91 529.05 L2726.34 513.95 L2758.76 499.22 L2791.06 484.74 L2823.48 470.64 L2855.90 456.90 L2888.32 443.41 L2920.75 430.29 L2953.17 417.42 L2985.59 404.80 L3018.01 392.55 L3050.31 380.42 L3082.74 368.66 L3115.16 357.15 L3147.58 345.89 L3180.00 334.75 L3212.43 323.99 L3244.85 313.47 L3277.27 303.07 L3309.57 292.93 L3341.99 283.03 L3374.42 273.25 L3406.84 263.84 L3439.26 254.44 L3471.68 245.40 L3504.11 236.49 L3536.53 227.71 L3568.83 219.17 L3601.25 210.75 L3633.67 202.59 L3666.09 194.54 L3698.52 186.74 L3730.94 179.07 L3763.36 171.52 L3795.66 164.22 L3795.66 164.22 L3763.36 171.52 L3730.94 179.07 L3698.52 186.74 L3666.09 194.54 L3633.67 202.59 L3601.25 210.75 L3568.83 219.17 L3536.53 227.71 L3504.11 236.49 L3471.68 245.40 L3439.26 254.44 L3406.84 263.84 L3374.42 273.25 L3341.99 283.03 L3309.57 292.93 L3277.27 303.07 L3244.85 313.47 L3212.43 323.99 L3180.00 334.75 L3147.58 345.89 L3115.16 357.15 L3082.74 368.66 L3050.31 380.42 L3018.01 392.55 L2985.59 404.80 L2953.17 417.42 L2920.75 430.29 L2888.32 443.41 L2855.90 456.90 L2823.48 470.64 L2791.06 484.74 L2758.76 499.22 L2726.34 513.95 L2693.91 529.05 L2661.49 544.39 L2629.07 560.23 L2596.65 576.45 L2564.22 592.90 L2531.93 609.86 L2499.50 627.18 L2467.08 645.01 L2434.66 663.20 L2402.24 681.88 L2369.81 701.07 L2337.39 720.62 L2304.97 740.79 L2272.67 761.58 L2240.25 782.74 L2207.82 804.65 L2175.40 827.05 L2142.98 850.19 L2110.56 874.07 L2078.13 898.58 L2045.71 923.82 L2013.41 949.81 L1980.99 976.67 L1948.57 1004.39 L1916.15 1033.10 L1883.72 1062.67 L1851.30 1093.12 L1818.88 1124.80 L1786.45 1157.35 L1754.16 1191.01 L1721.73 1225.78 L1689.31 1261.55 L1656.89 1298.43 L1624.47 1336.29 L1592.04 1375.28 L1559.62 1415.13 L1527.20 1455.96 L1494.90 1497.67 L1462.48 1540.24 L1430.06 1583.55 L1397.63 1627.49 L1365.21 1672.04 L1332.79 1716.96 L1300.37 1762.26 L1268.07 1807.80 L1235.64 1853.34 L1203.22 1898.76 L1170.80 1943.93 L1138.38 1988.60 L1105.95 2032.53 L1073.53 2075.48 L1041.11 2117.30 L1008.81 2157.65 L976.39 2196.38 L943.97 2232.89 L911.54 2267.05 L879.12 2298.60 L846.70 2327.19 L814.27 2352.44 L781.85 2374.09 L749.55 2392.04 L717.13 2406.02 L684.71 2416.05 L652.29 2422.36 L619.86 2425.20 L587.44 2425.82 L587.44 2425.82 Z" stroke-linecap="round"/>
	</defs>
	<defs>
		<clipPath id="clipPath1">
			<use xlink:href="#path1"/>
		</clipPath>
	</defs>
	<use xlink:href="#path1" style="stroke:none;fill:#FF3333;fill-opacity:0.25"/>
	<use xlink:href="#path1" style="fill:none;stroke:#FF0000;stroke-opacity:0.25;stroke-width:17.28" clip-path="url(#clipPath1)"/>
	<line x1="587.44" y1="2425.95" x2="619.86" y2="2425.33" stroke-linecap="round" style="stroke:#FF0000;stroke-width:8.64"/>
	<line x1="619.86" y1="2425.33" x2="652.16" y2="2422.36" stroke-linecap="round" style="stroke:#FF0000;stroke-width:8.64"/>
	<line x1="652.16" y1="2422.36" x2="684.59" y2="2416.17" stroke-linecap="round" style="stroke:#FF0000;stroke-width:8.64"/>
	<line x1="684.59" y1="2416.17" x2="717.01" y2="2406.02" stroke-linecap="round" style="stroke:#FF0000;stroke-width:8.64"/>
	<line x1="717.01" y1="2406.02" x2="749.43" y2="2392.04" stroke-linecap="round" style="stroke:#FF0000;stroke-width:8.64"/>
	<line x1="749.43" y1="2392.04" x2="781.85" y2="2374.22" stroke-linecap="round" style="stroke:#FF0000;stroke-width:8.64"/>
	<line x1="781.85" y1="2374.22" x2="814.27" y2="2352.44" stroke-linecap="round" style="stroke:#FF0000;stroke-width:8.64"/>
	<line x1="814.27" y1="2352.44" x2="846.70" y2="2327.19" stroke-linecap="round" style="stroke:#FF0000;stroke-width:8.64"/>
	<line x1="846.70" y1="2327.19" x2="879.12" y2="2298.73" stroke-linecap="round" style="stroke:#FF0000;stroke-width:8.64"/>
	<line x1="879.12" y1="2298.73" x2="911.42" y2="2267.17" stroke-linecap="round" style="stroke:#FF0000;stroke-width:8.64"/>
	<line x1="911.42" y1="2267.17" x2="943.84" y2="2233.01" stroke-linecap="round" style="stroke:#FF0000;stroke-width:8.64"/>
	<line x1="943.84" y1="2233.01" x2="976.26" y2="2196.38" stroke-linecap="round" style="stroke:#FF0000;stroke-width:8.64"/>
	<line x1="976.26" y1="2196.38" x2="1008.69" y2="2157.77" stroke-linecap="round" style="stroke:#FF0000;stroke-width:8.64"/>
	<line x1="1008.69" y1="2157.77" x2="1041.11" y2="2117.43" stroke-linecap="round" style="stroke:#FF0000;stroke-width:8.64"/>
	<line x1="1041.11" y1="2117.43" x2="1073.53" y2="2075.60" stroke-linecap="round" style="stroke:#FF0000;stroke-width:8.64"/>
	<line x1="1073.53" y1="2075.60" x2="1105.95" y2="2032.53" stroke-linecap="round" style="stroke:#FF0000;stroke-width:8.64"/>
	<line x1="1105.95" y1="2032.53" x2="1138.38" y2="1988.60" stroke-linecap="round" style="stroke:#FF0000;stroke-width:8.64"/>
	<line x1="1138.38" y1="1988.60" x2="1170.68" y2="1943.93" stroke-linecap="round" style="stroke:#FF0000;stroke-width:8.64"/>
	<line x1="1170.68" y1="1943.93" x2="1203.10" y2="1898.88" stroke-linecap="round" style="stroke:#FF0000;stroke-width:8.64"/>
	<line x1="1203.10" y1="1898.88" x2="1235.52" y2="1853.34" stroke-linecap="round" style="stroke:#FF0000;stroke-width:8.64"/>
	<line x1="1235.52" y1="1853.34" x2="1267.94" y2="1807.92" stroke-linecap="round" style="stroke:#FF0000;stroke-width:8.64"/>
	<line x1="1267.94" y1="1807.92" x2="1300.37" y2="1762.38" stroke-linecap="round" style="stroke:#FF0000;stroke-width:8.64"/>
	<line x1="1300.37" y1="1762.38" x2="1332.79" y2="1717.08" stroke-linecap="round" style="stroke:#FF0000;stroke-width:8.64"/>
	<line x1="1332.79" y1="1717.08" x2="1365.21" y2="1672.04" stroke-linecap="round" style="stroke:#FF0000;stroke-width:8.64"/>
	<line x1="1365.21" y1="1672.04" x2="1397.51" y2="1627.61" stroke-linecap="round" style="stroke:#FF0000;stroke-width:8.64"/>
	<line x1="1397.51" y1="1627.61" x2="1429.93" y2="1583.55" stroke-linecap="round" style="stroke:#FF0000;stroke-width:8.64"/>
	<line x1="1429.93" y1="1583.55" x2="1462.35" y2="1540.24" stroke-linecap="round" style="stroke:#FF0000;stroke-width:8.64"/>
	<line x1="1462.35" y1="1540.24" x2="1494.78" y2="1497.79" stroke-linecap="round" style="stroke:#FF0000;stroke-width:8.64"/>
	<line x1="1494.78" y1="1497.79" x2="1527.20" y2="1456.09" stroke-linecap="round" style="stroke:#FF0000;stroke-width:8.64"/>
	<line x1="1527.20" y1="1456.09" x2="1559.62" y2="1415.25" stroke-linecap="round" style="stroke:#FF0000;stroke-width:8.64"/>
	<line x1="1559.62" y1="1415.25" x2="1592.04" y2="1375.28" stroke-linecap="round" style="stroke:#FF0000;stroke-width:8.64"/>
	<line x1="1592.04" y1="1375.28" x2="1624.47" y2="1336.42" stroke-linecap="round" style="stroke:#FF0000;stroke-width:8.64"/>
	<line x1="1624.47" y1="1336.42" x2="1656.77" y2="1298.55" stroke-linecap="round" style="stroke:#FF0000;stroke-width:8.64"/>
	<line x1="1656.77" y1="1298.55" x2="1689.19" y2="1261.67" stroke-linecap="round" style="stroke:#FF0000;stroke-width:8.64"/>
	<line x1="1689.19" y1="1261.67" x2="1721.61" y2="1225.91" stroke-linecap="round" style="stroke:#FF0000;stroke-width:8.64"/>
	<line x1="1721.61" y1="1225.91" x2="1754.03" y2="1191.13" stroke-linecap="round" style="stroke:#FF0000;stroke-width:8.64"/>
	<line x1="1754.03" y1="1191.13" x2="1786.45" y2="1157.47" stroke-linecap="round" style="stroke:#FF0000;stroke-width:8.64"/>
	<line x1="1786.45" y1="1157.47" x2="1818.88" y2="1124.80" stroke-linecap="round" style="stroke:#FF0000;stroke-width:8.64"/>
	<line x1="1818.88" y1="1124.80" x2="1851.30" y2="1093.24" stroke-linecap="round" style="stroke:#FF0000;stroke-width:8.64"/>
	<line x1="1851.30" y1="1093.24" x2="1883.72" y2="1062.67" stroke-linecap="round" style="stroke:#FF0000;stroke-width:8.64"/>
	<line x1="1883.72" y1="1062.67" x2="1916.02" y2="1033.10" stroke-linecap="round" style="stroke:#FF0000;stroke-width:8.64"/>
	<line x1="1916.02" y1="1033.10" x2="1948.44" y2="1004.51" stroke-linecap="round" style="stroke:#FF0000;stroke-width:8.64"/>
	<line x1="1948.44" y1="1004.51" x2="1980.87" y2="976.79" stroke-linecap="round" style="stroke:#FF0000;stroke-width:8.64"/>
	<line x1="1980.87" y1="976.79" x2="2013.29" y2="949.93" stroke-linecap="round" style="stroke:#FF0000;stroke-width:8.64"/>
	<line x1="2013.29" y1="949.93" x2="2045.71" y2="923.82" stroke-linecap="round" style="stroke:#FF0000;stroke-width:8.64"/>
	<line x1="2045.71" y1="923.82" x2="2078.13" y2="898.58" stroke-linecap="round" style="stroke:#FF0000;stroke-width:8.64"/>
	<line x1="2078.13" y1="898.58" x2="2110.56" y2="874.07" stroke-linecap="round" style="stroke:#FF0000;stroke-width:8.64"/>
	<line x1="2110.56" y1="874.07" x2="2142.98" y2="850.31" stroke-linecap="round" style="stroke:#FF0000;stroke-width:8.64"/>
	<line x1="2142.98" y1="850.31" x2="2175.28" y2="827.17" stroke-linecap="round" style="stroke:#FF0000;stroke-width:8.64"/>
	<line x1="2175.28" y1="827.17" x2="2207.70" y2="804.65" stroke-linecap="round" style="stroke:#FF0000;stroke-width:8.64"/>
	<line x1="2207.70" y1="804.65" x2="2240.12" y2="782.87" stroke-linecap="round" style="stroke:#FF0000;stroke-width:8.64"/>
	<line x1="2240.12" y1="782.87" x2="2272.55" y2="761.58" stroke-linecap="round" style="stroke:#FF0000;stroke-width:8.64"/>
	<line x1="2272.55" y1="761.58" x2="2304.97" y2="740.91" stroke-linecap="round" style="stroke:#FF0000;stroke-width:8.64"/>
	<line x1="2304.97" y1="740.91" x2="2337.39" y2="720.74" stroke-linecap="round" style="stroke:#FF0000;stroke-width:8.64"/>
	<line x1="2337.39" y1="720.74" x2="2369.81" y2="701.07" stroke-linecap="round" style="stroke:#FF0000;stroke-width:8.64"/>
	<line x1="2369.81" y1="701.07" x2="2402.24" y2="682.01" stroke-linecap="round" style="stroke:#FF0000;stroke-width:8.64"/>
	<line x1="2402.24" y1="682.01" x2="2434.53" y2="663.32" stroke-linecap="round" style="stroke:#FF0000;stroke-width:8.64"/>
	<line x1="2434.53" y1="663.32" x2="2466.96" y2="645.13" stroke-linecap="round" style="stroke:#FF0000;stroke-width:8.64"/>
	<line x1="2466.96" y1="645.13" x2="2499.38" y2="627.31" stroke-linecap="round" style="stroke:#FF0000;stroke-width:8.64"/>
	<line x1="2499.38" y1="627.31" x2="2531.80" y2="609.98" stroke-linecap="round" style="stroke:#FF0000;stroke-width:8.64"/>
	<line x1="2531.80" y1="609.98" x2="2564.22" y2="593.03" stroke-linecap="round" style="stroke:#FF0000;stroke-width:8.64"/>
	<line x1="2564.22" y1="593.03" x2="2596.65" y2="576.45" stroke-linecap="round" style="stroke:#FF0000;stroke-width:8.64"/>
	<line x1="2596.65" y1="576.45" x2="2629.07" y2="560.23" stroke-linecap="round" style="stroke:#FF0000;stroke-width:8.64"/>
	<line x1="2629.07" y1="560.23" x2="2661.37" y2="544.52" stroke-linecap="round" style="stroke:#FF0000;stroke-width:8.64"/>
	<line x1="2661.37" y1="544.52" x2="2693.79" y2="529.05" stroke-linecap="round" style="stroke:#FF0000;stroke-width:8.64"/>
	<line x1="2693.79" y1="529.05" x2="2726.21" y2="513.95" stroke-linecap="round" style="stroke:#FF0000;stroke-width:8.64"/>
	<line x1="2726.21" y1="513.95" x2="2758.64" y2="499.22" stroke-linecap="round" style="stroke:#FF0000;stroke-width:8.64"/>
	<line x1="2758.64" y1="499.22" x2="2791.06" y2="484.87" stroke-linecap="round" style="stroke:#FF0000;stroke-width:8.64"/>
	<line x1="2791.06" y1="484.87" x2="2823.48" y2="470.76" stroke-linecap="round" style="stroke:#FF0000;stroke-width:8.64"/>
	<line x1="2823.48" y1="470.76" x2="2855.90" y2="457.02" stroke-linecap="round" style="stroke:#FF0000;stroke-width:8.64"/>
	<line x1="2855.90" y1="457.02" x2="2888.32" y2="443.53" stroke-linecap="round" style="stroke:#FF0000;stroke-width:8.64"/>
	<line x1="2888.32" y1="443.53" x2="2920.62" y2="430.42" stroke-linecap="round" style="stroke:#FF0000;stroke-width:8.64"/>
	<line x1="2920.62" y1="430.42" x2="2953.05" y2="417.42" stroke-linecap="round" style="stroke:#FF0000;stroke-width:8.64"/>
	<line x1="2953.05" y1="417.42" x2="2985.47" y2="404.92" stroke-linecap="round" style="stroke:#FF0000;stroke-width:8.64"/>
	<line x1="2985.47" y1="404.92" x2="3017.89" y2="392.55" stroke-linecap="round" style="stroke:#FF0000;stroke-width:8.64"/>
	<line x1="3017.89" y1="392.55" x2="3050.31" y2="380.54" stroke-linecap="round" style="stroke:#FF0000;stroke-width:8.64"/>
	<line x1="3050.31" y1="380.54" x2="3082.74" y2="368.79" stroke-linecap="round" style="stroke:#FF0000;stroke-width:8.64"/>
	<line x1="3082.74" y1="368.79" x2="3115.16" y2="357.15" stroke-linecap="round" style="stroke:#FF0000;stroke-width:8.64"/>
	<line x1="3115.16" y1="357.15" x2="3147.58" y2="345.89" stroke-linecap="round" style="stroke:#FF0000;stroke-width:8.64"/>
	<line x1="3147.58" y1="345.89" x2="3179.88" y2="334.88" stroke-linecap="round" style="stroke:#FF0000;stroke-width:8.64"/>
	<line x1="3179.88" y1="334.88" x2="3212.30" y2="324.11" stroke-linecap="round" style="stroke:#FF0000;stroke-width:8.64"/>
	<line x1="3212.30" y1="324.11" x2="3244.72" y2="313.47" stroke-linecap="round" style="stroke:#FF0000;stroke-width:8.64"/>
	<line x1="3244.72" y1="313.47" x2="3277.15" y2="303.07" stroke-linecap="round" style="stroke:#FF0000;stroke-width:8.64"/>
	<line x1="3277.15" y1="303.07" x2="3309.57" y2="292.93" stroke-linecap="round" style="stroke:#FF0000;stroke-width:8.64"/>
	<line x1="3309.57" y1="292.93" x2="3341.99" y2="283.03" stroke-linecap="round" style="stroke:#FF0000;stroke-width:8.64"/>
	<line x1="3341.99" y1="283.03" x2="3374.42" y2="273.37" stroke-linecap="round" style="stroke:#FF0000;stroke-width:8.64"/>
	<line x1="3374.42" y1="273.37" x2="3406.84" y2="263.84" stroke-linecap="round" style="stroke:#FF0000;stroke-width:8.64"/>
	<line x1="3406.84" y1="263.84" x2="3439.14" y2="254.56" stroke-linecap="round" style="stroke:#FF0000;stroke-width:8.64"/>
	<line x1="3439.14" y1="254.56" x2="3471.56" y2="245.40" stroke-linecap="round" style="stroke:#FF0000;stroke-width:8.64"/>
	<line x1="3471.56" y1="245.40" x2="3503.98" y2="236.49" stroke-linecap="round" style="stroke:#FF0000;stroke-width:8.64"/>
	<line x1="3503.98" y1="236.49" x2="3536.40" y2="227.83" stroke-linecap="round" style="stroke:#FF0000;stroke-width:8.64"/>
	<line x1="3536.40" y1="227.83" x2="3568.83" y2="219.29" stroke-linecap="round" style="stroke:#FF0000;stroke-width:8.64"/>
	<line x1="3568.83" y1="219.29" x2="3601.25" y2="210.88" stroke-linecap="round" style="stroke:#FF0000;stroke-width:8.64"/>
	<line x1="3601.25" y1="210.88" x2="3633.67" y2="202.71" stroke-linecap="round" style="stroke:#FF0000;stroke-width:8.64"/>
	<line x1="3633.67" y1="202.71" x2="3666.09" y2="194.66" stroke-linecap="round" style="stroke:#FF0000;stroke-width:8.64"/>
	<line x1="3666.09" y1="194.66" x2="3698.39" y2="186.74" stroke-linecap="round" style="stroke:#FF0000;stroke-width:8.64"/>
	<line x1="3698.39" y1="186.74" x2="3730.82" y2="179.07" stroke-linecap="round" style="stroke:#FF0000;stroke-width:8.64"/>
	<line x1="3730.82" y1="179.07" x2="3763.24" y2="171.65" stroke-linecap="round" style="stroke:#FF0000;stroke-width:8.64"/>
	<line x1="3763.24" y1="171.65" x2="3795.66" y2="164.22" stroke-linecap="round" style="stroke:#FF0000;stroke-width:8.64"/>
	<line x1="524.08" y1="2489.19" x2="524.08" y2="100.86" style="stroke:#000000;stroke-width:5.76"/>
	<line x1="524.08" y1="2425.82" x2="484.11" y2="2425.82" style="stroke:#000000;stroke-width:5.76"/>
	<text x="464.06" y="2460.85" style="font-family:'Helvetica';font-size:99.99px;fill:#000000" text-anchor="end">0.00</text>
	<line x1="524.08" y1="1715.60" x2="484.11" y2="1715.60" style="stroke:#000000;stroke-width:5.76"/>
	<text x="464.06" y="1750.63" style="font-family:'Helvetica';font-size:99.99px;fill:#000000" text-anchor="end">0.02</text>
	<line x1="524.08" y1="1005.25" x2="484.11" y2="1005.25" style="stroke:#000000;stroke-width:5.76"/>
	<text x="464.06" y="1040.28" style="font-family:'Helvetica';font-size:99.99px;fill:#000000" text-anchor="end">0.04</text>
	<line x1="524.08" y1="295.03" x2="484.11" y2="295.03" style="stroke:#000000;stroke-width:5.76"/>
	<text x="464.06" y="330.06" style="font-family:'Helvetica';font-size:99.99px;fill:#000000" text-anchor="end">0.06</text>
	<text x="190.71" y="1294.96" style="font-family:'Helvetica';font-size:99.99px;fill:#000000" transform="rotate(-90 190.71,1294.96)" text-anchor="middle">Difference in S(t)</text>
	<line x1="524.08" y1="2489.19" x2="3859.02" y2="2489.19" style="stroke:#000000;stroke-width:5.76"/>
	<line x1="587.44" y1="2489.19" x2="587.44" y2="2529.16" style="stroke:#000000;stroke-width:5.76"/>
	<text x="587.44" y="2619.14" style="font-family:'Helvetica';font-size:99.99px;fill:#000000" text-anchor="middle">0</text>
	<line x1="1229.09" y1="2489.19" x2="1229.09" y2="2529.16" style="stroke:#000000;stroke-width:5.76"/>
	<text x="1229.09" y="2619.14" style="font-family:'Helvetica';font-size:99.99px;fill:#000000" text-anchor="middle">2</text>
	<line x1="1870.73" y1="2489.19" x2="1870.73" y2="2529.16" style="stroke:#000000;stroke-width:5.76"/>
	<text x="1870.73" y="2619.14" style="font-family:'Helvetica';font-size:99.99px;fill:#000000" text-anchor="middle">4</text>
	<line x1="2512.37" y1="2489.19" x2="2512.37" y2="2529.16" style="stroke:#000000;stroke-width:5.76"/>
	<text x="2512.37" y="2619.14" style="font-family:'Helvetica';font-size:99.99px;fill:#000000" text-anchor="middle">6</text>
	<line x1="3154.02" y1="2489.19" x2="3154.02" y2="2529.16" style="stroke:#000000;stroke-width:5.76"/>
	<text x="3154.02" y="2619.14" style="font-family:'Helvetica';font-size:99.99px;fill:#000000" text-anchor="middle">8</text>
	<line x1="3795.66" y1="2489.19" x2="3795.66" y2="2529.16" style="stroke:#000000;stroke-width:5.76"/>
	<text x="3795.66" y="2619.14" style="font-family:'Helvetica';font-size:99.99px;fill:#000000" text-anchor="middle">10</text>
	<text x="2191.61" y="2729.16" style="font-family:'Helvetica';font-size:99.99px;fill:#000000" text-anchor="middle">Years from surgery</text>
</svg>
