<?xml version="1.0" encoding="UTF-8" standalone="no"?>
<!-- This is a Stata 15.0 generated SVG file (http://www.stata.com) -->

<svg version="1.1" width="700px" height="509px" viewBox="0 0 3960 2880" xmlns="http://www.w3.org/2000/svg" xmlns:xlink="http://www.w3.org/1999/xlink">
	<desc>Stata Graph - Graph</desc>
	<rect x="0" y="0" width="3960" height="2880" style="fill:#EAF2F3;stroke:none"/>
	<rect x="0.00" y="0.00" width="3959.88" height="2880.00" style="fill:#EAF2F3"/>
	<rect x="2.88" y="2.88" width="3954.12" height="2874.24" style="fill:none;stroke:#EAF2F3;stroke-width:5.76"/>
	<rect x="524.08" y="100.86" width="3334.94" height="2388.33" style="fill:#FFFFFF"/>
	<rect x="526.96" y="103.74" width="3329.18" height="2382.57" style="fill:none;stroke:#FFFFFF;stroke-width:5.76"/>
	<line x1="524.08" y1="2425.82" x2="3859.02" y2="2425.82" style="stroke:#EAF2F3;stroke-width:8.64"/>
	<line x1="524.08" y1="1860.39" x2="3859.02" y2="1860.39" style="stroke:#EAF2F3;stroke-width:8.64"/>
	<line x1="524.08" y1="1294.96" x2="3859.02" y2="1294.96" style="stroke:#EAF2F3;stroke-width:8.64"/>
	<line x1="524.08" y1="729.53" x2="3859.02" y2="729.53" style="stroke:#EAF2F3;stroke-width:8.64"/>
	<line x1="524.08" y1="164.22" x2="3859.02" y2="164.22" style="stroke:#EAF2F3;stroke-width:8.64"/>
	<defs>
		<path id="path1" d="M587.44 2425.82 L587.44 2425.82 L619.86 2424.96 L652.29 2420.87 L684.71 2411.96 L717.13 2397.73 L749.55 2377.93 L781.85 2352.56 L814.27 2322.12 L846.70 2286.85 L879.12 2247.12 L911.54 2203.44 L943.97 2156.53 L976.39 2106.66 L1008.81 2054.44 L1041.11 2000.23 L1073.53 1944.79 L1105.95 1888.24 L1138.38 1831.06 L1170.80 1773.64 L1203.22 1716.34 L1235.64 1659.29 L1268.07 1602.86 L1300.37 1547.29 L1332.79 1492.84 L1365.21 1439.38 L1397.63 1387.28 L1430.06 1336.79 L1462.48 1287.66 L1494.90 1240.26 L1527.20 1194.60 L1559.62 1150.79 L1592.04 1108.59 L1624.47 1068.24 L1656.89 1029.63 L1689.31 992.88 L1721.73 957.85 L1754.16 924.57 L1786.45 892.88 L1818.88 862.81 L1851.30 834.35 L1883.72 807.49 L1916.15 781.88 L1948.57 757.74 L1980.99 734.97 L2013.41 713.32 L2045.71 692.77 L2078.13 673.34 L2110.56 654.91 L2142.98 637.58 L2175.40 621.00 L2207.82 605.40 L2240.25 590.68 L2272.67 576.69 L2304.97 563.45 L2337.39 550.83 L2369.81 539.07 L2402.24 527.81 L2434.66 517.29 L2467.08 507.27 L2499.50 497.86 L2531.93 488.95 L2564.22 480.54 L2596.65 472.74 L2629.07 465.31 L2661.49 458.38 L2693.91 451.95 L2726.34 445.89 L2758.76 440.19 L2791.06 434.99 L2823.48 430.04 L2855.90 425.59 L2888.32 421.38 L2920.75 417.67 L2953.17 414.08 L2985.59 410.99 L3018.01 408.14 L3050.31 405.54 L3082.74 403.19 L3115.16 401.21 L3147.58 399.48 L3180.00 397.99 L3212.43 396.75 L3244.85 395.76 L3277.27 395.02 L3309.57 394.40 L3341.99 394.03 L3374.42 393.91 L3406.84 394.03 L3439.26 394.28 L3471.68 394.77 L3504.11 395.39 L3536.53 396.14 L3568.83 397.13 L3601.25 398.24 L3633.67 399.60 L3666.09 401.09 L3698.52 402.70 L3730.94 404.43 L3763.36 406.28 L3795.66 408.26 L3795.66 408.26 L3763.36 406.28 L3730.94 404.43 L3698.52 402.70 L3666.09 401.09 L3633.67 399.60 L3601.25 398.24 L3568.83 397.13 L3536.53 396.14 L3504.11 395.39 L3471.68 394.77 L3439.26 394.28 L3406.84 394.03 L3374.42 393.91 L3341.99 394.03 L3309.57 394.40 L3277.27 395.02 L3244.85 395.76 L3212.43 396.75 L3180.00 397.99 L3147.58 399.48 L3115.16 401.21 L3082.74 403.19 L3050.31 405.54 L3018.01 408.14 L2985.59 410.99 L2953.17 414.08 L2920.75 417.67 L2888.32 421.38 L2855.90 425.59 L2823.48 430.04 L2791.06 434.99 L2758.76 440.19 L2726.34 445.89 L2693.91 451.95 L2661.49 458.38 L2629.07 465.31 L2596.65 472.74 L2564.22 480.54 L2531.93 488.95 L2499.50 497.86 L2467.08 507.27 L2434.66 517.29 L2402.24 527.81 L2369.81 539.07 L2337.39 550.83 L2304.97 563.45 L2272.67 576.69 L2240.25 590.68 L2207.82 605.40 L2175.40 621.00 L2142.98 637.58 L2110.56 654.91 L2078.13 673.34 L2045.71 692.77 L2013.41 713.32 L1980.99 734.97 L1948.57 757.74 L1916.15 781.88 L1883.72 807.49 L1851.30 834.35 L1818.88 862.81 L1786.45 892.88 L1754.16 924.57 L1721.73 957.85 L1689.31 992.88 L1656.89 1029.63 L1624.47 1068.24 L1592.04 1108.59 L1559.62 1150.79 L1527.20 1194.60 L1494.90 1240.26 L1462.48 1287.66 L1430.06 1336.79 L1397.63 1387.28 L1365.21 1439.38 L1332.79 1492.84 L1300.37 1547.29 L1268.07 1602.86 L1235.64 1659.29 L1203.22 1716.34 L1170.80 1773.64 L1138.38 1831.06 L1105.95 1888.24 L1073.53 1944.79 L1041.11 2000.23 L1008.81 2054.44 L976.39 2106.66 L943.97 2156.53 L911.54 2203.44 L879.12 2247.12 L846.70 2286.85 L814.27 2322.12 L781.85 2352.56 L749.55 2377.93 L717.13 2397.73 L684.71 2411.96 L652.29 2420.87 L619.86 2424.96 L587.44 2425.82 L587.44 2425.82 Z" stroke-linecap="round"/>
	</defs>
	<defs>
		<clipPath id="clipPath1">
			<use xlink:href="#path1"/>
		</clipPath>
	</defs>
	<use xlink:href="#path1" style="stroke:none;fill:#FF3333;fill-opacity:0.25"/>
	<use xlink:href="#path1" style="fill:none;stroke:#FF0000;stroke-opacity:0.25;stroke-width:17.28" clip-path="url(#clipPath1)"/>
	<line x1="587.44" y1="2425.95" x2="619.86" y2="2425.08" stroke-linecap="round" style="stroke:#FF0000;stroke-width:8.64"/>
	<line x1="619.86" y1="2425.08" x2="652.16" y2="2420.87" stroke-linecap="round" style="stroke:#FF0000;stroke-width:8.64"/>
	<line x1="652.16" y1="2420.87" x2="684.59" y2="2411.96" stroke-linecap="round" style="stroke:#FF0000;stroke-width:8.64"/>
	<line x1="684.59" y1="2411.96" x2="717.01" y2="2397.73" stroke-linecap="round" style="stroke:#FF0000;stroke-width:8.64"/>
	<line x1="717.01" y1="2397.73" x2="749.43" y2="2377.93" stroke-linecap="round" style="stroke:#FF0000;stroke-width:8.64"/>
	<line x1="749.43" y1="2377.93" x2="781.85" y2="2352.68" stroke-linecap="round" style="stroke:#FF0000;stroke-width:8.64"/>
	<line x1="781.85" y1="2352.68" x2="814.27" y2="2322.24" stroke-linecap="round" style="stroke:#FF0000;stroke-width:8.64"/>
	<line x1="814.27" y1="2322.24" x2="846.70" y2="2286.85" stroke-linecap="round" style="stroke:#FF0000;stroke-width:8.64"/>
	<line x1="846.70" y1="2286.85" x2="879.12" y2="2247.12" stroke-linecap="round" style="stroke:#FF0000;stroke-width:8.64"/>
	<line x1="879.12" y1="2247.12" x2="911.42" y2="2203.56" stroke-linecap="round" style="stroke:#FF0000;stroke-width:8.64"/>
	<line x1="911.42" y1="2203.56" x2="943.84" y2="2156.53" stroke-linecap="round" style="stroke:#FF0000;stroke-width:8.64"/>
	<line x1="943.84" y1="2156.53" x2="976.26" y2="2106.66" stroke-linecap="round" style="stroke:#FF0000;stroke-width:8.64"/>
	<line x1="976.26" y1="2106.66" x2="1008.69" y2="2054.44" stroke-linecap="round" style="stroke:#FF0000;stroke-width:8.64"/>
	<line x1="1008.69" y1="2054.44" x2="1041.11" y2="2000.36" stroke-linecap="round" style="stroke:#FF0000;stroke-width:8.64"/>
	<line x1="1041.11" y1="2000.36" x2="1073.53" y2="1944.79" stroke-linecap="round" style="stroke:#FF0000;stroke-width:8.64"/>
	<line x1="1073.53" y1="1944.79" x2="1105.95" y2="1888.24" stroke-linecap="round" style="stroke:#FF0000;stroke-width:8.64"/>
	<line x1="1105.95" y1="1888.24" x2="1138.38" y2="1831.06" stroke-linecap="round" style="stroke:#FF0000;stroke-width:8.64"/>
	<line x1="1138.38" y1="1831.06" x2="1170.68" y2="1773.76" stroke-linecap="round" style="stroke:#FF0000;stroke-width:8.64"/>
	<line x1="1170.68" y1="1773.76" x2="1203.10" y2="1716.34" stroke-linecap="round" style="stroke:#FF0000;stroke-width:8.64"/>
	<line x1="1203.10" y1="1716.34" x2="1235.52" y2="1659.42" stroke-linecap="round" style="stroke:#FF0000;stroke-width:8.64"/>
	<line x1="1235.52" y1="1659.42" x2="1267.94" y2="1602.98" stroke-linecap="round" style="stroke:#FF0000;stroke-width:8.64"/>
	<line x1="1267.94" y1="1602.98" x2="1300.37" y2="1547.42" stroke-linecap="round" style="stroke:#FF0000;stroke-width:8.64"/>
	<line x1="1300.37" y1="1547.42" x2="1332.79" y2="1492.84" stroke-linecap="round" style="stroke:#FF0000;stroke-width:8.64"/>
	<line x1="1332.79" y1="1492.84" x2="1365.21" y2="1439.50" stroke-linecap="round" style="stroke:#FF0000;stroke-width:8.64"/>
	<line x1="1365.21" y1="1439.50" x2="1397.51" y2="1387.40" stroke-linecap="round" style="stroke:#FF0000;stroke-width:8.64"/>
	<line x1="1397.51" y1="1387.40" x2="1429.93" y2="1336.79" stroke-linecap="round" style="stroke:#FF0000;stroke-width:8.64"/>
	<line x1="1429.93" y1="1336.79" x2="1462.35" y2="1287.78" stroke-linecap="round" style="stroke:#FF0000;stroke-width:8.64"/>
	<line x1="1462.35" y1="1287.78" x2="1494.78" y2="1240.39" stroke-linecap="round" style="stroke:#FF0000;stroke-width:8.64"/>
	<line x1="1494.78" y1="1240.39" x2="1527.20" y2="1194.72" stroke-linecap="round" style="stroke:#FF0000;stroke-width:8.64"/>
	<line x1="1527.20" y1="1194.72" x2="1559.62" y2="1150.79" stroke-linecap="round" style="stroke:#FF0000;stroke-width:8.64"/>
	<line x1="1559.62" y1="1150.79" x2="1592.04" y2="1108.71" stroke-linecap="round" style="stroke:#FF0000;stroke-width:8.64"/>
	<line x1="1592.04" y1="1108.71" x2="1624.47" y2="1068.37" stroke-linecap="round" style="stroke:#FF0000;stroke-width:8.64"/>
	<line x1="1624.47" y1="1068.37" x2="1656.77" y2="1029.76" stroke-linecap="round" style="stroke:#FF0000;stroke-width:8.64"/>
	<line x1="1656.77" y1="1029.76" x2="1689.19" y2="993.00" stroke-linecap="round" style="stroke:#FF0000;stroke-width:8.64"/>
	<line x1="1689.19" y1="993.00" x2="1721.61" y2="957.85" stroke-linecap="round" style="stroke:#FF0000;stroke-width:8.64"/>
	<line x1="1721.61" y1="957.85" x2="1754.03" y2="924.57" stroke-linecap="round" style="stroke:#FF0000;stroke-width:8.64"/>
	<line x1="1754.03" y1="924.57" x2="1786.45" y2="892.88" stroke-linecap="round" style="stroke:#FF0000;stroke-width:8.64"/>
	<line x1="1786.45" y1="892.88" x2="1818.88" y2="862.94" stroke-linecap="round" style="stroke:#FF0000;stroke-width:8.64"/>
	<line x1="1818.88" y1="862.94" x2="1851.30" y2="834.47" stroke-linecap="round" style="stroke:#FF0000;stroke-width:8.64"/>
	<line x1="1851.30" y1="834.47" x2="1883.72" y2="807.49" stroke-linecap="round" style="stroke:#FF0000;stroke-width:8.64"/>
	<line x1="1883.72" y1="807.49" x2="1916.02" y2="782.00" stroke-linecap="round" style="stroke:#FF0000;stroke-width:8.64"/>
	<line x1="1916.02" y1="782.00" x2="1948.44" y2="757.87" stroke-linecap="round" style="stroke:#FF0000;stroke-width:8.64"/>
	<line x1="1948.44" y1="757.87" x2="1980.87" y2="734.97" stroke-linecap="round" style="stroke:#FF0000;stroke-width:8.64"/>
	<line x1="1980.87" y1="734.97" x2="2013.29" y2="713.32" stroke-linecap="round" style="stroke:#FF0000;stroke-width:8.64"/>
	<line x1="2013.29" y1="713.32" x2="2045.71" y2="692.77" stroke-linecap="round" style="stroke:#FF0000;stroke-width:8.64"/>
	<line x1="2045.71" y1="692.77" x2="2078.13" y2="673.34" stroke-linecap="round" style="stroke:#FF0000;stroke-width:8.64"/>
	<line x1="2078.13" y1="673.34" x2="2110.56" y2="655.03" stroke-linecap="round" style="stroke:#FF0000;stroke-width:8.64"/>
	<line x1="2110.56" y1="655.03" x2="2142.98" y2="637.58" stroke-linecap="round" style="stroke:#FF0000;stroke-width:8.64"/>
	<line x1="2142.98" y1="637.58" x2="2175.28" y2="621.12" stroke-linecap="round" style="stroke:#FF0000;stroke-width:8.64"/>
	<line x1="2175.28" y1="621.12" x2="2207.70" y2="605.53" stroke-linecap="round" style="stroke:#FF0000;stroke-width:8.64"/>
	<line x1="2207.70" y1="605.53" x2="2240.12" y2="590.68" stroke-linecap="round" style="stroke:#FF0000;stroke-width:8.64"/>
	<line x1="2240.12" y1="590.68" x2="2272.55" y2="576.69" stroke-linecap="round" style="stroke:#FF0000;stroke-width:8.64"/>
	<line x1="2272.55" y1="576.69" x2="2304.97" y2="563.45" stroke-linecap="round" style="stroke:#FF0000;stroke-width:8.64"/>
	<line x1="2304.97" y1="563.45" x2="2337.39" y2="550.95" stroke-linecap="round" style="stroke:#FF0000;stroke-width:8.64"/>
	<line x1="2337.39" y1="550.95" x2="2369.81" y2="539.07" stroke-linecap="round" style="stroke:#FF0000;stroke-width:8.64"/>
	<line x1="2369.81" y1="539.07" x2="2402.24" y2="527.93" stroke-linecap="round" style="stroke:#FF0000;stroke-width:8.64"/>
	<line x1="2402.24" y1="527.93" x2="2434.53" y2="517.29" stroke-linecap="round" style="stroke:#FF0000;stroke-width:8.64"/>
	<line x1="2434.53" y1="517.29" x2="2466.96" y2="507.27" stroke-linecap="round" style="stroke:#FF0000;stroke-width:8.64"/>
	<line x1="2466.96" y1="507.27" x2="2499.38" y2="497.86" stroke-linecap="round" style="stroke:#FF0000;stroke-width:8.64"/>
	<line x1="2499.38" y1="497.86" x2="2531.80" y2="488.95" stroke-linecap="round" style="stroke:#FF0000;stroke-width:8.64"/>
	<line x1="2531.80" y1="488.95" x2="2564.22" y2="480.66" stroke-linecap="round" style="stroke:#FF0000;stroke-width:8.64"/>
	<line x1="2564.22" y1="480.66" x2="2596.65" y2="472.74" stroke-linecap="round" style="stroke:#FF0000;stroke-width:8.64"/>
	<line x1="2596.65" y1="472.74" x2="2629.07" y2="465.31" stroke-linecap="round" style="stroke:#FF0000;stroke-width:8.64"/>
	<line x1="2629.07" y1="465.31" x2="2661.37" y2="458.38" stroke-linecap="round" style="stroke:#FF0000;stroke-width:8.64"/>
	<line x1="2661.37" y1="458.38" x2="2693.79" y2="451.95" stroke-linecap="round" style="stroke:#FF0000;stroke-width:8.64"/>
	<line x1="2693.79" y1="451.95" x2="2726.21" y2="445.89" stroke-linecap="round" style="stroke:#FF0000;stroke-width:8.64"/>
	<line x1="2726.21" y1="445.89" x2="2758.64" y2="440.32" stroke-linecap="round" style="stroke:#FF0000;stroke-width:8.64"/>
	<line x1="2758.64" y1="440.32" x2="2791.06" y2="434.99" stroke-linecap="round" style="stroke:#FF0000;stroke-width:8.64"/>
	<line x1="2791.06" y1="434.99" x2="2823.48" y2="430.17" stroke-linecap="round" style="stroke:#FF0000;stroke-width:8.64"/>
	<line x1="2823.48" y1="430.17" x2="2855.90" y2="425.59" stroke-linecap="round" style="stroke:#FF0000;stroke-width:8.64"/>
	<line x1="2855.90" y1="425.59" x2="2888.32" y2="421.51" stroke-linecap="round" style="stroke:#FF0000;stroke-width:8.64"/>
	<line x1="2888.32" y1="421.51" x2="2920.62" y2="417.67" stroke-linecap="round" style="stroke:#FF0000;stroke-width:8.64"/>
	<line x1="2920.62" y1="417.67" x2="2953.05" y2="414.20" stroke-linecap="round" style="stroke:#FF0000;stroke-width:8.64"/>
	<line x1="2953.05" y1="414.20" x2="2985.47" y2="410.99" stroke-linecap="round" style="stroke:#FF0000;stroke-width:8.64"/>
	<line x1="2985.47" y1="410.99" x2="3017.89" y2="408.14" stroke-linecap="round" style="stroke:#FF0000;stroke-width:8.64"/>
	<line x1="3017.89" y1="408.14" x2="3050.31" y2="405.54" stroke-linecap="round" style="stroke:#FF0000;stroke-width:8.64"/>
	<line x1="3050.31" y1="405.54" x2="3082.74" y2="403.31" stroke-linecap="round" style="stroke:#FF0000;stroke-width:8.64"/>
	<line x1="3082.74" y1="403.31" x2="3115.16" y2="401.33" stroke-linecap="round" style="stroke:#FF0000;stroke-width:8.64"/>
	<line x1="3115.16" y1="401.33" x2="3147.58" y2="399.60" stroke-linecap="round" style="stroke:#FF0000;stroke-width:8.64"/>
	<line x1="3147.58" y1="399.60" x2="3179.88" y2="398.12" stroke-linecap="round" style="stroke:#FF0000;stroke-width:8.64"/>
	<line x1="3179.88" y1="398.12" x2="3212.30" y2="396.88" stroke-linecap="round" style="stroke:#FF0000;stroke-width:8.64"/>
	<line x1="3212.30" y1="396.88" x2="3244.72" y2="395.76" stroke-linecap="round" style="stroke:#FF0000;stroke-width:8.64"/>
	<line x1="3244.72" y1="395.76" x2="3277.15" y2="395.02" stroke-linecap="round" style="stroke:#FF0000;stroke-width:8.64"/>
	<line x1="3277.15" y1="395.02" x2="3309.57" y2="394.53" stroke-linecap="round" style="stroke:#FF0000;stroke-width:8.64"/>
	<line x1="3309.57" y1="394.53" x2="3341.99" y2="394.16" stroke-linecap="round" style="stroke:#FF0000;stroke-width:8.64"/>
	<line x1="3341.99" y1="394.16" x2="3374.42" y2="394.03" stroke-linecap="round" style="stroke:#FF0000;stroke-width:8.64"/>
	<line x1="3374.42" y1="394.03" x2="3406.84" y2="394.03" stroke-linecap="round" style="stroke:#FF0000;stroke-width:8.64"/>
	<line x1="3406.84" y1="394.03" x2="3439.14" y2="394.40" stroke-linecap="round" style="stroke:#FF0000;stroke-width:8.64"/>
	<line x1="3439.14" y1="394.40" x2="3471.56" y2="394.77" stroke-linecap="round" style="stroke:#FF0000;stroke-width:8.64"/>
	<line x1="3471.56" y1="394.77" x2="3503.98" y2="395.39" stroke-linecap="round" style="stroke:#FF0000;stroke-width:8.64"/>
	<line x1="3503.98" y1="395.39" x2="3536.40" y2="396.26" stroke-linecap="round" style="stroke:#FF0000;stroke-width:8.64"/>
	<line x1="3536.40" y1="396.26" x2="3568.83" y2="397.25" stroke-linecap="round" style="stroke:#FF0000;stroke-width:8.64"/>
	<line x1="3568.83" y1="397.25" x2="3601.25" y2="398.36" stroke-linecap="round" style="stroke:#FF0000;stroke-width:8.64"/>
	<line x1="3601.25" y1="398.36" x2="3633.67" y2="399.60" stroke-linecap="round" style="stroke:#FF0000;stroke-width:8.64"/>
	<line x1="3633.67" y1="399.60" x2="3666.09" y2="401.09" stroke-linecap="round" style="stroke:#FF0000;stroke-width:8.64"/>
	<line x1="3666.09" y1="401.09" x2="3698.39" y2="402.70" stroke-linecap="round" style="stroke:#FF0000;stroke-width:8.64"/>
	<line x1="3698.39" y1="402.70" x2="3730.82" y2="404.43" stroke-linecap="round" style="stroke:#FF0000;stroke-width:8.64"/>
	<line x1="3730.82" y1="404.43" x2="3763.24" y2="406.28" stroke-linecap="round" style="stroke:#FF0000;stroke-width:8.64"/>
	<line x1="3763.24" y1="406.28" x2="3795.66" y2="408.39" stroke-linecap="round" style="stroke:#FF0000;stroke-width:8.64"/>
	<line x1="524.08" y1="2489.19" x2="524.08" y2="100.86" style="stroke:#000000;stroke-width:5.76"/>
	<line x1="524.08" y1="2425.82" x2="484.11" y2="2425.82" style="stroke:#000000;stroke-width:5.76"/>
	<text x="464.06" y="2460.85" style="font-family:'Helvetica';font-size:99.99px;fill:#000000" text-anchor="end">0.00</text>
	<line x1="524.08" y1="1860.39" x2="484.11" y2="1860.39" style="stroke:#000000;stroke-width:5.76"/>
	<text x="464.06" y="1895.42" style="font-family:'Helvetica';font-size:99.99px;fill:#000000" text-anchor="end">0.02</text>
	<line x1="524.08" y1="1294.96" x2="484.11" y2="1294.96" style="stroke:#000000;stroke-width:5.76"/>
	<text x="464.06" y="1329.99" style="font-family:'Helvetica';font-size:99.99px;fill:#000000" text-anchor="end">0.04</text>
	<line x1="524.08" y1="729.53" x2="484.11" y2="729.53" style="stroke:#000000;stroke-width:5.76"/>
	<text x="464.06" y="764.56" style="font-family:'Helvetica';font-size:99.99px;fill:#000000" text-anchor="end">0.06</text>
	<line x1="524.08" y1="164.22" x2="484.11" y2="164.22" style="stroke:#000000;stroke-width:5.76"/>
	<text x="464.06" y="199.25" style="font-family:'Helvetica';font-size:99.99px;fill:#000000" text-anchor="end">0.08</text>
	<text x="190.71" y="1294.96" style="font-family:'Helvetica';font-size:99.99px;fill:#000000" transform="rotate(-90 190.71,1294.96)" text-anchor="middle">Difference in S(t)</text>
	<line x1="524.08" y1="2489.19" x2="3859.02" y2="2489.19" style="stroke:#000000;stroke-width:5.76"/>
	<line x1="587.44" y1="2489.19" x2="587.44" y2="2529.16" style="stroke:#000000;stroke-width:5.76"/>
	<text x="587.44" y="2619.14" style="font-family:'Helvetica';font-size:99.99px;fill:#000000" text-anchor="middle">0</text>
	<line x1="1229.09" y1="2489.19" x2="1229.09" y2="2529.16" style="stroke:#000000;stroke-width:5.76"/>
	<text x="1229.09" y="2619.14" style="font-family:'Helvetica';font-size:99.99px;fill:#000000" text-anchor="middle">2</text>
	<line x1="1870.73" y1="2489.19" x2="1870.73" y2="2529.16" style="stroke:#000000;stroke-width:5.76"/>
	<text x="1870.73" y="2619.14" style="font-family:'Helvetica';font-size:99.99px;fill:#000000" text-anchor="middle">4</text>
	<line x1="2512.37" y1="2489.19" x2="2512.37" y2="2529.16" style="stroke:#000000;stroke-width:5.76"/>
	<text x="2512.37" y="2619.14" style="font-family:'Helvetica';font-size:99.99px;fill:#000000" text-anchor="middle">6</text>
	<line x1="3154.02" y1="2489.19" x2="3154.02" y2="2529.16" style="stroke:#000000;stroke-width:5.76"/>
	<text x="3154.02" y="2619.14" style="font-family:'Helvetica';font-size:99.99px;fill:#000000" text-anchor="middle">8</text>
	<line x1="3795.66" y1="2489.19" x2="3795.66" y2="2529.16" style="stroke:#000000;stroke-width:5.76"/>
	<text x="3795.66" y="2619.14" style="font-family:'Helvetica';font-size:99.99px;fill:#000000" text-anchor="middle">10</text>
	<text x="2191.61" y="2729.16" style="font-family:'Helvetica';font-size:99.99px;fill:#000000" text-anchor="middle">Years from surgery</text>
</svg>
