<?xml version="1.0" encoding="UTF-8" standalone="no"?>
<!-- This is a Stata 15.1 generated SVG file (http://www.stata.com) -->

<svg version="1.1" width="700px" height="509px" viewBox="0 0 3960 2880" xmlns="http://www.w3.org/2000/svg" xmlns:xlink="http://www.w3.org/1999/xlink">
	<desc>Stata Graph - Graph</desc>
	<rect x="0" y="0" width="3960" height="2880" style="fill:#FFFFFF;stroke:none"/>
	<rect x="0.00" y="0.00" width="3959.88" height="2880.00" style="fill:#FFFFFF"/>
	<rect x="2.88" y="2.88" width="3954.12" height="2874.24" style="fill:none;stroke:#FFFFFF;stroke-width:5.76"/>
	<line x1="465.80" y1="2489.19" x2="3859.02" y2="2489.19" style="stroke:#E8E8E8;stroke-width:5.76"/>
	<line x1="465.80" y1="2011.50" x2="3859.02" y2="2011.50" style="stroke:#E8E8E8;stroke-width:5.76"/>
	<line x1="465.80" y1="1533.81" x2="3859.02" y2="1533.81" style="stroke:#E8E8E8;stroke-width:5.76"/>
	<line x1="465.80" y1="1056.12" x2="3859.02" y2="1056.12" style="stroke:#E8E8E8;stroke-width:5.76"/>
	<line x1="465.80" y1="578.43" x2="3859.02" y2="578.43" style="stroke:#E8E8E8;stroke-width:5.76"/>
	<line x1="465.80" y1="100.86" x2="3859.02" y2="100.86" style="stroke:#E8E8E8;stroke-width:5.76"/>
	<line x1="465.80" y1="2489.19" x2="465.80" y2="100.86" style="stroke:#E8E8E8;stroke-width:5.76"/>
	<line x1="1144.44" y1="2489.19" x2="1144.44" y2="100.86" style="stroke:#E8E8E8;stroke-width:5.76"/>
	<line x1="1823.09" y1="2489.19" x2="1823.09" y2="100.86" style="stroke:#E8E8E8;stroke-width:5.76"/>
	<line x1="2501.73" y1="2489.19" x2="2501.73" y2="100.86" style="stroke:#E8E8E8;stroke-width:5.76"/>
	<line x1="3180.38" y1="2489.19" x2="3180.38" y2="100.86" style="stroke:#E8E8E8;stroke-width:5.76"/>
	<line x1="3859.02" y1="2489.19" x2="3859.02" y2="100.86" style="stroke:#E8E8E8;stroke-width:5.76"/>
	<line x1="465.67" y1="2489.31" x2="499.70" y2="2488.94" stroke-linecap="round" style="stroke:#2166AC;stroke-width:8.64"/>
	<line x1="499.70" y1="2488.94" x2="533.61" y2="2487.08" stroke-linecap="round" style="stroke:#2166AC;stroke-width:8.64"/>
	<line x1="533.61" y1="2487.08" x2="567.52" y2="2483.12" stroke-linecap="round" style="stroke:#2166AC;stroke-width:8.64"/>
	<line x1="567.52" y1="2483.12" x2="601.42" y2="2476.81" stroke-linecap="round" style="stroke:#2166AC;stroke-width:8.64"/>
	<line x1="601.42" y1="2476.81" x2="635.33" y2="2468.02" stroke-linecap="round" style="stroke:#2166AC;stroke-width:8.64"/>
	<line x1="635.33" y1="2468.02" x2="669.36" y2="2456.64" stroke-linecap="round" style="stroke:#2166AC;stroke-width:8.64"/>
	<line x1="669.36" y1="2456.64" x2="703.27" y2="2442.78" stroke-linecap="round" style="stroke:#2166AC;stroke-width:8.64"/>
	<line x1="703.27" y1="2442.78" x2="737.18" y2="2426.69" stroke-linecap="round" style="stroke:#2166AC;stroke-width:8.64"/>
	<line x1="737.18" y1="2426.69" x2="771.09" y2="2408.25" stroke-linecap="round" style="stroke:#2166AC;stroke-width:8.64"/>
	<line x1="771.09" y1="2408.25" x2="804.99" y2="2387.83" stroke-linecap="round" style="stroke:#2166AC;stroke-width:8.64"/>
	<line x1="804.99" y1="2387.83" x2="839.02" y2="2365.56" stroke-linecap="round" style="stroke:#2166AC;stroke-width:8.64"/>
	<line x1="839.02" y1="2365.56" x2="872.93" y2="2341.42" stroke-linecap="round" style="stroke:#2166AC;stroke-width:8.64"/>
	<line x1="872.93" y1="2341.42" x2="906.84" y2="2315.81" stroke-linecap="round" style="stroke:#2166AC;stroke-width:8.64"/>
	<line x1="906.84" y1="2315.81" x2="940.75" y2="2288.83" stroke-linecap="round" style="stroke:#2166AC;stroke-width:8.64"/>
	<line x1="940.75" y1="2288.83" x2="974.65" y2="2260.49" stroke-linecap="round" style="stroke:#2166AC;stroke-width:8.64"/>
	<line x1="974.65" y1="2260.49" x2="1008.69" y2="2231.16" stroke-linecap="round" style="stroke:#2166AC;stroke-width:8.64"/>
	<line x1="1008.69" y1="2231.16" x2="1042.59" y2="2200.72" stroke-linecap="round" style="stroke:#2166AC;stroke-width:8.64"/>
	<line x1="1042.59" y1="2200.72" x2="1076.50" y2="2169.65" stroke-linecap="round" style="stroke:#2166AC;stroke-width:8.64"/>
	<line x1="1076.50" y1="2169.65" x2="1110.41" y2="2137.72" stroke-linecap="round" style="stroke:#2166AC;stroke-width:8.64"/>
	<line x1="1110.41" y1="2137.72" x2="1144.32" y2="2105.30" stroke-linecap="round" style="stroke:#2166AC;stroke-width:8.64"/>
	<line x1="1144.32" y1="2105.30" x2="1178.35" y2="2072.38" stroke-linecap="round" style="stroke:#2166AC;stroke-width:8.64"/>
	<line x1="1178.35" y1="2072.38" x2="1212.26" y2="2039.09" stroke-linecap="round" style="stroke:#2166AC;stroke-width:8.64"/>
	<line x1="1212.26" y1="2039.09" x2="1246.16" y2="2005.56" stroke-linecap="round" style="stroke:#2166AC;stroke-width:8.64"/>
	<line x1="1246.16" y1="2005.56" x2="1280.07" y2="1971.77" stroke-linecap="round" style="stroke:#2166AC;stroke-width:8.64"/>
	<line x1="1280.07" y1="1971.77" x2="1314.10" y2="1937.99" stroke-linecap="round" style="stroke:#2166AC;stroke-width:8.64"/>
	<line x1="1314.10" y1="1937.99" x2="1348.01" y2="1904.08" stroke-linecap="round" style="stroke:#2166AC;stroke-width:8.64"/>
	<line x1="1348.01" y1="1904.08" x2="1381.92" y2="1870.29" stroke-linecap="round" style="stroke:#2166AC;stroke-width:8.64"/>
	<line x1="1381.92" y1="1870.29" x2="1415.82" y2="1836.63" stroke-linecap="round" style="stroke:#2166AC;stroke-width:8.64"/>
	<line x1="1415.82" y1="1836.63" x2="1449.73" y2="1803.09" stroke-linecap="round" style="stroke:#2166AC;stroke-width:8.64"/>
	<line x1="1449.73" y1="1803.09" x2="1483.76" y2="1769.93" stroke-linecap="round" style="stroke:#2166AC;stroke-width:8.64"/>
	<line x1="1483.76" y1="1769.93" x2="1517.67" y2="1737.01" stroke-linecap="round" style="stroke:#2166AC;stroke-width:8.64"/>
	<line x1="1517.67" y1="1737.01" x2="1551.58" y2="1704.59" stroke-linecap="round" style="stroke:#2166AC;stroke-width:8.64"/>
	<line x1="1551.58" y1="1704.59" x2="1585.48" y2="1672.41" stroke-linecap="round" style="stroke:#2166AC;stroke-width:8.64"/>
	<line x1="1585.48" y1="1672.41" x2="1619.39" y2="1640.73" stroke-linecap="round" style="stroke:#2166AC;stroke-width:8.64"/>
	<line x1="1619.39" y1="1640.73" x2="1653.42" y2="1609.54" stroke-linecap="round" style="stroke:#2166AC;stroke-width:8.64"/>
	<line x1="1653.42" y1="1609.54" x2="1687.33" y2="1578.85" stroke-linecap="round" style="stroke:#2166AC;stroke-width:8.64"/>
	<line x1="1687.33" y1="1578.85" x2="1721.24" y2="1548.78" stroke-linecap="round" style="stroke:#2166AC;stroke-width:8.64"/>
	<line x1="1721.24" y1="1548.78" x2="1755.15" y2="1519.08" stroke-linecap="round" style="stroke:#2166AC;stroke-width:8.64"/>
	<line x1="1755.15" y1="1519.08" x2="1789.05" y2="1490.12" stroke-linecap="round" style="stroke:#2166AC;stroke-width:8.64"/>
	<line x1="1789.05" y1="1490.12" x2="1823.09" y2="1461.53" stroke-linecap="round" style="stroke:#2166AC;stroke-width:8.64"/>
	<line x1="1823.09" y1="1461.53" x2="1856.99" y2="1433.69" stroke-linecap="round" style="stroke:#2166AC;stroke-width:8.64"/>
	<line x1="1856.99" y1="1433.69" x2="1890.90" y2="1406.34" stroke-linecap="round" style="stroke:#2166AC;stroke-width:8.64"/>
	<line x1="1890.90" y1="1406.34" x2="1924.81" y2="1379.48" stroke-linecap="round" style="stroke:#2166AC;stroke-width:8.64"/>
	<line x1="1924.81" y1="1379.48" x2="1958.71" y2="1353.12" stroke-linecap="round" style="stroke:#2166AC;stroke-width:8.64"/>
	<line x1="1958.71" y1="1353.12" x2="1992.75" y2="1327.26" stroke-linecap="round" style="stroke:#2166AC;stroke-width:8.64"/>
	<line x1="1992.75" y1="1327.26" x2="2026.65" y2="1301.77" stroke-linecap="round" style="stroke:#2166AC;stroke-width:8.64"/>
	<line x1="2026.65" y1="1301.77" x2="2060.56" y2="1276.89" stroke-linecap="round" style="stroke:#2166AC;stroke-width:8.64"/>
	<line x1="2060.56" y1="1276.89" x2="2094.47" y2="1252.39" stroke-linecap="round" style="stroke:#2166AC;stroke-width:8.64"/>
	<line x1="2094.47" y1="1252.39" x2="2128.38" y2="1228.26" stroke-linecap="round" style="stroke:#2166AC;stroke-width:8.64"/>
	<line x1="2128.38" y1="1228.26" x2="2162.41" y2="1204.50" stroke-linecap="round" style="stroke:#2166AC;stroke-width:8.64"/>
	<line x1="2162.41" y1="1204.50" x2="2196.32" y2="1181.11" stroke-linecap="round" style="stroke:#2166AC;stroke-width:8.64"/>
	<line x1="2196.32" y1="1181.11" x2="2230.22" y2="1158.09" stroke-linecap="round" style="stroke:#2166AC;stroke-width:8.64"/>
	<line x1="2230.22" y1="1158.09" x2="2264.13" y2="1135.44" stroke-linecap="round" style="stroke:#2166AC;stroke-width:8.64"/>
	<line x1="2264.13" y1="1135.44" x2="2298.16" y2="1113.17" stroke-linecap="round" style="stroke:#2166AC;stroke-width:8.64"/>
	<line x1="2298.16" y1="1113.17" x2="2332.07" y2="1091.14" stroke-linecap="round" style="stroke:#2166AC;stroke-width:8.64"/>
	<line x1="2332.07" y1="1091.14" x2="2365.98" y2="1069.36" stroke-linecap="round" style="stroke:#2166AC;stroke-width:8.64"/>
	<line x1="2365.98" y1="1069.36" x2="2399.88" y2="1047.95" stroke-linecap="round" style="stroke:#2166AC;stroke-width:8.64"/>
	<line x1="2399.88" y1="1047.95" x2="2433.79" y2="1026.79" stroke-linecap="round" style="stroke:#2166AC;stroke-width:8.64"/>
	<line x1="2433.79" y1="1026.79" x2="2467.82" y2="1005.87" stroke-linecap="round" style="stroke:#2166AC;stroke-width:8.64"/>
	<line x1="2467.82" y1="1005.87" x2="2501.73" y2="985.33" stroke-linecap="round" style="stroke:#2166AC;stroke-width:8.64"/>
	<line x1="2501.73" y1="985.33" x2="2535.64" y2="964.91" stroke-linecap="round" style="stroke:#2166AC;stroke-width:8.64"/>
	<line x1="2535.64" y1="964.91" x2="2569.55" y2="944.74" stroke-linecap="round" style="stroke:#2166AC;stroke-width:8.64"/>
	<line x1="2569.55" y1="944.74" x2="2603.45" y2="924.81" stroke-linecap="round" style="stroke:#2166AC;stroke-width:8.64"/>
	<line x1="2603.45" y1="924.81" x2="2637.48" y2="905.14" stroke-linecap="round" style="stroke:#2166AC;stroke-width:8.64"/>
	<line x1="2637.48" y1="905.14" x2="2671.39" y2="885.58" stroke-linecap="round" style="stroke:#2166AC;stroke-width:8.64"/>
	<line x1="2671.39" y1="885.58" x2="2705.30" y2="866.28" stroke-linecap="round" style="stroke:#2166AC;stroke-width:8.64"/>
	<line x1="2705.30" y1="866.28" x2="2739.21" y2="847.22" stroke-linecap="round" style="stroke:#2166AC;stroke-width:8.64"/>
	<line x1="2739.21" y1="847.22" x2="2773.11" y2="828.41" stroke-linecap="round" style="stroke:#2166AC;stroke-width:8.64"/>
	<line x1="2773.11" y1="828.41" x2="2807.14" y2="809.72" stroke-linecap="round" style="stroke:#2166AC;stroke-width:8.64"/>
	<line x1="2807.14" y1="809.72" x2="2841.05" y2="791.28" stroke-linecap="round" style="stroke:#2166AC;stroke-width:8.64"/>
	<line x1="2841.05" y1="791.28" x2="2874.96" y2="772.97" stroke-linecap="round" style="stroke:#2166AC;stroke-width:8.64"/>
	<line x1="2874.96" y1="772.97" x2="2908.87" y2="754.90" stroke-linecap="round" style="stroke:#2166AC;stroke-width:8.64"/>
	<line x1="2908.87" y1="754.90" x2="2942.78" y2="737.08" stroke-linecap="round" style="stroke:#2166AC;stroke-width:8.64"/>
	<line x1="2942.78" y1="737.08" x2="2976.81" y2="719.26" stroke-linecap="round" style="stroke:#2166AC;stroke-width:8.64"/>
	<line x1="2976.81" y1="719.26" x2="3010.71" y2="701.81" stroke-linecap="round" style="stroke:#2166AC;stroke-width:8.64"/>
	<line x1="3010.71" y1="701.81" x2="3044.62" y2="684.36" stroke-linecap="round" style="stroke:#2166AC;stroke-width:8.64"/>
	<line x1="3044.62" y1="684.36" x2="3078.53" y2="667.16" stroke-linecap="round" style="stroke:#2166AC;stroke-width:8.64"/>
	<line x1="3078.53" y1="667.16" x2="3112.44" y2="650.08" stroke-linecap="round" style="stroke:#2166AC;stroke-width:8.64"/>
	<line x1="3112.44" y1="650.08" x2="3146.47" y2="633.25" stroke-linecap="round" style="stroke:#2166AC;stroke-width:8.64"/>
	<line x1="3146.47" y1="633.25" x2="3180.38" y2="616.54" stroke-linecap="round" style="stroke:#2166AC;stroke-width:8.64"/>
	<line x1="3180.38" y1="616.54" x2="3214.28" y2="599.96" stroke-linecap="round" style="stroke:#2166AC;stroke-width:8.64"/>
	<line x1="3214.28" y1="599.96" x2="3248.19" y2="583.50" stroke-linecap="round" style="stroke:#2166AC;stroke-width:8.64"/>
	<line x1="3248.19" y1="583.50" x2="3282.10" y2="567.16" stroke-linecap="round" style="stroke:#2166AC;stroke-width:8.64"/>
	<line x1="3282.10" y1="567.16" x2="3316.13" y2="551.08" stroke-linecap="round" style="stroke:#2166AC;stroke-width:8.64"/>
	<line x1="3316.13" y1="551.08" x2="3350.04" y2="534.99" stroke-linecap="round" style="stroke:#2166AC;stroke-width:8.64"/>
	<line x1="3350.04" y1="534.99" x2="3383.94" y2="519.15" stroke-linecap="round" style="stroke:#2166AC;stroke-width:8.64"/>
	<line x1="3383.94" y1="519.15" x2="3417.85" y2="503.43" stroke-linecap="round" style="stroke:#2166AC;stroke-width:8.64"/>
	<line x1="3417.85" y1="503.43" x2="3451.88" y2="487.84" stroke-linecap="round" style="stroke:#2166AC;stroke-width:8.64"/>
	<line x1="3451.88" y1="487.84" x2="3485.79" y2="472.37" stroke-linecap="round" style="stroke:#2166AC;stroke-width:8.64"/>
	<line x1="3485.79" y1="472.37" x2="3519.70" y2="457.02" stroke-linecap="round" style="stroke:#2166AC;stroke-width:8.64"/>
	<line x1="3519.70" y1="457.02" x2="3553.61" y2="441.80" stroke-linecap="round" style="stroke:#2166AC;stroke-width:8.64"/>
	<line x1="3553.61" y1="441.80" x2="3587.51" y2="426.70" stroke-linecap="round" style="stroke:#2166AC;stroke-width:8.64"/>
	<line x1="3587.51" y1="426.70" x2="3621.54" y2="411.73" stroke-linecap="round" style="stroke:#2166AC;stroke-width:8.64"/>
	<line x1="3621.54" y1="411.73" x2="3655.45" y2="396.88" stroke-linecap="round" style="stroke:#2166AC;stroke-width:8.64"/>
	<line x1="3655.45" y1="396.88" x2="3689.36" y2="382.15" stroke-linecap="round" style="stroke:#2166AC;stroke-width:8.64"/>
	<line x1="3689.36" y1="382.15" x2="3723.27" y2="367.55" stroke-linecap="round" style="stroke:#2166AC;stroke-width:8.64"/>
	<line x1="3723.27" y1="367.55" x2="3757.17" y2="353.07" stroke-linecap="round" style="stroke:#2166AC;stroke-width:8.64"/>
	<line x1="3757.17" y1="353.07" x2="3791.20" y2="338.59" stroke-linecap="round" style="stroke:#2166AC;stroke-width:8.64"/>
	<line x1="3791.20" y1="338.59" x2="3825.11" y2="324.36" stroke-linecap="round" style="stroke:#2166AC;stroke-width:8.64"/>
	<line x1="3825.11" y1="324.36" x2="3859.02" y2="310.13" stroke-linecap="round" style="stroke:#2166AC;stroke-width:8.64"/>
	<line x1="465.67" y1="2489.31" x2="499.70" y2="2488.94" stroke-linecap="round" style="stroke:#B2182B;stroke-width:8.64"/>
	<line x1="499.70" y1="2488.94" x2="533.61" y2="2487.58" stroke-linecap="round" style="stroke:#B2182B;stroke-width:8.64"/>
	<line x1="533.61" y1="2487.58" x2="567.52" y2="2484.36" stroke-linecap="round" style="stroke:#B2182B;stroke-width:8.64"/>
	<line x1="567.52" y1="2484.36" x2="601.42" y2="2479.41" stroke-linecap="round" style="stroke:#B2182B;stroke-width:8.64"/>
	<line x1="601.42" y1="2479.41" x2="635.33" y2="2472.48" stroke-linecap="round" style="stroke:#B2182B;stroke-width:8.64"/>
	<line x1="635.33" y1="2472.48" x2="669.36" y2="2463.44" stroke-linecap="round" style="stroke:#B2182B;stroke-width:8.64"/>
	<line x1="669.36" y1="2463.44" x2="703.27" y2="2452.43" stroke-linecap="round" style="stroke:#B2182B;stroke-width:8.64"/>
	<line x1="703.27" y1="2452.43" x2="737.18" y2="2439.68" stroke-linecap="round" style="stroke:#B2182B;stroke-width:8.64"/>
	<line x1="737.18" y1="2439.68" x2="771.09" y2="2425.08" stroke-linecap="round" style="stroke:#B2182B;stroke-width:8.64"/>
	<line x1="771.09" y1="2425.08" x2="804.99" y2="2408.75" stroke-linecap="round" style="stroke:#B2182B;stroke-width:8.64"/>
	<line x1="804.99" y1="2408.75" x2="839.02" y2="2390.92" stroke-linecap="round" style="stroke:#B2182B;stroke-width:8.64"/>
	<line x1="839.02" y1="2390.92" x2="872.93" y2="2371.74" stroke-linecap="round" style="stroke:#B2182B;stroke-width:8.64"/>
	<line x1="872.93" y1="2371.74" x2="906.84" y2="2351.20" stroke-linecap="round" style="stroke:#B2182B;stroke-width:8.64"/>
	<line x1="906.84" y1="2351.20" x2="940.75" y2="2329.54" stroke-linecap="round" style="stroke:#B2182B;stroke-width:8.64"/>
	<line x1="940.75" y1="2329.54" x2="974.65" y2="2306.77" stroke-linecap="round" style="stroke:#B2182B;stroke-width:8.64"/>
	<line x1="974.65" y1="2306.77" x2="1008.69" y2="2283.14" stroke-linecap="round" style="stroke:#B2182B;stroke-width:8.64"/>
	<line x1="1008.69" y1="2283.14" x2="1042.59" y2="2258.51" stroke-linecap="round" style="stroke:#B2182B;stroke-width:8.64"/>
	<line x1="1042.59" y1="2258.51" x2="1076.50" y2="2233.39" stroke-linecap="round" style="stroke:#B2182B;stroke-width:8.64"/>
	<line x1="1076.50" y1="2233.39" x2="1110.41" y2="2207.52" stroke-linecap="round" style="stroke:#B2182B;stroke-width:8.64"/>
	<line x1="1110.41" y1="2207.52" x2="1144.32" y2="2181.04" stroke-linecap="round" style="stroke:#B2182B;stroke-width:8.64"/>
	<line x1="1144.32" y1="2181.04" x2="1178.35" y2="2154.18" stroke-linecap="round" style="stroke:#B2182B;stroke-width:8.64"/>
	<line x1="1178.35" y1="2154.18" x2="1212.26" y2="2126.96" stroke-linecap="round" style="stroke:#B2182B;stroke-width:8.64"/>
	<line x1="1212.26" y1="2126.96" x2="1246.16" y2="2099.48" stroke-linecap="round" style="stroke:#B2182B;stroke-width:8.64"/>
	<line x1="1246.16" y1="2099.48" x2="1280.07" y2="2071.76" stroke-linecap="round" style="stroke:#B2182B;stroke-width:8.64"/>
	<line x1="1280.07" y1="2071.76" x2="1314.10" y2="2043.80" stroke-linecap="round" style="stroke:#B2182B;stroke-width:8.64"/>
	<line x1="1314.10" y1="2043.80" x2="1348.01" y2="2015.83" stroke-linecap="round" style="stroke:#B2182B;stroke-width:8.64"/>
	<line x1="1348.01" y1="2015.83" x2="1381.92" y2="1987.86" stroke-linecap="round" style="stroke:#B2182B;stroke-width:8.64"/>
	<line x1="1381.92" y1="1987.86" x2="1415.82" y2="1959.89" stroke-linecap="round" style="stroke:#B2182B;stroke-width:8.64"/>
	<line x1="1415.82" y1="1959.89" x2="1449.73" y2="1932.05" stroke-linecap="round" style="stroke:#B2182B;stroke-width:8.64"/>
	<line x1="1449.73" y1="1932.05" x2="1483.76" y2="1904.20" stroke-linecap="round" style="stroke:#B2182B;stroke-width:8.64"/>
	<line x1="1483.76" y1="1904.20" x2="1517.67" y2="1876.73" stroke-linecap="round" style="stroke:#B2182B;stroke-width:8.64"/>
	<line x1="1517.67" y1="1876.73" x2="1551.58" y2="1849.38" stroke-linecap="round" style="stroke:#B2182B;stroke-width:8.64"/>
	<line x1="1551.58" y1="1849.38" x2="1585.48" y2="1822.40" stroke-linecap="round" style="stroke:#B2182B;stroke-width:8.64"/>
	<line x1="1585.48" y1="1822.40" x2="1619.39" y2="1795.67" stroke-linecap="round" style="stroke:#B2182B;stroke-width:8.64"/>
	<line x1="1619.39" y1="1795.67" x2="1653.42" y2="1769.31" stroke-linecap="round" style="stroke:#B2182B;stroke-width:8.64"/>
	<line x1="1653.42" y1="1769.31" x2="1687.33" y2="1743.32" stroke-linecap="round" style="stroke:#B2182B;stroke-width:8.64"/>
	<line x1="1687.33" y1="1743.32" x2="1721.24" y2="1717.70" stroke-linecap="round" style="stroke:#B2182B;stroke-width:8.64"/>
	<line x1="1721.24" y1="1717.70" x2="1755.15" y2="1692.46" stroke-linecap="round" style="stroke:#B2182B;stroke-width:8.64"/>
	<line x1="1755.15" y1="1692.46" x2="1789.05" y2="1667.71" stroke-linecap="round" style="stroke:#B2182B;stroke-width:8.64"/>
	<line x1="1789.05" y1="1667.71" x2="1823.09" y2="1643.33" stroke-linecap="round" style="stroke:#B2182B;stroke-width:8.64"/>
	<line x1="1823.09" y1="1643.33" x2="1856.99" y2="1619.44" stroke-linecap="round" style="stroke:#B2182B;stroke-width:8.64"/>
	<line x1="1856.99" y1="1619.44" x2="1890.90" y2="1595.93" stroke-linecap="round" style="stroke:#B2182B;stroke-width:8.64"/>
	<line x1="1890.90" y1="1595.93" x2="1924.81" y2="1572.79" stroke-linecap="round" style="stroke:#B2182B;stroke-width:8.64"/>
	<line x1="1924.81" y1="1572.79" x2="1958.71" y2="1550.02" stroke-linecap="round" style="stroke:#B2182B;stroke-width:8.64"/>
	<line x1="1958.71" y1="1550.02" x2="1992.75" y2="1527.74" stroke-linecap="round" style="stroke:#B2182B;stroke-width:8.64"/>
	<line x1="1992.75" y1="1527.74" x2="2026.65" y2="1505.71" stroke-linecap="round" style="stroke:#B2182B;stroke-width:8.64"/>
	<line x1="2026.65" y1="1505.71" x2="2060.56" y2="1484.06" stroke-linecap="round" style="stroke:#B2182B;stroke-width:8.64"/>
	<line x1="2060.56" y1="1484.06" x2="2094.47" y2="1462.77" stroke-linecap="round" style="stroke:#B2182B;stroke-width:8.64"/>
	<line x1="2094.47" y1="1462.77" x2="2128.38" y2="1441.73" stroke-linecap="round" style="stroke:#B2182B;stroke-width:8.64"/>
	<line x1="2128.38" y1="1441.73" x2="2162.41" y2="1421.07" stroke-linecap="round" style="stroke:#B2182B;stroke-width:8.64"/>
	<line x1="2162.41" y1="1421.07" x2="2196.32" y2="1400.65" stroke-linecap="round" style="stroke:#B2182B;stroke-width:8.64"/>
	<line x1="2196.32" y1="1400.65" x2="2230.22" y2="1380.47" stroke-linecap="round" style="stroke:#B2182B;stroke-width:8.64"/>
	<line x1="2230.22" y1="1380.47" x2="2264.13" y2="1360.67" stroke-linecap="round" style="stroke:#B2182B;stroke-width:8.64"/>
	<line x1="2264.13" y1="1360.67" x2="2298.16" y2="1341.00" stroke-linecap="round" style="stroke:#B2182B;stroke-width:8.64"/>
	<line x1="2298.16" y1="1341.00" x2="2332.07" y2="1321.69" stroke-linecap="round" style="stroke:#B2182B;stroke-width:8.64"/>
	<line x1="2332.07" y1="1321.69" x2="2365.98" y2="1302.51" stroke-linecap="round" style="stroke:#B2182B;stroke-width:8.64"/>
	<line x1="2365.98" y1="1302.51" x2="2399.88" y2="1283.70" stroke-linecap="round" style="stroke:#B2182B;stroke-width:8.64"/>
	<line x1="2399.88" y1="1283.70" x2="2433.79" y2="1264.89" stroke-linecap="round" style="stroke:#B2182B;stroke-width:8.64"/>
	<line x1="2433.79" y1="1264.89" x2="2467.82" y2="1246.45" stroke-linecap="round" style="stroke:#B2182B;stroke-width:8.64"/>
	<line x1="2467.82" y1="1246.45" x2="2501.73" y2="1228.13" stroke-linecap="round" style="stroke:#B2182B;stroke-width:8.64"/>
	<line x1="2501.73" y1="1228.13" x2="2535.64" y2="1210.07" stroke-linecap="round" style="stroke:#B2182B;stroke-width:8.64"/>
	<line x1="2535.64" y1="1210.07" x2="2569.55" y2="1192.12" stroke-linecap="round" style="stroke:#B2182B;stroke-width:8.64"/>
	<line x1="2569.55" y1="1192.12" x2="2603.45" y2="1174.30" stroke-linecap="round" style="stroke:#B2182B;stroke-width:8.64"/>
	<line x1="2603.45" y1="1174.30" x2="2637.48" y2="1156.73" stroke-linecap="round" style="stroke:#B2182B;stroke-width:8.64"/>
	<line x1="2637.48" y1="1156.73" x2="2671.39" y2="1139.40" stroke-linecap="round" style="stroke:#B2182B;stroke-width:8.64"/>
	<line x1="2671.39" y1="1139.40" x2="2705.30" y2="1122.20" stroke-linecap="round" style="stroke:#B2182B;stroke-width:8.64"/>
	<line x1="2705.30" y1="1122.20" x2="2739.21" y2="1105.12" stroke-linecap="round" style="stroke:#B2182B;stroke-width:8.64"/>
	<line x1="2739.21" y1="1105.12" x2="2773.11" y2="1088.17" stroke-linecap="round" style="stroke:#B2182B;stroke-width:8.64"/>
	<line x1="2773.11" y1="1088.17" x2="2807.14" y2="1071.46" stroke-linecap="round" style="stroke:#B2182B;stroke-width:8.64"/>
	<line x1="2807.14" y1="1071.46" x2="2841.05" y2="1054.88" stroke-linecap="round" style="stroke:#B2182B;stroke-width:8.64"/>
	<line x1="2841.05" y1="1054.88" x2="2874.96" y2="1038.42" stroke-linecap="round" style="stroke:#B2182B;stroke-width:8.64"/>
	<line x1="2874.96" y1="1038.42" x2="2908.87" y2="1022.08" stroke-linecap="round" style="stroke:#B2182B;stroke-width:8.64"/>
	<line x1="2908.87" y1="1022.08" x2="2942.78" y2="1005.87" stroke-linecap="round" style="stroke:#B2182B;stroke-width:8.64"/>
	<line x1="2942.78" y1="1005.87" x2="2976.81" y2="989.91" stroke-linecap="round" style="stroke:#B2182B;stroke-width:8.64"/>
	<line x1="2976.81" y1="989.91" x2="3010.71" y2="974.07" stroke-linecap="round" style="stroke:#B2182B;stroke-width:8.64"/>
	<line x1="3010.71" y1="974.07" x2="3044.62" y2="958.23" stroke-linecap="round" style="stroke:#B2182B;stroke-width:8.64"/>
	<line x1="3044.62" y1="958.23" x2="3078.53" y2="942.63" stroke-linecap="round" style="stroke:#B2182B;stroke-width:8.64"/>
	<line x1="3078.53" y1="942.63" x2="3112.44" y2="927.16" stroke-linecap="round" style="stroke:#B2182B;stroke-width:8.64"/>
	<line x1="3112.44" y1="927.16" x2="3146.47" y2="911.82" stroke-linecap="round" style="stroke:#B2182B;stroke-width:8.64"/>
	<line x1="3146.47" y1="911.82" x2="3180.38" y2="896.60" stroke-linecap="round" style="stroke:#B2182B;stroke-width:8.64"/>
	<line x1="3180.38" y1="896.60" x2="3214.28" y2="881.50" stroke-linecap="round" style="stroke:#B2182B;stroke-width:8.64"/>
	<line x1="3214.28" y1="881.50" x2="3248.19" y2="866.40" stroke-linecap="round" style="stroke:#B2182B;stroke-width:8.64"/>
	<line x1="3248.19" y1="866.40" x2="3282.10" y2="851.55" stroke-linecap="round" style="stroke:#B2182B;stroke-width:8.64"/>
	<line x1="3282.10" y1="851.55" x2="3316.13" y2="836.82" stroke-linecap="round" style="stroke:#B2182B;stroke-width:8.64"/>
	<line x1="3316.13" y1="836.82" x2="3350.04" y2="822.10" stroke-linecap="round" style="stroke:#B2182B;stroke-width:8.64"/>
	<line x1="3350.04" y1="822.10" x2="3383.94" y2="807.62" stroke-linecap="round" style="stroke:#B2182B;stroke-width:8.64"/>
	<line x1="3383.94" y1="807.62" x2="3417.85" y2="793.14" stroke-linecap="round" style="stroke:#B2182B;stroke-width:8.64"/>
	<line x1="3417.85" y1="793.14" x2="3451.88" y2="778.78" stroke-linecap="round" style="stroke:#B2182B;stroke-width:8.64"/>
	<line x1="3451.88" y1="778.78" x2="3485.79" y2="764.55" stroke-linecap="round" style="stroke:#B2182B;stroke-width:8.64"/>
	<line x1="3485.79" y1="764.55" x2="3519.70" y2="750.44" stroke-linecap="round" style="stroke:#B2182B;stroke-width:8.64"/>
	<line x1="3519.70" y1="750.44" x2="3553.61" y2="736.46" stroke-linecap="round" style="stroke:#B2182B;stroke-width:8.64"/>
	<line x1="3553.61" y1="736.46" x2="3587.51" y2="722.48" stroke-linecap="round" style="stroke:#B2182B;stroke-width:8.64"/>
	<line x1="3587.51" y1="722.48" x2="3621.54" y2="708.61" stroke-linecap="round" style="stroke:#B2182B;stroke-width:8.64"/>
	<line x1="3621.54" y1="708.61" x2="3655.45" y2="694.88" stroke-linecap="round" style="stroke:#B2182B;stroke-width:8.64"/>
	<line x1="3655.45" y1="694.88" x2="3689.36" y2="681.27" stroke-linecap="round" style="stroke:#B2182B;stroke-width:8.64"/>
	<line x1="3689.36" y1="681.27" x2="3723.27" y2="667.65" stroke-linecap="round" style="stroke:#B2182B;stroke-width:8.64"/>
	<line x1="3723.27" y1="667.65" x2="3757.17" y2="654.16" stroke-linecap="round" style="stroke:#B2182B;stroke-width:8.64"/>
	<line x1="3757.17" y1="654.16" x2="3791.20" y2="640.80" stroke-linecap="round" style="stroke:#B2182B;stroke-width:8.64"/>
	<line x1="3791.20" y1="640.80" x2="3825.11" y2="627.56" stroke-linecap="round" style="stroke:#B2182B;stroke-width:8.64"/>
	<line x1="3825.11" y1="627.56" x2="3859.02" y2="614.31" stroke-linecap="round" style="stroke:#B2182B;stroke-width:8.64"/>
	<line x1="465.67" y1="2489.31" x2="499.70" y2="2488.94" stroke-linecap="round" style="stroke:#1B7837;stroke-width:8.64"/>
	<line x1="499.70" y1="2488.94" x2="533.61" y2="2487.21" stroke-linecap="round" style="stroke:#1B7837;stroke-width:8.64"/>
	<line x1="533.61" y1="2487.21" x2="567.52" y2="2483.37" stroke-linecap="round" style="stroke:#1B7837;stroke-width:8.64"/>
	<line x1="567.52" y1="2483.37" x2="601.42" y2="2477.30" stroke-linecap="round" style="stroke:#1B7837;stroke-width:8.64"/>
	<line x1="601.42" y1="2477.30" x2="635.33" y2="2468.89" stroke-linecap="round" style="stroke:#1B7837;stroke-width:8.64"/>
	<line x1="635.33" y1="2468.89" x2="669.36" y2="2458.00" stroke-linecap="round" style="stroke:#1B7837;stroke-width:8.64"/>
	<line x1="669.36" y1="2458.00" x2="703.27" y2="2444.76" stroke-linecap="round" style="stroke:#1B7837;stroke-width:8.64"/>
	<line x1="703.27" y1="2444.76" x2="737.18" y2="2429.29" stroke-linecap="round" style="stroke:#1B7837;stroke-width:8.64"/>
	<line x1="737.18" y1="2429.29" x2="771.09" y2="2411.72" stroke-linecap="round" style="stroke:#1B7837;stroke-width:8.64"/>
	<line x1="771.09" y1="2411.72" x2="804.99" y2="2392.04" stroke-linecap="round" style="stroke:#1B7837;stroke-width:8.64"/>
	<line x1="804.99" y1="2392.04" x2="839.02" y2="2370.63" stroke-linecap="round" style="stroke:#1B7837;stroke-width:8.64"/>
	<line x1="839.02" y1="2370.63" x2="872.93" y2="2347.49" stroke-linecap="round" style="stroke:#1B7837;stroke-width:8.64"/>
	<line x1="872.93" y1="2347.49" x2="906.84" y2="2322.86" stroke-linecap="round" style="stroke:#1B7837;stroke-width:8.64"/>
	<line x1="906.84" y1="2322.86" x2="940.75" y2="2296.87" stroke-linecap="round" style="stroke:#1B7837;stroke-width:8.64"/>
	<line x1="940.75" y1="2296.87" x2="974.65" y2="2269.52" stroke-linecap="round" style="stroke:#1B7837;stroke-width:8.64"/>
	<line x1="974.65" y1="2269.52" x2="1008.69" y2="2241.31" stroke-linecap="round" style="stroke:#1B7837;stroke-width:8.64"/>
	<line x1="1008.69" y1="2241.31" x2="1042.59" y2="2211.98" stroke-linecap="round" style="stroke:#1B7837;stroke-width:8.64"/>
	<line x1="1042.59" y1="2211.98" x2="1076.50" y2="2181.90" stroke-linecap="round" style="stroke:#1B7837;stroke-width:8.64"/>
	<line x1="1076.50" y1="2181.90" x2="1110.41" y2="2151.21" stroke-linecap="round" style="stroke:#1B7837;stroke-width:8.64"/>
	<line x1="1110.41" y1="2151.21" x2="1144.32" y2="2119.78" stroke-linecap="round" style="stroke:#1B7837;stroke-width:8.64"/>
	<line x1="1144.32" y1="2119.78" x2="1178.35" y2="2087.98" stroke-linecap="round" style="stroke:#1B7837;stroke-width:8.64"/>
	<line x1="1178.35" y1="2087.98" x2="1212.26" y2="2055.80" stroke-linecap="round" style="stroke:#1B7837;stroke-width:8.64"/>
	<line x1="1212.26" y1="2055.80" x2="1246.16" y2="2023.25" stroke-linecap="round" style="stroke:#1B7837;stroke-width:8.64"/>
	<line x1="1246.16" y1="2023.25" x2="1280.07" y2="1990.46" stroke-linecap="round" style="stroke:#1B7837;stroke-width:8.64"/>
	<line x1="1280.07" y1="1990.46" x2="1314.10" y2="1957.66" stroke-linecap="round" style="stroke:#1B7837;stroke-width:8.64"/>
	<line x1="1314.10" y1="1957.66" x2="1348.01" y2="1924.74" stroke-linecap="round" style="stroke:#1B7837;stroke-width:8.64"/>
	<line x1="1348.01" y1="1924.74" x2="1381.92" y2="1891.95" stroke-linecap="round" style="stroke:#1B7837;stroke-width:8.64"/>
	<line x1="1381.92" y1="1891.95" x2="1415.82" y2="1859.15" stroke-linecap="round" style="stroke:#1B7837;stroke-width:8.64"/>
	<line x1="1415.82" y1="1859.15" x2="1449.73" y2="1826.61" stroke-linecap="round" style="stroke:#1B7837;stroke-width:8.64"/>
	<line x1="1449.73" y1="1826.61" x2="1483.76" y2="1794.18" stroke-linecap="round" style="stroke:#1B7837;stroke-width:8.64"/>
	<line x1="1483.76" y1="1794.18" x2="1517.67" y2="1762.13" stroke-linecap="round" style="stroke:#1B7837;stroke-width:8.64"/>
	<line x1="1517.67" y1="1762.13" x2="1551.58" y2="1730.33" stroke-linecap="round" style="stroke:#1B7837;stroke-width:8.64"/>
	<line x1="1551.58" y1="1730.33" x2="1585.48" y2="1699.02" stroke-linecap="round" style="stroke:#1B7837;stroke-width:8.64"/>
	<line x1="1585.48" y1="1699.02" x2="1619.39" y2="1668.08" stroke-linecap="round" style="stroke:#1B7837;stroke-width:8.64"/>
	<line x1="1619.39" y1="1668.08" x2="1653.42" y2="1637.51" stroke-linecap="round" style="stroke:#1B7837;stroke-width:8.64"/>
	<line x1="1653.42" y1="1637.51" x2="1687.33" y2="1607.44" stroke-linecap="round" style="stroke:#1B7837;stroke-width:8.64"/>
	<line x1="1687.33" y1="1607.44" x2="1721.24" y2="1577.99" stroke-linecap="round" style="stroke:#1B7837;stroke-width:8.64"/>
	<line x1="1721.24" y1="1577.99" x2="1755.15" y2="1548.90" stroke-linecap="round" style="stroke:#1B7837;stroke-width:8.64"/>
	<line x1="1755.15" y1="1548.90" x2="1789.05" y2="1520.44" stroke-linecap="round" style="stroke:#1B7837;stroke-width:8.64"/>
	<line x1="1789.05" y1="1520.44" x2="1823.09" y2="1492.47" stroke-linecap="round" style="stroke:#1B7837;stroke-width:8.64"/>
	<line x1="1823.09" y1="1492.47" x2="1856.99" y2="1465.00" stroke-linecap="round" style="stroke:#1B7837;stroke-width:8.64"/>
	<line x1="1856.99" y1="1465.00" x2="1890.90" y2="1438.14" stroke-linecap="round" style="stroke:#1B7837;stroke-width:8.64"/>
	<line x1="1890.90" y1="1438.14" x2="1924.81" y2="1411.78" stroke-linecap="round" style="stroke:#1B7837;stroke-width:8.64"/>
	<line x1="1924.81" y1="1411.78" x2="1958.71" y2="1385.80" stroke-linecap="round" style="stroke:#1B7837;stroke-width:8.64"/>
	<line x1="1958.71" y1="1385.80" x2="1992.75" y2="1360.30" stroke-linecap="round" style="stroke:#1B7837;stroke-width:8.64"/>
	<line x1="1992.75" y1="1360.30" x2="2026.65" y2="1335.30" stroke-linecap="round" style="stroke:#1B7837;stroke-width:8.64"/>
	<line x1="2026.65" y1="1335.30" x2="2060.56" y2="1310.68" stroke-linecap="round" style="stroke:#1B7837;stroke-width:8.64"/>
	<line x1="2060.56" y1="1310.68" x2="2094.47" y2="1286.55" stroke-linecap="round" style="stroke:#1B7837;stroke-width:8.64"/>
	<line x1="2094.47" y1="1286.55" x2="2128.38" y2="1262.66" stroke-linecap="round" style="stroke:#1B7837;stroke-width:8.64"/>
	<line x1="2128.38" y1="1262.66" x2="2162.41" y2="1239.27" stroke-linecap="round" style="stroke:#1B7837;stroke-width:8.64"/>
	<line x1="2162.41" y1="1239.27" x2="2196.32" y2="1216.25" stroke-linecap="round" style="stroke:#1B7837;stroke-width:8.64"/>
	<line x1="2196.32" y1="1216.25" x2="2230.22" y2="1193.48" stroke-linecap="round" style="stroke:#1B7837;stroke-width:8.64"/>
	<line x1="2230.22" y1="1193.48" x2="2264.13" y2="1171.08" stroke-linecap="round" style="stroke:#1B7837;stroke-width:8.64"/>
	<line x1="2264.13" y1="1171.08" x2="2298.16" y2="1149.05" stroke-linecap="round" style="stroke:#1B7837;stroke-width:8.64"/>
	<line x1="2298.16" y1="1149.05" x2="2332.07" y2="1127.27" stroke-linecap="round" style="stroke:#1B7837;stroke-width:8.64"/>
	<line x1="2332.07" y1="1127.27" x2="2365.98" y2="1105.74" stroke-linecap="round" style="stroke:#1B7837;stroke-width:8.64"/>
	<line x1="2365.98" y1="1105.74" x2="2399.88" y2="1084.58" stroke-linecap="round" style="stroke:#1B7837;stroke-width:8.64"/>
	<line x1="2399.88" y1="1084.58" x2="2433.79" y2="1063.54" stroke-linecap="round" style="stroke:#1B7837;stroke-width:8.64"/>
	<line x1="2433.79" y1="1063.54" x2="2467.82" y2="1042.87" stroke-linecap="round" style="stroke:#1B7837;stroke-width:8.64"/>
	<line x1="2467.82" y1="1042.87" x2="2501.73" y2="1022.33" stroke-linecap="round" style="stroke:#1B7837;stroke-width:8.64"/>
	<line x1="2501.73" y1="1022.33" x2="2535.64" y2="1002.16" stroke-linecap="round" style="stroke:#1B7837;stroke-width:8.64"/>
	<line x1="2535.64" y1="1002.16" x2="2569.55" y2="982.11" stroke-linecap="round" style="stroke:#1B7837;stroke-width:8.64"/>
	<line x1="2569.55" y1="982.11" x2="2603.45" y2="962.31" stroke-linecap="round" style="stroke:#1B7837;stroke-width:8.64"/>
	<line x1="2603.45" y1="962.31" x2="2637.48" y2="942.76" stroke-linecap="round" style="stroke:#1B7837;stroke-width:8.64"/>
	<line x1="2637.48" y1="942.76" x2="2671.39" y2="923.45" stroke-linecap="round" style="stroke:#1B7837;stroke-width:8.64"/>
	<line x1="2671.39" y1="923.45" x2="2705.30" y2="904.27" stroke-linecap="round" style="stroke:#1B7837;stroke-width:8.64"/>
	<line x1="2705.30" y1="904.27" x2="2739.21" y2="885.34" stroke-linecap="round" style="stroke:#1B7837;stroke-width:8.64"/>
	<line x1="2739.21" y1="885.34" x2="2773.11" y2="866.52" stroke-linecap="round" style="stroke:#1B7837;stroke-width:8.64"/>
	<line x1="2773.11" y1="866.52" x2="2807.14" y2="847.96" stroke-linecap="round" style="stroke:#1B7837;stroke-width:8.64"/>
	<line x1="2807.14" y1="847.96" x2="2841.05" y2="829.65" stroke-linecap="round" style="stroke:#1B7837;stroke-width:8.64"/>
	<line x1="2841.05" y1="829.65" x2="2874.96" y2="811.45" stroke-linecap="round" style="stroke:#1B7837;stroke-width:8.64"/>
	<line x1="2874.96" y1="811.45" x2="2908.87" y2="793.51" stroke-linecap="round" style="stroke:#1B7837;stroke-width:8.64"/>
	<line x1="2908.87" y1="793.51" x2="2942.78" y2="775.57" stroke-linecap="round" style="stroke:#1B7837;stroke-width:8.64"/>
	<line x1="2942.78" y1="775.57" x2="2976.81" y2="757.99" stroke-linecap="round" style="stroke:#1B7837;stroke-width:8.64"/>
	<line x1="2976.81" y1="757.99" x2="3010.71" y2="740.42" stroke-linecap="round" style="stroke:#1B7837;stroke-width:8.64"/>
	<line x1="3010.71" y1="740.42" x2="3044.62" y2="723.09" stroke-linecap="round" style="stroke:#1B7837;stroke-width:8.64"/>
	<line x1="3044.62" y1="723.09" x2="3078.53" y2="706.02" stroke-linecap="round" style="stroke:#1B7837;stroke-width:8.64"/>
	<line x1="3078.53" y1="706.02" x2="3112.44" y2="688.94" stroke-linecap="round" style="stroke:#1B7837;stroke-width:8.64"/>
	<line x1="3112.44" y1="688.94" x2="3146.47" y2="672.11" stroke-linecap="round" style="stroke:#1B7837;stroke-width:8.64"/>
	<line x1="3146.47" y1="672.11" x2="3180.38" y2="655.40" stroke-linecap="round" style="stroke:#1B7837;stroke-width:8.64"/>
	<line x1="3180.38" y1="655.40" x2="3214.28" y2="638.82" stroke-linecap="round" style="stroke:#1B7837;stroke-width:8.64"/>
	<line x1="3214.28" y1="638.82" x2="3248.19" y2="622.48" stroke-linecap="round" style="stroke:#1B7837;stroke-width:8.64"/>
	<line x1="3248.19" y1="622.48" x2="3282.10" y2="606.15" stroke-linecap="round" style="stroke:#1B7837;stroke-width:8.64"/>
	<line x1="3282.10" y1="606.15" x2="3316.13" y2="590.06" stroke-linecap="round" style="stroke:#1B7837;stroke-width:8.64"/>
	<line x1="3316.13" y1="590.06" x2="3350.04" y2="574.09" stroke-linecap="round" style="stroke:#1B7837;stroke-width:8.64"/>
	<line x1="3350.04" y1="574.09" x2="3383.94" y2="558.25" stroke-linecap="round" style="stroke:#1B7837;stroke-width:8.64"/>
	<line x1="3383.94" y1="558.25" x2="3417.85" y2="542.54" stroke-linecap="round" style="stroke:#1B7837;stroke-width:8.64"/>
	<line x1="3417.85" y1="542.54" x2="3451.88" y2="526.82" stroke-linecap="round" style="stroke:#1B7837;stroke-width:8.64"/>
	<line x1="3451.88" y1="526.82" x2="3485.79" y2="511.35" stroke-linecap="round" style="stroke:#1B7837;stroke-width:8.64"/>
	<line x1="3485.79" y1="511.35" x2="3519.70" y2="496.01" stroke-linecap="round" style="stroke:#1B7837;stroke-width:8.64"/>
	<line x1="3519.70" y1="496.01" x2="3553.61" y2="480.78" stroke-linecap="round" style="stroke:#1B7837;stroke-width:8.64"/>
	<line x1="3553.61" y1="480.78" x2="3587.51" y2="465.69" stroke-linecap="round" style="stroke:#1B7837;stroke-width:8.64"/>
	<line x1="3587.51" y1="465.69" x2="3621.54" y2="450.71" stroke-linecap="round" style="stroke:#1B7837;stroke-width:8.64"/>
	<line x1="3621.54" y1="450.71" x2="3655.45" y2="435.86" stroke-linecap="round" style="stroke:#1B7837;stroke-width:8.64"/>
	<line x1="3655.45" y1="435.86" x2="3689.36" y2="421.13" stroke-linecap="round" style="stroke:#1B7837;stroke-width:8.64"/>
	<line x1="3689.36" y1="421.13" x2="3723.27" y2="406.41" stroke-linecap="round" style="stroke:#1B7837;stroke-width:8.64"/>
	<line x1="3723.27" y1="406.41" x2="3757.17" y2="391.93" stroke-linecap="round" style="stroke:#1B7837;stroke-width:8.64"/>
	<line x1="3757.17" y1="391.93" x2="3791.20" y2="377.45" stroke-linecap="round" style="stroke:#1B7837;stroke-width:8.64"/>
	<line x1="3791.20" y1="377.45" x2="3825.11" y2="363.09" stroke-linecap="round" style="stroke:#1B7837;stroke-width:8.64"/>
	<line x1="3825.11" y1="363.09" x2="3859.02" y2="348.86" stroke-linecap="round" style="stroke:#1B7837;stroke-width:8.64"/>
	<line x1="465.80" y1="2489.19" x2="425.82" y2="2489.19" style="stroke:#000000;stroke-width:5.76"/>
	<text x="405.78" y="2524.21" style="font-family:'Helvetica';font-size:99.99px;fill:#000000" text-anchor="end">0.0</text>
	<line x1="465.80" y1="2011.50" x2="425.82" y2="2011.50" style="stroke:#000000;stroke-width:5.76"/>
	<text x="405.78" y="2046.52" style="font-family:'Helvetica';font-size:99.99px;fill:#000000" text-anchor="end">0.1</text>
	<line x1="465.80" y1="1533.81" x2="425.82" y2="1533.81" style="stroke:#000000;stroke-width:5.76"/>
	<text x="405.78" y="1568.83" style="font-family:'Helvetica';font-size:99.99px;fill:#000000" text-anchor="end">0.2</text>
	<line x1="465.80" y1="1056.12" x2="425.82" y2="1056.12" style="stroke:#000000;stroke-width:5.76"/>
	<text x="405.78" y="1091.14" style="font-family:'Helvetica';font-size:99.99px;fill:#000000" text-anchor="end">0.3</text>
	<line x1="465.80" y1="578.43" x2="425.82" y2="578.43" style="stroke:#000000;stroke-width:5.76"/>
	<text x="405.78" y="613.45" style="font-family:'Helvetica';font-size:99.99px;fill:#000000" text-anchor="end">0.4</text>
	<line x1="465.80" y1="100.86" x2="425.82" y2="100.86" style="stroke:#000000;stroke-width:5.76"/>
	<text x="405.78" y="135.89" style="font-family:'Helvetica';font-size:99.99px;fill:#000000" text-anchor="end">0.5</text>
	<line x1="465.80" y1="2489.19" x2="465.80" y2="100.86" style="stroke:#000000;stroke-width:5.76"/>
	<text x="190.71" y="1294.96" style="font-family:'Helvetica';font-size:99.99px;fill:#000000" transform="rotate(-90 190.71,1294.96)" text-anchor="middle">S(t)</text>
	<line x1="465.80" y1="2489.19" x2="465.80" y2="2529.16" style="stroke:#000000;stroke-width:5.76"/>
	<text x="465.80" y="2619.14" style="font-family:'Helvetica';font-size:99.99px;fill:#000000" text-anchor="middle">0</text>
	<line x1="1144.44" y1="2489.19" x2="1144.44" y2="2529.16" style="stroke:#000000;stroke-width:5.76"/>
	<text x="1144.44" y="2619.14" style="font-family:'Helvetica';font-size:99.99px;fill:#000000" text-anchor="middle">2</text>
	<line x1="1823.09" y1="2489.19" x2="1823.09" y2="2529.16" style="stroke:#000000;stroke-width:5.76"/>
	<text x="1823.09" y="2619.14" style="font-family:'Helvetica';font-size:99.99px;fill:#000000" text-anchor="middle">4</text>
	<line x1="2501.73" y1="2489.19" x2="2501.73" y2="2529.16" style="stroke:#000000;stroke-width:5.76"/>
	<text x="2501.73" y="2619.14" style="font-family:'Helvetica';font-size:99.99px;fill:#000000" text-anchor="middle">6</text>
	<line x1="3180.38" y1="2489.19" x2="3180.38" y2="2529.16" style="stroke:#000000;stroke-width:5.76"/>
	<text x="3180.38" y="2619.14" style="font-family:'Helvetica';font-size:99.99px;fill:#000000" text-anchor="middle">8</text>
	<line x1="3859.02" y1="2489.19" x2="3859.02" y2="2529.16" style="stroke:#000000;stroke-width:5.76"/>
	<text x="3859.02" y="2619.14" style="font-family:'Helvetica';font-size:99.99px;fill:#000000" text-anchor="middle">10</text>
	<line x1="465.80" y1="2489.19" x2="3859.02" y2="2489.19" style="stroke:#000000;stroke-width:5.76"/>
	<text x="2162.41" y="2729.16" style="font-family:'Helvetica';font-size:99.99px;fill:#000000" text-anchor="middle">Years from surgery</text>
	<line x1="543.51" y1="228.57" x2="743.49" y2="228.57" style="stroke:#2166AC;stroke-width:8.64"/>
	<line x1="543.51" y1="368.54" x2="743.49" y2="368.54" style="stroke:#B2182B;stroke-width:8.64"/>
	<line x1="543.51" y1="508.50" x2="743.49" y2="508.50" style="stroke:#1B7837;stroke-width:8.64"/>
	<text x="803.51" y="263.60" style="font-family:'Helvetica';font-size:99.99px;fill:#000000">No treatment</text>
	<text x="803.51" y="403.57" style="font-family:'Helvetica';font-size:99.99px;fill:#000000">Treatment</text>
	<text x="803.51" y="543.53" style="font-family:'Helvetica';font-size:99.99px;fill:#000000">All</text>
</svg>
