<?xml version="1.0" encoding="UTF-8" standalone="no"?>
<!-- This is a Stata 15.1 generated SVG file (http://www.stata.com) -->

<svg version="1.1" width="700px" height="509px" viewBox="0 0 3960 2880" xmlns="http://www.w3.org/2000/svg" xmlns:xlink="http://www.w3.org/1999/xlink">
	<desc>Stata Graph - Graph</desc>
	<rect x="0" y="0" width="3960" height="2880" style="fill:#FFFFFF;stroke:none"/>
	<rect x="0.00" y="0.00" width="3959.88" height="2880.00" style="fill:#FFFFFF"/>
	<rect x="2.88" y="2.88" width="3954.12" height="2874.24" style="fill:none;stroke:#FFFFFF;stroke-width:5.76"/>
	<line x1="465.80" y1="2489.19" x2="3859.02" y2="2489.19" style="stroke:#E8E8E8;stroke-width:5.76"/>
	<line x1="465.80" y1="2012.24" x2="3859.02" y2="2012.24" style="stroke:#E8E8E8;stroke-width:5.76"/>
	<line x1="465.80" y1="1535.41" x2="3859.02" y2="1535.41" style="stroke:#E8E8E8;stroke-width:5.76"/>
	<line x1="465.80" y1="1058.47" x2="3859.02" y2="1058.47" style="stroke:#E8E8E8;stroke-width:5.76"/>
	<line x1="465.80" y1="581.52" x2="3859.02" y2="581.52" style="stroke:#E8E8E8;stroke-width:5.76"/>
	<line x1="465.80" y1="104.70" x2="3859.02" y2="104.70" style="stroke:#E8E8E8;stroke-width:5.76"/>
	<line x1="465.80" y1="2489.19" x2="465.80" y2="100.86" style="stroke:#E8E8E8;stroke-width:5.76"/>
	<line x1="1144.44" y1="2489.19" x2="1144.44" y2="100.86" style="stroke:#E8E8E8;stroke-width:5.76"/>
	<line x1="1823.09" y1="2489.19" x2="1823.09" y2="100.86" style="stroke:#E8E8E8;stroke-width:5.76"/>
	<line x1="2501.73" y1="2489.19" x2="2501.73" y2="100.86" style="stroke:#E8E8E8;stroke-width:5.76"/>
	<line x1="3180.38" y1="2489.19" x2="3180.38" y2="100.86" style="stroke:#E8E8E8;stroke-width:5.76"/>
	<line x1="3859.02" y1="2489.19" x2="3859.02" y2="100.86" style="stroke:#E8E8E8;stroke-width:5.76"/>
	<defs>
		<path id="path1" d="M465.80 104.70 L465.80 104.70 L500.07 105.31 L534.35 108.04 L568.63 113.61 L602.91 122.15 L637.19 133.41 L671.47 147.39 L705.75 163.85 L740.02 182.91 L774.30 204.32 L808.58 227.95 L842.86 253.82 L877.14 281.54 L911.42 310.99 L945.70 342.06 L979.98 374.48 L1014.13 408.14 L1048.41 442.54 L1082.69 477.81 L1116.97 513.58 L1151.25 549.59 L1185.53 585.85 L1219.80 622.23 L1254.08 658.49 L1288.36 694.63 L1322.64 730.52 L1356.92 766.28 L1391.20 801.68 L1425.48 836.95 L1459.76 871.85 L1494.03 906.37 L1528.31 940.41 L1562.59 974.07 L1596.87 1007.36 L1631.15 1040.03 L1665.43 1072.08 L1699.71 1103.51 L1733.98 1134.20 L1768.26 1164.28 L1802.54 1193.73 L1836.82 1222.32 L1871.10 1250.29 L1905.38 1277.63 L1939.66 1304.49 L1973.94 1330.73 L2008.21 1356.34 L2042.49 1381.59 L2076.77 1406.46 L2111.05 1430.84 L2145.33 1454.85 L2179.61 1478.61 L2213.89 1501.88 L2248.17 1524.90 L2282.45 1547.67 L2316.72 1569.94 L2351.00 1592.09 L2385.28 1613.87 L2419.44 1635.28 L2453.72 1656.57 L2487.99 1677.48 L2522.27 1698.15 L2556.55 1718.45 L2590.83 1738.62 L2625.11 1758.42 L2659.39 1777.97 L2693.67 1797.28 L2727.95 1816.46 L2762.22 1835.27 L2796.50 1853.96 L2830.78 1872.40 L2865.06 1890.59 L2899.34 1908.66 L2933.62 1926.60 L2967.90 1944.17 L3002.18 1961.75 L3036.45 1979.07 L3070.73 1996.40 L3105.01 2013.35 L3139.29 2030.31 L3173.57 2047.14 L3207.85 2063.84 L3242.13 2080.43 L3276.41 2096.89 L3310.68 2113.34 L3344.96 2129.56 L3379.24 2145.77 L3413.52 2161.86 L3447.80 2177.82 L3482.08 2193.66 L3516.36 2209.50 L3550.64 2225.34 L3584.91 2240.94 L3619.19 2256.53 L3653.47 2272.12 L3687.75 2287.47 L3722.03 2302.94 L3756.31 2318.16 L3790.59 2333.38 L3824.86 2348.60 L3859.02 2363.58 L3859.02 2181.29 L3824.86 2168.17 L3790.59 2154.93 L3756.31 2141.56 L3722.03 2127.95 L3687.75 2114.33 L3653.47 2100.47 L3619.19 2086.37 L3584.91 2072.26 L3550.64 2057.90 L3516.36 2043.30 L3482.08 2028.70 L3447.80 2013.85 L3413.52 1998.75 L3379.24 1983.53 L3344.96 1968.18 L3310.68 1952.59 L3276.41 1936.75 L3242.13 1920.78 L3207.85 1904.70 L3173.57 1888.36 L3139.29 1871.78 L3105.01 1855.07 L3070.73 1838.24 L3036.45 1821.16 L3002.18 1803.84 L2967.90 1786.39 L2933.62 1768.81 L2899.34 1750.99 L2865.06 1732.93 L2830.78 1714.73 L2796.50 1696.42 L2762.22 1677.85 L2727.95 1659.17 L2693.67 1640.36 L2659.39 1621.30 L2625.11 1601.99 L2590.83 1582.56 L2556.55 1563.01 L2522.27 1543.21 L2487.99 1523.16 L2453.72 1502.99 L2419.44 1482.57 L2385.28 1461.90 L2351.00 1440.99 L2316.72 1419.83 L2282.45 1398.29 L2248.17 1376.51 L2213.89 1354.24 L2179.61 1331.72 L2145.33 1308.70 L2111.05 1285.31 L2076.77 1261.55 L2042.49 1237.29 L2008.21 1212.54 L1973.94 1187.29 L1939.66 1161.68 L1905.38 1135.57 L1871.10 1108.96 L1836.82 1081.86 L1802.54 1054.26 L1768.26 1026.29 L1733.98 997.70 L1699.71 968.75 L1665.43 939.29 L1631.15 909.22 L1596.87 878.78 L1562.59 847.84 L1528.31 816.28 L1494.03 784.35 L1459.76 751.93 L1425.48 719.26 L1391.20 686.09 L1356.92 652.80 L1322.64 619.26 L1288.36 585.85 L1254.08 552.44 L1219.80 519.27 L1185.53 486.60 L1151.25 454.30 L1116.97 422.62 L1082.69 391.56 L1048.41 361.36 L1014.13 332.03 L979.98 303.69 L945.70 276.59 L911.42 250.73 L877.14 226.22 L842.86 203.58 L808.58 182.66 L774.30 163.97 L740.02 147.64 L705.75 133.78 L671.47 122.76 L637.19 114.47 L602.91 108.90 L568.63 105.81 L534.35 104.57 L500.07 104.57 L465.80 104.70 L465.80 104.70 Z" stroke-linecap="round"/>
	</defs>
	<defs>
		<clipPath id="clipPath1">
			<use xlink:href="#path1"/>
		</clipPath>
	</defs>
	<use xlink:href="#path1" style="stroke:none;fill:#FF3333;fill-opacity:0.25"/>
	<use xlink:href="#path1" style="fill:none;stroke:#FF0000;stroke-opacity:0.25;stroke-width:17.28" clip-path="url(#clipPath1)"/>
	<defs>
		<path id="path2" d="M465.80 104.70 L465.80 104.70 L500.07 110.02 L534.35 119.17 L568.63 130.07 L602.91 142.19 L637.19 155.31 L671.47 169.42 L705.75 184.64 L740.02 200.85 L774.30 218.05 L808.58 236.37 L842.86 255.68 L877.14 276.09 L911.42 297.50 L945.70 319.78 L979.98 343.05 L1014.13 366.93 L1048.41 391.68 L1082.69 417.05 L1116.97 442.92 L1151.25 469.27 L1185.53 496.13 L1219.80 523.36 L1254.08 550.83 L1288.36 578.67 L1322.64 606.77 L1356.92 635.10 L1391.20 663.57 L1425.48 692.28 L1459.76 721.11 L1494.03 750.07 L1528.31 779.15 L1562.59 808.36 L1596.87 837.44 L1631.15 866.52 L1665.43 895.61 L1699.71 924.57 L1733.98 953.52 L1768.26 982.11 L1802.54 1010.57 L1836.82 1038.79 L1871.10 1066.76 L1905.38 1094.48 L1939.66 1121.95 L1973.94 1149.05 L2008.21 1175.91 L2042.49 1202.52 L2076.77 1228.75 L2111.05 1254.74 L2145.33 1280.36 L2179.61 1305.60 L2213.89 1330.48 L2248.17 1354.98 L2282.45 1379.24 L2316.72 1403.00 L2351.00 1426.51 L2385.28 1449.65 L2419.44 1472.42 L2453.72 1495.07 L2487.99 1517.35 L2522.27 1539.37 L2556.55 1561.16 L2590.83 1582.69 L2625.11 1604.10 L2659.39 1625.26 L2693.67 1646.30 L2727.95 1667.09 L2762.22 1687.88 L2796.50 1708.42 L2830.78 1728.84 L2865.06 1749.26 L2899.34 1769.43 L2933.62 1789.73 L2967.90 1809.78 L3002.18 1829.82 L3036.45 1849.87 L3070.73 1869.92 L3105.01 1889.85 L3139.29 1909.77 L3173.57 1929.69 L3207.85 1949.49 L3242.13 1969.42 L3276.41 1989.22 L3310.68 2009.02 L3344.96 2028.82 L3379.24 2048.62 L3413.52 2068.42 L3447.80 2088.10 L3482.08 2107.78 L3516.36 2127.45 L3550.64 2147.13 L3584.91 2166.81 L3619.19 2186.36 L3653.47 2205.91 L3687.75 2225.34 L3722.03 2244.90 L3756.31 2264.20 L3790.59 2283.63 L3824.86 2302.94 L3859.02 2322.12 L3859.02 1775.74 L3824.86 1765.23 L3790.59 1754.46 L3756.31 1743.69 L3722.03 1732.68 L3687.75 1721.42 L3653.47 1710.03 L3619.19 1698.52 L3584.91 1686.64 L3550.64 1674.64 L3516.36 1662.39 L3482.08 1649.89 L3447.80 1637.26 L3413.52 1624.27 L3379.24 1611.15 L3344.96 1597.66 L3310.68 1583.93 L3276.41 1569.94 L3242.13 1555.71 L3207.85 1541.23 L3173.57 1526.50 L3139.29 1511.41 L3105.01 1496.06 L3070.73 1480.47 L3036.45 1464.50 L3002.18 1448.29 L2967.90 1431.83 L2933.62 1415.13 L2899.34 1398.17 L2865.06 1380.97 L2830.78 1363.40 L2796.50 1345.70 L2762.22 1327.63 L2727.95 1309.44 L2693.67 1291.00 L2659.39 1272.31 L2625.11 1253.38 L2590.83 1234.32 L2556.55 1215.14 L2522.27 1195.71 L2487.99 1176.16 L2453.72 1156.36 L2419.44 1136.43 L2385.28 1116.38 L2351.00 1096.21 L2316.72 1075.79 L2282.45 1055.25 L2248.17 1034.58 L2213.89 1013.67 L2179.61 992.63 L2145.33 971.47 L2111.05 949.93 L2076.77 928.28 L2042.49 906.37 L2008.21 884.22 L1973.94 861.82 L1939.66 839.17 L1905.38 816.28 L1871.10 793.14 L1836.82 769.75 L1802.54 746.11 L1768.26 722.23 L1733.98 698.10 L1699.71 673.84 L1665.43 649.46 L1631.15 624.96 L1596.87 600.33 L1562.59 575.83 L1528.31 551.32 L1494.03 527.07 L1459.76 502.94 L1425.48 479.05 L1391.20 455.66 L1356.92 432.77 L1322.64 410.24 L1288.36 388.34 L1254.08 367.05 L1219.80 346.39 L1185.53 326.46 L1151.25 307.03 L1116.97 288.35 L1082.69 270.40 L1048.41 253.08 L1014.13 236.49 L979.98 220.53 L945.70 205.31 L911.42 190.83 L877.14 176.97 L842.86 163.97 L808.58 151.85 L774.30 140.71 L740.02 130.44 L705.75 121.53 L671.47 113.85 L637.19 107.79 L602.91 103.46 L568.63 101.11 L534.35 100.86 L500.07 102.34 L465.80 104.70 L465.80 104.70 Z" stroke-linecap="round"/>
	</defs>
	<defs>
		<clipPath id="clipPath2">
			<use xlink:href="#path2"/>
		</clipPath>
	</defs>
	<use xlink:href="#path2" style="stroke:none;fill:#3333FF;fill-opacity:0.25"/>
	<use xlink:href="#path2" style="fill:none;stroke:#0000FF;stroke-opacity:0.25;stroke-width:17.28" clip-path="url(#clipPath2)"/>
	<line x1="465.67" y1="104.70" x2="499.95" y2="104.94" stroke-linecap="round" style="stroke:#FF0000;stroke-width:8.64"/>
	<line x1="499.95" y1="104.94" x2="534.23" y2="106.43" stroke-linecap="round" style="stroke:#FF0000;stroke-width:8.64"/>
	<line x1="534.23" y1="106.43" x2="568.51" y2="109.77" stroke-linecap="round" style="stroke:#FF0000;stroke-width:8.64"/>
	<line x1="568.51" y1="109.77" x2="602.79" y2="115.59" stroke-linecap="round" style="stroke:#FF0000;stroke-width:8.64"/>
	<line x1="602.79" y1="115.59" x2="637.07" y2="124.00" stroke-linecap="round" style="stroke:#FF0000;stroke-width:8.64"/>
	<line x1="637.07" y1="124.00" x2="671.34" y2="135.14" stroke-linecap="round" style="stroke:#FF0000;stroke-width:8.64"/>
	<line x1="671.34" y1="135.14" x2="705.62" y2="148.88" stroke-linecap="round" style="stroke:#FF0000;stroke-width:8.64"/>
	<line x1="705.62" y1="148.88" x2="739.90" y2="165.34" stroke-linecap="round" style="stroke:#FF0000;stroke-width:8.64"/>
	<line x1="739.90" y1="165.34" x2="774.18" y2="184.27" stroke-linecap="round" style="stroke:#FF0000;stroke-width:8.64"/>
	<line x1="774.18" y1="184.27" x2="808.46" y2="205.43" stroke-linecap="round" style="stroke:#FF0000;stroke-width:8.64"/>
	<line x1="808.46" y1="205.43" x2="842.74" y2="228.82" stroke-linecap="round" style="stroke:#FF0000;stroke-width:8.64"/>
	<line x1="842.74" y1="228.82" x2="877.02" y2="254.07" stroke-linecap="round" style="stroke:#FF0000;stroke-width:8.64"/>
	<line x1="877.02" y1="254.07" x2="911.29" y2="281.05" stroke-linecap="round" style="stroke:#FF0000;stroke-width:8.64"/>
	<line x1="911.29" y1="281.05" x2="945.57" y2="309.51" stroke-linecap="round" style="stroke:#FF0000;stroke-width:8.64"/>
	<line x1="945.57" y1="309.51" x2="979.85" y2="339.33" stroke-linecap="round" style="stroke:#FF0000;stroke-width:8.64"/>
	<line x1="979.85" y1="339.33" x2="1014.13" y2="370.27" stroke-linecap="round" style="stroke:#FF0000;stroke-width:8.64"/>
	<line x1="1014.13" y1="370.27" x2="1048.41" y2="402.20" stroke-linecap="round" style="stroke:#FF0000;stroke-width:8.64"/>
	<line x1="1048.41" y1="402.20" x2="1082.69" y2="434.99" stroke-linecap="round" style="stroke:#FF0000;stroke-width:8.64"/>
	<line x1="1082.69" y1="434.99" x2="1116.97" y2="468.41" stroke-linecap="round" style="stroke:#FF0000;stroke-width:8.64"/>
	<line x1="1116.97" y1="468.41" x2="1151.25" y2="502.32" stroke-linecap="round" style="stroke:#FF0000;stroke-width:8.64"/>
	<line x1="1151.25" y1="502.32" x2="1185.53" y2="536.60" stroke-linecap="round" style="stroke:#FF0000;stroke-width:8.64"/>
	<line x1="1185.53" y1="536.60" x2="1219.80" y2="571.12" stroke-linecap="round" style="stroke:#FF0000;stroke-width:8.64"/>
	<line x1="1219.80" y1="571.12" x2="1254.08" y2="605.78" stroke-linecap="round" style="stroke:#FF0000;stroke-width:8.64"/>
	<line x1="1254.08" y1="605.78" x2="1288.36" y2="640.55" stroke-linecap="round" style="stroke:#FF0000;stroke-width:8.64"/>
	<line x1="1288.36" y1="640.55" x2="1322.64" y2="675.32" stroke-linecap="round" style="stroke:#FF0000;stroke-width:8.64"/>
	<line x1="1322.64" y1="675.32" x2="1356.92" y2="709.98" stroke-linecap="round" style="stroke:#FF0000;stroke-width:8.64"/>
	<line x1="1356.92" y1="709.98" x2="1391.20" y2="744.38" stroke-linecap="round" style="stroke:#FF0000;stroke-width:8.64"/>
	<line x1="1391.20" y1="744.38" x2="1425.48" y2="778.54" stroke-linecap="round" style="stroke:#FF0000;stroke-width:8.64"/>
	<line x1="1425.48" y1="778.54" x2="1459.76" y2="812.44" stroke-linecap="round" style="stroke:#FF0000;stroke-width:8.64"/>
	<line x1="1459.76" y1="812.44" x2="1494.03" y2="845.86" stroke-linecap="round" style="stroke:#FF0000;stroke-width:8.64"/>
	<line x1="1494.03" y1="845.86" x2="1528.31" y2="878.90" stroke-linecap="round" style="stroke:#FF0000;stroke-width:8.64"/>
	<line x1="1528.31" y1="878.90" x2="1562.59" y2="911.57" stroke-linecap="round" style="stroke:#FF0000;stroke-width:8.64"/>
	<line x1="1562.59" y1="911.57" x2="1596.87" y2="943.62" stroke-linecap="round" style="stroke:#FF0000;stroke-width:8.64"/>
	<line x1="1596.87" y1="943.62" x2="1631.15" y2="975.18" stroke-linecap="round" style="stroke:#FF0000;stroke-width:8.64"/>
	<line x1="1631.15" y1="975.18" x2="1665.43" y2="1006.24" stroke-linecap="round" style="stroke:#FF0000;stroke-width:8.64"/>
	<line x1="1665.43" y1="1006.24" x2="1699.71" y2="1036.81" stroke-linecap="round" style="stroke:#FF0000;stroke-width:8.64"/>
	<line x1="1699.71" y1="1036.81" x2="1733.86" y2="1066.63" stroke-linecap="round" style="stroke:#FF0000;stroke-width:8.64"/>
	<line x1="1733.86" y1="1066.63" x2="1768.14" y2="1095.96" stroke-linecap="round" style="stroke:#FF0000;stroke-width:8.64"/>
	<line x1="1768.14" y1="1095.96" x2="1802.42" y2="1124.68" stroke-linecap="round" style="stroke:#FF0000;stroke-width:8.64"/>
	<line x1="1802.42" y1="1124.68" x2="1836.70" y2="1152.89" stroke-linecap="round" style="stroke:#FF0000;stroke-width:8.64"/>
	<line x1="1836.70" y1="1152.89" x2="1870.98" y2="1180.36" stroke-linecap="round" style="stroke:#FF0000;stroke-width:8.64"/>
	<line x1="1870.98" y1="1180.36" x2="1905.26" y2="1207.34" stroke-linecap="round" style="stroke:#FF0000;stroke-width:8.64"/>
	<line x1="1905.26" y1="1207.34" x2="1939.53" y2="1233.83" stroke-linecap="round" style="stroke:#FF0000;stroke-width:8.64"/>
	<line x1="1939.53" y1="1233.83" x2="1973.81" y2="1259.81" stroke-linecap="round" style="stroke:#FF0000;stroke-width:8.64"/>
	<line x1="1973.81" y1="1259.81" x2="2008.09" y2="1285.31" stroke-linecap="round" style="stroke:#FF0000;stroke-width:8.64"/>
	<line x1="2008.09" y1="1285.31" x2="2042.37" y2="1310.31" stroke-linecap="round" style="stroke:#FF0000;stroke-width:8.64"/>
	<line x1="2042.37" y1="1310.31" x2="2076.65" y2="1334.81" stroke-linecap="round" style="stroke:#FF0000;stroke-width:8.64"/>
	<line x1="2076.65" y1="1334.81" x2="2110.93" y2="1358.94" stroke-linecap="round" style="stroke:#FF0000;stroke-width:8.64"/>
	<line x1="2110.93" y1="1358.94" x2="2145.21" y2="1382.70" stroke-linecap="round" style="stroke:#FF0000;stroke-width:8.64"/>
	<line x1="2145.21" y1="1382.70" x2="2179.49" y2="1405.97" stroke-linecap="round" style="stroke:#FF0000;stroke-width:8.64"/>
	<line x1="2179.49" y1="1405.97" x2="2213.76" y2="1428.99" stroke-linecap="round" style="stroke:#FF0000;stroke-width:8.64"/>
	<line x1="2213.76" y1="1428.99" x2="2248.04" y2="1451.51" stroke-linecap="round" style="stroke:#FF0000;stroke-width:8.64"/>
	<line x1="2248.04" y1="1451.51" x2="2282.32" y2="1473.78" stroke-linecap="round" style="stroke:#FF0000;stroke-width:8.64"/>
	<line x1="2282.32" y1="1473.78" x2="2316.60" y2="1495.81" stroke-linecap="round" style="stroke:#FF0000;stroke-width:8.64"/>
	<line x1="2316.60" y1="1495.81" x2="2350.88" y2="1517.47" stroke-linecap="round" style="stroke:#FF0000;stroke-width:8.64"/>
	<line x1="2350.88" y1="1517.47" x2="2385.16" y2="1538.88" stroke-linecap="round" style="stroke:#FF0000;stroke-width:8.64"/>
	<line x1="2385.16" y1="1538.88" x2="2419.44" y2="1559.92" stroke-linecap="round" style="stroke:#FF0000;stroke-width:8.64"/>
	<line x1="2419.44" y1="1559.92" x2="2453.72" y2="1580.71" stroke-linecap="round" style="stroke:#FF0000;stroke-width:8.64"/>
	<line x1="2453.72" y1="1580.71" x2="2487.99" y2="1601.25" stroke-linecap="round" style="stroke:#FF0000;stroke-width:8.64"/>
	<line x1="2487.99" y1="1601.25" x2="2522.27" y2="1621.67" stroke-linecap="round" style="stroke:#FF0000;stroke-width:8.64"/>
	<line x1="2522.27" y1="1621.67" x2="2556.55" y2="1641.72" stroke-linecap="round" style="stroke:#FF0000;stroke-width:8.64"/>
	<line x1="2556.55" y1="1641.72" x2="2590.83" y2="1661.64" stroke-linecap="round" style="stroke:#FF0000;stroke-width:8.64"/>
	<line x1="2590.83" y1="1661.64" x2="2625.11" y2="1681.20" stroke-linecap="round" style="stroke:#FF0000;stroke-width:8.64"/>
	<line x1="2625.11" y1="1681.20" x2="2659.39" y2="1700.63" stroke-linecap="round" style="stroke:#FF0000;stroke-width:8.64"/>
	<line x1="2659.39" y1="1700.63" x2="2693.67" y2="1719.81" stroke-linecap="round" style="stroke:#FF0000;stroke-width:8.64"/>
	<line x1="2693.67" y1="1719.81" x2="2727.95" y2="1738.87" stroke-linecap="round" style="stroke:#FF0000;stroke-width:8.64"/>
	<line x1="2727.95" y1="1738.87" x2="2762.22" y2="1757.68" stroke-linecap="round" style="stroke:#FF0000;stroke-width:8.64"/>
	<line x1="2762.22" y1="1757.68" x2="2796.50" y2="1776.24" stroke-linecap="round" style="stroke:#FF0000;stroke-width:8.64"/>
	<line x1="2796.50" y1="1776.24" x2="2830.78" y2="1794.68" stroke-linecap="round" style="stroke:#FF0000;stroke-width:8.64"/>
	<line x1="2830.78" y1="1794.68" x2="2865.06" y2="1812.87" stroke-linecap="round" style="stroke:#FF0000;stroke-width:8.64"/>
	<line x1="2865.06" y1="1812.87" x2="2899.34" y2="1830.94" stroke-linecap="round" style="stroke:#FF0000;stroke-width:8.64"/>
	<line x1="2899.34" y1="1830.94" x2="2933.62" y2="1848.76" stroke-linecap="round" style="stroke:#FF0000;stroke-width:8.64"/>
	<line x1="2933.62" y1="1848.76" x2="2967.90" y2="1866.46" stroke-linecap="round" style="stroke:#FF0000;stroke-width:8.64"/>
	<line x1="2967.90" y1="1866.46" x2="3002.18" y2="1883.91" stroke-linecap="round" style="stroke:#FF0000;stroke-width:8.64"/>
	<line x1="3002.18" y1="1883.91" x2="3036.45" y2="1901.23" stroke-linecap="round" style="stroke:#FF0000;stroke-width:8.64"/>
	<line x1="3036.45" y1="1901.23" x2="3070.73" y2="1918.43" stroke-linecap="round" style="stroke:#FF0000;stroke-width:8.64"/>
	<line x1="3070.73" y1="1918.43" x2="3105.01" y2="1935.39" stroke-linecap="round" style="stroke:#FF0000;stroke-width:8.64"/>
	<line x1="3105.01" y1="1935.39" x2="3139.17" y2="1952.22" stroke-linecap="round" style="stroke:#FF0000;stroke-width:8.64"/>
	<line x1="3139.17" y1="1952.22" x2="3173.45" y2="1968.92" stroke-linecap="round" style="stroke:#FF0000;stroke-width:8.64"/>
	<line x1="3173.45" y1="1968.92" x2="3207.72" y2="1985.38" stroke-linecap="round" style="stroke:#FF0000;stroke-width:8.64"/>
	<line x1="3207.72" y1="1985.38" x2="3242.00" y2="2001.84" stroke-linecap="round" style="stroke:#FF0000;stroke-width:8.64"/>
	<line x1="3242.00" y1="2001.84" x2="3276.28" y2="2018.05" stroke-linecap="round" style="stroke:#FF0000;stroke-width:8.64"/>
	<line x1="3276.28" y1="2018.05" x2="3310.56" y2="2034.14" stroke-linecap="round" style="stroke:#FF0000;stroke-width:8.64"/>
	<line x1="3310.56" y1="2034.14" x2="3344.84" y2="2050.11" stroke-linecap="round" style="stroke:#FF0000;stroke-width:8.64"/>
	<line x1="3344.84" y1="2050.11" x2="3379.12" y2="2065.82" stroke-linecap="round" style="stroke:#FF0000;stroke-width:8.64"/>
	<line x1="3379.12" y1="2065.82" x2="3413.40" y2="2081.54" stroke-linecap="round" style="stroke:#FF0000;stroke-width:8.64"/>
	<line x1="3413.40" y1="2081.54" x2="3447.68" y2="2097.13" stroke-linecap="round" style="stroke:#FF0000;stroke-width:8.64"/>
	<line x1="3447.68" y1="2097.13" x2="3481.95" y2="2112.48" stroke-linecap="round" style="stroke:#FF0000;stroke-width:8.64"/>
	<line x1="3481.95" y1="2112.48" x2="3516.23" y2="2127.82" stroke-linecap="round" style="stroke:#FF0000;stroke-width:8.64"/>
	<line x1="3516.23" y1="2127.82" x2="3550.51" y2="2142.92" stroke-linecap="round" style="stroke:#FF0000;stroke-width:8.64"/>
	<line x1="3550.51" y1="2142.92" x2="3584.79" y2="2158.02" stroke-linecap="round" style="stroke:#FF0000;stroke-width:8.64"/>
	<line x1="3584.79" y1="2158.02" x2="3619.07" y2="2172.87" stroke-linecap="round" style="stroke:#FF0000;stroke-width:8.64"/>
	<line x1="3619.07" y1="2172.87" x2="3653.35" y2="2187.72" stroke-linecap="round" style="stroke:#FF0000;stroke-width:8.64"/>
	<line x1="3653.35" y1="2187.72" x2="3687.63" y2="2202.32" stroke-linecap="round" style="stroke:#FF0000;stroke-width:8.64"/>
	<line x1="3687.63" y1="2202.32" x2="3721.91" y2="2216.93" stroke-linecap="round" style="stroke:#FF0000;stroke-width:8.64"/>
	<line x1="3721.91" y1="2216.93" x2="3756.18" y2="2231.41" stroke-linecap="round" style="stroke:#FF0000;stroke-width:8.64"/>
	<line x1="3756.18" y1="2231.41" x2="3790.46" y2="2245.76" stroke-linecap="round" style="stroke:#FF0000;stroke-width:8.64"/>
	<line x1="3790.46" y1="2245.76" x2="3824.74" y2="2259.99" stroke-linecap="round" style="stroke:#FF0000;stroke-width:8.64"/>
	<line x1="3824.74" y1="2259.99" x2="3859.02" y2="2274.10" stroke-linecap="round" style="stroke:#FF0000;stroke-width:8.64"/>
	<line x1="465.67" y1="104.70" x2="499.95" y2="106.30" stroke-linecap="round" style="stroke:#0000FF;stroke-width:8.64"/>
	<line x1="499.95" y1="106.30" x2="534.23" y2="110.02" stroke-linecap="round" style="stroke:#0000FF;stroke-width:8.64"/>
	<line x1="534.23" y1="110.02" x2="568.51" y2="115.71" stroke-linecap="round" style="stroke:#0000FF;stroke-width:8.64"/>
	<line x1="568.51" y1="115.71" x2="602.79" y2="122.89" stroke-linecap="round" style="stroke:#0000FF;stroke-width:8.64"/>
	<line x1="602.79" y1="122.89" x2="637.07" y2="131.67" stroke-linecap="round" style="stroke:#0000FF;stroke-width:8.64"/>
	<line x1="637.07" y1="131.67" x2="671.34" y2="141.82" stroke-linecap="round" style="stroke:#0000FF;stroke-width:8.64"/>
	<line x1="671.34" y1="141.82" x2="705.62" y2="153.21" stroke-linecap="round" style="stroke:#0000FF;stroke-width:8.64"/>
	<line x1="705.62" y1="153.21" x2="739.90" y2="165.83" stroke-linecap="round" style="stroke:#0000FF;stroke-width:8.64"/>
	<line x1="739.90" y1="165.83" x2="774.18" y2="179.57" stroke-linecap="round" style="stroke:#0000FF;stroke-width:8.64"/>
	<line x1="774.18" y1="179.57" x2="808.46" y2="194.29" stroke-linecap="round" style="stroke:#0000FF;stroke-width:8.64"/>
	<line x1="808.46" y1="194.29" x2="842.74" y2="210.13" stroke-linecap="round" style="stroke:#0000FF;stroke-width:8.64"/>
	<line x1="842.74" y1="210.13" x2="877.02" y2="226.84" stroke-linecap="round" style="stroke:#0000FF;stroke-width:8.64"/>
	<line x1="877.02" y1="226.84" x2="911.29" y2="244.54" stroke-linecap="round" style="stroke:#0000FF;stroke-width:8.64"/>
	<line x1="911.29" y1="244.54" x2="945.57" y2="262.98" stroke-linecap="round" style="stroke:#0000FF;stroke-width:8.64"/>
	<line x1="945.57" y1="262.98" x2="979.85" y2="282.28" stroke-linecap="round" style="stroke:#0000FF;stroke-width:8.64"/>
	<line x1="979.85" y1="282.28" x2="1014.13" y2="302.21" stroke-linecap="round" style="stroke:#0000FF;stroke-width:8.64"/>
	<line x1="1014.13" y1="302.21" x2="1048.41" y2="323.00" stroke-linecap="round" style="stroke:#0000FF;stroke-width:8.64"/>
	<line x1="1048.41" y1="323.00" x2="1082.69" y2="344.28" stroke-linecap="round" style="stroke:#0000FF;stroke-width:8.64"/>
	<line x1="1082.69" y1="344.28" x2="1116.97" y2="366.31" stroke-linecap="round" style="stroke:#0000FF;stroke-width:8.64"/>
	<line x1="1116.97" y1="366.31" x2="1151.25" y2="388.96" stroke-linecap="round" style="stroke:#0000FF;stroke-width:8.64"/>
	<line x1="1151.25" y1="388.96" x2="1185.53" y2="412.10" stroke-linecap="round" style="stroke:#0000FF;stroke-width:8.64"/>
	<line x1="1185.53" y1="412.10" x2="1219.80" y2="435.86" stroke-linecap="round" style="stroke:#0000FF;stroke-width:8.64"/>
	<line x1="1219.80" y1="435.86" x2="1254.08" y2="459.99" stroke-linecap="round" style="stroke:#0000FF;stroke-width:8.64"/>
	<line x1="1254.08" y1="459.99" x2="1288.36" y2="484.62" stroke-linecap="round" style="stroke:#0000FF;stroke-width:8.64"/>
	<line x1="1288.36" y1="484.62" x2="1322.64" y2="509.62" stroke-linecap="round" style="stroke:#0000FF;stroke-width:8.64"/>
	<line x1="1322.64" y1="509.62" x2="1356.92" y2="535.11" stroke-linecap="round" style="stroke:#0000FF;stroke-width:8.64"/>
	<line x1="1356.92" y1="535.11" x2="1391.20" y2="560.98" stroke-linecap="round" style="stroke:#0000FF;stroke-width:8.64"/>
	<line x1="1391.20" y1="560.98" x2="1425.48" y2="587.09" stroke-linecap="round" style="stroke:#0000FF;stroke-width:8.64"/>
	<line x1="1425.48" y1="587.09" x2="1459.76" y2="613.45" stroke-linecap="round" style="stroke:#0000FF;stroke-width:8.64"/>
	<line x1="1459.76" y1="613.45" x2="1494.03" y2="640.06" stroke-linecap="round" style="stroke:#0000FF;stroke-width:8.64"/>
	<line x1="1494.03" y1="640.06" x2="1528.31" y2="666.91" stroke-linecap="round" style="stroke:#0000FF;stroke-width:8.64"/>
	<line x1="1528.31" y1="666.91" x2="1562.59" y2="693.76" stroke-linecap="round" style="stroke:#0000FF;stroke-width:8.64"/>
	<line x1="1562.59" y1="693.76" x2="1596.87" y2="720.62" stroke-linecap="round" style="stroke:#0000FF;stroke-width:8.64"/>
	<line x1="1596.87" y1="720.62" x2="1631.15" y2="747.60" stroke-linecap="round" style="stroke:#0000FF;stroke-width:8.64"/>
	<line x1="1631.15" y1="747.60" x2="1665.43" y2="774.45" stroke-linecap="round" style="stroke:#0000FF;stroke-width:8.64"/>
	<line x1="1665.43" y1="774.45" x2="1699.71" y2="801.18" stroke-linecap="round" style="stroke:#0000FF;stroke-width:8.64"/>
	<line x1="1699.71" y1="801.18" x2="1733.86" y2="827.91" stroke-linecap="round" style="stroke:#0000FF;stroke-width:8.64"/>
	<line x1="1733.86" y1="827.91" x2="1768.14" y2="854.40" stroke-linecap="round" style="stroke:#0000FF;stroke-width:8.64"/>
	<line x1="1768.14" y1="854.40" x2="1802.42" y2="880.63" stroke-linecap="round" style="stroke:#0000FF;stroke-width:8.64"/>
	<line x1="1802.42" y1="880.63" x2="1836.70" y2="906.62" stroke-linecap="round" style="stroke:#0000FF;stroke-width:8.64"/>
	<line x1="1836.70" y1="906.62" x2="1870.98" y2="932.36" stroke-linecap="round" style="stroke:#0000FF;stroke-width:8.64"/>
	<line x1="1870.98" y1="932.36" x2="1905.26" y2="957.98" stroke-linecap="round" style="stroke:#0000FF;stroke-width:8.64"/>
	<line x1="1905.26" y1="957.98" x2="1939.53" y2="983.22" stroke-linecap="round" style="stroke:#0000FF;stroke-width:8.64"/>
	<line x1="1939.53" y1="983.22" x2="1973.81" y2="1008.22" stroke-linecap="round" style="stroke:#0000FF;stroke-width:8.64"/>
	<line x1="1973.81" y1="1008.22" x2="2008.09" y2="1032.97" stroke-linecap="round" style="stroke:#0000FF;stroke-width:8.64"/>
	<line x1="2008.09" y1="1032.97" x2="2042.37" y2="1057.35" stroke-linecap="round" style="stroke:#0000FF;stroke-width:8.64"/>
	<line x1="2042.37" y1="1057.35" x2="2076.65" y2="1081.61" stroke-linecap="round" style="stroke:#0000FF;stroke-width:8.64"/>
	<line x1="2076.65" y1="1081.61" x2="2110.93" y2="1105.49" stroke-linecap="round" style="stroke:#0000FF;stroke-width:8.64"/>
	<line x1="2110.93" y1="1105.49" x2="2145.21" y2="1129.13" stroke-linecap="round" style="stroke:#0000FF;stroke-width:8.64"/>
	<line x1="2145.21" y1="1129.13" x2="2179.49" y2="1152.52" stroke-linecap="round" style="stroke:#0000FF;stroke-width:8.64"/>
	<line x1="2179.49" y1="1152.52" x2="2213.76" y2="1175.54" stroke-linecap="round" style="stroke:#0000FF;stroke-width:8.64"/>
	<line x1="2213.76" y1="1175.54" x2="2248.04" y2="1198.31" stroke-linecap="round" style="stroke:#0000FF;stroke-width:8.64"/>
	<line x1="2248.04" y1="1198.31" x2="2282.32" y2="1220.83" stroke-linecap="round" style="stroke:#0000FF;stroke-width:8.64"/>
	<line x1="2282.32" y1="1220.83" x2="2316.60" y2="1243.11" stroke-linecap="round" style="stroke:#0000FF;stroke-width:8.64"/>
	<line x1="2316.60" y1="1243.11" x2="2350.88" y2="1265.14" stroke-linecap="round" style="stroke:#0000FF;stroke-width:8.64"/>
	<line x1="2350.88" y1="1265.14" x2="2385.16" y2="1286.92" stroke-linecap="round" style="stroke:#0000FF;stroke-width:8.64"/>
	<line x1="2385.16" y1="1286.92" x2="2419.44" y2="1308.45" stroke-linecap="round" style="stroke:#0000FF;stroke-width:8.64"/>
	<line x1="2419.44" y1="1308.45" x2="2453.72" y2="1329.74" stroke-linecap="round" style="stroke:#0000FF;stroke-width:8.64"/>
	<line x1="2453.72" y1="1329.74" x2="2487.99" y2="1350.90" stroke-linecap="round" style="stroke:#0000FF;stroke-width:8.64"/>
	<line x1="2487.99" y1="1350.90" x2="2522.27" y2="1371.81" stroke-linecap="round" style="stroke:#0000FF;stroke-width:8.64"/>
	<line x1="2522.27" y1="1371.81" x2="2556.55" y2="1392.48" stroke-linecap="round" style="stroke:#0000FF;stroke-width:8.64"/>
	<line x1="2556.55" y1="1392.48" x2="2590.83" y2="1413.02" stroke-linecap="round" style="stroke:#0000FF;stroke-width:8.64"/>
	<line x1="2590.83" y1="1413.02" x2="2625.11" y2="1433.32" stroke-linecap="round" style="stroke:#0000FF;stroke-width:8.64"/>
	<line x1="2625.11" y1="1433.32" x2="2659.39" y2="1453.37" stroke-linecap="round" style="stroke:#0000FF;stroke-width:8.64"/>
	<line x1="2659.39" y1="1453.37" x2="2693.67" y2="1473.29" stroke-linecap="round" style="stroke:#0000FF;stroke-width:8.64"/>
	<line x1="2693.67" y1="1473.29" x2="2727.95" y2="1493.09" stroke-linecap="round" style="stroke:#0000FF;stroke-width:8.64"/>
	<line x1="2727.95" y1="1493.09" x2="2762.22" y2="1512.64" stroke-linecap="round" style="stroke:#0000FF;stroke-width:8.64"/>
	<line x1="2762.22" y1="1512.64" x2="2796.50" y2="1531.95" stroke-linecap="round" style="stroke:#0000FF;stroke-width:8.64"/>
	<line x1="2796.50" y1="1531.95" x2="2830.78" y2="1551.25" stroke-linecap="round" style="stroke:#0000FF;stroke-width:8.64"/>
	<line x1="2830.78" y1="1551.25" x2="2865.06" y2="1570.31" stroke-linecap="round" style="stroke:#0000FF;stroke-width:8.64"/>
	<line x1="2865.06" y1="1570.31" x2="2899.34" y2="1589.12" stroke-linecap="round" style="stroke:#0000FF;stroke-width:8.64"/>
	<line x1="2899.34" y1="1589.12" x2="2933.62" y2="1607.81" stroke-linecap="round" style="stroke:#0000FF;stroke-width:8.64"/>
	<line x1="2933.62" y1="1607.81" x2="2967.90" y2="1626.37" stroke-linecap="round" style="stroke:#0000FF;stroke-width:8.64"/>
	<line x1="2967.90" y1="1626.37" x2="3002.18" y2="1644.81" stroke-linecap="round" style="stroke:#0000FF;stroke-width:8.64"/>
	<line x1="3002.18" y1="1644.81" x2="3036.45" y2="1663.00" stroke-linecap="round" style="stroke:#0000FF;stroke-width:8.64"/>
	<line x1="3036.45" y1="1663.00" x2="3070.73" y2="1681.20" stroke-linecap="round" style="stroke:#0000FF;stroke-width:8.64"/>
	<line x1="3070.73" y1="1681.20" x2="3105.01" y2="1699.14" stroke-linecap="round" style="stroke:#0000FF;stroke-width:8.64"/>
	<line x1="3105.01" y1="1699.14" x2="3139.17" y2="1716.96" stroke-linecap="round" style="stroke:#0000FF;stroke-width:8.64"/>
	<line x1="3139.17" y1="1716.96" x2="3173.45" y2="1734.53" stroke-linecap="round" style="stroke:#0000FF;stroke-width:8.64"/>
	<line x1="3173.45" y1="1734.53" x2="3207.72" y2="1752.11" stroke-linecap="round" style="stroke:#0000FF;stroke-width:8.64"/>
	<line x1="3207.72" y1="1752.11" x2="3242.00" y2="1769.56" stroke-linecap="round" style="stroke:#0000FF;stroke-width:8.64"/>
	<line x1="3242.00" y1="1769.56" x2="3276.28" y2="1786.76" stroke-linecap="round" style="stroke:#0000FF;stroke-width:8.64"/>
	<line x1="3276.28" y1="1786.76" x2="3310.56" y2="1803.96" stroke-linecap="round" style="stroke:#0000FF;stroke-width:8.64"/>
	<line x1="3310.56" y1="1803.96" x2="3344.84" y2="1820.91" stroke-linecap="round" style="stroke:#0000FF;stroke-width:8.64"/>
	<line x1="3344.84" y1="1820.91" x2="3379.12" y2="1837.74" stroke-linecap="round" style="stroke:#0000FF;stroke-width:8.64"/>
	<line x1="3379.12" y1="1837.74" x2="3413.40" y2="1854.58" stroke-linecap="round" style="stroke:#0000FF;stroke-width:8.64"/>
	<line x1="3413.40" y1="1854.58" x2="3447.68" y2="1871.16" stroke-linecap="round" style="stroke:#0000FF;stroke-width:8.64"/>
	<line x1="3447.68" y1="1871.16" x2="3481.95" y2="1887.74" stroke-linecap="round" style="stroke:#0000FF;stroke-width:8.64"/>
	<line x1="3481.95" y1="1887.74" x2="3516.23" y2="1904.08" stroke-linecap="round" style="stroke:#0000FF;stroke-width:8.64"/>
	<line x1="3516.23" y1="1904.08" x2="3550.51" y2="1920.41" stroke-linecap="round" style="stroke:#0000FF;stroke-width:8.64"/>
	<line x1="3550.51" y1="1920.41" x2="3584.79" y2="1936.62" stroke-linecap="round" style="stroke:#0000FF;stroke-width:8.64"/>
	<line x1="3584.79" y1="1936.62" x2="3619.07" y2="1952.59" stroke-linecap="round" style="stroke:#0000FF;stroke-width:8.64"/>
	<line x1="3619.07" y1="1952.59" x2="3653.35" y2="1968.55" stroke-linecap="round" style="stroke:#0000FF;stroke-width:8.64"/>
	<line x1="3653.35" y1="1968.55" x2="3687.63" y2="1984.52" stroke-linecap="round" style="stroke:#0000FF;stroke-width:8.64"/>
	<line x1="3687.63" y1="1984.52" x2="3721.91" y2="2000.23" stroke-linecap="round" style="stroke:#0000FF;stroke-width:8.64"/>
	<line x1="3721.91" y1="2000.23" x2="3756.18" y2="2015.83" stroke-linecap="round" style="stroke:#0000FF;stroke-width:8.64"/>
	<line x1="3756.18" y1="2015.83" x2="3790.46" y2="2031.42" stroke-linecap="round" style="stroke:#0000FF;stroke-width:8.64"/>
	<line x1="3790.46" y1="2031.42" x2="3824.74" y2="2046.89" stroke-linecap="round" style="stroke:#0000FF;stroke-width:8.64"/>
	<line x1="3824.74" y1="2046.89" x2="3859.02" y2="2062.23" stroke-linecap="round" style="stroke:#0000FF;stroke-width:8.64"/>
	<line x1="465.80" y1="2489.19" x2="425.82" y2="2489.19" style="stroke:#000000;stroke-width:5.76"/>
	<text x="405.78" y="2524.21" style="font-family:'Helvetica';font-size:99.99px;fill:#000000" text-anchor="end">0.5</text>
	<line x1="465.80" y1="2012.24" x2="425.82" y2="2012.24" style="stroke:#000000;stroke-width:5.76"/>
	<text x="405.78" y="2047.27" style="font-family:'Helvetica';font-size:99.99px;fill:#000000" text-anchor="end">0.6</text>
	<line x1="465.80" y1="1535.41" x2="425.82" y2="1535.41" style="stroke:#000000;stroke-width:5.76"/>
	<text x="405.78" y="1570.44" style="font-family:'Helvetica';font-size:99.99px;fill:#000000" text-anchor="end">0.7</text>
	<line x1="465.80" y1="1058.47" x2="425.82" y2="1058.47" style="stroke:#000000;stroke-width:5.76"/>
	<text x="405.78" y="1093.50" style="font-family:'Helvetica';font-size:99.99px;fill:#000000" text-anchor="end">0.8</text>
	<line x1="465.80" y1="581.52" x2="425.82" y2="581.52" style="stroke:#000000;stroke-width:5.76"/>
	<text x="405.78" y="616.55" style="font-family:'Helvetica';font-size:99.99px;fill:#000000" text-anchor="end">0.9</text>
	<line x1="465.80" y1="104.70" x2="425.82" y2="104.70" style="stroke:#000000;stroke-width:5.76"/>
	<text x="405.78" y="139.72" style="font-family:'Helvetica';font-size:99.99px;fill:#000000" text-anchor="end">1.0</text>
	<line x1="465.80" y1="2489.19" x2="465.80" y2="104.70" style="stroke:#000000;stroke-width:5.76"/>
	<text x="190.71" y="1294.96" style="font-family:'Helvetica';font-size:99.99px;fill:#000000" transform="rotate(-90 190.71,1294.96)" text-anchor="middle">S(t)</text>
	<line x1="465.80" y1="2489.19" x2="465.80" y2="2529.16" style="stroke:#000000;stroke-width:5.76"/>
	<text x="465.80" y="2619.14" style="font-family:'Helvetica';font-size:99.99px;fill:#000000" text-anchor="middle">0</text>
	<line x1="1144.44" y1="2489.19" x2="1144.44" y2="2529.16" style="stroke:#000000;stroke-width:5.76"/>
	<text x="1144.44" y="2619.14" style="font-family:'Helvetica';font-size:99.99px;fill:#000000" text-anchor="middle">2</text>
	<line x1="1823.09" y1="2489.19" x2="1823.09" y2="2529.16" style="stroke:#000000;stroke-width:5.76"/>
	<text x="1823.09" y="2619.14" style="font-family:'Helvetica';font-size:99.99px;fill:#000000" text-anchor="middle">4</text>
	<line x1="2501.73" y1="2489.19" x2="2501.73" y2="2529.16" style="stroke:#000000;stroke-width:5.76"/>
	<text x="2501.73" y="2619.14" style="font-family:'Helvetica';font-size:99.99px;fill:#000000" text-anchor="middle">6</text>
	<line x1="3180.38" y1="2489.19" x2="3180.38" y2="2529.16" style="stroke:#000000;stroke-width:5.76"/>
	<text x="3180.38" y="2619.14" style="font-family:'Helvetica';font-size:99.99px;fill:#000000" text-anchor="middle">8</text>
	<line x1="3859.02" y1="2489.19" x2="3859.02" y2="2529.16" style="stroke:#000000;stroke-width:5.76"/>
	<text x="3859.02" y="2619.14" style="font-family:'Helvetica';font-size:99.99px;fill:#000000" text-anchor="middle">10</text>
	<line x1="465.80" y1="2489.19" x2="3859.02" y2="2489.19" style="stroke:#000000;stroke-width:5.76"/>
	<text x="2162.41" y="2729.16" style="font-family:'Helvetica';font-size:99.99px;fill:#000000" text-anchor="middle">Years from surgery</text>
	<rect x="2453.84" y="178.58" width="199.98" height="99.99" style="fill:#FF3333;fill-opacity:0.25"/>
	<rect x="2458.16" y="182.90" width="191.34" height="91.35" style="fill:none;stroke:#FF0000;stroke-opacity:0.25;stroke-width:8.64"/>
	<rect x="2453.84" y="318.54" width="199.98" height="99.99" style="fill:#3333FF;fill-opacity:0.25"/>
	<rect x="2458.16" y="322.86" width="191.34" height="91.35" style="fill:none;stroke:#0000FF;stroke-opacity:0.25;stroke-width:8.64"/>
	<text x="2713.84" y="263.60" style="font-family:'Helvetica';font-size:99.99px;fill:#000000">No hormonal treatment</text>
	<text x="2713.84" y="403.57" style="font-family:'Helvetica';font-size:99.99px;fill:#000000">Hormonal treatment</text>
</svg>
