<?xml version="1.0" encoding="UTF-8" standalone="no"?>
<!-- This is a Stata 15.0 generated SVG file (http://www.stata.com) -->

<svg version="1.1" width="5.50in" height="4.00in" viewBox="0 0 3960 2880" xmlns="http://www.w3.org/2000/svg" xmlns:xlink="http://www.w3.org/1999/xlink">
	<desc>Stata Graph - t5</desc>
	<rect x="0" y="0" width="3960" height="2880" style="fill:#EAF2F3;stroke:none"/>
	<rect x="0.00" y="0.00" width="3959.88" height="2880.00" style="fill:#EAF2F3"/>
	<rect x="2.88" y="2.88" width="3954.12" height="2874.24" style="fill:none;stroke:#EAF2F3;stroke-width:5.76"/>
	<rect x="390.80" y="100.86" width="3468.22" height="2388.33" style="fill:#FFFFFF"/>
	<rect x="393.68" y="103.74" width="3462.46" height="2382.57" style="fill:none;stroke:#FFFFFF;stroke-width:5.76"/>
	<line x1="390.80" y1="2489.19" x2="3859.02" y2="2489.19" style="stroke:#EAF2F3;stroke-width:8.64"/>
	<line x1="390.80" y1="1714.24" x2="3859.02" y2="1714.24" style="stroke:#EAF2F3;stroke-width:8.64"/>
	<line x1="390.80" y1="939.17" x2="3859.02" y2="939.17" style="stroke:#EAF2F3;stroke-width:8.64"/>
	<line x1="390.80" y1="164.22" x2="3859.02" y2="164.22" style="stroke:#EAF2F3;stroke-width:8.64"/>
	<rect x="501.44" y="2482.75" width="94.67" height="6.44" style="fill:#CAC27E"/>
	<rect x="505.75" y="2487.07" width="86.03" height="-2.20" style="fill:none;stroke:#D7D29E;stroke-width:8.64"/>
	<rect x="596.10" y="2450.20" width="94.67" height="38.98" style="fill:#CAC27E"/>
	<rect x="600.42" y="2454.52" width="86.03" height="30.34" style="fill:none;stroke:#D7D29E;stroke-width:8.64"/>
	<rect x="690.77" y="2404.79" width="94.67" height="84.40" style="fill:#CAC27E"/>
	<rect x="695.09" y="2409.11" width="86.03" height="75.76" style="fill:none;stroke:#D7D29E;stroke-width:8.64"/>
	<rect x="785.44" y="2437.21" width="94.67" height="51.98" style="fill:#CAC27E"/>
	<rect x="789.76" y="2441.53" width="86.03" height="43.34" style="fill:none;stroke:#D7D29E;stroke-width:8.64"/>
	<rect x="880.11" y="2346.25" width="94.67" height="142.94" style="fill:#CAC27E"/>
	<rect x="884.43" y="2350.57" width="86.03" height="134.30" style="fill:none;stroke:#D7D29E;stroke-width:8.64"/>
	<rect x="974.78" y="2333.26" width="94.55" height="155.93" style="fill:#CAC27E"/>
	<rect x="979.10" y="2337.58" width="85.91" height="147.29" style="fill:none;stroke:#D7D29E;stroke-width:8.64"/>
	<rect x="1069.32" y="2027.83" width="94.67" height="461.35" style="fill:#CAC27E"/>
	<rect x="1073.64" y="2032.15" width="86.03" height="452.71" style="fill:none;stroke:#D7D29E;stroke-width:8.64"/>
	<rect x="1163.99" y="2125.35" width="94.67" height="363.84" style="fill:#CAC27E"/>
	<rect x="1168.31" y="2129.67" width="86.03" height="355.20" style="fill:none;stroke:#D7D29E;stroke-width:8.64"/>
	<rect x="1258.66" y="2034.39" width="94.67" height="454.80" style="fill:#CAC27E"/>
	<rect x="1262.98" y="2038.71" width="86.03" height="446.16" style="fill:none;stroke:#D7D29E;stroke-width:8.64"/>
	<rect x="1353.33" y="1521.06" width="94.67" height="968.13" style="fill:#CAC27E"/>
	<rect x="1357.65" y="1525.38" width="86.03" height="959.49" style="fill:none;stroke:#D7D29E;stroke-width:8.64"/>
	<rect x="1448.00" y="760.84" width="94.67" height="1728.35" style="fill:#CAC27E"/>
	<rect x="1452.32" y="765.16" width="86.03" height="1719.71" style="fill:none;stroke:#D7D29E;stroke-width:8.64"/>
	<rect x="1542.67" y="1267.73" width="94.67" height="1221.45" style="fill:#CAC27E"/>
	<rect x="1546.99" y="1272.05" width="86.03" height="1212.81" style="fill:none;stroke:#D7D29E;stroke-width:8.64"/>
	<rect x="1637.34" y="1618.58" width="94.54" height="870.61" style="fill:#CAC27E"/>
	<rect x="1641.66" y="1622.90" width="85.91" height="861.97" style="fill:none;stroke:#D7D29E;stroke-width:8.64"/>
	<rect x="1731.88" y="1254.74" width="94.67" height="1234.44" style="fill:#CAC27E"/>
	<rect x="1736.20" y="1259.06" width="86.03" height="1225.81" style="fill:none;stroke:#D7D29E;stroke-width:8.64"/>
	<rect x="1826.55" y="721.86" width="94.67" height="1767.33" style="fill:#CAC27E"/>
	<rect x="1830.87" y="726.18" width="86.03" height="1758.69" style="fill:none;stroke:#D7D29E;stroke-width:8.64"/>
	<rect x="1921.22" y="708.86" width="94.67" height="1780.32" style="fill:#CAC27E"/>
	<rect x="1925.54" y="713.18" width="86.03" height="1771.68" style="fill:none;stroke:#D7D29E;stroke-width:8.64"/>
	<rect x="2015.89" y="591.91" width="94.67" height="1897.27" style="fill:#CAC27E"/>
	<rect x="2020.21" y="596.23" width="86.03" height="1888.63" style="fill:none;stroke:#D7D29E;stroke-width:8.64"/>
	<rect x="2110.56" y="390.57" width="94.67" height="2098.62" style="fill:#CAC27E"/>
	<rect x="2114.88" y="394.89" width="86.03" height="2089.98" style="fill:none;stroke:#D7D29E;stroke-width:8.64"/>
	<rect x="2205.22" y="435.98" width="94.67" height="2053.20" style="fill:#CAC27E"/>
	<rect x="2209.54" y="440.30" width="86.03" height="2044.56" style="fill:none;stroke:#D7D29E;stroke-width:8.64"/>
	<rect x="2299.89" y="1007.73" width="94.67" height="1481.46" style="fill:#CAC27E"/>
	<rect x="2304.21" y="1012.05" width="86.03" height="1472.82" style="fill:none;stroke:#D7D29E;stroke-width:8.64"/>
	<rect x="2394.56" y="2047.38" width="94.55" height="441.80" style="fill:#CAC27E"/>
	<rect x="2398.88" y="2051.70" width="85.91" height="433.16" style="fill:none;stroke:#D7D29E;stroke-width:8.64"/>
	<rect x="2489.11" y="2417.78" width="94.67" height="71.41" style="fill:#CAC27E"/>
	<rect x="2493.43" y="2422.10" width="86.03" height="62.77" style="fill:none;stroke:#D7D29E;stroke-width:8.64"/>
	<line x1="390.80" y1="2489.19" x2="390.80" y2="100.86" style="stroke:#000000;stroke-width:5.76"/>
	<line x1="390.80" y1="2489.19" x2="350.83" y2="2489.19" style="stroke:#000000;stroke-width:5.76"/>
	<text x="300.72" y="2489.19" style="font-family:'Helvetica';font-size:99.99px;fill:#000000" transform="rotate(-90 300.72,2489.19)" text-anchor="middle">0</text>
	<line x1="390.80" y1="1714.24" x2="350.83" y2="1714.24" style="stroke:#000000;stroke-width:5.76"/>
	<text x="300.72" y="1714.24" style="font-family:'Helvetica';font-size:99.99px;fill:#000000" transform="rotate(-90 300.72,1714.24)" text-anchor="middle">2</text>
	<line x1="390.80" y1="939.17" x2="350.83" y2="939.17" style="stroke:#000000;stroke-width:5.76"/>
	<text x="300.72" y="939.17" style="font-family:'Helvetica';font-size:99.99px;fill:#000000" transform="rotate(-90 300.72,939.17)" text-anchor="middle">4</text>
	<line x1="390.80" y1="164.22" x2="350.83" y2="164.22" style="stroke:#000000;stroke-width:5.76"/>
	<text x="300.72" y="164.22" style="font-family:'Helvetica';font-size:99.99px;fill:#000000" transform="rotate(-90 300.72,164.22)" text-anchor="middle">6</text>
	<text x="190.71" y="1294.96" style="font-family:'Helvetica';font-size:99.99px;fill:#000000" transform="rotate(-90 190.71,1294.96)" text-anchor="middle">Density</text>
	<line x1="390.80" y1="2489.19" x2="3859.02" y2="2489.19" style="stroke:#000000;stroke-width:5.76"/>
	<line x1="482.87" y1="2489.19" x2="482.87" y2="2529.16" style="stroke:#000000;stroke-width:5.76"/>
	<text x="482.87" y="2619.14" style="font-family:'Helvetica';font-size:99.99px;fill:#000000" text-anchor="middle">.3</text>
	<line x1="956.22" y1="2489.19" x2="956.22" y2="2529.16" style="stroke:#000000;stroke-width:5.76"/>
	<text x="956.22" y="2619.14" style="font-family:'Helvetica';font-size:99.99px;fill:#000000" text-anchor="middle">.4</text>
	<line x1="1429.44" y1="2489.19" x2="1429.44" y2="2529.16" style="stroke:#000000;stroke-width:5.76"/>
	<text x="1429.44" y="2619.14" style="font-family:'Helvetica';font-size:99.99px;fill:#000000" text-anchor="middle">.5</text>
	<line x1="1902.66" y1="2489.19" x2="1902.66" y2="2529.16" style="stroke:#000000;stroke-width:5.76"/>
	<text x="1902.66" y="2619.14" style="font-family:'Helvetica';font-size:99.99px;fill:#000000" text-anchor="middle">.6</text>
	<line x1="2376.00" y1="2489.19" x2="2376.00" y2="2529.16" style="stroke:#000000;stroke-width:5.76"/>
	<text x="2376.00" y="2619.14" style="font-family:'Helvetica';font-size:99.99px;fill:#000000" text-anchor="middle">.7</text>
	<line x1="2849.22" y1="2489.19" x2="2849.22" y2="2529.16" style="stroke:#000000;stroke-width:5.76"/>
	<text x="2849.22" y="2619.14" style="font-family:'Helvetica';font-size:99.99px;fill:#000000" text-anchor="middle">.8</text>
	<line x1="3322.44" y1="2489.19" x2="3322.44" y2="2529.16" style="stroke:#000000;stroke-width:5.76"/>
	<text x="3322.44" y="2619.14" style="font-family:'Helvetica';font-size:99.99px;fill:#000000" text-anchor="middle">.9</text>
	<line x1="3795.66" y1="2489.19" x2="3795.66" y2="2529.16" style="stroke:#000000;stroke-width:5.76"/>
	<text x="3795.66" y="2619.14" style="font-family:'Helvetica';font-size:99.99px;fill:#000000" text-anchor="middle">1</text>
	<text x="2124.91" y="2729.16" style="font-family:'Helvetica';font-size:99.99px;fill:#000000" text-anchor="middle">s_time5</text>
</svg>
