<?xml version="1.0" encoding="UTF-8" standalone="no"?>
<!-- This is a Stata 15.0 generated SVG file (http://www.stata.com) -->

<svg version="1.1" width="700px" height="509px" viewBox="0 0 3960 2880" xmlns="http://www.w3.org/2000/svg" xmlns:xlink="http://www.w3.org/1999/xlink">
	<desc>Stata Graph - Graph</desc>
	<rect x="0" y="0" width="3960" height="2880" style="fill:#EAF2F3;stroke:none"/>
	<rect x="0.00" y="0.00" width="3959.88" height="2880.00" style="fill:#EAF2F3"/>
	<rect x="2.88" y="2.88" width="3954.12" height="2874.24" style="fill:none;stroke:#EAF2F3;stroke-width:5.76"/>
	<rect x="465.80" y="100.86" width="3393.22" height="2388.33" style="fill:#FFFFFF"/>
	<rect x="468.67" y="103.74" width="3387.47" height="2382.57" style="fill:none;stroke:#FFFFFF;stroke-width:5.76"/>
	<line x1="465.80" y1="2425.82" x2="3859.02" y2="2425.82" style="stroke:#EAF2F3;stroke-width:8.64"/>
	<line x1="465.80" y1="1973.50" x2="3859.02" y2="1973.50" style="stroke:#EAF2F3;stroke-width:8.64"/>
	<line x1="465.80" y1="1521.18" x2="3859.02" y2="1521.18" style="stroke:#EAF2F3;stroke-width:8.64"/>
	<line x1="465.80" y1="1068.99" x2="3859.02" y2="1068.99" style="stroke:#EAF2F3;stroke-width:8.64"/>
	<line x1="465.80" y1="616.67" x2="3859.02" y2="616.67" style="stroke:#EAF2F3;stroke-width:8.64"/>
	<line x1="465.80" y1="164.35" x2="3859.02" y2="164.35" style="stroke:#EAF2F3;stroke-width:8.64"/>
	<defs>
		<path id="path1" d="M562.07 165.21 L562.07 165.21 L595.11 168.55 L628.15 174.62 L661.07 183.40 L694.11 194.54 L727.15 208.03 L760.07 223.75 L793.11 241.69 L826.15 261.62 L859.07 283.40 L892.11 307.16 L925.03 332.53 L958.07 359.50 L991.11 387.84 L1024.03 417.55 L1057.07 448.24 L1090.11 479.79 L1123.03 512.09 L1156.07 544.89 L1189.11 578.18 L1222.03 611.72 L1255.07 645.50 L1287.99 679.41 L1321.03 713.32 L1354.07 747.10 L1386.99 780.89 L1420.03 814.67 L1453.07 848.09 L1485.99 881.50 L1519.03 914.54 L1551.95 947.21 L1584.99 979.51 L1618.03 1011.44 L1650.95 1042.87 L1683.99 1073.81 L1717.03 1104.13 L1749.95 1133.83 L1782.99 1162.79 L1816.03 1191.13 L1848.95 1218.85 L1881.99 1245.83 L1914.91 1272.31 L1947.95 1298.18 L1980.99 1323.55 L2013.91 1348.42 L2046.95 1372.93 L2079.99 1396.93 L2112.91 1420.57 L2145.95 1443.84 L2178.87 1466.73 L2211.91 1489.25 L2244.95 1511.53 L2277.87 1533.56 L2310.91 1555.21 L2343.95 1576.50 L2376.87 1597.66 L2409.91 1618.45 L2442.95 1638.87 L2475.87 1659.17 L2508.91 1679.09 L2541.82 1698.89 L2574.87 1718.32 L2607.91 1737.50 L2640.82 1756.44 L2673.87 1775.13 L2706.91 1793.56 L2739.82 1811.88 L2772.87 1829.82 L2805.91 1847.65 L2838.82 1865.34 L2871.87 1882.79 L2904.78 1899.99 L2937.82 1917.07 L2970.87 1934.03 L3003.78 1950.86 L3036.82 1967.44 L3069.87 1983.90 L3102.78 2000.23 L3135.82 2016.45 L3168.74 2032.53 L3201.78 2048.50 L3234.82 2064.34 L3267.74 2080.18 L3300.78 2095.77 L3333.82 2111.36 L3366.74 2126.71 L3399.78 2142.18 L3432.82 2157.40 L3465.74 2172.62 L3498.78 2187.72 L3531.70 2202.70 L3564.74 2217.67 L3597.78 2232.52 L3630.70 2247.25 L3663.74 2261.97 L3696.78 2276.58 L3729.70 2291.18 L3762.74 2305.53 L3795.78 2320.01 L3795.78 2131.78 L3762.74 2119.16 L3729.70 2106.41 L3696.78 2093.42 L3663.74 2080.30 L3630.70 2067.06 L3597.78 2053.70 L3564.74 2040.21 L3531.70 2026.59 L3498.78 2012.73 L3465.74 1998.75 L3432.82 1984.64 L3399.78 1970.29 L3366.74 1955.81 L3333.82 1941.20 L3300.78 1926.48 L3267.74 1911.50 L3234.82 1896.28 L3201.78 1881.06 L3168.74 1865.59 L3135.82 1849.87 L3102.78 1834.03 L3069.87 1818.07 L3036.82 1801.86 L3003.78 1785.52 L2970.87 1768.94 L2937.82 1752.23 L2904.78 1735.40 L2871.87 1718.32 L2838.82 1701.00 L2805.91 1683.67 L2772.87 1666.10 L2739.82 1648.28 L2706.91 1630.33 L2673.87 1612.27 L2640.82 1593.95 L2607.91 1575.51 L2574.87 1556.95 L2541.82 1538.14 L2508.91 1519.08 L2475.87 1499.90 L2442.95 1480.47 L2409.91 1460.79 L2376.87 1440.99 L2343.95 1420.82 L2310.91 1400.52 L2277.87 1379.73 L2244.95 1358.69 L2211.91 1337.41 L2178.87 1315.63 L2145.95 1293.60 L2112.91 1271.08 L2079.99 1248.18 L2046.95 1224.92 L2013.91 1201.16 L1980.99 1177.02 L1947.95 1152.40 L1914.91 1127.40 L1881.99 1101.90 L1848.95 1076.04 L1816.03 1049.68 L1782.99 1022.95 L1749.95 995.85 L1717.03 968.25 L1683.99 940.28 L1650.95 911.82 L1618.03 882.98 L1584.99 853.90 L1551.95 824.32 L1519.03 794.38 L1485.99 764.06 L1453.07 733.61 L1420.03 702.80 L1386.99 671.98 L1354.07 641.05 L1321.03 610.23 L1287.99 579.54 L1255.07 549.10 L1222.03 519.15 L1189.11 489.69 L1156.07 460.74 L1123.03 432.52 L1090.11 404.92 L1057.07 378.19 L1024.03 352.45 L991.11 327.70 L958.07 304.06 L925.03 281.66 L892.11 260.63 L859.07 241.32 L826.15 223.62 L793.11 208.15 L760.07 194.79 L727.15 183.77 L694.11 175.36 L661.07 169.42 L628.15 165.95 L595.11 164.35 L562.07 164.22 L562.07 165.21 Z" stroke-linecap="round"/>
	</defs>
	<defs>
		<clipPath id="clipPath1">
			<use xlink:href="#path1"/>
		</clipPath>
	</defs>
	<use xlink:href="#path1" style="stroke:none;fill:#FF3333;fill-opacity:0.25"/>
	<use xlink:href="#path1" style="fill:none;stroke:#FF0000;stroke-opacity:0.25;stroke-width:17.28" clip-path="url(#clipPath1)"/>
	<defs>
		<path id="path2" d="M562.07 164.96 L562.07 164.96 L595.11 167.69 L628.15 172.64 L661.07 179.57 L694.11 188.60 L727.15 199.61 L760.07 212.61 L793.11 227.34 L826.15 243.80 L859.07 262.11 L892.11 281.91 L925.03 303.32 L958.07 326.09 L991.11 350.22 L1024.03 375.35 L1057.07 401.58 L1090.11 428.68 L1123.03 456.40 L1156.07 484.87 L1189.11 513.70 L1222.03 542.91 L1255.07 572.49 L1287.99 602.31 L1321.03 632.38 L1354.07 662.45 L1386.99 692.53 L1420.03 722.72 L1453.07 752.79 L1485.99 782.74 L1519.03 812.44 L1551.95 842.02 L1584.99 871.23 L1618.03 900.19 L1650.95 928.77 L1683.99 956.86 L1717.03 984.59 L1749.95 1011.81 L1782.99 1038.42 L1816.03 1064.65 L1848.95 1090.27 L1881.99 1115.39 L1914.91 1140.02 L1947.95 1164.15 L1980.99 1187.91 L2013.91 1211.18 L2046.95 1234.07 L2079.99 1256.72 L2112.91 1278.87 L2145.95 1300.78 L2178.87 1322.31 L2211.91 1343.60 L2244.95 1364.51 L2277.87 1385.18 L2310.91 1405.60 L2343.95 1425.77 L2376.87 1445.69 L2409.91 1465.37 L2442.95 1484.80 L2475.87 1503.98 L2508.91 1522.92 L2541.82 1541.73 L2574.87 1560.29 L2607.91 1578.60 L2640.82 1596.80 L2673.87 1614.74 L2706.91 1632.44 L2739.82 1650.01 L2772.87 1667.34 L2805.91 1684.54 L2838.82 1701.62 L2871.87 1718.45 L2904.78 1735.15 L2937.82 1751.74 L2970.87 1768.20 L3003.78 1784.41 L3036.82 1800.50 L3069.87 1816.58 L3102.78 1832.42 L3135.82 1848.14 L3168.74 1863.73 L3201.78 1879.20 L3234.82 1894.55 L3267.74 1909.77 L3300.78 1924.87 L3333.82 1939.84 L3366.74 1954.82 L3399.78 1969.54 L3432.82 1984.27 L3465.74 1998.87 L3498.78 2013.35 L3531.70 2027.83 L3564.74 2042.19 L3597.78 2056.42 L3630.70 2070.53 L3663.74 2084.51 L3696.78 2098.49 L3729.70 2112.35 L3762.74 2126.22 L3795.78 2139.95 L3795.78 1723.64 L3762.74 1712.38 L3729.70 1701.00 L3696.78 1689.49 L3663.74 1677.85 L3630.70 1666.22 L3597.78 1654.47 L3564.74 1642.71 L3531.70 1630.70 L3498.78 1618.70 L3465.74 1606.57 L3432.82 1594.32 L3399.78 1582.07 L3366.74 1569.57 L3333.82 1557.07 L3300.78 1544.45 L3267.74 1531.70 L3234.82 1518.83 L3201.78 1505.96 L3168.74 1492.84 L3135.82 1479.72 L3102.78 1466.48 L3069.87 1452.99 L3036.82 1439.50 L3003.78 1425.89 L2970.87 1412.16 L2937.82 1398.29 L2904.78 1384.43 L2871.87 1370.33 L2838.82 1356.09 L2805.91 1341.74 L2772.87 1327.38 L2739.82 1312.78 L2706.91 1298.05 L2673.87 1283.20 L2640.82 1268.35 L2607.91 1253.26 L2574.87 1238.03 L2541.82 1222.69 L2508.91 1207.22 L2475.87 1191.63 L2442.95 1175.91 L2409.91 1159.94 L2376.87 1143.86 L2343.95 1127.65 L2310.91 1111.19 L2277.87 1094.60 L2244.95 1077.65 L2211.91 1060.57 L2178.87 1043.25 L2145.95 1025.80 L2112.91 1007.98 L2079.99 989.78 L2046.95 971.47 L2013.91 952.78 L1980.99 933.85 L1947.95 914.66 L1914.91 895.11 L1881.99 875.31 L1848.95 855.14 L1816.03 834.72 L1782.99 813.93 L1749.95 792.89 L1717.03 771.48 L1683.99 749.82 L1650.95 727.92 L1618.03 705.77 L1584.99 683.37 L1551.95 660.85 L1519.03 637.95 L1485.99 614.93 L1453.07 591.79 L1420.03 568.53 L1386.99 545.26 L1354.07 521.87 L1321.03 498.73 L1287.99 475.59 L1255.07 452.82 L1222.03 430.29 L1189.11 408.14 L1156.07 386.48 L1123.03 365.20 L1090.11 344.53 L1057.07 324.61 L1024.03 305.30 L991.11 286.74 L958.07 269.04 L925.03 252.33 L892.11 236.74 L859.07 222.26 L826.15 209.02 L793.11 197.39 L760.07 187.36 L727.15 179.07 L694.11 172.64 L661.07 168.18 L628.15 165.46 L595.11 164.35 L562.07 164.22 L562.07 164.96 Z" stroke-linecap="round"/>
	</defs>
	<defs>
		<clipPath id="clipPath2">
			<use xlink:href="#path2"/>
		</clipPath>
	</defs>
	<use xlink:href="#path2" style="stroke:none;fill:#3333FF;fill-opacity:0.25"/>
	<use xlink:href="#path2" style="fill:none;stroke:#0000FF;stroke-opacity:0.25;stroke-width:17.28" clip-path="url(#clipPath2)"/>
	<line x1="529.03" y1="164.35" x2="562.07" y2="164.72" stroke-linecap="round" style="stroke:#FF0000;stroke-width:8.64"/>
	<line x1="562.07" y1="164.72" x2="595.11" y2="166.57" stroke-linecap="round" style="stroke:#FF0000;stroke-width:8.64"/>
	<line x1="595.11" y1="166.57" x2="628.03" y2="170.29" stroke-linecap="round" style="stroke:#FF0000;stroke-width:8.64"/>
	<line x1="628.03" y1="170.29" x2="661.07" y2="176.47" stroke-linecap="round" style="stroke:#FF0000;stroke-width:8.64"/>
	<line x1="661.07" y1="176.47" x2="694.11" y2="185.01" stroke-linecap="round" style="stroke:#FF0000;stroke-width:8.64"/>
	<line x1="694.11" y1="185.01" x2="727.03" y2="196.03" stroke-linecap="round" style="stroke:#FF0000;stroke-width:8.64"/>
	<line x1="727.03" y1="196.03" x2="760.07" y2="209.39" stroke-linecap="round" style="stroke:#FF0000;stroke-width:8.64"/>
	<line x1="760.07" y1="209.39" x2="792.99" y2="224.98" stroke-linecap="round" style="stroke:#FF0000;stroke-width:8.64"/>
	<line x1="792.99" y1="224.98" x2="826.03" y2="242.68" stroke-linecap="round" style="stroke:#FF0000;stroke-width:8.64"/>
	<line x1="826.03" y1="242.68" x2="859.07" y2="262.48" stroke-linecap="round" style="stroke:#FF0000;stroke-width:8.64"/>
	<line x1="859.07" y1="262.48" x2="891.99" y2="284.02" stroke-linecap="round" style="stroke:#FF0000;stroke-width:8.64"/>
	<line x1="891.99" y1="284.02" x2="925.03" y2="307.16" stroke-linecap="round" style="stroke:#FF0000;stroke-width:8.64"/>
	<line x1="925.03" y1="307.16" x2="958.07" y2="331.91" stroke-linecap="round" style="stroke:#FF0000;stroke-width:8.64"/>
	<line x1="958.07" y1="331.91" x2="990.99" y2="357.90" stroke-linecap="round" style="stroke:#FF0000;stroke-width:8.64"/>
	<line x1="990.99" y1="357.90" x2="1024.03" y2="385.12" stroke-linecap="round" style="stroke:#FF0000;stroke-width:8.64"/>
	<line x1="1024.03" y1="385.12" x2="1056.95" y2="413.46" stroke-linecap="round" style="stroke:#FF0000;stroke-width:8.64"/>
	<line x1="1056.95" y1="413.46" x2="1089.99" y2="442.54" stroke-linecap="round" style="stroke:#FF0000;stroke-width:8.64"/>
	<line x1="1089.99" y1="442.54" x2="1123.03" y2="472.49" stroke-linecap="round" style="stroke:#FF0000;stroke-width:8.64"/>
	<line x1="1123.03" y1="472.49" x2="1155.95" y2="503.06" stroke-linecap="round" style="stroke:#FF0000;stroke-width:8.64"/>
	<line x1="1155.95" y1="503.06" x2="1188.99" y2="534.25" stroke-linecap="round" style="stroke:#FF0000;stroke-width:8.64"/>
	<line x1="1188.99" y1="534.25" x2="1222.03" y2="565.80" stroke-linecap="round" style="stroke:#FF0000;stroke-width:8.64"/>
	<line x1="1222.03" y1="565.80" x2="1254.95" y2="597.73" stroke-linecap="round" style="stroke:#FF0000;stroke-width:8.64"/>
	<line x1="1254.95" y1="597.73" x2="1287.99" y2="629.78" stroke-linecap="round" style="stroke:#FF0000;stroke-width:8.64"/>
	<line x1="1287.99" y1="629.78" x2="1321.03" y2="662.08" stroke-linecap="round" style="stroke:#FF0000;stroke-width:8.64"/>
	<line x1="1321.03" y1="662.08" x2="1353.95" y2="694.51" stroke-linecap="round" style="stroke:#FF0000;stroke-width:8.64"/>
	<line x1="1353.95" y1="694.51" x2="1386.99" y2="726.93" stroke-linecap="round" style="stroke:#FF0000;stroke-width:8.64"/>
	<line x1="1386.99" y1="726.93" x2="1419.91" y2="759.23" stroke-linecap="round" style="stroke:#FF0000;stroke-width:8.64"/>
	<line x1="1419.91" y1="759.23" x2="1452.95" y2="791.41" stroke-linecap="round" style="stroke:#FF0000;stroke-width:8.64"/>
	<line x1="1452.95" y1="791.41" x2="1485.99" y2="823.33" stroke-linecap="round" style="stroke:#FF0000;stroke-width:8.64"/>
	<line x1="1485.99" y1="823.33" x2="1518.91" y2="855.02" stroke-linecap="round" style="stroke:#FF0000;stroke-width:8.64"/>
	<line x1="1518.91" y1="855.02" x2="1551.95" y2="886.33" stroke-linecap="round" style="stroke:#FF0000;stroke-width:8.64"/>
	<line x1="1551.95" y1="886.33" x2="1584.99" y2="917.26" stroke-linecap="round" style="stroke:#FF0000;stroke-width:8.64"/>
	<line x1="1584.99" y1="917.26" x2="1617.91" y2="947.83" stroke-linecap="round" style="stroke:#FF0000;stroke-width:8.64"/>
	<line x1="1617.91" y1="947.83" x2="1650.95" y2="978.03" stroke-linecap="round" style="stroke:#FF0000;stroke-width:8.64"/>
	<line x1="1650.95" y1="978.03" x2="1683.87" y2="1007.73" stroke-linecap="round" style="stroke:#FF0000;stroke-width:8.64"/>
	<line x1="1683.87" y1="1007.73" x2="1716.91" y2="1036.81" stroke-linecap="round" style="stroke:#FF0000;stroke-width:8.64"/>
	<line x1="1716.91" y1="1036.81" x2="1749.95" y2="1065.52" stroke-linecap="round" style="stroke:#FF0000;stroke-width:8.64"/>
	<line x1="1749.95" y1="1065.52" x2="1782.87" y2="1093.61" stroke-linecap="round" style="stroke:#FF0000;stroke-width:8.64"/>
	<line x1="1782.87" y1="1093.61" x2="1815.91" y2="1121.21" stroke-linecap="round" style="stroke:#FF0000;stroke-width:8.64"/>
	<line x1="1815.91" y1="1121.21" x2="1848.95" y2="1148.19" stroke-linecap="round" style="stroke:#FF0000;stroke-width:8.64"/>
	<line x1="1848.95" y1="1148.19" x2="1881.87" y2="1174.67" stroke-linecap="round" style="stroke:#FF0000;stroke-width:8.64"/>
	<line x1="1881.87" y1="1174.67" x2="1914.91" y2="1200.66" stroke-linecap="round" style="stroke:#FF0000;stroke-width:8.64"/>
	<line x1="1914.91" y1="1200.66" x2="1947.95" y2="1226.15" stroke-linecap="round" style="stroke:#FF0000;stroke-width:8.64"/>
	<line x1="1947.95" y1="1226.15" x2="1980.87" y2="1251.15" stroke-linecap="round" style="stroke:#FF0000;stroke-width:8.64"/>
	<line x1="1980.87" y1="1251.15" x2="2013.91" y2="1275.65" stroke-linecap="round" style="stroke:#FF0000;stroke-width:8.64"/>
	<line x1="2013.91" y1="1275.65" x2="2046.83" y2="1299.79" stroke-linecap="round" style="stroke:#FF0000;stroke-width:8.64"/>
	<line x1="2046.83" y1="1299.79" x2="2079.87" y2="1323.42" stroke-linecap="round" style="stroke:#FF0000;stroke-width:8.64"/>
	<line x1="2079.87" y1="1323.42" x2="2112.91" y2="1346.69" stroke-linecap="round" style="stroke:#FF0000;stroke-width:8.64"/>
	<line x1="2112.91" y1="1346.69" x2="2145.82" y2="1369.58" stroke-linecap="round" style="stroke:#FF0000;stroke-width:8.64"/>
	<line x1="2145.82" y1="1369.58" x2="2178.87" y2="1392.11" stroke-linecap="round" style="stroke:#FF0000;stroke-width:8.64"/>
	<line x1="2178.87" y1="1392.11" x2="2211.91" y2="1414.26" stroke-linecap="round" style="stroke:#FF0000;stroke-width:8.64"/>
	<line x1="2211.91" y1="1414.26" x2="2244.82" y2="1436.16" stroke-linecap="round" style="stroke:#FF0000;stroke-width:8.64"/>
	<line x1="2244.82" y1="1436.16" x2="2277.87" y2="1457.57" stroke-linecap="round" style="stroke:#FF0000;stroke-width:8.64"/>
	<line x1="2277.87" y1="1457.57" x2="2310.91" y2="1478.86" stroke-linecap="round" style="stroke:#FF0000;stroke-width:8.64"/>
	<line x1="2310.91" y1="1478.86" x2="2343.82" y2="1499.77" stroke-linecap="round" style="stroke:#FF0000;stroke-width:8.64"/>
	<line x1="2343.82" y1="1499.77" x2="2376.87" y2="1520.32" stroke-linecap="round" style="stroke:#FF0000;stroke-width:8.64"/>
	<line x1="2376.87" y1="1520.32" x2="2409.78" y2="1540.61" stroke-linecap="round" style="stroke:#FF0000;stroke-width:8.64"/>
	<line x1="2409.78" y1="1540.61" x2="2442.82" y2="1560.78" stroke-linecap="round" style="stroke:#FF0000;stroke-width:8.64"/>
	<line x1="2442.82" y1="1560.78" x2="2475.87" y2="1580.58" stroke-linecap="round" style="stroke:#FF0000;stroke-width:8.64"/>
	<line x1="2475.87" y1="1580.58" x2="2508.78" y2="1600.26" stroke-linecap="round" style="stroke:#FF0000;stroke-width:8.64"/>
	<line x1="2508.78" y1="1600.26" x2="2541.82" y2="1619.57" stroke-linecap="round" style="stroke:#FF0000;stroke-width:8.64"/>
	<line x1="2541.82" y1="1619.57" x2="2574.87" y2="1638.75" stroke-linecap="round" style="stroke:#FF0000;stroke-width:8.64"/>
	<line x1="2574.87" y1="1638.75" x2="2607.78" y2="1657.68" stroke-linecap="round" style="stroke:#FF0000;stroke-width:8.64"/>
	<line x1="2607.78" y1="1657.68" x2="2640.82" y2="1676.37" stroke-linecap="round" style="stroke:#FF0000;stroke-width:8.64"/>
	<line x1="2640.82" y1="1676.37" x2="2673.74" y2="1694.81" stroke-linecap="round" style="stroke:#FF0000;stroke-width:8.64"/>
	<line x1="2673.74" y1="1694.81" x2="2706.78" y2="1713.12" stroke-linecap="round" style="stroke:#FF0000;stroke-width:8.64"/>
	<line x1="2706.78" y1="1713.12" x2="2739.82" y2="1731.32" stroke-linecap="round" style="stroke:#FF0000;stroke-width:8.64"/>
	<line x1="2739.82" y1="1731.32" x2="2772.74" y2="1749.14" stroke-linecap="round" style="stroke:#FF0000;stroke-width:8.64"/>
	<line x1="2772.74" y1="1749.14" x2="2805.78" y2="1766.83" stroke-linecap="round" style="stroke:#FF0000;stroke-width:8.64"/>
	<line x1="2805.78" y1="1766.83" x2="2838.82" y2="1784.41" stroke-linecap="round" style="stroke:#FF0000;stroke-width:8.64"/>
	<line x1="2838.82" y1="1784.41" x2="2871.74" y2="1801.73" stroke-linecap="round" style="stroke:#FF0000;stroke-width:8.64"/>
	<line x1="2871.74" y1="1801.73" x2="2904.78" y2="1818.93" stroke-linecap="round" style="stroke:#FF0000;stroke-width:8.64"/>
	<line x1="2904.78" y1="1818.93" x2="2937.82" y2="1835.89" stroke-linecap="round" style="stroke:#FF0000;stroke-width:8.64"/>
	<line x1="2937.82" y1="1835.89" x2="2970.74" y2="1852.72" stroke-linecap="round" style="stroke:#FF0000;stroke-width:8.64"/>
	<line x1="2970.74" y1="1852.72" x2="3003.78" y2="1869.43" stroke-linecap="round" style="stroke:#FF0000;stroke-width:8.64"/>
	<line x1="3003.78" y1="1869.43" x2="3036.70" y2="1885.89" stroke-linecap="round" style="stroke:#FF0000;stroke-width:8.64"/>
	<line x1="3036.70" y1="1885.89" x2="3069.74" y2="1902.22" stroke-linecap="round" style="stroke:#FF0000;stroke-width:8.64"/>
	<line x1="3069.74" y1="1902.22" x2="3102.78" y2="1918.43" stroke-linecap="round" style="stroke:#FF0000;stroke-width:8.64"/>
	<line x1="3102.78" y1="1918.43" x2="3135.70" y2="1934.52" stroke-linecap="round" style="stroke:#FF0000;stroke-width:8.64"/>
	<line x1="3135.70" y1="1934.52" x2="3168.74" y2="1950.36" stroke-linecap="round" style="stroke:#FF0000;stroke-width:8.64"/>
	<line x1="3168.74" y1="1950.36" x2="3201.78" y2="1966.08" stroke-linecap="round" style="stroke:#FF0000;stroke-width:8.64"/>
	<line x1="3201.78" y1="1966.08" x2="3234.70" y2="1981.67" stroke-linecap="round" style="stroke:#FF0000;stroke-width:8.64"/>
	<line x1="3234.70" y1="1981.67" x2="3267.74" y2="1997.14" stroke-linecap="round" style="stroke:#FF0000;stroke-width:8.64"/>
	<line x1="3267.74" y1="1997.14" x2="3300.78" y2="2012.49" stroke-linecap="round" style="stroke:#FF0000;stroke-width:8.64"/>
	<line x1="3300.78" y1="2012.49" x2="3333.70" y2="2027.71" stroke-linecap="round" style="stroke:#FF0000;stroke-width:8.64"/>
	<line x1="3333.70" y1="2027.71" x2="3366.74" y2="2042.81" stroke-linecap="round" style="stroke:#FF0000;stroke-width:8.64"/>
	<line x1="3366.74" y1="2042.81" x2="3399.66" y2="2057.66" stroke-linecap="round" style="stroke:#FF0000;stroke-width:8.64"/>
	<line x1="3399.66" y1="2057.66" x2="3432.70" y2="2072.51" stroke-linecap="round" style="stroke:#FF0000;stroke-width:8.64"/>
	<line x1="3432.70" y1="2072.51" x2="3465.74" y2="2087.23" stroke-linecap="round" style="stroke:#FF0000;stroke-width:8.64"/>
	<line x1="3465.74" y1="2087.23" x2="3498.66" y2="2101.71" stroke-linecap="round" style="stroke:#FF0000;stroke-width:8.64"/>
	<line x1="3498.66" y1="2101.71" x2="3531.70" y2="2116.19" stroke-linecap="round" style="stroke:#FF0000;stroke-width:8.64"/>
	<line x1="3531.70" y1="2116.19" x2="3564.74" y2="2130.55" stroke-linecap="round" style="stroke:#FF0000;stroke-width:8.64"/>
	<line x1="3564.74" y1="2130.55" x2="3597.66" y2="2144.78" stroke-linecap="round" style="stroke:#FF0000;stroke-width:8.64"/>
	<line x1="3597.66" y1="2144.78" x2="3630.70" y2="2158.89" stroke-linecap="round" style="stroke:#FF0000;stroke-width:8.64"/>
	<line x1="3630.70" y1="2158.89" x2="3663.62" y2="2172.87" stroke-linecap="round" style="stroke:#FF0000;stroke-width:8.64"/>
	<line x1="3663.62" y1="2172.87" x2="3696.66" y2="2186.73" stroke-linecap="round" style="stroke:#FF0000;stroke-width:8.64"/>
	<line x1="3696.66" y1="2186.73" x2="3729.70" y2="2200.47" stroke-linecap="round" style="stroke:#FF0000;stroke-width:8.64"/>
	<line x1="3729.70" y1="2200.47" x2="3762.62" y2="2214.20" stroke-linecap="round" style="stroke:#FF0000;stroke-width:8.64"/>
	<line x1="3762.62" y1="2214.20" x2="3795.66" y2="2227.82" stroke-linecap="round" style="stroke:#FF0000;stroke-width:8.64"/>
	<line x1="529.03" y1="164.35" x2="562.07" y2="164.72" stroke-linecap="round" style="stroke:#0000FF;stroke-width:8.64"/>
	<line x1="562.07" y1="164.72" x2="595.11" y2="166.08" stroke-linecap="round" style="stroke:#0000FF;stroke-width:8.64"/>
	<line x1="595.11" y1="166.08" x2="628.03" y2="169.05" stroke-linecap="round" style="stroke:#0000FF;stroke-width:8.64"/>
	<line x1="628.03" y1="169.05" x2="661.07" y2="174.00" stroke-linecap="round" style="stroke:#0000FF;stroke-width:8.64"/>
	<line x1="661.07" y1="174.00" x2="694.11" y2="180.68" stroke-linecap="round" style="stroke:#0000FF;stroke-width:8.64"/>
	<line x1="694.11" y1="180.68" x2="727.03" y2="189.47" stroke-linecap="round" style="stroke:#0000FF;stroke-width:8.64"/>
	<line x1="727.03" y1="189.47" x2="760.07" y2="199.99" stroke-linecap="round" style="stroke:#0000FF;stroke-width:8.64"/>
	<line x1="760.07" y1="199.99" x2="792.99" y2="212.36" stroke-linecap="round" style="stroke:#0000FF;stroke-width:8.64"/>
	<line x1="792.99" y1="212.36" x2="826.03" y2="226.47" stroke-linecap="round" style="stroke:#0000FF;stroke-width:8.64"/>
	<line x1="826.03" y1="226.47" x2="859.07" y2="242.19" stroke-linecap="round" style="stroke:#0000FF;stroke-width:8.64"/>
	<line x1="859.07" y1="242.19" x2="891.99" y2="259.39" stroke-linecap="round" style="stroke:#0000FF;stroke-width:8.64"/>
	<line x1="891.99" y1="259.39" x2="925.03" y2="277.95" stroke-linecap="round" style="stroke:#0000FF;stroke-width:8.64"/>
	<line x1="925.03" y1="277.95" x2="958.07" y2="297.75" stroke-linecap="round" style="stroke:#0000FF;stroke-width:8.64"/>
	<line x1="958.07" y1="297.75" x2="990.99" y2="318.67" stroke-linecap="round" style="stroke:#0000FF;stroke-width:8.64"/>
	<line x1="990.99" y1="318.67" x2="1024.03" y2="340.57" stroke-linecap="round" style="stroke:#0000FF;stroke-width:8.64"/>
	<line x1="1024.03" y1="340.57" x2="1056.95" y2="363.34" stroke-linecap="round" style="stroke:#0000FF;stroke-width:8.64"/>
	<line x1="1056.95" y1="363.34" x2="1089.99" y2="386.85" stroke-linecap="round" style="stroke:#0000FF;stroke-width:8.64"/>
	<line x1="1089.99" y1="386.85" x2="1123.03" y2="411.11" stroke-linecap="round" style="stroke:#0000FF;stroke-width:8.64"/>
	<line x1="1123.03" y1="411.11" x2="1155.95" y2="435.98" stroke-linecap="round" style="stroke:#0000FF;stroke-width:8.64"/>
	<line x1="1155.95" y1="435.98" x2="1188.99" y2="461.35" stroke-linecap="round" style="stroke:#0000FF;stroke-width:8.64"/>
	<line x1="1188.99" y1="461.35" x2="1222.03" y2="487.10" stroke-linecap="round" style="stroke:#0000FF;stroke-width:8.64"/>
	<line x1="1222.03" y1="487.10" x2="1254.95" y2="513.21" stroke-linecap="round" style="stroke:#0000FF;stroke-width:8.64"/>
	<line x1="1254.95" y1="513.21" x2="1287.99" y2="539.57" stroke-linecap="round" style="stroke:#0000FF;stroke-width:8.64"/>
	<line x1="1287.99" y1="539.57" x2="1321.03" y2="566.17" stroke-linecap="round" style="stroke:#0000FF;stroke-width:8.64"/>
	<line x1="1321.03" y1="566.17" x2="1353.95" y2="592.78" stroke-linecap="round" style="stroke:#0000FF;stroke-width:8.64"/>
	<line x1="1353.95" y1="592.78" x2="1386.99" y2="619.64" stroke-linecap="round" style="stroke:#0000FF;stroke-width:8.64"/>
	<line x1="1386.99" y1="619.64" x2="1419.91" y2="646.37" stroke-linecap="round" style="stroke:#0000FF;stroke-width:8.64"/>
	<line x1="1419.91" y1="646.37" x2="1452.95" y2="673.10" stroke-linecap="round" style="stroke:#0000FF;stroke-width:8.64"/>
	<line x1="1452.95" y1="673.10" x2="1485.99" y2="699.70" stroke-linecap="round" style="stroke:#0000FF;stroke-width:8.64"/>
	<line x1="1485.99" y1="699.70" x2="1518.91" y2="726.19" stroke-linecap="round" style="stroke:#0000FF;stroke-width:8.64"/>
	<line x1="1518.91" y1="726.19" x2="1551.95" y2="752.55" stroke-linecap="round" style="stroke:#0000FF;stroke-width:8.64"/>
	<line x1="1551.95" y1="752.55" x2="1584.99" y2="778.54" stroke-linecap="round" style="stroke:#0000FF;stroke-width:8.64"/>
	<line x1="1584.99" y1="778.54" x2="1617.91" y2="804.28" stroke-linecap="round" style="stroke:#0000FF;stroke-width:8.64"/>
	<line x1="1617.91" y1="804.28" x2="1650.95" y2="829.77" stroke-linecap="round" style="stroke:#0000FF;stroke-width:8.64"/>
	<line x1="1650.95" y1="829.77" x2="1683.87" y2="854.89" stroke-linecap="round" style="stroke:#0000FF;stroke-width:8.64"/>
	<line x1="1683.87" y1="854.89" x2="1716.91" y2="879.64" stroke-linecap="round" style="stroke:#0000FF;stroke-width:8.64"/>
	<line x1="1716.91" y1="879.64" x2="1749.95" y2="903.90" stroke-linecap="round" style="stroke:#0000FF;stroke-width:8.64"/>
	<line x1="1749.95" y1="903.90" x2="1782.87" y2="927.91" stroke-linecap="round" style="stroke:#0000FF;stroke-width:8.64"/>
	<line x1="1782.87" y1="927.91" x2="1815.91" y2="951.42" stroke-linecap="round" style="stroke:#0000FF;stroke-width:8.64"/>
	<line x1="1815.91" y1="951.42" x2="1848.95" y2="974.56" stroke-linecap="round" style="stroke:#0000FF;stroke-width:8.64"/>
	<line x1="1848.95" y1="974.56" x2="1881.87" y2="997.33" stroke-linecap="round" style="stroke:#0000FF;stroke-width:8.64"/>
	<line x1="1881.87" y1="997.33" x2="1914.91" y2="1019.61" stroke-linecap="round" style="stroke:#0000FF;stroke-width:8.64"/>
	<line x1="1914.91" y1="1019.61" x2="1947.95" y2="1041.64" stroke-linecap="round" style="stroke:#0000FF;stroke-width:8.64"/>
	<line x1="1947.95" y1="1041.64" x2="1980.87" y2="1063.17" stroke-linecap="round" style="stroke:#0000FF;stroke-width:8.64"/>
	<line x1="1980.87" y1="1063.17" x2="2013.91" y2="1084.33" stroke-linecap="round" style="stroke:#0000FF;stroke-width:8.64"/>
	<line x1="2013.91" y1="1084.33" x2="2046.83" y2="1105.25" stroke-linecap="round" style="stroke:#0000FF;stroke-width:8.64"/>
	<line x1="2046.83" y1="1105.25" x2="2079.87" y2="1125.79" stroke-linecap="round" style="stroke:#0000FF;stroke-width:8.64"/>
	<line x1="2079.87" y1="1125.79" x2="2112.91" y2="1146.08" stroke-linecap="round" style="stroke:#0000FF;stroke-width:8.64"/>
	<line x1="2112.91" y1="1146.08" x2="2145.82" y2="1166.01" stroke-linecap="round" style="stroke:#0000FF;stroke-width:8.64"/>
	<line x1="2145.82" y1="1166.01" x2="2178.87" y2="1185.69" stroke-linecap="round" style="stroke:#0000FF;stroke-width:8.64"/>
	<line x1="2178.87" y1="1185.69" x2="2211.91" y2="1204.99" stroke-linecap="round" style="stroke:#0000FF;stroke-width:8.64"/>
	<line x1="2211.91" y1="1204.99" x2="2244.82" y2="1224.17" stroke-linecap="round" style="stroke:#0000FF;stroke-width:8.64"/>
	<line x1="2244.82" y1="1224.17" x2="2277.87" y2="1242.98" stroke-linecap="round" style="stroke:#0000FF;stroke-width:8.64"/>
	<line x1="2277.87" y1="1242.98" x2="2310.91" y2="1261.67" stroke-linecap="round" style="stroke:#0000FF;stroke-width:8.64"/>
	<line x1="2310.91" y1="1261.67" x2="2343.82" y2="1279.99" stroke-linecap="round" style="stroke:#0000FF;stroke-width:8.64"/>
	<line x1="2343.82" y1="1279.99" x2="2376.87" y2="1298.18" stroke-linecap="round" style="stroke:#0000FF;stroke-width:8.64"/>
	<line x1="2376.87" y1="1298.18" x2="2409.78" y2="1316.12" stroke-linecap="round" style="stroke:#0000FF;stroke-width:8.64"/>
	<line x1="2409.78" y1="1316.12" x2="2442.82" y2="1333.94" stroke-linecap="round" style="stroke:#0000FF;stroke-width:8.64"/>
	<line x1="2442.82" y1="1333.94" x2="2475.87" y2="1351.52" stroke-linecap="round" style="stroke:#0000FF;stroke-width:8.64"/>
	<line x1="2475.87" y1="1351.52" x2="2508.78" y2="1368.97" stroke-linecap="round" style="stroke:#0000FF;stroke-width:8.64"/>
	<line x1="2508.78" y1="1368.97" x2="2541.82" y2="1386.17" stroke-linecap="round" style="stroke:#0000FF;stroke-width:8.64"/>
	<line x1="2541.82" y1="1386.17" x2="2574.87" y2="1403.12" stroke-linecap="round" style="stroke:#0000FF;stroke-width:8.64"/>
	<line x1="2574.87" y1="1403.12" x2="2607.78" y2="1420.08" stroke-linecap="round" style="stroke:#0000FF;stroke-width:8.64"/>
	<line x1="2607.78" y1="1420.08" x2="2640.82" y2="1436.78" stroke-linecap="round" style="stroke:#0000FF;stroke-width:8.64"/>
	<line x1="2640.82" y1="1436.78" x2="2673.74" y2="1453.24" stroke-linecap="round" style="stroke:#0000FF;stroke-width:8.64"/>
	<line x1="2673.74" y1="1453.24" x2="2706.78" y2="1469.70" stroke-linecap="round" style="stroke:#0000FF;stroke-width:8.64"/>
	<line x1="2706.78" y1="1469.70" x2="2739.82" y2="1485.91" stroke-linecap="round" style="stroke:#0000FF;stroke-width:8.64"/>
	<line x1="2739.82" y1="1485.91" x2="2772.74" y2="1502.00" stroke-linecap="round" style="stroke:#0000FF;stroke-width:8.64"/>
	<line x1="2772.74" y1="1502.00" x2="2805.78" y2="1517.84" stroke-linecap="round" style="stroke:#0000FF;stroke-width:8.64"/>
	<line x1="2805.78" y1="1517.84" x2="2838.82" y2="1533.68" stroke-linecap="round" style="stroke:#0000FF;stroke-width:8.64"/>
	<line x1="2838.82" y1="1533.68" x2="2871.74" y2="1549.27" stroke-linecap="round" style="stroke:#0000FF;stroke-width:8.64"/>
	<line x1="2871.74" y1="1549.27" x2="2904.78" y2="1564.74" stroke-linecap="round" style="stroke:#0000FF;stroke-width:8.64"/>
	<line x1="2904.78" y1="1564.74" x2="2937.82" y2="1580.09" stroke-linecap="round" style="stroke:#0000FF;stroke-width:8.64"/>
	<line x1="2937.82" y1="1580.09" x2="2970.74" y2="1595.31" stroke-linecap="round" style="stroke:#0000FF;stroke-width:8.64"/>
	<line x1="2970.74" y1="1595.31" x2="3003.78" y2="1610.41" stroke-linecap="round" style="stroke:#0000FF;stroke-width:8.64"/>
	<line x1="3003.78" y1="1610.41" x2="3036.70" y2="1625.38" stroke-linecap="round" style="stroke:#0000FF;stroke-width:8.64"/>
	<line x1="3036.70" y1="1625.38" x2="3069.74" y2="1640.23" stroke-linecap="round" style="stroke:#0000FF;stroke-width:8.64"/>
	<line x1="3069.74" y1="1640.23" x2="3102.78" y2="1654.96" stroke-linecap="round" style="stroke:#0000FF;stroke-width:8.64"/>
	<line x1="3102.78" y1="1654.96" x2="3135.70" y2="1669.56" stroke-linecap="round" style="stroke:#0000FF;stroke-width:8.64"/>
	<line x1="3135.70" y1="1669.56" x2="3168.74" y2="1684.04" stroke-linecap="round" style="stroke:#0000FF;stroke-width:8.64"/>
	<line x1="3168.74" y1="1684.04" x2="3201.78" y2="1698.40" stroke-linecap="round" style="stroke:#0000FF;stroke-width:8.64"/>
	<line x1="3201.78" y1="1698.40" x2="3234.70" y2="1712.63" stroke-linecap="round" style="stroke:#0000FF;stroke-width:8.64"/>
	<line x1="3234.70" y1="1712.63" x2="3267.74" y2="1726.86" stroke-linecap="round" style="stroke:#0000FF;stroke-width:8.64"/>
	<line x1="3267.74" y1="1726.86" x2="3300.78" y2="1740.85" stroke-linecap="round" style="stroke:#0000FF;stroke-width:8.64"/>
	<line x1="3300.78" y1="1740.85" x2="3333.70" y2="1754.83" stroke-linecap="round" style="stroke:#0000FF;stroke-width:8.64"/>
	<line x1="3333.70" y1="1754.83" x2="3366.74" y2="1768.57" stroke-linecap="round" style="stroke:#0000FF;stroke-width:8.64"/>
	<line x1="3366.74" y1="1768.57" x2="3399.66" y2="1782.30" stroke-linecap="round" style="stroke:#0000FF;stroke-width:8.64"/>
	<line x1="3399.66" y1="1782.30" x2="3432.70" y2="1795.92" stroke-linecap="round" style="stroke:#0000FF;stroke-width:8.64"/>
	<line x1="3432.70" y1="1795.92" x2="3465.74" y2="1809.53" stroke-linecap="round" style="stroke:#0000FF;stroke-width:8.64"/>
	<line x1="3465.74" y1="1809.53" x2="3498.66" y2="1822.89" stroke-linecap="round" style="stroke:#0000FF;stroke-width:8.64"/>
	<line x1="3498.66" y1="1822.89" x2="3531.70" y2="1836.26" stroke-linecap="round" style="stroke:#0000FF;stroke-width:8.64"/>
	<line x1="3531.70" y1="1836.26" x2="3564.74" y2="1849.50" stroke-linecap="round" style="stroke:#0000FF;stroke-width:8.64"/>
	<line x1="3564.74" y1="1849.50" x2="3597.66" y2="1862.62" stroke-linecap="round" style="stroke:#0000FF;stroke-width:8.64"/>
	<line x1="3597.66" y1="1862.62" x2="3630.70" y2="1875.74" stroke-linecap="round" style="stroke:#0000FF;stroke-width:8.64"/>
	<line x1="3630.70" y1="1875.74" x2="3663.62" y2="1888.73" stroke-linecap="round" style="stroke:#0000FF;stroke-width:8.64"/>
	<line x1="3663.62" y1="1888.73" x2="3696.66" y2="1901.60" stroke-linecap="round" style="stroke:#0000FF;stroke-width:8.64"/>
	<line x1="3696.66" y1="1901.60" x2="3729.70" y2="1914.35" stroke-linecap="round" style="stroke:#0000FF;stroke-width:8.64"/>
	<line x1="3729.70" y1="1914.35" x2="3762.62" y2="1927.10" stroke-linecap="round" style="stroke:#0000FF;stroke-width:8.64"/>
	<line x1="3762.62" y1="1927.10" x2="3795.66" y2="1939.72" stroke-linecap="round" style="stroke:#0000FF;stroke-width:8.64"/>
	<line x1="465.80" y1="2489.19" x2="465.80" y2="100.86" style="stroke:#000000;stroke-width:5.76"/>
	<line x1="465.80" y1="2425.82" x2="425.82" y2="2425.82" style="stroke:#000000;stroke-width:5.76"/>
	<text x="405.78" y="2460.85" style="font-family:'Helvetica';font-size:99.99px;fill:#000000" text-anchor="end">0.5</text>
	<line x1="465.80" y1="1973.50" x2="425.82" y2="1973.50" style="stroke:#000000;stroke-width:5.76"/>
	<text x="405.78" y="2008.53" style="font-family:'Helvetica';font-size:99.99px;fill:#000000" text-anchor="end">0.6</text>
	<line x1="465.80" y1="1521.18" x2="425.82" y2="1521.18" style="stroke:#000000;stroke-width:5.76"/>
	<text x="405.78" y="1556.21" style="font-family:'Helvetica';font-size:99.99px;fill:#000000" text-anchor="end">0.7</text>
	<line x1="465.80" y1="1068.99" x2="425.82" y2="1068.99" style="stroke:#000000;stroke-width:5.76"/>
	<text x="405.78" y="1104.01" style="font-family:'Helvetica';font-size:99.99px;fill:#000000" text-anchor="end">0.8</text>
	<line x1="465.80" y1="616.67" x2="425.82" y2="616.67" style="stroke:#000000;stroke-width:5.76"/>
	<text x="405.78" y="651.69" style="font-family:'Helvetica';font-size:99.99px;fill:#000000" text-anchor="end">0.9</text>
	<line x1="465.80" y1="164.35" x2="425.82" y2="164.35" style="stroke:#000000;stroke-width:5.76"/>
	<text x="405.78" y="199.37" style="font-family:'Helvetica';font-size:99.99px;fill:#000000" text-anchor="end">1.0</text>
	<text x="190.71" y="1294.96" style="font-family:'Helvetica';font-size:99.99px;fill:#000000" transform="rotate(-90 190.71,1294.96)" text-anchor="middle">S(t)</text>
	<line x1="465.80" y1="2489.19" x2="3859.02" y2="2489.19" style="stroke:#000000;stroke-width:5.76"/>
	<line x1="529.15" y1="2489.19" x2="529.15" y2="2529.16" style="stroke:#000000;stroke-width:5.76"/>
	<text x="529.15" y="2619.14" style="font-family:'Helvetica';font-size:99.99px;fill:#000000" text-anchor="middle">0</text>
	<line x1="1182.43" y1="2489.19" x2="1182.43" y2="2529.16" style="stroke:#000000;stroke-width:5.76"/>
	<text x="1182.43" y="2619.14" style="font-family:'Helvetica';font-size:99.99px;fill:#000000" text-anchor="middle">2</text>
	<line x1="1835.83" y1="2489.19" x2="1835.83" y2="2529.16" style="stroke:#000000;stroke-width:5.76"/>
	<text x="1835.83" y="2619.14" style="font-family:'Helvetica';font-size:99.99px;fill:#000000" text-anchor="middle">4</text>
	<line x1="2489.11" y1="2489.19" x2="2489.11" y2="2529.16" style="stroke:#000000;stroke-width:5.76"/>
	<text x="2489.11" y="2619.14" style="font-family:'Helvetica';font-size:99.99px;fill:#000000" text-anchor="middle">6</text>
	<line x1="3142.38" y1="2489.19" x2="3142.38" y2="2529.16" style="stroke:#000000;stroke-width:5.76"/>
	<text x="3142.38" y="2619.14" style="font-family:'Helvetica';font-size:99.99px;fill:#000000" text-anchor="middle">8</text>
	<line x1="3795.78" y1="2489.19" x2="3795.78" y2="2529.16" style="stroke:#000000;stroke-width:5.76"/>
	<text x="3795.78" y="2619.14" style="font-family:'Helvetica';font-size:99.99px;fill:#000000" text-anchor="middle">10</text>
	<text x="2162.41" y="2729.16" style="font-family:'Helvetica';font-size:99.99px;fill:#000000" text-anchor="middle">Years from surgery</text>
	<rect x="2236.29" y="135.39" width="1588.21" height="326.34" style="fill:#FFFFFF"/>
	<rect x="2239.17" y="138.27" width="1582.45" height="320.58" style="fill:none;stroke:#000000;stroke-width:5.76"/>
	<rect x="2279.47" y="178.58" width="374.34" height="99.99" style="fill:#FF3333;fill-opacity:0.25"/>
	<rect x="2283.79" y="182.90" width="365.70" height="91.35" style="fill:none;stroke:#FF0000;stroke-opacity:0.25;stroke-width:8.64"/>
	<rect x="2279.47" y="318.54" width="374.34" height="99.99" style="fill:#3333FF;fill-opacity:0.25"/>
	<rect x="2283.79" y="322.86" width="365.70" height="91.35" style="fill:none;stroke:#0000FF;stroke-opacity:0.25;stroke-width:8.64"/>
	<text x="2713.84" y="263.60" style="font-family:'Helvetica';font-size:99.99px;fill:#000000">No hormonal treatment</text>
	<text x="2713.84" y="403.57" style="font-family:'Helvetica';font-size:99.99px;fill:#000000">Hormonal treatment</text>
</svg>
