<?xml version="1.0" encoding="UTF-8" standalone="no"?>
<!-- This is a Stata 15.1 generated SVG file (http://www.stata.com) -->

<svg version="1.1" width="700px" height="509px" viewBox="0 0 3960 2880" xmlns="http://www.w3.org/2000/svg" xmlns:xlink="http://www.w3.org/1999/xlink">
	<desc>Stata Graph - Graph</desc>
	<rect x="0" y="0" width="3960" height="2880" style="fill:#FFFFFF;stroke:none"/>
	<rect x="0.00" y="0.00" width="3959.88" height="2880.00" style="fill:#FFFFFF"/>
	<rect x="2.88" y="2.88" width="3954.12" height="2874.24" style="fill:none;stroke:#FFFFFF;stroke-width:5.76"/>
	<line x1="424.09" y1="2439.31" x2="3859.02" y2="2439.31" style="stroke:#E8E8E8;stroke-width:5.76"/>
	<line x1="424.09" y1="2069.41" x2="3859.02" y2="2069.41" style="stroke:#E8E8E8;stroke-width:5.76"/>
	<line x1="424.09" y1="1699.51" x2="3859.02" y2="1699.51" style="stroke:#E8E8E8;stroke-width:5.76"/>
	<line x1="424.09" y1="1329.61" x2="3859.02" y2="1329.61" style="stroke:#E8E8E8;stroke-width:5.76"/>
	<line x1="424.09" y1="959.71" x2="3859.02" y2="959.71" style="stroke:#E8E8E8;stroke-width:5.76"/>
	<line x1="424.09" y1="470.76" x2="3859.02" y2="470.76" style="stroke:#E8E8E8;stroke-width:5.76"/>
	<line x1="424.09" y1="100.86" x2="3859.02" y2="100.86" style="stroke:#E8E8E8;stroke-width:5.76"/>
	<line x1="424.09" y1="2489.19" x2="424.09" y2="100.86" style="stroke:#E8E8E8;stroke-width:5.76"/>
	<line x1="1111.15" y1="2489.19" x2="1111.15" y2="100.86" style="stroke:#E8E8E8;stroke-width:5.76"/>
	<line x1="1798.09" y1="2489.19" x2="1798.09" y2="100.86" style="stroke:#E8E8E8;stroke-width:5.76"/>
	<line x1="2485.15" y1="2489.19" x2="2485.15" y2="100.86" style="stroke:#E8E8E8;stroke-width:5.76"/>
	<line x1="3172.08" y1="2489.19" x2="3172.08" y2="100.86" style="stroke:#E8E8E8;stroke-width:5.76"/>
	<line x1="3859.02" y1="2489.19" x2="3859.02" y2="100.86" style="stroke:#E8E8E8;stroke-width:5.76"/>
	<defs>
		<path id="path1" d="M458.87 2489.19 L458.87 2489.19 L493.51 2425.08 L528.16 2403.55 L562.94 2400.08 L597.59 2406.39 L632.24 2418.52 L667.01 2433.50 L701.66 2448.72 L736.44 2462.45 L771.09 2473.84 L805.74 2482.01 L840.51 2486.96 L875.16 2488.94 L909.81 2487.95 L944.58 2484.48 L979.23 2478.79 L1014.01 2471.12 L1048.66 2461.96 L1083.31 2451.44 L1118.08 2440.06 L1152.73 2427.80 L1187.38 2415.30 L1222.15 2402.56 L1256.81 2390.06 L1291.58 2378.05 L1326.23 2366.67 L1360.88 2356.40 L1395.65 2347.24 L1430.30 2339.44 L1464.95 2332.64 L1499.73 2326.57 L1534.38 2321.00 L1569.15 2315.81 L1603.80 2310.73 L1638.45 2305.78 L1673.22 2300.83 L1707.87 2295.76 L1742.52 2290.68 L1777.30 2285.61 L1811.95 2280.29 L1846.72 2274.84 L1881.37 2269.40 L1916.02 2263.83 L1950.80 2258.26 L1985.44 2252.69 L2020.22 2247.25 L2054.87 2241.80 L2089.52 2236.73 L2124.29 2231.90 L2158.94 2227.45 L2193.59 2223.49 L2228.37 2220.27 L2263.02 2217.79 L2297.79 2216.06 L2332.44 2215.19 L2367.09 2215.07 L2401.86 2215.69 L2436.51 2216.93 L2471.16 2218.66 L2505.94 2220.76 L2540.59 2223.36 L2575.36 2226.33 L2610.01 2229.55 L2644.66 2233.01 L2679.43 2236.60 L2714.09 2240.32 L2748.74 2244.15 L2783.51 2247.99 L2818.16 2251.83 L2852.93 2255.79 L2887.58 2259.62 L2922.23 2263.46 L2957.01 2267.17 L2991.66 2270.88 L3026.31 2274.60 L3061.08 2278.18 L3095.73 2281.65 L3130.50 2284.99 L3165.15 2288.21 L3199.80 2291.43 L3234.58 2294.52 L3269.23 2297.49 L3303.88 2300.34 L3338.65 2303.06 L3373.30 2305.66 L3408.07 2308.13 L3442.72 2310.61 L3477.38 2312.84 L3512.15 2314.94 L3546.80 2317.04 L3581.45 2319.02 L3616.22 2320.88 L3650.87 2322.61 L3685.65 2324.22 L3720.30 2325.71 L3754.95 2327.07 L3789.72 2328.43 L3824.37 2329.67 L3859.02 2330.78 L3859.02 1802.48 L3824.37 1804.95 L3789.72 1807.43 L3754.95 1810.02 L3720.30 1812.75 L3685.65 1815.59 L3650.87 1818.44 L3616.22 1821.53 L3581.45 1824.63 L3546.80 1827.84 L3512.15 1831.19 L3477.38 1834.65 L3442.72 1838.24 L3408.07 1841.95 L3373.30 1845.79 L3338.65 1849.63 L3303.88 1853.71 L3269.23 1857.92 L3234.58 1862.12 L3199.80 1866.58 L3165.15 1871.03 L3130.50 1875.61 L3095.73 1880.44 L3061.08 1885.27 L3026.31 1890.09 L2991.66 1895.17 L2957.01 1900.24 L2922.23 1905.44 L2887.58 1910.64 L2852.93 1915.96 L2818.16 1921.28 L2783.51 1926.72 L2748.74 1932.05 L2714.09 1937.37 L2679.43 1942.69 L2644.66 1947.76 L2610.01 1952.84 L2575.36 1957.66 L2540.59 1962.37 L2505.94 1966.70 L2471.16 1970.66 L2436.51 1974.12 L2401.86 1977.34 L2367.09 1979.81 L2332.44 1981.92 L2297.79 1983.28 L2263.02 1984.02 L2228.37 1984.15 L2193.59 1983.77 L2158.94 1983.40 L2124.29 1983.03 L2089.52 1983.03 L2054.87 1983.40 L2020.22 1984.27 L1985.44 1985.63 L1950.80 1987.61 L1916.02 1990.46 L1881.37 1993.92 L1846.72 1998.38 L1811.95 2003.58 L1777.30 2009.52 L1742.52 2016.45 L1707.87 2024.12 L1673.22 2032.41 L1638.45 2041.44 L1603.80 2051.10 L1569.15 2061.24 L1534.38 2071.89 L1499.73 2082.90 L1464.95 2093.92 L1430.30 2104.93 L1395.65 2115.57 L1360.88 2125.47 L1326.23 2133.89 L1291.58 2140.69 L1256.81 2145.77 L1222.15 2149.23 L1187.38 2151.46 L1152.73 2152.45 L1118.08 2152.20 L1083.31 2150.97 L1048.66 2148.61 L1014.01 2145.15 L979.23 2140.45 L944.58 2134.51 L909.81 2126.96 L875.16 2117.43 L840.51 2105.30 L805.74 2089.71 L771.09 2069.29 L736.44 2041.82 L701.66 2004.07 L667.01 1950.98 L632.24 1875.24 L597.59 1765.10 L562.94 1602.37 L528.16 1353.87 L493.51 946.96 L458.87 159.89 L458.87 2489.19 Z" stroke-linecap="round"/>
	</defs>
	<defs>
		<clipPath id="clipPath1">
			<use xlink:href="#path1"/>
		</clipPath>
	</defs>
	<use xlink:href="#path1" style="stroke:none;fill:#FF3333;fill-opacity:0.30"/>
	<use xlink:href="#path1" style="fill:none;stroke:#FF0000;stroke-opacity:0.30;stroke-width:17.28" clip-path="url(#clipPath1)"/>
	<line x1="458.74" y1="1324.66" x2="493.39" y2="1686.15" stroke-linecap="round" style="stroke:#FF0000;stroke-width:8.64"/>
	<line x1="493.39" y1="1686.15" x2="528.16" y2="1878.83" stroke-linecap="round" style="stroke:#FF0000;stroke-width:8.64"/>
	<line x1="528.16" y1="1878.83" x2="562.82" y2="2001.22" stroke-linecap="round" style="stroke:#FF0000;stroke-width:8.64"/>
	<line x1="562.82" y1="2001.22" x2="597.59" y2="2085.87" stroke-linecap="round" style="stroke:#FF0000;stroke-width:8.64"/>
	<line x1="597.59" y1="2085.87" x2="632.24" y2="2147.01" stroke-linecap="round" style="stroke:#FF0000;stroke-width:8.64"/>
	<line x1="632.24" y1="2147.01" x2="666.89" y2="2192.30" stroke-linecap="round" style="stroke:#FF0000;stroke-width:8.64"/>
	<line x1="666.89" y1="2192.30" x2="701.66" y2="2226.46" stroke-linecap="round" style="stroke:#FF0000;stroke-width:8.64"/>
	<line x1="701.66" y1="2226.46" x2="736.31" y2="2252.20" stroke-linecap="round" style="stroke:#FF0000;stroke-width:8.64"/>
	<line x1="736.31" y1="2252.20" x2="770.96" y2="2271.63" stroke-linecap="round" style="stroke:#FF0000;stroke-width:8.64"/>
	<line x1="770.96" y1="2271.63" x2="805.74" y2="2285.86" stroke-linecap="round" style="stroke:#FF0000;stroke-width:8.64"/>
	<line x1="805.74" y1="2285.86" x2="840.39" y2="2296.25" stroke-linecap="round" style="stroke:#FF0000;stroke-width:8.64"/>
	<line x1="840.39" y1="2296.25" x2="875.16" y2="2303.18" stroke-linecap="round" style="stroke:#FF0000;stroke-width:8.64"/>
	<line x1="875.16" y1="2303.18" x2="909.81" y2="2307.51" stroke-linecap="round" style="stroke:#FF0000;stroke-width:8.64"/>
	<line x1="909.81" y1="2307.51" x2="944.46" y2="2309.62" stroke-linecap="round" style="stroke:#FF0000;stroke-width:8.64"/>
	<line x1="944.46" y1="2309.62" x2="979.23" y2="2309.74" stroke-linecap="round" style="stroke:#FF0000;stroke-width:8.64"/>
	<line x1="979.23" y1="2309.74" x2="1013.88" y2="2308.26" stroke-linecap="round" style="stroke:#FF0000;stroke-width:8.64"/>
	<line x1="1013.88" y1="2308.26" x2="1048.53" y2="2305.29" stroke-linecap="round" style="stroke:#FF0000;stroke-width:8.64"/>
	<line x1="1048.53" y1="2305.29" x2="1083.31" y2="2301.33" stroke-linecap="round" style="stroke:#FF0000;stroke-width:8.64"/>
	<line x1="1083.31" y1="2301.33" x2="1117.96" y2="2296.13" stroke-linecap="round" style="stroke:#FF0000;stroke-width:8.64"/>
	<line x1="1117.96" y1="2296.13" x2="1152.73" y2="2290.19" stroke-linecap="round" style="stroke:#FF0000;stroke-width:8.64"/>
	<line x1="1152.73" y1="2290.19" x2="1187.38" y2="2283.38" stroke-linecap="round" style="stroke:#FF0000;stroke-width:8.64"/>
	<line x1="1187.38" y1="2283.38" x2="1222.03" y2="2275.96" stroke-linecap="round" style="stroke:#FF0000;stroke-width:8.64"/>
	<line x1="1222.03" y1="2275.96" x2="1256.81" y2="2267.91" stroke-linecap="round" style="stroke:#FF0000;stroke-width:8.64"/>
	<line x1="1256.81" y1="2267.91" x2="1291.45" y2="2259.37" stroke-linecap="round" style="stroke:#FF0000;stroke-width:8.64"/>
	<line x1="1291.45" y1="2259.37" x2="1326.11" y2="2250.34" stroke-linecap="round" style="stroke:#FF0000;stroke-width:8.64"/>
	<line x1="1326.11" y1="2250.34" x2="1360.88" y2="2240.94" stroke-linecap="round" style="stroke:#FF0000;stroke-width:8.64"/>
	<line x1="1360.88" y1="2240.94" x2="1395.53" y2="2231.53" stroke-linecap="round" style="stroke:#FF0000;stroke-width:8.64"/>
	<line x1="1395.53" y1="2231.53" x2="1430.30" y2="2222.25" stroke-linecap="round" style="stroke:#FF0000;stroke-width:8.64"/>
	<line x1="1430.30" y1="2222.25" x2="1464.95" y2="2213.34" stroke-linecap="round" style="stroke:#FF0000;stroke-width:8.64"/>
	<line x1="1464.95" y1="2213.34" x2="1499.60" y2="2204.80" stroke-linecap="round" style="stroke:#FF0000;stroke-width:8.64"/>
	<line x1="1499.60" y1="2204.80" x2="1534.38" y2="2196.51" stroke-linecap="round" style="stroke:#FF0000;stroke-width:8.64"/>
	<line x1="1534.38" y1="2196.51" x2="1569.03" y2="2188.59" stroke-linecap="round" style="stroke:#FF0000;stroke-width:8.64"/>
	<line x1="1569.03" y1="2188.59" x2="1603.68" y2="2180.91" stroke-linecap="round" style="stroke:#FF0000;stroke-width:8.64"/>
	<line x1="1603.68" y1="2180.91" x2="1638.45" y2="2173.61" stroke-linecap="round" style="stroke:#FF0000;stroke-width:8.64"/>
	<line x1="1638.45" y1="2173.61" x2="1673.10" y2="2166.68" stroke-linecap="round" style="stroke:#FF0000;stroke-width:8.64"/>
	<line x1="1673.10" y1="2166.68" x2="1707.87" y2="2160.00" stroke-linecap="round" style="stroke:#FF0000;stroke-width:8.64"/>
	<line x1="1707.87" y1="2160.00" x2="1742.52" y2="2153.69" stroke-linecap="round" style="stroke:#FF0000;stroke-width:8.64"/>
	<line x1="1742.52" y1="2153.69" x2="1777.17" y2="2147.62" stroke-linecap="round" style="stroke:#FF0000;stroke-width:8.64"/>
	<line x1="1777.17" y1="2147.62" x2="1811.95" y2="2141.93" stroke-linecap="round" style="stroke:#FF0000;stroke-width:8.64"/>
	<line x1="1811.95" y1="2141.93" x2="1846.60" y2="2136.61" stroke-linecap="round" style="stroke:#FF0000;stroke-width:8.64"/>
	<line x1="1846.60" y1="2136.61" x2="1881.37" y2="2131.78" stroke-linecap="round" style="stroke:#FF0000;stroke-width:8.64"/>
	<line x1="1881.37" y1="2131.78" x2="1916.02" y2="2127.21" stroke-linecap="round" style="stroke:#FF0000;stroke-width:8.64"/>
	<line x1="1916.02" y1="2127.21" x2="1950.67" y2="2123.00" stroke-linecap="round" style="stroke:#FF0000;stroke-width:8.64"/>
	<line x1="1950.67" y1="2123.00" x2="1985.44" y2="2119.16" stroke-linecap="round" style="stroke:#FF0000;stroke-width:8.64"/>
	<line x1="1985.44" y1="2119.16" x2="2020.10" y2="2115.82" stroke-linecap="round" style="stroke:#FF0000;stroke-width:8.64"/>
	<line x1="2020.10" y1="2115.82" x2="2054.74" y2="2112.73" stroke-linecap="round" style="stroke:#FF0000;stroke-width:8.64"/>
	<line x1="2054.74" y1="2112.73" x2="2089.52" y2="2109.88" stroke-linecap="round" style="stroke:#FF0000;stroke-width:8.64"/>
	<line x1="2089.52" y1="2109.88" x2="2124.17" y2="2107.53" stroke-linecap="round" style="stroke:#FF0000;stroke-width:8.64"/>
	<line x1="2124.17" y1="2107.53" x2="2158.94" y2="2105.42" stroke-linecap="round" style="stroke:#FF0000;stroke-width:8.64"/>
	<line x1="2158.94" y1="2105.42" x2="2193.59" y2="2103.69" stroke-linecap="round" style="stroke:#FF0000;stroke-width:8.64"/>
	<line x1="2193.59" y1="2103.69" x2="2228.24" y2="2102.21" stroke-linecap="round" style="stroke:#FF0000;stroke-width:8.64"/>
	<line x1="2228.24" y1="2102.21" x2="2263.02" y2="2100.97" stroke-linecap="round" style="stroke:#FF0000;stroke-width:8.64"/>
	<line x1="2263.02" y1="2100.97" x2="2297.67" y2="2099.73" stroke-linecap="round" style="stroke:#FF0000;stroke-width:8.64"/>
	<line x1="2297.67" y1="2099.73" x2="2332.32" y2="2098.62" stroke-linecap="round" style="stroke:#FF0000;stroke-width:8.64"/>
	<line x1="2332.32" y1="2098.62" x2="2367.09" y2="2097.50" stroke-linecap="round" style="stroke:#FF0000;stroke-width:8.64"/>
	<line x1="2367.09" y1="2097.50" x2="2401.74" y2="2096.51" stroke-linecap="round" style="stroke:#FF0000;stroke-width:8.64"/>
	<line x1="2401.74" y1="2096.51" x2="2436.51" y2="2095.65" stroke-linecap="round" style="stroke:#FF0000;stroke-width:8.64"/>
	<line x1="2436.51" y1="2095.65" x2="2471.16" y2="2094.66" stroke-linecap="round" style="stroke:#FF0000;stroke-width:8.64"/>
	<line x1="2471.16" y1="2094.66" x2="2505.81" y2="2093.79" stroke-linecap="round" style="stroke:#FF0000;stroke-width:8.64"/>
	<line x1="2505.81" y1="2093.79" x2="2540.59" y2="2092.93" stroke-linecap="round" style="stroke:#FF0000;stroke-width:8.64"/>
	<line x1="2540.59" y1="2092.93" x2="2575.24" y2="2092.06" stroke-linecap="round" style="stroke:#FF0000;stroke-width:8.64"/>
	<line x1="2575.24" y1="2092.06" x2="2609.89" y2="2091.32" stroke-linecap="round" style="stroke:#FF0000;stroke-width:8.64"/>
	<line x1="2609.89" y1="2091.32" x2="2644.66" y2="2090.45" stroke-linecap="round" style="stroke:#FF0000;stroke-width:8.64"/>
	<line x1="2644.66" y1="2090.45" x2="2679.31" y2="2089.71" stroke-linecap="round" style="stroke:#FF0000;stroke-width:8.64"/>
	<line x1="2679.31" y1="2089.71" x2="2714.09" y2="2088.84" stroke-linecap="round" style="stroke:#FF0000;stroke-width:8.64"/>
	<line x1="2714.09" y1="2088.84" x2="2748.74" y2="2088.10" stroke-linecap="round" style="stroke:#FF0000;stroke-width:8.64"/>
	<line x1="2748.74" y1="2088.10" x2="2783.39" y2="2087.36" stroke-linecap="round" style="stroke:#FF0000;stroke-width:8.64"/>
	<line x1="2783.39" y1="2087.36" x2="2818.16" y2="2086.61" stroke-linecap="round" style="stroke:#FF0000;stroke-width:8.64"/>
	<line x1="2818.16" y1="2086.61" x2="2852.81" y2="2085.87" stroke-linecap="round" style="stroke:#FF0000;stroke-width:8.64"/>
	<line x1="2852.81" y1="2085.87" x2="2887.46" y2="2085.25" stroke-linecap="round" style="stroke:#FF0000;stroke-width:8.64"/>
	<line x1="2887.46" y1="2085.25" x2="2922.23" y2="2084.51" stroke-linecap="round" style="stroke:#FF0000;stroke-width:8.64"/>
	<line x1="2922.23" y1="2084.51" x2="2956.88" y2="2083.77" stroke-linecap="round" style="stroke:#FF0000;stroke-width:8.64"/>
	<line x1="2956.88" y1="2083.77" x2="2991.66" y2="2083.15" stroke-linecap="round" style="stroke:#FF0000;stroke-width:8.64"/>
	<line x1="2991.66" y1="2083.15" x2="3026.31" y2="2082.41" stroke-linecap="round" style="stroke:#FF0000;stroke-width:8.64"/>
	<line x1="3026.31" y1="2082.41" x2="3060.96" y2="2081.79" stroke-linecap="round" style="stroke:#FF0000;stroke-width:8.64"/>
	<line x1="3060.96" y1="2081.79" x2="3095.73" y2="2081.05" stroke-linecap="round" style="stroke:#FF0000;stroke-width:8.64"/>
	<line x1="3095.73" y1="2081.05" x2="3130.38" y2="2080.43" stroke-linecap="round" style="stroke:#FF0000;stroke-width:8.64"/>
	<line x1="3130.38" y1="2080.43" x2="3165.03" y2="2079.68" stroke-linecap="round" style="stroke:#FF0000;stroke-width:8.64"/>
	<line x1="3165.03" y1="2079.68" x2="3199.80" y2="2079.06" stroke-linecap="round" style="stroke:#FF0000;stroke-width:8.64"/>
	<line x1="3199.80" y1="2079.06" x2="3234.45" y2="2078.45" stroke-linecap="round" style="stroke:#FF0000;stroke-width:8.64"/>
	<line x1="3234.45" y1="2078.45" x2="3269.23" y2="2077.70" stroke-linecap="round" style="stroke:#FF0000;stroke-width:8.64"/>
	<line x1="3269.23" y1="2077.70" x2="3303.88" y2="2077.08" stroke-linecap="round" style="stroke:#FF0000;stroke-width:8.64"/>
	<line x1="3303.88" y1="2077.08" x2="3338.53" y2="2076.47" stroke-linecap="round" style="stroke:#FF0000;stroke-width:8.64"/>
	<line x1="3338.53" y1="2076.47" x2="3373.30" y2="2075.72" stroke-linecap="round" style="stroke:#FF0000;stroke-width:8.64"/>
	<line x1="3373.30" y1="2075.72" x2="3407.95" y2="2075.10" stroke-linecap="round" style="stroke:#FF0000;stroke-width:8.64"/>
	<line x1="3407.95" y1="2075.10" x2="3442.60" y2="2074.49" stroke-linecap="round" style="stroke:#FF0000;stroke-width:8.64"/>
	<line x1="3442.60" y1="2074.49" x2="3477.38" y2="2073.87" stroke-linecap="round" style="stroke:#FF0000;stroke-width:8.64"/>
	<line x1="3477.38" y1="2073.87" x2="3512.03" y2="2073.12" stroke-linecap="round" style="stroke:#FF0000;stroke-width:8.64"/>
	<line x1="3512.03" y1="2073.12" x2="3546.80" y2="2072.51" stroke-linecap="round" style="stroke:#FF0000;stroke-width:8.64"/>
	<line x1="3546.80" y1="2072.51" x2="3581.45" y2="2071.89" stroke-linecap="round" style="stroke:#FF0000;stroke-width:8.64"/>
	<line x1="3581.45" y1="2071.89" x2="3616.10" y2="2071.27" stroke-linecap="round" style="stroke:#FF0000;stroke-width:8.64"/>
	<line x1="3616.10" y1="2071.27" x2="3650.87" y2="2070.53" stroke-linecap="round" style="stroke:#FF0000;stroke-width:8.64"/>
	<line x1="3650.87" y1="2070.53" x2="3685.52" y2="2069.91" stroke-linecap="round" style="stroke:#FF0000;stroke-width:8.64"/>
	<line x1="3685.52" y1="2069.91" x2="3720.17" y2="2069.29" stroke-linecap="round" style="stroke:#FF0000;stroke-width:8.64"/>
	<line x1="3720.17" y1="2069.29" x2="3754.95" y2="2068.67" stroke-linecap="round" style="stroke:#FF0000;stroke-width:8.64"/>
	<line x1="3754.95" y1="2068.67" x2="3789.60" y2="2067.93" stroke-linecap="round" style="stroke:#FF0000;stroke-width:8.64"/>
	<line x1="3789.60" y1="2067.93" x2="3824.37" y2="2067.31" stroke-linecap="round" style="stroke:#FF0000;stroke-width:8.64"/>
	<line x1="3824.37" y1="2067.31" x2="3859.02" y2="2066.69" stroke-linecap="round" style="stroke:#FF0000;stroke-width:8.64"/>
	<line x1="424.09" y1="2439.31" x2="384.12" y2="2439.31" style="stroke:#000000;stroke-width:5.76"/>
	<text x="364.07" y="2474.34" style="font-family:'Helvetica';font-size:99.99px;fill:#000000" text-anchor="end">0.5</text>
	<line x1="424.09" y1="2069.41" x2="384.12" y2="2069.41" style="stroke:#000000;stroke-width:5.76"/>
	<text x="364.07" y="2104.44" style="font-family:'Helvetica';font-size:99.99px;fill:#000000" text-anchor="end">1.0</text>
	<line x1="424.09" y1="1699.51" x2="384.12" y2="1699.51" style="stroke:#000000;stroke-width:5.76"/>
	<text x="364.07" y="1734.54" style="font-family:'Helvetica';font-size:99.99px;fill:#000000" text-anchor="end">2.0</text>
	<line x1="424.09" y1="1329.61" x2="384.12" y2="1329.61" style="stroke:#000000;stroke-width:5.76"/>
	<text x="364.07" y="1364.64" style="font-family:'Helvetica';font-size:99.99px;fill:#000000" text-anchor="end">4.0</text>
	<line x1="424.09" y1="959.71" x2="384.12" y2="959.71" style="stroke:#000000;stroke-width:5.76"/>
	<text x="364.07" y="994.74" style="font-family:'Helvetica';font-size:99.99px;fill:#000000" text-anchor="end">8.0</text>
	<line x1="424.09" y1="470.76" x2="384.12" y2="470.76" style="stroke:#000000;stroke-width:5.76"/>
	<text x="364.07" y="505.79" style="font-family:'Helvetica';font-size:99.99px;fill:#000000" text-anchor="end">20.0</text>
	<line x1="424.09" y1="100.86" x2="384.12" y2="100.86" style="stroke:#000000;stroke-width:5.76"/>
	<text x="364.07" y="135.89" style="font-family:'Helvetica';font-size:99.99px;fill:#000000" text-anchor="end">40.0</text>
	<line x1="424.09" y1="2069.41" x2="424.09" y2="100.86" style="stroke:#000000;stroke-width:5.76"/>
	<line x1="424.09" y1="2489.19" x2="424.09" y2="2529.16" style="stroke:#000000;stroke-width:5.76"/>
	<text x="424.09" y="2619.14" style="font-family:'Helvetica';font-size:99.99px;fill:#000000" text-anchor="middle">0</text>
	<line x1="1111.15" y1="2489.19" x2="1111.15" y2="2529.16" style="stroke:#000000;stroke-width:5.76"/>
	<text x="1111.15" y="2619.14" style="font-family:'Helvetica';font-size:99.99px;fill:#000000" text-anchor="middle">2</text>
	<line x1="1798.09" y1="2489.19" x2="1798.09" y2="2529.16" style="stroke:#000000;stroke-width:5.76"/>
	<text x="1798.09" y="2619.14" style="font-family:'Helvetica';font-size:99.99px;fill:#000000" text-anchor="middle">4</text>
	<line x1="2485.15" y1="2489.19" x2="2485.15" y2="2529.16" style="stroke:#000000;stroke-width:5.76"/>
	<text x="2485.15" y="2619.14" style="font-family:'Helvetica';font-size:99.99px;fill:#000000" text-anchor="middle">6</text>
	<line x1="3172.08" y1="2489.19" x2="3172.08" y2="2529.16" style="stroke:#000000;stroke-width:5.76"/>
	<text x="3172.08" y="2619.14" style="font-family:'Helvetica';font-size:99.99px;fill:#000000" text-anchor="middle">8</text>
	<line x1="3859.02" y1="2489.19" x2="3859.02" y2="2529.16" style="stroke:#000000;stroke-width:5.76"/>
	<text x="3859.02" y="2619.14" style="font-family:'Helvetica';font-size:99.99px;fill:#000000" text-anchor="middle">10</text>
	<line x1="424.09" y1="2489.19" x2="3859.02" y2="2489.19" style="stroke:#000000;stroke-width:5.76"/>
	<text x="2141.62" y="2729.16" style="font-family:'Helvetica';font-size:99.99px;fill:#000000" text-anchor="middle">Years from surgery</text>
</svg>
