<?xml version="1.0" encoding="UTF-8" standalone="no"?>
<!-- This is a Stata 15.1 generated SVG file (http://www.stata.com) -->

<svg version="1.1" width="700px" height="509px" viewBox="0 0 3960 2880" xmlns="http://www.w3.org/2000/svg" xmlns:xlink="http://www.w3.org/1999/xlink">
	<desc>Stata Graph - Graph</desc>
	<rect x="0" y="0" width="3960" height="2880" style="fill:#FFFFFF;stroke:none"/>
	<rect x="0.00" y="0.00" width="3959.88" height="2880.00" style="fill:#FFFFFF"/>
	<rect x="2.88" y="2.88" width="3954.12" height="2874.24" style="fill:none;stroke:#FFFFFF;stroke-width:5.76"/>
	<line x1="524.08" y1="2489.19" x2="3859.02" y2="2489.19" style="stroke:#E8E8E8;stroke-width:5.76"/>
	<line x1="524.08" y1="2091.19" x2="3859.02" y2="2091.19" style="stroke:#E8E8E8;stroke-width:5.76"/>
	<line x1="524.08" y1="1693.08" x2="3859.02" y2="1693.08" style="stroke:#E8E8E8;stroke-width:5.76"/>
	<line x1="524.08" y1="1294.96" x2="3859.02" y2="1294.96" style="stroke:#E8E8E8;stroke-width:5.76"/>
	<line x1="524.08" y1="896.97" x2="3859.02" y2="896.97" style="stroke:#E8E8E8;stroke-width:5.76"/>
	<line x1="524.08" y1="498.85" x2="3859.02" y2="498.85" style="stroke:#E8E8E8;stroke-width:5.76"/>
	<line x1="524.08" y1="100.86" x2="3859.02" y2="100.86" style="stroke:#E8E8E8;stroke-width:5.76"/>
	<line x1="524.08" y1="2489.19" x2="524.08" y2="100.86" style="stroke:#E8E8E8;stroke-width:5.76"/>
	<line x1="1191.09" y1="2489.19" x2="1191.09" y2="100.86" style="stroke:#E8E8E8;stroke-width:5.76"/>
	<line x1="1858.11" y1="2489.19" x2="1858.11" y2="100.86" style="stroke:#E8E8E8;stroke-width:5.76"/>
	<line x1="2525.12" y1="2489.19" x2="2525.12" y2="100.86" style="stroke:#E8E8E8;stroke-width:5.76"/>
	<line x1="3192.13" y1="2489.19" x2="3192.13" y2="100.86" style="stroke:#E8E8E8;stroke-width:5.76"/>
	<line x1="3859.02" y1="2489.19" x2="3859.02" y2="100.86" style="stroke:#E8E8E8;stroke-width:5.76"/>
	<defs>
		<path id="path1" d="M557.49 2068.17 L557.49 2068.17 L590.78 2068.30 L624.20 2068.55 L657.48 2068.92 L690.90 2069.54 L724.18 2070.28 L757.60 2071.27 L790.89 2072.26 L824.30 2073.50 L857.59 2074.86 L891.00 2076.34 L924.29 2077.95 L957.70 2079.56 L990.99 2081.42 L1024.40 2083.27 L1057.69 2085.25 L1091.10 2087.23 L1124.39 2089.34 L1157.81 2091.44 L1191.09 2093.54 L1224.51 2095.77 L1257.80 2098.00 L1291.21 2100.23 L1324.50 2102.45 L1357.91 2104.81 L1391.20 2107.03 L1424.61 2109.26 L1457.90 2111.49 L1491.31 2113.84 L1524.60 2116.07 L1557.89 2118.29 L1591.30 2120.40 L1624.59 2122.63 L1658.00 2124.73 L1691.29 2126.83 L1724.70 2128.94 L1757.99 2130.92 L1791.40 2133.02 L1824.69 2135.00 L1858.11 2136.86 L1891.39 2138.71 L1924.81 2140.57 L1958.10 2142.43 L1991.51 2144.28 L2024.80 2146.02 L2058.21 2147.75 L2091.50 2149.48 L2124.91 2151.09 L2158.20 2152.82 L2191.61 2154.43 L2224.90 2156.04 L2258.31 2157.65 L2291.60 2159.13 L2325.01 2160.74 L2358.30 2162.23 L2391.72 2163.71 L2425.01 2165.20 L2458.42 2166.68 L2491.71 2168.04 L2525.12 2169.53 L2558.41 2170.89 L2591.82 2172.38 L2625.11 2173.74 L2658.52 2175.10 L2691.81 2176.46 L2725.22 2177.82 L2758.51 2179.18 L2791.92 2180.54 L2825.21 2181.78 L2858.63 2183.14 L2891.91 2184.38 L2925.33 2185.62 L2958.61 2186.98 L2992.03 2188.22 L3025.32 2189.45 L3058.73 2190.69 L3092.02 2191.93 L3125.43 2193.04 L3158.72 2194.28 L3192.13 2195.52 L3225.42 2196.63 L3258.83 2197.87 L3292.12 2198.98 L3325.53 2200.10 L3358.82 2201.33 L3392.24 2202.45 L3425.52 2203.56 L3458.94 2204.68 L3492.22 2205.79 L3525.64 2206.90 L3558.93 2208.02 L3592.34 2209.13 L3625.63 2210.24 L3659.04 2211.23 L3692.33 2212.35 L3725.74 2213.46 L3759.03 2214.45 L3792.32 2215.57 L3825.73 2216.56 L3859.02 2217.55 L3859.02 786.08 L3825.73 781.51 L3792.32 776.93 L3759.03 772.35 L3725.74 767.65 L3692.33 763.07 L3659.04 758.36 L3625.63 753.66 L3592.34 748.83 L3558.93 744.13 L3525.64 739.31 L3492.22 734.48 L3458.94 729.53 L3425.52 724.58 L3392.24 719.63 L3358.82 714.68 L3325.53 709.60 L3292.12 704.65 L3258.83 699.46 L3225.42 694.38 L3192.13 689.19 L3158.72 683.99 L3125.43 678.67 L3092.02 673.34 L3058.73 668.02 L3025.32 662.58 L2992.03 657.13 L2958.61 651.69 L2925.33 646.12 L2891.91 640.55 L2858.63 634.86 L2825.21 629.16 L2791.92 623.47 L2758.51 617.66 L2725.22 611.84 L2691.81 605.90 L2658.52 599.96 L2625.11 593.89 L2591.82 587.83 L2558.41 581.64 L2525.12 575.33 L2491.71 569.14 L2458.42 562.71 L2425.01 556.27 L2391.72 549.84 L2358.30 543.16 L2325.01 536.47 L2291.60 529.79 L2258.31 522.86 L2224.90 515.93 L2191.61 508.88 L2158.20 501.70 L2124.91 494.52 L2091.50 487.10 L2058.21 479.55 L2024.80 472.00 L1991.51 464.20 L1958.10 456.40 L1924.81 448.36 L1891.39 440.19 L1858.11 431.90 L1824.69 423.36 L1791.40 414.82 L1757.99 406.04 L1724.70 397.13 L1691.29 388.09 L1658.00 378.81 L1624.59 369.53 L1591.30 360.12 L1557.89 350.59 L1524.60 340.94 L1491.31 331.29 L1457.90 321.51 L1424.61 311.74 L1391.20 301.96 L1357.91 292.18 L1324.50 282.41 L1291.21 272.63 L1257.80 262.98 L1224.51 253.45 L1191.09 244.04 L1157.81 234.76 L1124.39 225.73 L1091.10 216.82 L1057.69 208.28 L1024.40 199.99 L990.99 191.94 L957.70 184.27 L924.29 177.09 L891.00 170.41 L857.59 164.10 L824.30 158.40 L790.89 153.21 L757.60 148.75 L724.18 144.92 L690.90 141.70 L657.48 139.22 L624.20 137.49 L590.78 136.38 L557.49 135.88 L557.49 2068.17 Z" stroke-linecap="round"/>
	</defs>
	<defs>
		<clipPath id="clipPath1">
			<use xlink:href="#path1"/>
		</clipPath>
	</defs>
	<use xlink:href="#path1" style="stroke:none;fill:#FF3333;fill-opacity:0.30"/>
	<use xlink:href="#path1" style="fill:none;stroke:#FF0000;stroke-opacity:0.30;stroke-width:17.28" clip-path="url(#clipPath1)"/>
	<line x1="557.37" y1="1102.15" x2="590.78" y2="1102.40" stroke-linecap="round" style="stroke:#FF0000;stroke-width:8.64"/>
	<line x1="590.78" y1="1102.40" x2="624.07" y2="1103.14" stroke-linecap="round" style="stroke:#FF0000;stroke-width:8.64"/>
	<line x1="624.07" y1="1103.14" x2="657.48" y2="1104.13" stroke-linecap="round" style="stroke:#FF0000;stroke-width:8.64"/>
	<line x1="657.48" y1="1104.13" x2="690.77" y2="1105.74" stroke-linecap="round" style="stroke:#FF0000;stroke-width:8.64"/>
	<line x1="690.77" y1="1105.74" x2="724.18" y2="1107.60" stroke-linecap="round" style="stroke:#FF0000;stroke-width:8.64"/>
	<line x1="724.18" y1="1107.60" x2="757.47" y2="1110.07" stroke-linecap="round" style="stroke:#FF0000;stroke-width:8.64"/>
	<line x1="757.47" y1="1110.07" x2="790.89" y2="1112.79" stroke-linecap="round" style="stroke:#FF0000;stroke-width:8.64"/>
	<line x1="790.89" y1="1112.79" x2="824.17" y2="1116.01" stroke-linecap="round" style="stroke:#FF0000;stroke-width:8.64"/>
	<line x1="824.17" y1="1116.01" x2="857.59" y2="1119.48" stroke-linecap="round" style="stroke:#FF0000;stroke-width:8.64"/>
	<line x1="857.59" y1="1119.48" x2="890.88" y2="1123.44" stroke-linecap="round" style="stroke:#FF0000;stroke-width:8.64"/>
	<line x1="890.88" y1="1123.44" x2="924.29" y2="1127.52" stroke-linecap="round" style="stroke:#FF0000;stroke-width:8.64"/>
	<line x1="924.29" y1="1127.52" x2="957.58" y2="1131.98" stroke-linecap="round" style="stroke:#FF0000;stroke-width:8.64"/>
	<line x1="957.58" y1="1131.98" x2="990.99" y2="1136.68" stroke-linecap="round" style="stroke:#FF0000;stroke-width:8.64"/>
	<line x1="990.99" y1="1136.68" x2="1024.28" y2="1141.63" stroke-linecap="round" style="stroke:#FF0000;stroke-width:8.64"/>
	<line x1="1024.28" y1="1141.63" x2="1057.69" y2="1146.83" stroke-linecap="round" style="stroke:#FF0000;stroke-width:8.64"/>
	<line x1="1057.69" y1="1146.83" x2="1090.98" y2="1152.15" stroke-linecap="round" style="stroke:#FF0000;stroke-width:8.64"/>
	<line x1="1090.98" y1="1152.15" x2="1124.39" y2="1157.59" stroke-linecap="round" style="stroke:#FF0000;stroke-width:8.64"/>
	<line x1="1124.39" y1="1157.59" x2="1157.68" y2="1163.16" stroke-linecap="round" style="stroke:#FF0000;stroke-width:8.64"/>
	<line x1="1157.68" y1="1163.16" x2="1191.09" y2="1168.86" stroke-linecap="round" style="stroke:#FF0000;stroke-width:8.64"/>
	<line x1="1191.09" y1="1168.86" x2="1224.38" y2="1174.67" stroke-linecap="round" style="stroke:#FF0000;stroke-width:8.64"/>
	<line x1="1224.38" y1="1174.67" x2="1257.80" y2="1180.61" stroke-linecap="round" style="stroke:#FF0000;stroke-width:8.64"/>
	<line x1="1257.80" y1="1180.61" x2="1291.08" y2="1186.55" stroke-linecap="round" style="stroke:#FF0000;stroke-width:8.64"/>
	<line x1="1291.08" y1="1186.55" x2="1324.50" y2="1192.49" stroke-linecap="round" style="stroke:#FF0000;stroke-width:8.64"/>
	<line x1="1324.50" y1="1192.49" x2="1357.79" y2="1198.56" stroke-linecap="round" style="stroke:#FF0000;stroke-width:8.64"/>
	<line x1="1357.79" y1="1198.56" x2="1391.20" y2="1204.50" stroke-linecap="round" style="stroke:#FF0000;stroke-width:8.64"/>
	<line x1="1391.20" y1="1204.50" x2="1424.49" y2="1210.56" stroke-linecap="round" style="stroke:#FF0000;stroke-width:8.64"/>
	<line x1="1424.49" y1="1210.56" x2="1457.90" y2="1216.62" stroke-linecap="round" style="stroke:#FF0000;stroke-width:8.64"/>
	<line x1="1457.90" y1="1216.62" x2="1491.19" y2="1222.56" stroke-linecap="round" style="stroke:#FF0000;stroke-width:8.64"/>
	<line x1="1491.19" y1="1222.56" x2="1524.60" y2="1228.50" stroke-linecap="round" style="stroke:#FF0000;stroke-width:8.64"/>
	<line x1="1524.60" y1="1228.50" x2="1557.89" y2="1234.44" stroke-linecap="round" style="stroke:#FF0000;stroke-width:8.64"/>
	<line x1="1557.89" y1="1234.44" x2="1591.18" y2="1240.39" stroke-linecap="round" style="stroke:#FF0000;stroke-width:8.64"/>
	<line x1="1591.18" y1="1240.39" x2="1624.59" y2="1246.08" stroke-linecap="round" style="stroke:#FF0000;stroke-width:8.64"/>
	<line x1="1624.59" y1="1246.08" x2="1657.88" y2="1251.89" stroke-linecap="round" style="stroke:#FF0000;stroke-width:8.64"/>
	<line x1="1657.88" y1="1251.89" x2="1691.29" y2="1257.46" stroke-linecap="round" style="stroke:#FF0000;stroke-width:8.64"/>
	<line x1="1691.29" y1="1257.46" x2="1724.58" y2="1263.03" stroke-linecap="round" style="stroke:#FF0000;stroke-width:8.64"/>
	<line x1="1724.58" y1="1263.03" x2="1757.99" y2="1268.60" stroke-linecap="round" style="stroke:#FF0000;stroke-width:8.64"/>
	<line x1="1757.99" y1="1268.60" x2="1791.28" y2="1273.92" stroke-linecap="round" style="stroke:#FF0000;stroke-width:8.64"/>
	<line x1="1791.28" y1="1273.92" x2="1824.69" y2="1279.24" stroke-linecap="round" style="stroke:#FF0000;stroke-width:8.64"/>
	<line x1="1824.69" y1="1279.24" x2="1857.98" y2="1284.44" stroke-linecap="round" style="stroke:#FF0000;stroke-width:8.64"/>
	<line x1="1857.98" y1="1284.44" x2="1891.39" y2="1289.52" stroke-linecap="round" style="stroke:#FF0000;stroke-width:8.64"/>
	<line x1="1891.39" y1="1289.52" x2="1924.68" y2="1294.59" stroke-linecap="round" style="stroke:#FF0000;stroke-width:8.64"/>
	<line x1="1924.68" y1="1294.59" x2="1958.10" y2="1299.42" stroke-linecap="round" style="stroke:#FF0000;stroke-width:8.64"/>
	<line x1="1958.10" y1="1299.42" x2="1991.38" y2="1304.37" stroke-linecap="round" style="stroke:#FF0000;stroke-width:8.64"/>
	<line x1="1991.38" y1="1304.37" x2="2024.80" y2="1309.07" stroke-linecap="round" style="stroke:#FF0000;stroke-width:8.64"/>
	<line x1="2024.80" y1="1309.07" x2="2058.09" y2="1313.77" stroke-linecap="round" style="stroke:#FF0000;stroke-width:8.64"/>
	<line x1="2058.09" y1="1313.77" x2="2091.50" y2="1318.35" stroke-linecap="round" style="stroke:#FF0000;stroke-width:8.64"/>
	<line x1="2091.50" y1="1318.35" x2="2124.79" y2="1322.81" stroke-linecap="round" style="stroke:#FF0000;stroke-width:8.64"/>
	<line x1="2124.79" y1="1322.81" x2="2158.20" y2="1327.26" stroke-linecap="round" style="stroke:#FF0000;stroke-width:8.64"/>
	<line x1="2158.20" y1="1327.26" x2="2191.49" y2="1331.72" stroke-linecap="round" style="stroke:#FF0000;stroke-width:8.64"/>
	<line x1="2191.49" y1="1331.72" x2="2224.90" y2="1336.05" stroke-linecap="round" style="stroke:#FF0000;stroke-width:8.64"/>
	<line x1="2224.90" y1="1336.05" x2="2258.19" y2="1340.25" stroke-linecap="round" style="stroke:#FF0000;stroke-width:8.64"/>
	<line x1="2258.19" y1="1340.25" x2="2291.60" y2="1344.46" stroke-linecap="round" style="stroke:#FF0000;stroke-width:8.64"/>
	<line x1="2291.60" y1="1344.46" x2="2324.89" y2="1348.67" stroke-linecap="round" style="stroke:#FF0000;stroke-width:8.64"/>
	<line x1="2324.89" y1="1348.67" x2="2358.30" y2="1352.75" stroke-linecap="round" style="stroke:#FF0000;stroke-width:8.64"/>
	<line x1="2358.30" y1="1352.75" x2="2391.59" y2="1356.84" stroke-linecap="round" style="stroke:#FF0000;stroke-width:8.64"/>
	<line x1="2391.59" y1="1356.84" x2="2425.01" y2="1360.80" stroke-linecap="round" style="stroke:#FF0000;stroke-width:8.64"/>
	<line x1="2425.01" y1="1360.80" x2="2458.29" y2="1364.76" stroke-linecap="round" style="stroke:#FF0000;stroke-width:8.64"/>
	<line x1="2458.29" y1="1364.76" x2="2491.71" y2="1368.72" stroke-linecap="round" style="stroke:#FF0000;stroke-width:8.64"/>
	<line x1="2491.71" y1="1368.72" x2="2524.99" y2="1372.55" stroke-linecap="round" style="stroke:#FF0000;stroke-width:8.64"/>
	<line x1="2524.99" y1="1372.55" x2="2558.41" y2="1376.39" stroke-linecap="round" style="stroke:#FF0000;stroke-width:8.64"/>
	<line x1="2558.41" y1="1376.39" x2="2591.70" y2="1380.10" stroke-linecap="round" style="stroke:#FF0000;stroke-width:8.64"/>
	<line x1="2591.70" y1="1380.10" x2="2625.11" y2="1383.82" stroke-linecap="round" style="stroke:#FF0000;stroke-width:8.64"/>
	<line x1="2625.11" y1="1383.82" x2="2658.40" y2="1387.53" stroke-linecap="round" style="stroke:#FF0000;stroke-width:8.64"/>
	<line x1="2658.40" y1="1387.53" x2="2691.81" y2="1391.24" stroke-linecap="round" style="stroke:#FF0000;stroke-width:8.64"/>
	<line x1="2691.81" y1="1391.24" x2="2725.10" y2="1394.83" stroke-linecap="round" style="stroke:#FF0000;stroke-width:8.64"/>
	<line x1="2725.10" y1="1394.83" x2="2758.51" y2="1398.54" stroke-linecap="round" style="stroke:#FF0000;stroke-width:8.64"/>
	<line x1="2758.51" y1="1398.54" x2="2791.80" y2="1402.01" stroke-linecap="round" style="stroke:#FF0000;stroke-width:8.64"/>
	<line x1="2791.80" y1="1402.01" x2="2825.21" y2="1405.60" stroke-linecap="round" style="stroke:#FF0000;stroke-width:8.64"/>
	<line x1="2825.21" y1="1405.60" x2="2858.50" y2="1409.06" stroke-linecap="round" style="stroke:#FF0000;stroke-width:8.64"/>
	<line x1="2858.50" y1="1409.06" x2="2891.91" y2="1412.53" stroke-linecap="round" style="stroke:#FF0000;stroke-width:8.64"/>
	<line x1="2891.91" y1="1412.53" x2="2925.20" y2="1415.99" stroke-linecap="round" style="stroke:#FF0000;stroke-width:8.64"/>
	<line x1="2925.20" y1="1415.99" x2="2958.61" y2="1419.33" stroke-linecap="round" style="stroke:#FF0000;stroke-width:8.64"/>
	<line x1="2958.61" y1="1419.33" x2="2991.90" y2="1422.80" stroke-linecap="round" style="stroke:#FF0000;stroke-width:8.64"/>
	<line x1="2991.90" y1="1422.80" x2="3025.32" y2="1426.14" stroke-linecap="round" style="stroke:#FF0000;stroke-width:8.64"/>
	<line x1="3025.32" y1="1426.14" x2="3058.61" y2="1429.36" stroke-linecap="round" style="stroke:#FF0000;stroke-width:8.64"/>
	<line x1="3058.61" y1="1429.36" x2="3092.02" y2="1432.70" stroke-linecap="round" style="stroke:#FF0000;stroke-width:8.64"/>
	<line x1="3092.02" y1="1432.70" x2="3125.31" y2="1435.92" stroke-linecap="round" style="stroke:#FF0000;stroke-width:8.64"/>
	<line x1="3125.31" y1="1435.92" x2="3158.72" y2="1439.13" stroke-linecap="round" style="stroke:#FF0000;stroke-width:8.64"/>
	<line x1="3158.72" y1="1439.13" x2="3192.01" y2="1442.35" stroke-linecap="round" style="stroke:#FF0000;stroke-width:8.64"/>
	<line x1="3192.01" y1="1442.35" x2="3225.42" y2="1445.57" stroke-linecap="round" style="stroke:#FF0000;stroke-width:8.64"/>
	<line x1="3225.42" y1="1445.57" x2="3258.71" y2="1448.66" stroke-linecap="round" style="stroke:#FF0000;stroke-width:8.64"/>
	<line x1="3258.71" y1="1448.66" x2="3292.12" y2="1451.88" stroke-linecap="round" style="stroke:#FF0000;stroke-width:8.64"/>
	<line x1="3292.12" y1="1451.88" x2="3325.41" y2="1454.97" stroke-linecap="round" style="stroke:#FF0000;stroke-width:8.64"/>
	<line x1="3325.41" y1="1454.97" x2="3358.82" y2="1458.07" stroke-linecap="round" style="stroke:#FF0000;stroke-width:8.64"/>
	<line x1="3358.82" y1="1458.07" x2="3392.11" y2="1461.16" stroke-linecap="round" style="stroke:#FF0000;stroke-width:8.64"/>
	<line x1="3392.11" y1="1461.16" x2="3425.52" y2="1464.13" stroke-linecap="round" style="stroke:#FF0000;stroke-width:8.64"/>
	<line x1="3425.52" y1="1464.13" x2="3458.81" y2="1467.23" stroke-linecap="round" style="stroke:#FF0000;stroke-width:8.64"/>
	<line x1="3458.81" y1="1467.23" x2="3492.22" y2="1470.20" stroke-linecap="round" style="stroke:#FF0000;stroke-width:8.64"/>
	<line x1="3492.22" y1="1470.20" x2="3525.51" y2="1473.17" stroke-linecap="round" style="stroke:#FF0000;stroke-width:8.64"/>
	<line x1="3525.51" y1="1473.17" x2="3558.93" y2="1476.14" stroke-linecap="round" style="stroke:#FF0000;stroke-width:8.64"/>
	<line x1="3558.93" y1="1476.14" x2="3592.22" y2="1479.11" stroke-linecap="round" style="stroke:#FF0000;stroke-width:8.64"/>
	<line x1="3592.22" y1="1479.11" x2="3625.63" y2="1481.95" stroke-linecap="round" style="stroke:#FF0000;stroke-width:8.64"/>
	<line x1="3625.63" y1="1481.95" x2="3658.92" y2="1484.92" stroke-linecap="round" style="stroke:#FF0000;stroke-width:8.64"/>
	<line x1="3658.92" y1="1484.92" x2="3692.33" y2="1487.77" stroke-linecap="round" style="stroke:#FF0000;stroke-width:8.64"/>
	<line x1="3692.33" y1="1487.77" x2="3725.62" y2="1490.62" stroke-linecap="round" style="stroke:#FF0000;stroke-width:8.64"/>
	<line x1="3725.62" y1="1490.62" x2="3759.03" y2="1493.46" stroke-linecap="round" style="stroke:#FF0000;stroke-width:8.64"/>
	<line x1="3759.03" y1="1493.46" x2="3792.32" y2="1496.31" stroke-linecap="round" style="stroke:#FF0000;stroke-width:8.64"/>
	<line x1="3792.32" y1="1496.31" x2="3825.61" y2="1499.03" stroke-linecap="round" style="stroke:#FF0000;stroke-width:8.64"/>
	<line x1="3825.61" y1="1499.03" x2="3859.02" y2="1501.88" stroke-linecap="round" style="stroke:#FF0000;stroke-width:8.64"/>
	<line x1="524.08" y1="2489.19" x2="484.11" y2="2489.19" style="stroke:#000000;stroke-width:5.76"/>
	<text x="464.06" y="2524.21" style="font-family:'Helvetica';font-size:99.99px;fill:#000000" text-anchor="end">0.00</text>
	<line x1="524.08" y1="2091.19" x2="484.11" y2="2091.19" style="stroke:#000000;stroke-width:5.76"/>
	<text x="464.06" y="2126.22" style="font-family:'Helvetica';font-size:99.99px;fill:#000000" text-anchor="end">0.05</text>
	<line x1="524.08" y1="1693.08" x2="484.11" y2="1693.08" style="stroke:#000000;stroke-width:5.76"/>
	<text x="464.06" y="1728.11" style="font-family:'Helvetica';font-size:99.99px;fill:#000000" text-anchor="end">0.10</text>
	<line x1="524.08" y1="1294.96" x2="484.11" y2="1294.96" style="stroke:#000000;stroke-width:5.76"/>
	<text x="464.06" y="1329.99" style="font-family:'Helvetica';font-size:99.99px;fill:#000000" text-anchor="end">0.15</text>
	<line x1="524.08" y1="896.97" x2="484.11" y2="896.97" style="stroke:#000000;stroke-width:5.76"/>
	<text x="464.06" y="932.00" style="font-family:'Helvetica';font-size:99.99px;fill:#000000" text-anchor="end">0.20</text>
	<line x1="524.08" y1="498.85" x2="484.11" y2="498.85" style="stroke:#000000;stroke-width:5.76"/>
	<text x="464.06" y="533.88" style="font-family:'Helvetica';font-size:99.99px;fill:#000000" text-anchor="end">0.25</text>
	<line x1="524.08" y1="100.86" x2="484.11" y2="100.86" style="stroke:#000000;stroke-width:5.76"/>
	<text x="464.06" y="135.89" style="font-family:'Helvetica';font-size:99.99px;fill:#000000" text-anchor="end">0.30</text>
	<line x1="524.08" y1="2489.19" x2="524.08" y2="100.86" style="stroke:#000000;stroke-width:5.76"/>
	<text x="190.71" y="1294.96" style="font-family:'Helvetica';font-size:99.99px;fill:#000000" transform="rotate(-90 190.71,1294.96)" text-anchor="middle">AF</text>
	<line x1="524.08" y1="2489.19" x2="524.08" y2="2529.16" style="stroke:#000000;stroke-width:5.76"/>
	<text x="524.08" y="2619.14" style="font-family:'Helvetica';font-size:99.99px;fill:#000000" text-anchor="middle">0</text>
	<line x1="1191.09" y1="2489.19" x2="1191.09" y2="2529.16" style="stroke:#000000;stroke-width:5.76"/>
	<text x="1191.09" y="2619.14" style="font-family:'Helvetica';font-size:99.99px;fill:#000000" text-anchor="middle">2</text>
	<line x1="1858.11" y1="2489.19" x2="1858.11" y2="2529.16" style="stroke:#000000;stroke-width:5.76"/>
	<text x="1858.11" y="2619.14" style="font-family:'Helvetica';font-size:99.99px;fill:#000000" text-anchor="middle">4</text>
	<line x1="2525.12" y1="2489.19" x2="2525.12" y2="2529.16" style="stroke:#000000;stroke-width:5.76"/>
	<text x="2525.12" y="2619.14" style="font-family:'Helvetica';font-size:99.99px;fill:#000000" text-anchor="middle">6</text>
	<line x1="3192.13" y1="2489.19" x2="3192.13" y2="2529.16" style="stroke:#000000;stroke-width:5.76"/>
	<text x="3192.13" y="2619.14" style="font-family:'Helvetica';font-size:99.99px;fill:#000000" text-anchor="middle">8</text>
	<line x1="3859.02" y1="2489.19" x2="3859.02" y2="2529.16" style="stroke:#000000;stroke-width:5.76"/>
	<text x="3859.02" y="2619.14" style="font-family:'Helvetica';font-size:99.99px;fill:#000000" text-anchor="middle">10</text>
	<line x1="524.08" y1="2489.19" x2="3859.02" y2="2489.19" style="stroke:#000000;stroke-width:5.76"/>
	<text x="2191.61" y="2729.16" style="font-family:'Helvetica';font-size:99.99px;fill:#000000" text-anchor="middle">Years from surgery</text>
</svg>
