<?xml version="1.0" encoding="UTF-8" standalone="no"?>
<!-- This is a Stata 15.0 generated SVG file (http://www.stata.com) -->

<svg version="1.1" width="700px" height="509px" viewBox="0 0 3960 2880" xmlns="http://www.w3.org/2000/svg" xmlns:xlink="http://www.w3.org/1999/xlink">
	<desc>Stata Graph - Graph</desc>
	<rect x="0" y="0" width="3960" height="2880" style="fill:#EAF2F3;stroke:none"/>
	<rect x="0.00" y="0.00" width="3959.88" height="2880.00" style="fill:#EAF2F3"/>
	<rect x="2.88" y="2.88" width="3954.12" height="2874.24" style="fill:none;stroke:#EAF2F3;stroke-width:5.76"/>
	<rect x="524.08" y="100.86" width="3334.94" height="2388.33" style="fill:#FFFFFF"/>
	<rect x="526.96" y="103.74" width="3329.18" height="2382.57" style="fill:none;stroke:#FFFFFF;stroke-width:5.76"/>
	<line x1="524.08" y1="2425.45" x2="3859.02" y2="2425.45" style="stroke:#EAF2F3;stroke-width:8.64"/>
	<line x1="524.08" y1="1405.97" x2="3859.02" y2="1405.97" style="stroke:#EAF2F3;stroke-width:8.64"/>
	<line x1="524.08" y1="386.61" x2="3859.02" y2="386.61" style="stroke:#EAF2F3;stroke-width:8.64"/>
	<defs>
		<path id="path1" d="M619.86 2425.70 L619.86 2425.70 L652.29 2425.82 L684.71 2425.58 L717.13 2424.46 L749.55 2422.48 L781.85 2419.88 L814.27 2416.42 L846.70 2412.46 L879.12 2407.88 L911.54 2402.93 L943.97 2397.48 L976.39 2391.79 L1008.81 2385.73 L1041.11 2379.54 L1073.53 2372.98 L1105.95 2366.30 L1138.38 2359.49 L1170.80 2352.56 L1203.22 2345.51 L1235.64 2338.45 L1268.07 2331.28 L1300.37 2324.10 L1332.79 2316.92 L1365.21 2309.87 L1397.63 2302.81 L1430.06 2295.88 L1462.48 2289.08 L1494.90 2282.39 L1527.20 2275.83 L1559.62 2269.40 L1592.04 2263.21 L1624.47 2257.15 L1656.89 2251.21 L1689.31 2245.39 L1721.73 2239.94 L1754.16 2234.50 L1786.45 2229.30 L1818.88 2224.23 L1851.30 2219.40 L1883.72 2214.70 L1916.15 2210.24 L1948.57 2205.79 L1980.99 2201.58 L2013.41 2197.50 L2045.71 2193.66 L2078.13 2189.82 L2110.56 2186.11 L2142.98 2182.65 L2175.40 2179.18 L2207.82 2175.84 L2240.25 2172.62 L2272.67 2169.53 L2304.97 2166.44 L2337.39 2163.59 L2369.81 2160.74 L2402.24 2157.90 L2434.66 2155.30 L2467.08 2152.70 L2499.50 2150.10 L2531.93 2147.62 L2564.22 2145.27 L2596.65 2142.92 L2629.07 2140.69 L2661.49 2138.47 L2693.91 2136.24 L2726.34 2134.14 L2758.76 2132.16 L2791.06 2130.18 L2823.48 2128.20 L2855.90 2126.34 L2888.32 2124.48 L2920.75 2122.75 L2953.17 2121.02 L2985.59 2119.41 L3018.01 2117.68 L3050.31 2116.19 L3082.74 2114.58 L3115.16 2113.10 L3147.58 2111.61 L3180.00 2110.25 L3212.43 2108.77 L3244.85 2107.53 L3277.27 2106.17 L3309.57 2104.93 L3341.99 2103.69 L3374.42 2102.45 L3406.84 2101.34 L3439.26 2100.23 L3471.68 2099.11 L3504.11 2098.00 L3536.53 2097.01 L3568.83 2096.02 L3601.25 2095.03 L3633.67 2094.16 L3666.09 2093.17 L3698.52 2092.31 L3730.94 2091.44 L3763.36 2090.70 L3795.66 2089.83 L3795.66 164.22 L3763.36 171.77 L3730.94 179.69 L3698.52 187.61 L3666.09 195.78 L3633.67 204.07 L3601.25 212.49 L3568.83 221.15 L3536.53 229.93 L3504.11 238.97 L3471.68 248.13 L3439.26 257.53 L3406.84 267.06 L3374.42 276.84 L3341.99 286.74 L3309.57 296.89 L3277.27 307.28 L3244.85 317.92 L3212.43 328.69 L3180.00 339.70 L3147.58 350.97 L3115.16 362.48 L3082.74 374.23 L3050.31 386.24 L3018.01 398.49 L2985.59 410.99 L2953.17 423.73 L2920.75 436.85 L2888.32 450.22 L2855.90 463.83 L2823.48 477.69 L2791.06 491.92 L2758.76 506.52 L2726.34 521.38 L2693.91 536.60 L2661.49 552.19 L2629.07 568.15 L2596.65 584.37 L2564.22 601.07 L2531.93 618.15 L2499.50 635.60 L2467.08 653.42 L2434.66 671.74 L2402.24 690.55 L2369.81 709.73 L2337.39 729.41 L2304.97 749.70 L2272.67 770.37 L2240.25 791.65 L2207.82 813.56 L2175.40 836.08 L2142.98 859.10 L2110.56 882.98 L2078.13 907.36 L2045.71 932.61 L2013.41 958.60 L1980.99 985.33 L1948.57 1012.93 L1916.15 1041.51 L1883.72 1070.84 L1851.30 1101.29 L1818.88 1132.72 L1786.45 1165.14 L1754.16 1198.56 L1721.73 1233.08 L1689.31 1268.60 L1656.89 1305.23 L1624.47 1342.85 L1592.04 1381.46 L1559.62 1420.94 L1527.20 1461.41 L1494.90 1502.74 L1462.48 1544.94 L1430.06 1587.76 L1397.63 1631.32 L1365.21 1675.50 L1332.79 1720.06 L1300.37 1764.85 L1268.07 1810.02 L1235.64 1855.07 L1203.22 1900.12 L1170.80 1944.92 L1138.38 1989.22 L1105.95 2032.90 L1073.53 2075.60 L1041.11 2117.18 L1008.81 2157.28 L976.39 2195.52 L943.97 2231.78 L911.54 2265.69 L879.12 2296.87 L846.70 2325.09 L814.27 2350.09 L781.85 2371.62 L749.55 2389.56 L717.13 2403.67 L684.71 2414.07 L652.29 2421.00 L619.86 2424.59 L619.86 2425.70 Z" stroke-linecap="round"/>
	</defs>
	<defs>
		<clipPath id="clipPath1">
			<use xlink:href="#path1"/>
		</clipPath>
	</defs>
	<use xlink:href="#path1" style="stroke:none;fill:#FF3333;fill-opacity:0.25"/>
	<use xlink:href="#path1" style="fill:none;stroke:#FF0000;stroke-opacity:0.25;stroke-width:17.28" clip-path="url(#clipPath1)"/>
	<line x1="587.44" y1="2425.45" x2="619.86" y2="2425.20" stroke-linecap="round" style="stroke:#FF0000;stroke-width:8.64"/>
	<line x1="619.86" y1="2425.20" x2="652.16" y2="2423.47" stroke-linecap="round" style="stroke:#FF0000;stroke-width:8.64"/>
	<line x1="652.16" y1="2423.47" x2="684.59" y2="2419.88" stroke-linecap="round" style="stroke:#FF0000;stroke-width:8.64"/>
	<line x1="684.59" y1="2419.88" x2="717.01" y2="2414.07" stroke-linecap="round" style="stroke:#FF0000;stroke-width:8.64"/>
	<line x1="717.01" y1="2414.07" x2="749.43" y2="2406.02" stroke-linecap="round" style="stroke:#FF0000;stroke-width:8.64"/>
	<line x1="749.43" y1="2406.02" x2="781.85" y2="2395.75" stroke-linecap="round" style="stroke:#FF0000;stroke-width:8.64"/>
	<line x1="781.85" y1="2395.75" x2="814.27" y2="2383.38" stroke-linecap="round" style="stroke:#FF0000;stroke-width:8.64"/>
	<line x1="814.27" y1="2383.38" x2="846.70" y2="2368.90" stroke-linecap="round" style="stroke:#FF0000;stroke-width:8.64"/>
	<line x1="846.70" y1="2368.90" x2="879.12" y2="2352.44" stroke-linecap="round" style="stroke:#FF0000;stroke-width:8.64"/>
	<line x1="879.12" y1="2352.44" x2="911.42" y2="2334.37" stroke-linecap="round" style="stroke:#FF0000;stroke-width:8.64"/>
	<line x1="911.42" y1="2334.37" x2="943.84" y2="2314.69" stroke-linecap="round" style="stroke:#FF0000;stroke-width:8.64"/>
	<line x1="943.84" y1="2314.69" x2="976.26" y2="2293.78" stroke-linecap="round" style="stroke:#FF0000;stroke-width:8.64"/>
	<line x1="976.26" y1="2293.78" x2="1008.69" y2="2271.50" stroke-linecap="round" style="stroke:#FF0000;stroke-width:8.64"/>
	<line x1="1008.69" y1="2271.50" x2="1041.11" y2="2248.36" stroke-linecap="round" style="stroke:#FF0000;stroke-width:8.64"/>
	<line x1="1041.11" y1="2248.36" x2="1073.53" y2="2224.35" stroke-linecap="round" style="stroke:#FF0000;stroke-width:8.64"/>
	<line x1="1073.53" y1="2224.35" x2="1105.95" y2="2199.72" stroke-linecap="round" style="stroke:#FF0000;stroke-width:8.64"/>
	<line x1="1105.95" y1="2199.72" x2="1138.38" y2="2174.48" stroke-linecap="round" style="stroke:#FF0000;stroke-width:8.64"/>
	<line x1="1138.38" y1="2174.48" x2="1170.68" y2="2148.86" stroke-linecap="round" style="stroke:#FF0000;stroke-width:8.64"/>
	<line x1="1170.68" y1="2148.86" x2="1203.10" y2="2122.87" stroke-linecap="round" style="stroke:#FF0000;stroke-width:8.64"/>
	<line x1="1203.10" y1="2122.87" x2="1235.52" y2="2096.76" stroke-linecap="round" style="stroke:#FF0000;stroke-width:8.64"/>
	<line x1="1235.52" y1="2096.76" x2="1267.94" y2="2070.65" stroke-linecap="round" style="stroke:#FF0000;stroke-width:8.64"/>
	<line x1="1267.94" y1="2070.65" x2="1300.37" y2="2044.54" stroke-linecap="round" style="stroke:#FF0000;stroke-width:8.64"/>
	<line x1="1300.37" y1="2044.54" x2="1332.79" y2="2018.55" stroke-linecap="round" style="stroke:#FF0000;stroke-width:8.64"/>
	<line x1="1332.79" y1="2018.55" x2="1365.21" y2="1992.68" stroke-linecap="round" style="stroke:#FF0000;stroke-width:8.64"/>
	<line x1="1365.21" y1="1992.68" x2="1397.51" y2="1967.19" stroke-linecap="round" style="stroke:#FF0000;stroke-width:8.64"/>
	<line x1="1397.51" y1="1967.19" x2="1429.93" y2="1941.95" stroke-linecap="round" style="stroke:#FF0000;stroke-width:8.64"/>
	<line x1="1429.93" y1="1941.95" x2="1462.35" y2="1917.07" stroke-linecap="round" style="stroke:#FF0000;stroke-width:8.64"/>
	<line x1="1462.35" y1="1917.07" x2="1494.78" y2="1892.69" stroke-linecap="round" style="stroke:#FF0000;stroke-width:8.64"/>
	<line x1="1494.78" y1="1892.69" x2="1527.20" y2="1868.68" stroke-linecap="round" style="stroke:#FF0000;stroke-width:8.64"/>
	<line x1="1527.20" y1="1868.68" x2="1559.62" y2="1845.29" stroke-linecap="round" style="stroke:#FF0000;stroke-width:8.64"/>
	<line x1="1559.62" y1="1845.29" x2="1592.04" y2="1822.40" stroke-linecap="round" style="stroke:#FF0000;stroke-width:8.64"/>
	<line x1="1592.04" y1="1822.40" x2="1624.47" y2="1800.00" stroke-linecap="round" style="stroke:#FF0000;stroke-width:8.64"/>
	<line x1="1624.47" y1="1800.00" x2="1656.77" y2="1778.22" stroke-linecap="round" style="stroke:#FF0000;stroke-width:8.64"/>
	<line x1="1656.77" y1="1778.22" x2="1689.19" y2="1757.06" stroke-linecap="round" style="stroke:#FF0000;stroke-width:8.64"/>
	<line x1="1689.19" y1="1757.06" x2="1721.61" y2="1736.51" stroke-linecap="round" style="stroke:#FF0000;stroke-width:8.64"/>
	<line x1="1721.61" y1="1736.51" x2="1754.03" y2="1716.59" stroke-linecap="round" style="stroke:#FF0000;stroke-width:8.64"/>
	<line x1="1754.03" y1="1716.59" x2="1786.45" y2="1697.28" stroke-linecap="round" style="stroke:#FF0000;stroke-width:8.64"/>
	<line x1="1786.45" y1="1697.28" x2="1818.88" y2="1678.47" stroke-linecap="round" style="stroke:#FF0000;stroke-width:8.64"/>
	<line x1="1818.88" y1="1678.47" x2="1851.30" y2="1660.41" stroke-linecap="round" style="stroke:#FF0000;stroke-width:8.64"/>
	<line x1="1851.30" y1="1660.41" x2="1883.72" y2="1642.83" stroke-linecap="round" style="stroke:#FF0000;stroke-width:8.64"/>
	<line x1="1883.72" y1="1642.83" x2="1916.02" y2="1625.88" stroke-linecap="round" style="stroke:#FF0000;stroke-width:8.64"/>
	<line x1="1916.02" y1="1625.88" x2="1948.44" y2="1609.42" stroke-linecap="round" style="stroke:#FF0000;stroke-width:8.64"/>
	<line x1="1948.44" y1="1609.42" x2="1980.87" y2="1593.58" stroke-linecap="round" style="stroke:#FF0000;stroke-width:8.64"/>
	<line x1="1980.87" y1="1593.58" x2="2013.29" y2="1578.11" stroke-linecap="round" style="stroke:#FF0000;stroke-width:8.64"/>
	<line x1="2013.29" y1="1578.11" x2="2045.71" y2="1563.14" stroke-linecap="round" style="stroke:#FF0000;stroke-width:8.64"/>
	<line x1="2045.71" y1="1563.14" x2="2078.13" y2="1548.66" stroke-linecap="round" style="stroke:#FF0000;stroke-width:8.64"/>
	<line x1="2078.13" y1="1548.66" x2="2110.56" y2="1534.55" stroke-linecap="round" style="stroke:#FF0000;stroke-width:8.64"/>
	<line x1="2110.56" y1="1534.55" x2="2142.98" y2="1520.94" stroke-linecap="round" style="stroke:#FF0000;stroke-width:8.64"/>
	<line x1="2142.98" y1="1520.94" x2="2175.28" y2="1507.69" stroke-linecap="round" style="stroke:#FF0000;stroke-width:8.64"/>
	<line x1="2175.28" y1="1507.69" x2="2207.70" y2="1494.82" stroke-linecap="round" style="stroke:#FF0000;stroke-width:8.64"/>
	<line x1="2207.70" y1="1494.82" x2="2240.12" y2="1482.20" stroke-linecap="round" style="stroke:#FF0000;stroke-width:8.64"/>
	<line x1="2240.12" y1="1482.20" x2="2272.55" y2="1469.95" stroke-linecap="round" style="stroke:#FF0000;stroke-width:8.64"/>
	<line x1="2272.55" y1="1469.95" x2="2304.97" y2="1458.07" stroke-linecap="round" style="stroke:#FF0000;stroke-width:8.64"/>
	<line x1="2304.97" y1="1458.07" x2="2337.39" y2="1446.56" stroke-linecap="round" style="stroke:#FF0000;stroke-width:8.64"/>
	<line x1="2337.39" y1="1446.56" x2="2369.81" y2="1435.30" stroke-linecap="round" style="stroke:#FF0000;stroke-width:8.64"/>
	<line x1="2369.81" y1="1435.30" x2="2402.24" y2="1424.28" stroke-linecap="round" style="stroke:#FF0000;stroke-width:8.64"/>
	<line x1="2402.24" y1="1424.28" x2="2434.53" y2="1413.64" stroke-linecap="round" style="stroke:#FF0000;stroke-width:8.64"/>
	<line x1="2434.53" y1="1413.64" x2="2466.96" y2="1403.12" stroke-linecap="round" style="stroke:#FF0000;stroke-width:8.64"/>
	<line x1="2466.96" y1="1403.12" x2="2499.38" y2="1392.97" stroke-linecap="round" style="stroke:#FF0000;stroke-width:8.64"/>
	<line x1="2499.38" y1="1392.97" x2="2531.80" y2="1382.95" stroke-linecap="round" style="stroke:#FF0000;stroke-width:8.64"/>
	<line x1="2531.80" y1="1382.95" x2="2564.22" y2="1373.17" stroke-linecap="round" style="stroke:#FF0000;stroke-width:8.64"/>
	<line x1="2564.22" y1="1373.17" x2="2596.65" y2="1363.77" stroke-linecap="round" style="stroke:#FF0000;stroke-width:8.64"/>
	<line x1="2596.65" y1="1363.77" x2="2629.07" y2="1354.49" stroke-linecap="round" style="stroke:#FF0000;stroke-width:8.64"/>
	<line x1="2629.07" y1="1354.49" x2="2661.37" y2="1345.33" stroke-linecap="round" style="stroke:#FF0000;stroke-width:8.64"/>
	<line x1="2661.37" y1="1345.33" x2="2693.79" y2="1336.54" stroke-linecap="round" style="stroke:#FF0000;stroke-width:8.64"/>
	<line x1="2693.79" y1="1336.54" x2="2726.21" y2="1327.88" stroke-linecap="round" style="stroke:#FF0000;stroke-width:8.64"/>
	<line x1="2726.21" y1="1327.88" x2="2758.64" y2="1319.34" stroke-linecap="round" style="stroke:#FF0000;stroke-width:8.64"/>
	<line x1="2758.64" y1="1319.34" x2="2791.06" y2="1311.17" stroke-linecap="round" style="stroke:#FF0000;stroke-width:8.64"/>
	<line x1="2791.06" y1="1311.17" x2="2823.48" y2="1303.00" stroke-linecap="round" style="stroke:#FF0000;stroke-width:8.64"/>
	<line x1="2823.48" y1="1303.00" x2="2855.90" y2="1295.08" stroke-linecap="round" style="stroke:#FF0000;stroke-width:8.64"/>
	<line x1="2855.90" y1="1295.08" x2="2888.32" y2="1287.41" stroke-linecap="round" style="stroke:#FF0000;stroke-width:8.64"/>
	<line x1="2888.32" y1="1287.41" x2="2920.62" y2="1279.86" stroke-linecap="round" style="stroke:#FF0000;stroke-width:8.64"/>
	<line x1="2920.62" y1="1279.86" x2="2953.05" y2="1272.44" stroke-linecap="round" style="stroke:#FF0000;stroke-width:8.64"/>
	<line x1="2953.05" y1="1272.44" x2="2985.47" y2="1265.26" stroke-linecap="round" style="stroke:#FF0000;stroke-width:8.64"/>
	<line x1="2985.47" y1="1265.26" x2="3017.89" y2="1258.21" stroke-linecap="round" style="stroke:#FF0000;stroke-width:8.64"/>
	<line x1="3017.89" y1="1258.21" x2="3050.31" y2="1251.28" stroke-linecap="round" style="stroke:#FF0000;stroke-width:8.64"/>
	<line x1="3050.31" y1="1251.28" x2="3082.74" y2="1244.47" stroke-linecap="round" style="stroke:#FF0000;stroke-width:8.64"/>
	<line x1="3082.74" y1="1244.47" x2="3115.16" y2="1237.91" stroke-linecap="round" style="stroke:#FF0000;stroke-width:8.64"/>
	<line x1="3115.16" y1="1237.91" x2="3147.58" y2="1231.35" stroke-linecap="round" style="stroke:#FF0000;stroke-width:8.64"/>
	<line x1="3147.58" y1="1231.35" x2="3179.88" y2="1225.04" stroke-linecap="round" style="stroke:#FF0000;stroke-width:8.64"/>
	<line x1="3179.88" y1="1225.04" x2="3212.30" y2="1218.85" stroke-linecap="round" style="stroke:#FF0000;stroke-width:8.64"/>
	<line x1="3212.30" y1="1218.85" x2="3244.72" y2="1212.79" stroke-linecap="round" style="stroke:#FF0000;stroke-width:8.64"/>
	<line x1="3244.72" y1="1212.79" x2="3277.15" y2="1206.85" stroke-linecap="round" style="stroke:#FF0000;stroke-width:8.64"/>
	<line x1="3277.15" y1="1206.85" x2="3309.57" y2="1201.03" stroke-linecap="round" style="stroke:#FF0000;stroke-width:8.64"/>
	<line x1="3309.57" y1="1201.03" x2="3341.99" y2="1195.34" stroke-linecap="round" style="stroke:#FF0000;stroke-width:8.64"/>
	<line x1="3341.99" y1="1195.34" x2="3374.42" y2="1189.77" stroke-linecap="round" style="stroke:#FF0000;stroke-width:8.64"/>
	<line x1="3374.42" y1="1189.77" x2="3406.84" y2="1184.20" stroke-linecap="round" style="stroke:#FF0000;stroke-width:8.64"/>
	<line x1="3406.84" y1="1184.20" x2="3439.14" y2="1178.88" stroke-linecap="round" style="stroke:#FF0000;stroke-width:8.64"/>
	<line x1="3439.14" y1="1178.88" x2="3471.56" y2="1173.68" stroke-linecap="round" style="stroke:#FF0000;stroke-width:8.64"/>
	<line x1="3471.56" y1="1173.68" x2="3503.98" y2="1168.61" stroke-linecap="round" style="stroke:#FF0000;stroke-width:8.64"/>
	<line x1="3503.98" y1="1168.61" x2="3536.40" y2="1163.53" stroke-linecap="round" style="stroke:#FF0000;stroke-width:8.64"/>
	<line x1="3536.40" y1="1163.53" x2="3568.83" y2="1158.71" stroke-linecap="round" style="stroke:#FF0000;stroke-width:8.64"/>
	<line x1="3568.83" y1="1158.71" x2="3601.25" y2="1153.88" stroke-linecap="round" style="stroke:#FF0000;stroke-width:8.64"/>
	<line x1="3601.25" y1="1153.88" x2="3633.67" y2="1149.18" stroke-linecap="round" style="stroke:#FF0000;stroke-width:8.64"/>
	<line x1="3633.67" y1="1149.18" x2="3666.09" y2="1144.48" stroke-linecap="round" style="stroke:#FF0000;stroke-width:8.64"/>
	<line x1="3666.09" y1="1144.48" x2="3698.39" y2="1140.02" stroke-linecap="round" style="stroke:#FF0000;stroke-width:8.64"/>
	<line x1="3698.39" y1="1140.02" x2="3730.82" y2="1135.57" stroke-linecap="round" style="stroke:#FF0000;stroke-width:8.64"/>
	<line x1="3730.82" y1="1135.57" x2="3763.24" y2="1131.23" stroke-linecap="round" style="stroke:#FF0000;stroke-width:8.64"/>
	<line x1="3763.24" y1="1131.23" x2="3795.66" y2="1127.03" stroke-linecap="round" style="stroke:#FF0000;stroke-width:8.64"/>
	<line x1="524.08" y1="2489.19" x2="524.08" y2="100.86" style="stroke:#000000;stroke-width:5.76"/>
	<line x1="524.08" y1="2425.45" x2="484.11" y2="2425.45" style="stroke:#000000;stroke-width:5.76"/>
	<text x="464.06" y="2460.48" style="font-family:'Helvetica';font-size:99.99px;fill:#000000" text-anchor="end">0.00</text>
	<line x1="524.08" y1="1405.97" x2="484.11" y2="1405.97" style="stroke:#000000;stroke-width:5.76"/>
	<text x="464.06" y="1441.00" style="font-family:'Helvetica';font-size:99.99px;fill:#000000" text-anchor="end">0.05</text>
	<line x1="524.08" y1="386.61" x2="484.11" y2="386.61" style="stroke:#000000;stroke-width:5.76"/>
	<text x="464.06" y="421.64" style="font-family:'Helvetica';font-size:99.99px;fill:#000000" text-anchor="end">0.10</text>
	<text x="190.71" y="1294.96" style="font-family:'Helvetica';font-size:99.99px;fill:#000000" transform="rotate(-90 190.71,1294.96)" text-anchor="middle">Difference in S(t)</text>
	<line x1="524.08" y1="2489.19" x2="3859.02" y2="2489.19" style="stroke:#000000;stroke-width:5.76"/>
	<line x1="587.44" y1="2489.19" x2="587.44" y2="2529.16" style="stroke:#000000;stroke-width:5.76"/>
	<text x="587.44" y="2619.14" style="font-family:'Helvetica';font-size:99.99px;fill:#000000" text-anchor="middle">0</text>
	<line x1="1229.09" y1="2489.19" x2="1229.09" y2="2529.16" style="stroke:#000000;stroke-width:5.76"/>
	<text x="1229.09" y="2619.14" style="font-family:'Helvetica';font-size:99.99px;fill:#000000" text-anchor="middle">2</text>
	<line x1="1870.73" y1="2489.19" x2="1870.73" y2="2529.16" style="stroke:#000000;stroke-width:5.76"/>
	<text x="1870.73" y="2619.14" style="font-family:'Helvetica';font-size:99.99px;fill:#000000" text-anchor="middle">4</text>
	<line x1="2512.37" y1="2489.19" x2="2512.37" y2="2529.16" style="stroke:#000000;stroke-width:5.76"/>
	<text x="2512.37" y="2619.14" style="font-family:'Helvetica';font-size:99.99px;fill:#000000" text-anchor="middle">6</text>
	<line x1="3154.02" y1="2489.19" x2="3154.02" y2="2529.16" style="stroke:#000000;stroke-width:5.76"/>
	<text x="3154.02" y="2619.14" style="font-family:'Helvetica';font-size:99.99px;fill:#000000" text-anchor="middle">8</text>
	<line x1="3795.66" y1="2489.19" x2="3795.66" y2="2529.16" style="stroke:#000000;stroke-width:5.76"/>
	<text x="3795.66" y="2619.14" style="font-family:'Helvetica';font-size:99.99px;fill:#000000" text-anchor="middle">10</text>
	<text x="2191.61" y="2729.16" style="font-family:'Helvetica';font-size:99.99px;fill:#000000" text-anchor="middle">Years from surgery</text>
</svg>
