<?xml version="1.0" encoding="UTF-8" standalone="no"?>
<!-- This is a Stata 15.0 generated SVG file (http://www.stata.com) -->

<svg version="1.1" width="700px" height="509px" viewBox="0 0 3960 2880" xmlns="http://www.w3.org/2000/svg" xmlns:xlink="http://www.w3.org/1999/xlink">
	<desc>Stata Graph - Graph</desc>
	<rect x="0" y="0" width="3960" height="2880" style="fill:#EAF2F3;stroke:none"/>
	<rect x="0.00" y="0.00" width="3959.88" height="2880.00" style="fill:#EAF2F3"/>
	<rect x="2.88" y="2.88" width="3954.12" height="2874.24" style="fill:none;stroke:#EAF2F3;stroke-width:5.76"/>
	<rect x="524.08" y="100.86" width="3334.94" height="2388.33" style="fill:#FFFFFF"/>
	<rect x="526.96" y="103.74" width="3329.18" height="2382.57" style="fill:none;stroke:#FFFFFF;stroke-width:5.76"/>
	<line x1="524.08" y1="2425.58" x2="3859.02" y2="2425.58" style="stroke:#EAF2F3;stroke-width:8.64"/>
	<line x1="524.08" y1="1396.56" x2="3859.02" y2="1396.56" style="stroke:#EAF2F3;stroke-width:8.64"/>
	<line x1="524.08" y1="367.55" x2="3859.02" y2="367.55" style="stroke:#EAF2F3;stroke-width:8.64"/>
	<path d="
M587.44 2425.58 L587.44 2425.58 L619.86 2425.70 L652.29 2425.82 L684.71 2425.45 L717.13 2424.21 L749.55 2421.99 L781.85 2419.14 L814.27 2415.43 L846.70 2410.97 L879.12 2406.02 L911.54 2400.58 L943.97 2394.64 L976.39 2388.33 L1008.81 2381.77 L1041.11 2374.84 L1073.53 2367.66 L1105.95 2360.36 L1138.38 2352.81 L1170.80 2345.26 L1203.22 2337.59 L1235.64 2329.79 L1268.07 2322.12 L1300.37 2314.32 L1332.79 2306.65 L1365.21 2298.98 L1397.63 2291.55 L1430.06 2284.13 L1462.48 2276.82 L1494.90 2269.65 L1527.20 2262.72 L1559.62 2255.91 L1592.04 2249.35 L1624.47 2242.92 L1656.89 2236.73 L1689.31 2230.66 L1721.73 2224.72 L1754.16 2219.15 L1786.45 2213.71 L1818.88 2208.39 L1851.30 2203.31 L1883.72 2198.36 L1916.15 2193.54 L1948.57 2188.96 L1980.99 2184.63 L2013.41 2180.30 L2045.71 2176.21 L2078.13 2172.13 L2110.56 2168.29 L2142.98 2164.58 L2175.40 2160.99 L2207.82 2157.40 L2240.25 2154.06 L2272.67 2150.72 L2304.97 2147.50 L2337.39 2144.41 L2369.81 2141.44 L2402.24 2138.47 L2434.66 2135.62 L2467.08 2132.90 L2499.50 2130.18 L2531.93 2127.58 L2564.22 2125.10 L2596.65 2122.50 L2629.07 2120.15 L2661.49 2117.80 L2693.91 2115.45 L2726.34 2113.22 L2758.76 2111.12 L2791.06 2109.01 L2823.48 2106.91 L2855.90 2104.93 L2888.32 2102.95 L2920.75 2101.09 L2953.17 2099.24 L2985.59 2097.38 L3018.01 2095.65 L3050.31 2094.04 L3082.74 2092.31 L3115.16 2090.70 L3147.58 2089.21 L3180.00 2087.60 L3212.43 2086.12 L3244.85 2084.76 L3277.27 2083.27 L3309.57 2081.91 L3341.99 2080.67 L3374.42 2079.31 L3406.84 2078.07 L3439.26 2076.84 L3471.68 2075.72 L3504.11 2074.61 L3536.53 2073.50 L3568.83 2072.38 L3601.25 2071.27 L3633.67 2070.28 L3666.09 2069.29 L3698.52 2068.42 L3730.94 2067.43 L3763.36 2066.57 L3795.66 2065.70 L3795.66 164.22 L3763.36 171.77 L3730.94 179.69 L3698.52 187.61 L3666.09 195.78 L3633.67 204.07 L3601.25 212.61 L3568.83 221.27 L3536.53 230.06 L3504.11 239.09 L3471.68 248.25 L3439.26 257.66 L3406.84 267.18 L3374.42 276.96 L3341.99 286.99 L3309.57 297.13 L3277.27 307.53 L3244.85 318.05 L3212.43 328.94 L3180.00 339.95 L3147.58 351.21 L3115.16 362.72 L3082.74 374.48 L3050.31 386.48 L3018.01 398.86 L2985.59 411.36 L2953.17 424.10 L2920.75 437.22 L2888.32 450.59 L2855.90 464.20 L2823.48 478.18 L2791.06 492.42 L2758.76 507.02 L2726.34 521.87 L2693.91 537.22 L2661.49 552.81 L2629.07 568.77 L2596.65 584.98 L2564.22 601.69 L2531.93 618.77 L2499.50 636.34 L2467.08 654.29 L2434.66 672.60 L2402.24 691.41 L2369.81 710.59 L2337.39 730.40 L2304.97 750.57 L2272.67 771.36 L2240.25 792.77 L2207.82 814.67 L2175.40 837.19 L2142.98 860.46 L2110.56 884.22 L2078.13 908.85 L2045.71 934.09 L2013.41 960.08 L1980.99 986.94 L1948.57 1014.66 L1916.15 1043.25 L1883.72 1072.82 L1851.30 1103.27 L1818.88 1134.70 L1786.45 1167.25 L1754.16 1200.91 L1721.73 1235.43 L1689.31 1271.08 L1656.89 1307.83 L1624.47 1345.45 L1592.04 1384.19 L1559.62 1423.79 L1527.20 1464.26 L1494.90 1505.71 L1462.48 1547.91 L1430.06 1590.73 L1397.63 1634.29 L1365.21 1678.35 L1332.79 1722.90 L1300.37 1767.70 L1268.07 1812.62 L1235.64 1857.67 L1203.22 1902.59 L1170.80 1947.27 L1138.38 1991.45 L1105.95 2034.88 L1073.53 2077.33 L1041.11 2118.67 L1008.81 2158.51 L976.39 2196.75 L943.97 2232.77 L911.54 2266.55 L879.12 2297.61 L846.70 2325.71 L814.27 2350.58 L781.85 2371.99 L749.55 2389.81 L717.13 2403.92 L684.71 2414.31 L652.29 2421.12 L619.86 2424.71 L587.44 2425.58 L587.44 2425.58 Z" stroke-linecap="round" stroke-alignment="inner" style="fill:#FF3333;fill-opacity:0.25;stroke:#FF0000;stroke-opacity:0.25;stroke-width:8.64"/>
	<line x1="587.44" y1="2425.58" x2="619.86" y2="2425.20" stroke-linecap="round" style="stroke:#FF0000;stroke-width:8.64"/>
	<line x1="619.86" y1="2425.20" x2="652.16" y2="2423.60" stroke-linecap="round" style="stroke:#FF0000;stroke-width:8.64"/>
	<line x1="652.16" y1="2423.60" x2="684.59" y2="2419.88" stroke-linecap="round" style="stroke:#FF0000;stroke-width:8.64"/>
	<line x1="684.59" y1="2419.88" x2="717.01" y2="2414.07" stroke-linecap="round" style="stroke:#FF0000;stroke-width:8.64"/>
	<line x1="717.01" y1="2414.07" x2="749.43" y2="2406.02" stroke-linecap="round" style="stroke:#FF0000;stroke-width:8.64"/>
	<line x1="749.43" y1="2406.02" x2="781.85" y2="2395.63" stroke-linecap="round" style="stroke:#FF0000;stroke-width:8.64"/>
	<line x1="781.85" y1="2395.63" x2="814.27" y2="2383.00" stroke-linecap="round" style="stroke:#FF0000;stroke-width:8.64"/>
	<line x1="814.27" y1="2383.00" x2="846.70" y2="2368.40" stroke-linecap="round" style="stroke:#FF0000;stroke-width:8.64"/>
	<line x1="846.70" y1="2368.40" x2="879.12" y2="2351.82" stroke-linecap="round" style="stroke:#FF0000;stroke-width:8.64"/>
	<line x1="879.12" y1="2351.82" x2="911.42" y2="2333.63" stroke-linecap="round" style="stroke:#FF0000;stroke-width:8.64"/>
	<line x1="911.42" y1="2333.63" x2="943.84" y2="2313.83" stroke-linecap="round" style="stroke:#FF0000;stroke-width:8.64"/>
	<line x1="943.84" y1="2313.83" x2="976.26" y2="2292.54" stroke-linecap="round" style="stroke:#FF0000;stroke-width:8.64"/>
	<line x1="976.26" y1="2292.54" x2="1008.69" y2="2270.26" stroke-linecap="round" style="stroke:#FF0000;stroke-width:8.64"/>
	<line x1="1008.69" y1="2270.26" x2="1041.11" y2="2246.88" stroke-linecap="round" style="stroke:#FF0000;stroke-width:8.64"/>
	<line x1="1041.11" y1="2246.88" x2="1073.53" y2="2222.62" stroke-linecap="round" style="stroke:#FF0000;stroke-width:8.64"/>
	<line x1="1073.53" y1="2222.62" x2="1105.95" y2="2197.62" stroke-linecap="round" style="stroke:#FF0000;stroke-width:8.64"/>
	<line x1="1105.95" y1="2197.62" x2="1138.38" y2="2172.13" stroke-linecap="round" style="stroke:#FF0000;stroke-width:8.64"/>
	<line x1="1138.38" y1="2172.13" x2="1170.68" y2="2146.26" stroke-linecap="round" style="stroke:#FF0000;stroke-width:8.64"/>
	<line x1="1170.68" y1="2146.26" x2="1203.10" y2="2120.15" stroke-linecap="round" style="stroke:#FF0000;stroke-width:8.64"/>
	<line x1="1203.10" y1="2120.15" x2="1235.52" y2="2093.79" stroke-linecap="round" style="stroke:#FF0000;stroke-width:8.64"/>
	<line x1="1235.52" y1="2093.79" x2="1267.94" y2="2067.43" stroke-linecap="round" style="stroke:#FF0000;stroke-width:8.64"/>
	<line x1="1267.94" y1="2067.43" x2="1300.37" y2="2041.07" stroke-linecap="round" style="stroke:#FF0000;stroke-width:8.64"/>
	<line x1="1300.37" y1="2041.07" x2="1332.79" y2="2014.84" stroke-linecap="round" style="stroke:#FF0000;stroke-width:8.64"/>
	<line x1="1332.79" y1="2014.84" x2="1365.21" y2="1988.72" stroke-linecap="round" style="stroke:#FF0000;stroke-width:8.64"/>
	<line x1="1365.21" y1="1988.72" x2="1397.51" y2="1962.98" stroke-linecap="round" style="stroke:#FF0000;stroke-width:8.64"/>
	<line x1="1397.51" y1="1962.98" x2="1429.93" y2="1937.49" stroke-linecap="round" style="stroke:#FF0000;stroke-width:8.64"/>
	<line x1="1429.93" y1="1937.49" x2="1462.35" y2="1912.37" stroke-linecap="round" style="stroke:#FF0000;stroke-width:8.64"/>
	<line x1="1462.35" y1="1912.37" x2="1494.78" y2="1887.74" stroke-linecap="round" style="stroke:#FF0000;stroke-width:8.64"/>
	<line x1="1494.78" y1="1887.74" x2="1527.20" y2="1863.61" stroke-linecap="round" style="stroke:#FF0000;stroke-width:8.64"/>
	<line x1="1527.20" y1="1863.61" x2="1559.62" y2="1839.85" stroke-linecap="round" style="stroke:#FF0000;stroke-width:8.64"/>
	<line x1="1559.62" y1="1839.85" x2="1592.04" y2="1816.83" stroke-linecap="round" style="stroke:#FF0000;stroke-width:8.64"/>
	<line x1="1592.04" y1="1816.83" x2="1624.47" y2="1794.31" stroke-linecap="round" style="stroke:#FF0000;stroke-width:8.64"/>
	<line x1="1624.47" y1="1794.31" x2="1656.77" y2="1772.28" stroke-linecap="round" style="stroke:#FF0000;stroke-width:8.64"/>
	<line x1="1656.77" y1="1772.28" x2="1689.19" y2="1750.99" stroke-linecap="round" style="stroke:#FF0000;stroke-width:8.64"/>
	<line x1="1689.19" y1="1750.99" x2="1721.61" y2="1730.20" stroke-linecap="round" style="stroke:#FF0000;stroke-width:8.64"/>
	<line x1="1721.61" y1="1730.20" x2="1754.03" y2="1710.03" stroke-linecap="round" style="stroke:#FF0000;stroke-width:8.64"/>
	<line x1="1754.03" y1="1710.03" x2="1786.45" y2="1690.48" stroke-linecap="round" style="stroke:#FF0000;stroke-width:8.64"/>
	<line x1="1786.45" y1="1690.48" x2="1818.88" y2="1671.67" stroke-linecap="round" style="stroke:#FF0000;stroke-width:8.64"/>
	<line x1="1818.88" y1="1671.67" x2="1851.30" y2="1653.35" stroke-linecap="round" style="stroke:#FF0000;stroke-width:8.64"/>
	<line x1="1851.30" y1="1653.35" x2="1883.72" y2="1635.65" stroke-linecap="round" style="stroke:#FF0000;stroke-width:8.64"/>
	<line x1="1883.72" y1="1635.65" x2="1916.02" y2="1618.45" stroke-linecap="round" style="stroke:#FF0000;stroke-width:8.64"/>
	<line x1="1916.02" y1="1618.45" x2="1948.44" y2="1601.87" stroke-linecap="round" style="stroke:#FF0000;stroke-width:8.64"/>
	<line x1="1948.44" y1="1601.87" x2="1980.87" y2="1585.91" stroke-linecap="round" style="stroke:#FF0000;stroke-width:8.64"/>
	<line x1="1980.87" y1="1585.91" x2="2013.29" y2="1570.31" stroke-linecap="round" style="stroke:#FF0000;stroke-width:8.64"/>
	<line x1="2013.29" y1="1570.31" x2="2045.71" y2="1555.21" stroke-linecap="round" style="stroke:#FF0000;stroke-width:8.64"/>
	<line x1="2045.71" y1="1555.21" x2="2078.13" y2="1540.49" stroke-linecap="round" style="stroke:#FF0000;stroke-width:8.64"/>
	<line x1="2078.13" y1="1540.49" x2="2110.56" y2="1526.38" stroke-linecap="round" style="stroke:#FF0000;stroke-width:8.64"/>
	<line x1="2110.56" y1="1526.38" x2="2142.98" y2="1512.52" stroke-linecap="round" style="stroke:#FF0000;stroke-width:8.64"/>
	<line x1="2142.98" y1="1512.52" x2="2175.28" y2="1499.15" stroke-linecap="round" style="stroke:#FF0000;stroke-width:8.64"/>
	<line x1="2175.28" y1="1499.15" x2="2207.70" y2="1486.16" stroke-linecap="round" style="stroke:#FF0000;stroke-width:8.64"/>
	<line x1="2207.70" y1="1486.16" x2="2240.12" y2="1473.41" stroke-linecap="round" style="stroke:#FF0000;stroke-width:8.64"/>
	<line x1="2240.12" y1="1473.41" x2="2272.55" y2="1461.16" stroke-linecap="round" style="stroke:#FF0000;stroke-width:8.64"/>
	<line x1="2272.55" y1="1461.16" x2="2304.97" y2="1449.16" stroke-linecap="round" style="stroke:#FF0000;stroke-width:8.64"/>
	<line x1="2304.97" y1="1449.16" x2="2337.39" y2="1437.52" stroke-linecap="round" style="stroke:#FF0000;stroke-width:8.64"/>
	<line x1="2337.39" y1="1437.52" x2="2369.81" y2="1426.14" stroke-linecap="round" style="stroke:#FF0000;stroke-width:8.64"/>
	<line x1="2369.81" y1="1426.14" x2="2402.24" y2="1415.00" stroke-linecap="round" style="stroke:#FF0000;stroke-width:8.64"/>
	<line x1="2402.24" y1="1415.00" x2="2434.53" y2="1404.24" stroke-linecap="round" style="stroke:#FF0000;stroke-width:8.64"/>
	<line x1="2434.53" y1="1404.24" x2="2466.96" y2="1393.59" stroke-linecap="round" style="stroke:#FF0000;stroke-width:8.64"/>
	<line x1="2466.96" y1="1393.59" x2="2499.38" y2="1383.32" stroke-linecap="round" style="stroke:#FF0000;stroke-width:8.64"/>
	<line x1="2499.38" y1="1383.32" x2="2531.80" y2="1373.30" stroke-linecap="round" style="stroke:#FF0000;stroke-width:8.64"/>
	<line x1="2531.80" y1="1373.30" x2="2564.22" y2="1363.40" stroke-linecap="round" style="stroke:#FF0000;stroke-width:8.64"/>
	<line x1="2564.22" y1="1363.40" x2="2596.65" y2="1353.87" stroke-linecap="round" style="stroke:#FF0000;stroke-width:8.64"/>
	<line x1="2596.65" y1="1353.87" x2="2629.07" y2="1344.46" stroke-linecap="round" style="stroke:#FF0000;stroke-width:8.64"/>
	<line x1="2629.07" y1="1344.46" x2="2661.37" y2="1335.30" stroke-linecap="round" style="stroke:#FF0000;stroke-width:8.64"/>
	<line x1="2661.37" y1="1335.30" x2="2693.79" y2="1326.39" stroke-linecap="round" style="stroke:#FF0000;stroke-width:8.64"/>
	<line x1="2693.79" y1="1326.39" x2="2726.21" y2="1317.61" stroke-linecap="round" style="stroke:#FF0000;stroke-width:8.64"/>
	<line x1="2726.21" y1="1317.61" x2="2758.64" y2="1309.07" stroke-linecap="round" style="stroke:#FF0000;stroke-width:8.64"/>
	<line x1="2758.64" y1="1309.07" x2="2791.06" y2="1300.78" stroke-linecap="round" style="stroke:#FF0000;stroke-width:8.64"/>
	<line x1="2791.06" y1="1300.78" x2="2823.48" y2="1292.61" stroke-linecap="round" style="stroke:#FF0000;stroke-width:8.64"/>
	<line x1="2823.48" y1="1292.61" x2="2855.90" y2="1284.69" stroke-linecap="round" style="stroke:#FF0000;stroke-width:8.64"/>
	<line x1="2855.90" y1="1284.69" x2="2888.32" y2="1276.89" stroke-linecap="round" style="stroke:#FF0000;stroke-width:8.64"/>
	<line x1="2888.32" y1="1276.89" x2="2920.62" y2="1269.22" stroke-linecap="round" style="stroke:#FF0000;stroke-width:8.64"/>
	<line x1="2920.62" y1="1269.22" x2="2953.05" y2="1261.79" stroke-linecap="round" style="stroke:#FF0000;stroke-width:8.64"/>
	<line x1="2953.05" y1="1261.79" x2="2985.47" y2="1254.49" stroke-linecap="round" style="stroke:#FF0000;stroke-width:8.64"/>
	<line x1="2985.47" y1="1254.49" x2="3017.89" y2="1247.32" stroke-linecap="round" style="stroke:#FF0000;stroke-width:8.64"/>
	<line x1="3017.89" y1="1247.32" x2="3050.31" y2="1240.39" stroke-linecap="round" style="stroke:#FF0000;stroke-width:8.64"/>
	<line x1="3050.31" y1="1240.39" x2="3082.74" y2="1233.45" stroke-linecap="round" style="stroke:#FF0000;stroke-width:8.64"/>
	<line x1="3082.74" y1="1233.45" x2="3115.16" y2="1226.77" stroke-linecap="round" style="stroke:#FF0000;stroke-width:8.64"/>
	<line x1="3115.16" y1="1226.77" x2="3147.58" y2="1220.21" stroke-linecap="round" style="stroke:#FF0000;stroke-width:8.64"/>
	<line x1="3147.58" y1="1220.21" x2="3179.88" y2="1213.90" stroke-linecap="round" style="stroke:#FF0000;stroke-width:8.64"/>
	<line x1="3179.88" y1="1213.90" x2="3212.30" y2="1207.59" stroke-linecap="round" style="stroke:#FF0000;stroke-width:8.64"/>
	<line x1="3212.30" y1="1207.59" x2="3244.72" y2="1201.53" stroke-linecap="round" style="stroke:#FF0000;stroke-width:8.64"/>
	<line x1="3244.72" y1="1201.53" x2="3277.15" y2="1195.46" stroke-linecap="round" style="stroke:#FF0000;stroke-width:8.64"/>
	<line x1="3277.15" y1="1195.46" x2="3309.57" y2="1189.65" stroke-linecap="round" style="stroke:#FF0000;stroke-width:8.64"/>
	<line x1="3309.57" y1="1189.65" x2="3341.99" y2="1183.83" stroke-linecap="round" style="stroke:#FF0000;stroke-width:8.64"/>
	<line x1="3341.99" y1="1183.83" x2="3374.42" y2="1178.26" stroke-linecap="round" style="stroke:#FF0000;stroke-width:8.64"/>
	<line x1="3374.42" y1="1178.26" x2="3406.84" y2="1172.69" stroke-linecap="round" style="stroke:#FF0000;stroke-width:8.64"/>
	<line x1="3406.84" y1="1172.69" x2="3439.14" y2="1167.37" stroke-linecap="round" style="stroke:#FF0000;stroke-width:8.64"/>
	<line x1="3439.14" y1="1167.37" x2="3471.56" y2="1162.05" stroke-linecap="round" style="stroke:#FF0000;stroke-width:8.64"/>
	<line x1="3471.56" y1="1162.05" x2="3503.98" y2="1156.85" stroke-linecap="round" style="stroke:#FF0000;stroke-width:8.64"/>
	<line x1="3503.98" y1="1156.85" x2="3536.40" y2="1151.78" stroke-linecap="round" style="stroke:#FF0000;stroke-width:8.64"/>
	<line x1="3536.40" y1="1151.78" x2="3568.83" y2="1146.83" stroke-linecap="round" style="stroke:#FF0000;stroke-width:8.64"/>
	<line x1="3568.83" y1="1146.83" x2="3601.25" y2="1142.00" stroke-linecap="round" style="stroke:#FF0000;stroke-width:8.64"/>
	<line x1="3601.25" y1="1142.00" x2="3633.67" y2="1137.30" stroke-linecap="round" style="stroke:#FF0000;stroke-width:8.64"/>
	<line x1="3633.67" y1="1137.30" x2="3666.09" y2="1132.60" stroke-linecap="round" style="stroke:#FF0000;stroke-width:8.64"/>
	<line x1="3666.09" y1="1132.60" x2="3698.39" y2="1128.02" stroke-linecap="round" style="stroke:#FF0000;stroke-width:8.64"/>
	<line x1="3698.39" y1="1128.02" x2="3730.82" y2="1123.56" stroke-linecap="round" style="stroke:#FF0000;stroke-width:8.64"/>
	<line x1="3730.82" y1="1123.56" x2="3763.24" y2="1119.23" stroke-linecap="round" style="stroke:#FF0000;stroke-width:8.64"/>
	<line x1="3763.24" y1="1119.23" x2="3795.66" y2="1115.02" stroke-linecap="round" style="stroke:#FF0000;stroke-width:8.64"/>
	<line x1="524.08" y1="2489.19" x2="524.08" y2="100.86" style="stroke:#000000;stroke-width:5.76"/>
	<line x1="524.08" y1="2425.58" x2="484.11" y2="2425.58" style="stroke:#000000;stroke-width:5.76"/>
	<text x="464.06" y="2460.60" style="font-family:'Helvetica';font-size:99.99px;fill:#000000" text-anchor="end">0.00</text>
	<line x1="524.08" y1="1396.56" x2="484.11" y2="1396.56" style="stroke:#000000;stroke-width:5.76"/>
	<text x="464.06" y="1431.59" style="font-family:'Helvetica';font-size:99.99px;fill:#000000" text-anchor="end">0.05</text>
	<line x1="524.08" y1="367.55" x2="484.11" y2="367.55" style="stroke:#000000;stroke-width:5.76"/>
	<text x="464.06" y="402.58" style="font-family:'Helvetica';font-size:99.99px;fill:#000000" text-anchor="end">0.10</text>
	<text x="190.71" y="1294.96" style="font-family:'Helvetica';font-size:99.99px;fill:#000000" transform="rotate(-90 190.71,1294.96)" text-anchor="middle">Difference in S(t)</text>
	<line x1="524.08" y1="2489.19" x2="3859.02" y2="2489.19" style="stroke:#000000;stroke-width:5.76"/>
	<line x1="587.44" y1="2489.19" x2="587.44" y2="2529.16" style="stroke:#000000;stroke-width:5.76"/>
	<text x="587.44" y="2619.14" style="font-family:'Helvetica';font-size:99.99px;fill:#000000" text-anchor="middle">0</text>
	<line x1="1229.09" y1="2489.19" x2="1229.09" y2="2529.16" style="stroke:#000000;stroke-width:5.76"/>
	<text x="1229.09" y="2619.14" style="font-family:'Helvetica';font-size:99.99px;fill:#000000" text-anchor="middle">2</text>
	<line x1="1870.73" y1="2489.19" x2="1870.73" y2="2529.16" style="stroke:#000000;stroke-width:5.76"/>
	<text x="1870.73" y="2619.14" style="font-family:'Helvetica';font-size:99.99px;fill:#000000" text-anchor="middle">4</text>
	<line x1="2512.37" y1="2489.19" x2="2512.37" y2="2529.16" style="stroke:#000000;stroke-width:5.76"/>
	<text x="2512.37" y="2619.14" style="font-family:'Helvetica';font-size:99.99px;fill:#000000" text-anchor="middle">6</text>
	<line x1="3154.02" y1="2489.19" x2="3154.02" y2="2529.16" style="stroke:#000000;stroke-width:5.76"/>
	<text x="3154.02" y="2619.14" style="font-family:'Helvetica';font-size:99.99px;fill:#000000" text-anchor="middle">8</text>
	<line x1="3795.66" y1="2489.19" x2="3795.66" y2="2529.16" style="stroke:#000000;stroke-width:5.76"/>
	<text x="3795.66" y="2619.14" style="font-family:'Helvetica';font-size:99.99px;fill:#000000" text-anchor="middle">10</text>
	<text x="2191.61" y="2729.16" style="font-family:'Helvetica';font-size:99.99px;fill:#000000" text-anchor="middle">Years from surgery</text>
</svg>
