<?xml version="1.0" encoding="UTF-8" standalone="no"?>
<!-- This is a Stata 15.0 generated SVG file (http://www.stata.com) -->

<svg version="1.1" width="700px" height="509px" viewBox="0 0 3960 2880" xmlns="http://www.w3.org/2000/svg" xmlns:xlink="http://www.w3.org/1999/xlink">
	<desc>Stata Graph - Graph</desc>
	<rect x="0" y="0" width="3960" height="2880" style="fill:#EAF2F3;stroke:none"/>
	<rect x="0.00" y="0.00" width="3959.88" height="2880.00" style="fill:#EAF2F3"/>
	<rect x="2.88" y="2.88" width="3954.12" height="2874.24" style="fill:none;stroke:#EAF2F3;stroke-width:5.76"/>
	<rect x="524.08" y="100.86" width="3334.94" height="2388.33" style="fill:#FFFFFF"/>
	<rect x="526.96" y="103.74" width="3329.18" height="2382.57" style="fill:none;stroke:#FFFFFF;stroke-width:5.76"/>
	<line x1="524.08" y1="2425.45" x2="3859.02" y2="2425.45" style="stroke:#EAF2F3;stroke-width:8.64"/>
	<line x1="524.08" y1="1671.67" x2="3859.02" y2="1671.67" style="stroke:#EAF2F3;stroke-width:8.64"/>
	<line x1="524.08" y1="917.88" x2="3859.02" y2="917.88" style="stroke:#EAF2F3;stroke-width:8.64"/>
	<line x1="524.08" y1="164.22" x2="3859.02" y2="164.22" style="stroke:#EAF2F3;stroke-width:8.64"/>
	<path d="
M587.44 2425.45 L587.44 2425.45 L619.86 2425.70 L652.29 2425.82 L684.71 2425.33 L717.13 2423.84 L749.55 2421.12 L781.85 2417.53 L814.27 2412.95 L846.70 2407.51 L879.12 2401.44 L911.54 2394.76 L943.97 2387.58 L976.39 2380.03 L1008.81 2372.24 L1041.11 2364.07 L1073.53 2355.78 L1105.95 2347.24 L1138.38 2338.70 L1170.80 2330.16 L1203.22 2321.62 L1235.64 2313.08 L1268.07 2304.67 L1300.37 2296.38 L1332.79 2288.33 L1365.21 2280.41 L1397.63 2272.74 L1430.06 2265.31 L1462.48 2258.14 L1494.90 2251.21 L1527.20 2244.65 L1559.62 2238.34 L1592.04 2232.40 L1624.47 2226.70 L1656.89 2221.26 L1689.31 2216.06 L1721.73 2211.23 L1754.16 2206.66 L1786.45 2202.32 L1818.88 2198.24 L1851.30 2194.40 L1883.72 2190.69 L1916.15 2187.35 L1948.57 2184.13 L1980.99 2181.16 L2013.41 2178.44 L2045.71 2175.72 L2078.13 2173.37 L2110.56 2171.01 L2142.98 2168.91 L2175.40 2166.93 L2207.82 2164.95 L2240.25 2163.22 L2272.67 2161.61 L2304.97 2160.12 L2337.39 2158.64 L2369.81 2157.40 L2402.24 2156.16 L2434.66 2155.05 L2467.08 2154.06 L2499.50 2153.07 L2531.93 2152.20 L2564.22 2151.46 L2596.65 2150.72 L2629.07 2150.10 L2661.49 2149.48 L2693.91 2148.99 L2726.34 2148.61 L2758.76 2148.12 L2791.06 2147.87 L2823.48 2147.62 L2855.90 2147.38 L2888.32 2147.25 L2920.75 2147.13 L2953.17 2147.01 L2985.59 2147.01 L3018.01 2147.01 L3050.31 2147.13 L3082.74 2147.25 L3115.16 2147.38 L3147.58 2147.50 L3180.00 2147.75 L3212.43 2148.00 L3244.85 2148.37 L3277.27 2148.61 L3309.57 2148.99 L3341.99 2149.36 L3374.42 2149.85 L3406.84 2150.22 L3439.26 2150.72 L3471.68 2151.21 L3504.11 2151.71 L3536.53 2152.33 L3568.83 2152.82 L3601.25 2153.44 L3633.67 2154.06 L3666.09 2154.68 L3698.52 2155.30 L3730.94 2156.04 L3763.36 2156.66 L3795.66 2157.40 L3795.66 541.79 L3763.36 540.31 L3730.94 539.07 L3698.52 537.83 L3666.09 536.72 L3633.67 535.85 L3601.25 535.11 L3568.83 534.49 L3536.53 534.00 L3504.11 533.63 L3471.68 533.50 L3439.26 533.50 L3406.84 533.75 L3374.42 534.12 L3341.99 534.62 L3309.57 535.36 L3277.27 536.35 L3244.85 537.46 L3212.43 538.82 L3180.00 540.43 L3147.58 542.29 L3115.16 544.27 L3082.74 546.62 L3050.31 549.10 L3018.01 551.94 L2985.59 555.04 L2953.17 558.38 L2920.75 561.97 L2888.32 565.93 L2855.90 570.26 L2823.48 574.84 L2791.06 579.79 L2758.76 584.98 L2726.34 590.68 L2693.91 596.74 L2661.49 603.05 L2629.07 609.86 L2596.65 617.16 L2564.22 624.83 L2531.93 633.00 L2499.50 641.54 L2467.08 650.70 L2434.66 660.35 L2402.24 670.50 L2369.81 681.27 L2337.39 692.53 L2304.97 704.53 L2272.67 717.15 L2240.25 730.40 L2207.82 744.38 L2175.40 759.23 L2142.98 774.82 L2110.56 791.16 L2078.13 808.48 L2045.71 826.80 L2013.41 845.98 L1980.99 866.28 L1948.57 887.69 L1916.15 910.33 L1883.72 934.09 L1851.30 959.22 L1818.88 985.70 L1786.45 1013.67 L1754.16 1043.12 L1721.73 1074.06 L1689.31 1106.48 L1656.89 1140.64 L1624.47 1176.28 L1592.04 1213.65 L1559.62 1252.64 L1527.20 1293.10 L1494.90 1335.18 L1462.48 1378.87 L1430.06 1424.04 L1397.63 1470.57 L1365.21 1518.46 L1332.79 1567.47 L1300.37 1617.59 L1268.07 1668.57 L1235.64 1720.30 L1203.22 1772.53 L1170.80 1825.12 L1138.38 1877.84 L1105.95 1930.19 L1073.53 1982.04 L1041.11 2032.90 L1008.81 2082.53 L976.39 2130.30 L943.97 2175.96 L911.54 2218.91 L879.12 2258.76 L846.70 2295.02 L814.27 2327.32 L781.85 2355.16 L749.55 2378.55 L717.13 2396.99 L684.71 2410.60 L652.29 2419.64 L619.86 2424.21 L587.44 2425.45 L587.44 2425.45 Z" stroke-linecap="round" stroke-alignment="inner" style="fill:#FF3333;fill-opacity:0.25;stroke:#FF0000;stroke-opacity:0.25;stroke-width:8.64"/>
	<line x1="587.44" y1="2425.45" x2="619.86" y2="2424.96" stroke-linecap="round" style="stroke:#FF0000;stroke-width:8.64"/>
	<line x1="619.86" y1="2424.96" x2="652.16" y2="2422.85" stroke-linecap="round" style="stroke:#FF0000;stroke-width:8.64"/>
	<line x1="652.16" y1="2422.85" x2="684.59" y2="2418.03" stroke-linecap="round" style="stroke:#FF0000;stroke-width:8.64"/>
	<line x1="684.59" y1="2418.03" x2="717.01" y2="2410.48" stroke-linecap="round" style="stroke:#FF0000;stroke-width:8.64"/>
	<line x1="717.01" y1="2410.48" x2="749.43" y2="2399.83" stroke-linecap="round" style="stroke:#FF0000;stroke-width:8.64"/>
	<line x1="749.43" y1="2399.83" x2="781.85" y2="2386.47" stroke-linecap="round" style="stroke:#FF0000;stroke-width:8.64"/>
	<line x1="781.85" y1="2386.47" x2="814.27" y2="2370.13" stroke-linecap="round" style="stroke:#FF0000;stroke-width:8.64"/>
	<line x1="814.27" y1="2370.13" x2="846.70" y2="2351.32" stroke-linecap="round" style="stroke:#FF0000;stroke-width:8.64"/>
	<line x1="846.70" y1="2351.32" x2="879.12" y2="2330.16" stroke-linecap="round" style="stroke:#FF0000;stroke-width:8.64"/>
	<line x1="879.12" y1="2330.16" x2="911.42" y2="2306.90" stroke-linecap="round" style="stroke:#FF0000;stroke-width:8.64"/>
	<line x1="911.42" y1="2306.90" x2="943.84" y2="2281.90" stroke-linecap="round" style="stroke:#FF0000;stroke-width:8.64"/>
	<line x1="943.84" y1="2281.90" x2="976.26" y2="2255.29" stroke-linecap="round" style="stroke:#FF0000;stroke-width:8.64"/>
	<line x1="976.26" y1="2255.29" x2="1008.69" y2="2227.45" stroke-linecap="round" style="stroke:#FF0000;stroke-width:8.64"/>
	<line x1="1008.69" y1="2227.45" x2="1041.11" y2="2198.61" stroke-linecap="round" style="stroke:#FF0000;stroke-width:8.64"/>
	<line x1="1041.11" y1="2198.61" x2="1073.53" y2="2168.91" stroke-linecap="round" style="stroke:#FF0000;stroke-width:8.64"/>
	<line x1="1073.53" y1="2168.91" x2="1105.95" y2="2138.84" stroke-linecap="round" style="stroke:#FF0000;stroke-width:8.64"/>
	<line x1="1105.95" y1="2138.84" x2="1138.38" y2="2108.27" stroke-linecap="round" style="stroke:#FF0000;stroke-width:8.64"/>
	<line x1="1138.38" y1="2108.27" x2="1170.68" y2="2077.70" stroke-linecap="round" style="stroke:#FF0000;stroke-width:8.64"/>
	<line x1="1170.68" y1="2077.70" x2="1203.10" y2="2047.14" stroke-linecap="round" style="stroke:#FF0000;stroke-width:8.64"/>
	<line x1="1203.10" y1="2047.14" x2="1235.52" y2="2016.69" stroke-linecap="round" style="stroke:#FF0000;stroke-width:8.64"/>
	<line x1="1235.52" y1="2016.69" x2="1267.94" y2="1986.62" stroke-linecap="round" style="stroke:#FF0000;stroke-width:8.64"/>
	<line x1="1267.94" y1="1986.62" x2="1300.37" y2="1957.04" stroke-linecap="round" style="stroke:#FF0000;stroke-width:8.64"/>
	<line x1="1300.37" y1="1957.04" x2="1332.79" y2="1927.96" stroke-linecap="round" style="stroke:#FF0000;stroke-width:8.64"/>
	<line x1="1332.79" y1="1927.96" x2="1365.21" y2="1899.50" stroke-linecap="round" style="stroke:#FF0000;stroke-width:8.64"/>
	<line x1="1365.21" y1="1899.50" x2="1397.51" y2="1871.65" stroke-linecap="round" style="stroke:#FF0000;stroke-width:8.64"/>
	<line x1="1397.51" y1="1871.65" x2="1429.93" y2="1844.68" stroke-linecap="round" style="stroke:#FF0000;stroke-width:8.64"/>
	<line x1="1429.93" y1="1844.68" x2="1462.35" y2="1818.56" stroke-linecap="round" style="stroke:#FF0000;stroke-width:8.64"/>
	<line x1="1462.35" y1="1818.56" x2="1494.78" y2="1793.32" stroke-linecap="round" style="stroke:#FF0000;stroke-width:8.64"/>
	<line x1="1494.78" y1="1793.32" x2="1527.20" y2="1768.94" stroke-linecap="round" style="stroke:#FF0000;stroke-width:8.64"/>
	<line x1="1527.20" y1="1768.94" x2="1559.62" y2="1745.55" stroke-linecap="round" style="stroke:#FF0000;stroke-width:8.64"/>
	<line x1="1559.62" y1="1745.55" x2="1592.04" y2="1723.03" stroke-linecap="round" style="stroke:#FF0000;stroke-width:8.64"/>
	<line x1="1592.04" y1="1723.03" x2="1624.47" y2="1701.62" stroke-linecap="round" style="stroke:#FF0000;stroke-width:8.64"/>
	<line x1="1624.47" y1="1701.62" x2="1656.77" y2="1680.95" stroke-linecap="round" style="stroke:#FF0000;stroke-width:8.64"/>
	<line x1="1656.77" y1="1680.95" x2="1689.19" y2="1661.40" stroke-linecap="round" style="stroke:#FF0000;stroke-width:8.64"/>
	<line x1="1689.19" y1="1661.40" x2="1721.61" y2="1642.71" stroke-linecap="round" style="stroke:#FF0000;stroke-width:8.64"/>
	<line x1="1721.61" y1="1642.71" x2="1754.03" y2="1624.89" stroke-linecap="round" style="stroke:#FF0000;stroke-width:8.64"/>
	<line x1="1754.03" y1="1624.89" x2="1786.45" y2="1608.06" stroke-linecap="round" style="stroke:#FF0000;stroke-width:8.64"/>
	<line x1="1786.45" y1="1608.06" x2="1818.88" y2="1591.97" stroke-linecap="round" style="stroke:#FF0000;stroke-width:8.64"/>
	<line x1="1818.88" y1="1591.97" x2="1851.30" y2="1576.87" stroke-linecap="round" style="stroke:#FF0000;stroke-width:8.64"/>
	<line x1="1851.30" y1="1576.87" x2="1883.72" y2="1562.52" stroke-linecap="round" style="stroke:#FF0000;stroke-width:8.64"/>
	<line x1="1883.72" y1="1562.52" x2="1916.02" y2="1548.90" stroke-linecap="round" style="stroke:#FF0000;stroke-width:8.64"/>
	<line x1="1916.02" y1="1548.90" x2="1948.44" y2="1536.03" stroke-linecap="round" style="stroke:#FF0000;stroke-width:8.64"/>
	<line x1="1948.44" y1="1536.03" x2="1980.87" y2="1523.78" stroke-linecap="round" style="stroke:#FF0000;stroke-width:8.64"/>
	<line x1="1980.87" y1="1523.78" x2="2013.29" y2="1512.27" stroke-linecap="round" style="stroke:#FF0000;stroke-width:8.64"/>
	<line x1="2013.29" y1="1512.27" x2="2045.71" y2="1501.38" stroke-linecap="round" style="stroke:#FF0000;stroke-width:8.64"/>
	<line x1="2045.71" y1="1501.38" x2="2078.13" y2="1490.99" stroke-linecap="round" style="stroke:#FF0000;stroke-width:8.64"/>
	<line x1="2078.13" y1="1490.99" x2="2110.56" y2="1481.21" stroke-linecap="round" style="stroke:#FF0000;stroke-width:8.64"/>
	<line x1="2110.56" y1="1481.21" x2="2142.98" y2="1471.93" stroke-linecap="round" style="stroke:#FF0000;stroke-width:8.64"/>
	<line x1="2142.98" y1="1471.93" x2="2175.28" y2="1463.14" stroke-linecap="round" style="stroke:#FF0000;stroke-width:8.64"/>
	<line x1="2175.28" y1="1463.14" x2="2207.70" y2="1454.73" stroke-linecap="round" style="stroke:#FF0000;stroke-width:8.64"/>
	<line x1="2207.70" y1="1454.73" x2="2240.12" y2="1446.93" stroke-linecap="round" style="stroke:#FF0000;stroke-width:8.64"/>
	<line x1="2240.12" y1="1446.93" x2="2272.55" y2="1439.38" stroke-linecap="round" style="stroke:#FF0000;stroke-width:8.64"/>
	<line x1="2272.55" y1="1439.38" x2="2304.97" y2="1432.33" stroke-linecap="round" style="stroke:#FF0000;stroke-width:8.64"/>
	<line x1="2304.97" y1="1432.33" x2="2337.39" y2="1425.64" stroke-linecap="round" style="stroke:#FF0000;stroke-width:8.64"/>
	<line x1="2337.39" y1="1425.64" x2="2369.81" y2="1419.33" stroke-linecap="round" style="stroke:#FF0000;stroke-width:8.64"/>
	<line x1="2369.81" y1="1419.33" x2="2402.24" y2="1413.39" stroke-linecap="round" style="stroke:#FF0000;stroke-width:8.64"/>
	<line x1="2402.24" y1="1413.39" x2="2434.53" y2="1407.70" stroke-linecap="round" style="stroke:#FF0000;stroke-width:8.64"/>
	<line x1="2434.53" y1="1407.70" x2="2466.96" y2="1402.38" stroke-linecap="round" style="stroke:#FF0000;stroke-width:8.64"/>
	<line x1="2466.96" y1="1402.38" x2="2499.38" y2="1397.43" stroke-linecap="round" style="stroke:#FF0000;stroke-width:8.64"/>
	<line x1="2499.38" y1="1397.43" x2="2531.80" y2="1392.60" stroke-linecap="round" style="stroke:#FF0000;stroke-width:8.64"/>
	<line x1="2531.80" y1="1392.60" x2="2564.22" y2="1388.15" stroke-linecap="round" style="stroke:#FF0000;stroke-width:8.64"/>
	<line x1="2564.22" y1="1388.15" x2="2596.65" y2="1383.94" stroke-linecap="round" style="stroke:#FF0000;stroke-width:8.64"/>
	<line x1="2596.65" y1="1383.94" x2="2629.07" y2="1380.10" stroke-linecap="round" style="stroke:#FF0000;stroke-width:8.64"/>
	<line x1="2629.07" y1="1380.10" x2="2661.37" y2="1376.39" stroke-linecap="round" style="stroke:#FF0000;stroke-width:8.64"/>
	<line x1="2661.37" y1="1376.39" x2="2693.79" y2="1372.93" stroke-linecap="round" style="stroke:#FF0000;stroke-width:8.64"/>
	<line x1="2693.79" y1="1372.93" x2="2726.21" y2="1369.71" stroke-linecap="round" style="stroke:#FF0000;stroke-width:8.64"/>
	<line x1="2726.21" y1="1369.71" x2="2758.64" y2="1366.61" stroke-linecap="round" style="stroke:#FF0000;stroke-width:8.64"/>
	<line x1="2758.64" y1="1366.61" x2="2791.06" y2="1363.89" stroke-linecap="round" style="stroke:#FF0000;stroke-width:8.64"/>
	<line x1="2791.06" y1="1363.89" x2="2823.48" y2="1361.29" stroke-linecap="round" style="stroke:#FF0000;stroke-width:8.64"/>
	<line x1="2823.48" y1="1361.29" x2="2855.90" y2="1358.82" stroke-linecap="round" style="stroke:#FF0000;stroke-width:8.64"/>
	<line x1="2855.90" y1="1358.82" x2="2888.32" y2="1356.59" stroke-linecap="round" style="stroke:#FF0000;stroke-width:8.64"/>
	<line x1="2888.32" y1="1356.59" x2="2920.62" y2="1354.61" stroke-linecap="round" style="stroke:#FF0000;stroke-width:8.64"/>
	<line x1="2920.62" y1="1354.61" x2="2953.05" y2="1352.75" stroke-linecap="round" style="stroke:#FF0000;stroke-width:8.64"/>
	<line x1="2953.05" y1="1352.75" x2="2985.47" y2="1351.02" stroke-linecap="round" style="stroke:#FF0000;stroke-width:8.64"/>
	<line x1="2985.47" y1="1351.02" x2="3017.89" y2="1349.54" stroke-linecap="round" style="stroke:#FF0000;stroke-width:8.64"/>
	<line x1="3017.89" y1="1349.54" x2="3050.31" y2="1348.17" stroke-linecap="round" style="stroke:#FF0000;stroke-width:8.64"/>
	<line x1="3050.31" y1="1348.17" x2="3082.74" y2="1346.94" stroke-linecap="round" style="stroke:#FF0000;stroke-width:8.64"/>
	<line x1="3082.74" y1="1346.94" x2="3115.16" y2="1345.95" stroke-linecap="round" style="stroke:#FF0000;stroke-width:8.64"/>
	<line x1="3115.16" y1="1345.95" x2="3147.58" y2="1344.96" stroke-linecap="round" style="stroke:#FF0000;stroke-width:8.64"/>
	<line x1="3147.58" y1="1344.96" x2="3179.88" y2="1344.21" stroke-linecap="round" style="stroke:#FF0000;stroke-width:8.64"/>
	<line x1="3179.88" y1="1344.21" x2="3212.30" y2="1343.47" stroke-linecap="round" style="stroke:#FF0000;stroke-width:8.64"/>
	<line x1="3212.30" y1="1343.47" x2="3244.72" y2="1342.98" stroke-linecap="round" style="stroke:#FF0000;stroke-width:8.64"/>
	<line x1="3244.72" y1="1342.98" x2="3277.15" y2="1342.61" stroke-linecap="round" style="stroke:#FF0000;stroke-width:8.64"/>
	<line x1="3277.15" y1="1342.61" x2="3309.57" y2="1342.23" stroke-linecap="round" style="stroke:#FF0000;stroke-width:8.64"/>
	<line x1="3309.57" y1="1342.23" x2="3341.99" y2="1342.11" stroke-linecap="round" style="stroke:#FF0000;stroke-width:8.64"/>
	<line x1="3341.99" y1="1342.11" x2="3374.42" y2="1341.99" stroke-linecap="round" style="stroke:#FF0000;stroke-width:8.64"/>
	<line x1="3374.42" y1="1341.99" x2="3406.84" y2="1341.99" stroke-linecap="round" style="stroke:#FF0000;stroke-width:8.64"/>
	<line x1="3406.84" y1="1341.99" x2="3439.14" y2="1342.23" stroke-linecap="round" style="stroke:#FF0000;stroke-width:8.64"/>
	<line x1="3439.14" y1="1342.23" x2="3471.56" y2="1342.48" stroke-linecap="round" style="stroke:#FF0000;stroke-width:8.64"/>
	<line x1="3471.56" y1="1342.48" x2="3503.98" y2="1342.73" stroke-linecap="round" style="stroke:#FF0000;stroke-width:8.64"/>
	<line x1="3503.98" y1="1342.73" x2="3536.40" y2="1343.22" stroke-linecap="round" style="stroke:#FF0000;stroke-width:8.64"/>
	<line x1="3536.40" y1="1343.22" x2="3568.83" y2="1343.72" stroke-linecap="round" style="stroke:#FF0000;stroke-width:8.64"/>
	<line x1="3568.83" y1="1343.72" x2="3601.25" y2="1344.34" stroke-linecap="round" style="stroke:#FF0000;stroke-width:8.64"/>
	<line x1="3601.25" y1="1344.34" x2="3633.67" y2="1344.96" stroke-linecap="round" style="stroke:#FF0000;stroke-width:8.64"/>
	<line x1="3633.67" y1="1344.96" x2="3666.09" y2="1345.82" stroke-linecap="round" style="stroke:#FF0000;stroke-width:8.64"/>
	<line x1="3666.09" y1="1345.82" x2="3698.39" y2="1346.69" stroke-linecap="round" style="stroke:#FF0000;stroke-width:8.64"/>
	<line x1="3698.39" y1="1346.69" x2="3730.82" y2="1347.56" stroke-linecap="round" style="stroke:#FF0000;stroke-width:8.64"/>
	<line x1="3730.82" y1="1347.56" x2="3763.24" y2="1348.55" stroke-linecap="round" style="stroke:#FF0000;stroke-width:8.64"/>
	<line x1="3763.24" y1="1348.55" x2="3795.66" y2="1349.66" stroke-linecap="round" style="stroke:#FF0000;stroke-width:8.64"/>
	<line x1="524.08" y1="2489.19" x2="524.08" y2="100.86" style="stroke:#000000;stroke-width:5.76"/>
	<line x1="524.08" y1="2425.45" x2="484.11" y2="2425.45" style="stroke:#000000;stroke-width:5.76"/>
	<text x="464.06" y="2460.48" style="font-family:'Helvetica';font-size:99.99px;fill:#000000" text-anchor="end">0.00</text>
	<line x1="524.08" y1="1671.67" x2="484.11" y2="1671.67" style="stroke:#000000;stroke-width:5.76"/>
	<text x="464.06" y="1706.70" style="font-family:'Helvetica';font-size:99.99px;fill:#000000" text-anchor="end">0.05</text>
	<line x1="524.08" y1="917.88" x2="484.11" y2="917.88" style="stroke:#000000;stroke-width:5.76"/>
	<text x="464.06" y="952.91" style="font-family:'Helvetica';font-size:99.99px;fill:#000000" text-anchor="end">0.10</text>
	<line x1="524.08" y1="164.22" x2="484.11" y2="164.22" style="stroke:#000000;stroke-width:5.76"/>
	<text x="464.06" y="199.25" style="font-family:'Helvetica';font-size:99.99px;fill:#000000" text-anchor="end">0.15</text>
	<text x="190.71" y="1294.96" style="font-family:'Helvetica';font-size:99.99px;fill:#000000" transform="rotate(-90 190.71,1294.96)" text-anchor="middle">Difference in S(t)</text>
	<line x1="524.08" y1="2489.19" x2="3859.02" y2="2489.19" style="stroke:#000000;stroke-width:5.76"/>
	<line x1="587.44" y1="2489.19" x2="587.44" y2="2529.16" style="stroke:#000000;stroke-width:5.76"/>
	<text x="587.44" y="2619.14" style="font-family:'Helvetica';font-size:99.99px;fill:#000000" text-anchor="middle">0</text>
	<line x1="1229.09" y1="2489.19" x2="1229.09" y2="2529.16" style="stroke:#000000;stroke-width:5.76"/>
	<text x="1229.09" y="2619.14" style="font-family:'Helvetica';font-size:99.99px;fill:#000000" text-anchor="middle">2</text>
	<line x1="1870.73" y1="2489.19" x2="1870.73" y2="2529.16" style="stroke:#000000;stroke-width:5.76"/>
	<text x="1870.73" y="2619.14" style="font-family:'Helvetica';font-size:99.99px;fill:#000000" text-anchor="middle">4</text>
	<line x1="2512.37" y1="2489.19" x2="2512.37" y2="2529.16" style="stroke:#000000;stroke-width:5.76"/>
	<text x="2512.37" y="2619.14" style="font-family:'Helvetica';font-size:99.99px;fill:#000000" text-anchor="middle">6</text>
	<line x1="3154.02" y1="2489.19" x2="3154.02" y2="2529.16" style="stroke:#000000;stroke-width:5.76"/>
	<text x="3154.02" y="2619.14" style="font-family:'Helvetica';font-size:99.99px;fill:#000000" text-anchor="middle">8</text>
	<line x1="3795.66" y1="2489.19" x2="3795.66" y2="2529.16" style="stroke:#000000;stroke-width:5.76"/>
	<text x="3795.66" y="2619.14" style="font-family:'Helvetica';font-size:99.99px;fill:#000000" text-anchor="middle">10</text>
	<text x="2191.61" y="2729.16" style="font-family:'Helvetica';font-size:99.99px;fill:#000000" text-anchor="middle">Years from surgery</text>
</svg>
