<?xml version="1.0" encoding="UTF-8" standalone="no"?>
<!-- This is a Stata 15.1 generated SVG file (http://www.stata.com) -->

<svg version="1.1" width="700px" height="509px" viewBox="0 0 3960 2880" xmlns="http://www.w3.org/2000/svg" xmlns:xlink="http://www.w3.org/1999/xlink">
	<desc>Stata Graph - Graph</desc>
	<rect x="0" y="0" width="3960" height="2880" style="fill:#FFFFFF;stroke:none"/>
	<rect x="0.00" y="0.00" width="3959.88" height="2880.00" style="fill:#FFFFFF"/>
	<rect x="2.88" y="2.88" width="3954.12" height="2874.24" style="fill:none;stroke:#FFFFFF;stroke-width:5.76"/>
	<line x1="482.50" y1="2489.19" x2="3859.02" y2="2489.19" style="stroke:#E8E8E8;stroke-width:5.76"/>
	<line x1="482.50" y1="2011.50" x2="3859.02" y2="2011.50" style="stroke:#E8E8E8;stroke-width:5.76"/>
	<line x1="482.50" y1="1533.81" x2="3859.02" y2="1533.81" style="stroke:#E8E8E8;stroke-width:5.76"/>
	<line x1="482.50" y1="1056.12" x2="3859.02" y2="1056.12" style="stroke:#E8E8E8;stroke-width:5.76"/>
	<line x1="482.50" y1="578.43" x2="3859.02" y2="578.43" style="stroke:#E8E8E8;stroke-width:5.76"/>
	<line x1="482.50" y1="100.86" x2="3859.02" y2="100.86" style="stroke:#E8E8E8;stroke-width:5.76"/>
	<line x1="482.50" y1="2489.19" x2="482.50" y2="100.86" style="stroke:#E8E8E8;stroke-width:5.76"/>
	<line x1="1157.81" y1="2489.19" x2="1157.81" y2="100.86" style="stroke:#E8E8E8;stroke-width:5.76"/>
	<line x1="1833.11" y1="2489.19" x2="1833.11" y2="100.86" style="stroke:#E8E8E8;stroke-width:5.76"/>
	<line x1="2508.41" y1="2489.19" x2="2508.41" y2="100.86" style="stroke:#E8E8E8;stroke-width:5.76"/>
	<line x1="3183.72" y1="2489.19" x2="3183.72" y2="100.86" style="stroke:#E8E8E8;stroke-width:5.76"/>
	<line x1="3859.02" y1="2489.19" x2="3859.02" y2="100.86" style="stroke:#E8E8E8;stroke-width:5.76"/>
	<defs>
		<path id="path1" d="M516.53 2479.66 L516.53 2479.66 L550.69 2437.46 L584.72 2359.99 L618.87 2254.80 L653.03 2132.28 L687.06 2002.34 L721.22 1872.89 L755.25 1749.26 L789.40 1633.80 L823.56 1527.12 L857.59 1428.61 L891.74 1337.66 L925.90 1253.38 L959.93 1175.29 L994.08 1103.02 L1028.12 1036.31 L1062.27 975.18 L1096.42 919.61 L1130.46 869.99 L1164.61 826.68 L1198.64 790.54 L1232.80 762.08 L1266.95 742.15 L1300.98 730.52 L1335.14 725.32 L1369.29 725.07 L1403.33 728.04 L1437.48 733.49 L1471.51 740.54 L1505.67 748.71 L1539.82 757.62 L1573.85 767.03 L1608.01 776.93 L1642.04 787.32 L1676.19 798.58 L1710.35 810.84 L1744.38 824.82 L1778.54 841.28 L1812.69 861.08 L1846.72 883.48 L1880.88 907.49 L1914.91 932.24 L1949.06 956.99 L1983.22 980.87 L2017.25 1003.64 L2051.40 1024.93 L2085.43 1044.61 L2119.59 1062.43 L2153.74 1078.39 L2187.78 1092.62 L2221.93 1105.00 L2256.09 1115.52 L2290.12 1124.43 L2324.27 1131.85 L2358.30 1137.79 L2392.46 1142.37 L2426.61 1145.71 L2460.64 1148.31 L2494.80 1150.29 L2528.83 1153.01 L2562.99 1156.60 L2597.14 1161.06 L2631.17 1166.50 L2665.33 1172.82 L2699.48 1179.75 L2733.51 1187.29 L2767.67 1195.46 L2801.70 1204.00 L2835.86 1212.79 L2870.01 1221.82 L2904.04 1230.98 L2938.20 1240.14 L2972.23 1249.30 L3006.38 1258.33 L3040.54 1267.24 L3074.57 1276.03 L3108.72 1284.57 L3142.88 1292.86 L3176.91 1301.02 L3211.07 1308.94 L3245.10 1316.49 L3279.25 1323.92 L3313.41 1331.10 L3347.44 1337.90 L3381.59 1344.59 L3415.62 1350.90 L3449.78 1357.08 L3483.93 1362.90 L3517.97 1368.59 L3552.12 1373.92 L3586.28 1379.11 L3620.31 1384.06 L3654.46 1388.64 L3688.49 1393.22 L3722.65 1397.43 L3756.80 1401.51 L3790.83 1405.35 L3824.99 1408.94 L3859.02 1412.40 L3859.02 966.15 L3824.99 964.91 L3790.83 963.67 L3756.80 962.56 L3722.65 961.44 L3688.49 960.45 L3654.46 959.46 L3620.31 958.60 L3586.28 957.85 L3552.12 957.11 L3517.97 956.37 L3483.93 955.75 L3449.78 955.26 L3415.62 954.76 L3381.59 954.27 L3347.44 953.89 L3313.41 953.52 L3279.25 953.28 L3245.10 952.90 L3211.07 952.66 L3176.91 952.29 L3142.88 951.91 L3108.72 951.54 L3074.57 951.05 L3040.54 950.43 L3006.38 949.56 L2972.23 948.57 L2938.20 947.21 L2904.04 945.60 L2870.01 943.50 L2835.86 940.90 L2801.70 937.68 L2767.67 933.60 L2733.51 928.77 L2699.48 922.83 L2665.33 915.65 L2631.17 907.24 L2597.14 897.34 L2562.99 886.08 L2528.83 873.08 L2494.80 858.60 L2460.64 842.52 L2426.61 825.69 L2392.46 808.36 L2358.30 790.91 L2324.27 773.34 L2290.12 756.01 L2256.09 738.81 L2221.93 721.98 L2187.78 705.64 L2153.74 689.56 L2119.59 673.96 L2085.43 658.74 L2051.40 643.89 L2017.25 628.92 L1983.22 613.94 L1949.06 598.23 L1914.91 581.52 L1880.88 562.96 L1846.72 541.67 L1812.69 516.67 L1778.54 487.59 L1744.38 456.65 L1710.35 425.59 L1676.19 395.76 L1642.04 368.29 L1608.01 344.04 L1573.85 323.74 L1539.82 307.90 L1505.67 297.26 L1471.51 291.94 L1437.48 292.18 L1403.33 298.00 L1369.29 309.14 L1335.14 324.85 L1300.98 344.53 L1266.95 366.68 L1232.80 389.45 L1198.64 413.46 L1164.61 440.19 L1130.46 471.63 L1096.42 509.12 L1062.27 554.54 L1028.12 609.12 L994.08 673.84 L959.93 749.45 L925.90 836.58 L891.74 935.21 L857.59 1044.61 L823.56 1163.66 L789.40 1290.38 L755.25 1422.30 L721.22 1556.82 L687.06 1691.96 L653.03 1826.98 L618.87 1961.99 L584.72 2097.63 L550.69 2233.88 L516.53 2368.53 L516.53 2479.66 Z" stroke-linecap="round"/>
	</defs>
	<defs>
		<clipPath id="clipPath1">
			<use xlink:href="#path1"/>
		</clipPath>
	</defs>
	<use xlink:href="#path1" style="stroke:none;fill:#FF3333;fill-opacity:0.30"/>
	<use xlink:href="#path1" style="fill:none;stroke:#FF0000;stroke-opacity:0.30;stroke-width:17.28" clip-path="url(#clipPath1)"/>
	<defs>
		<path id="path2" d="M516.53 2467.65 L516.53 2467.65 L550.69 2415.06 L584.72 2347.12 L618.87 2275.34 L653.03 2206.41 L687.06 2143.66 L721.22 2087.36 L755.25 2036.62 L789.40 1989.71 L823.56 1945.66 L857.59 1903.33 L891.74 1862.00 L925.90 1821.29 L959.93 1780.94 L994.08 1740.85 L1028.12 1700.87 L1062.27 1661.27 L1096.42 1622.04 L1130.46 1583.55 L1164.61 1545.93 L1198.64 1509.67 L1232.80 1475.15 L1266.95 1442.85 L1300.98 1413.02 L1335.14 1385.55 L1369.29 1360.55 L1403.33 1338.27 L1437.48 1319.22 L1471.51 1303.75 L1505.67 1291.25 L1539.82 1281.47 L1573.85 1273.92 L1608.01 1268.35 L1642.04 1264.64 L1676.19 1262.54 L1710.35 1262.17 L1744.38 1263.28 L1778.54 1266.13 L1812.69 1270.46 L1846.72 1275.41 L1880.88 1280.48 L1914.91 1285.56 L1949.06 1290.38 L1983.22 1294.96 L2017.25 1299.17 L2051.40 1303.00 L2085.43 1306.47 L2119.59 1309.81 L2153.74 1313.03 L2187.78 1316.25 L2221.93 1319.59 L2256.09 1323.42 L2290.12 1328.00 L2324.27 1333.08 L2358.30 1338.89 L2392.46 1345.20 L2426.61 1352.26 L2460.64 1359.81 L2494.80 1367.85 L2528.83 1376.89 L2562.99 1386.79 L2597.14 1397.30 L2631.17 1408.32 L2665.33 1419.70 L2699.48 1431.34 L2733.51 1443.09 L2767.67 1454.85 L2801.70 1466.61 L2835.86 1478.24 L2870.01 1489.75 L2904.04 1501.01 L2938.20 1512.02 L2972.23 1522.67 L3006.38 1533.19 L3040.54 1543.33 L3074.57 1553.11 L3108.72 1562.64 L3142.88 1571.80 L3176.91 1580.58 L3211.07 1589.12 L3245.10 1597.29 L3279.25 1605.09 L3313.41 1612.64 L3347.44 1619.81 L3381.59 1626.74 L3415.62 1633.30 L3449.78 1639.61 L3483.93 1645.56 L3517.97 1651.25 L3552.12 1656.69 L3586.28 1661.89 L3620.31 1666.72 L3654.46 1671.30 L3688.49 1675.75 L3722.65 1679.83 L3756.80 1683.80 L3790.83 1687.38 L3824.99 1690.85 L3859.02 1694.07 L3859.02 405.17 L3824.99 410.24 L3790.83 415.57 L3756.80 421.26 L3722.65 427.07 L3688.49 433.14 L3654.46 439.57 L3620.31 446.13 L3586.28 453.06 L3552.12 460.24 L3517.97 467.67 L3483.93 475.34 L3449.78 483.26 L3415.62 491.43 L3381.59 499.84 L3347.44 508.63 L3313.41 517.54 L3279.25 526.70 L3245.10 535.98 L3211.07 545.51 L3176.91 555.28 L3142.88 565.18 L3108.72 575.21 L3074.57 585.48 L3040.54 595.63 L3006.38 606.02 L2972.23 616.29 L2938.20 626.57 L2904.04 636.84 L2870.01 646.86 L2835.86 656.64 L2801.70 666.17 L2767.67 675.32 L2733.51 683.99 L2699.48 691.91 L2665.33 699.21 L2631.17 705.52 L2597.14 710.72 L2562.99 714.68 L2528.83 717.03 L2494.80 717.77 L2460.64 716.66 L2426.61 713.44 L2392.46 708.12 L2358.30 700.69 L2324.27 691.17 L2290.12 679.41 L2256.09 665.42 L2221.93 649.71 L2187.78 633.62 L2153.74 617.78 L2119.59 602.43 L2085.43 587.83 L2051.40 574.34 L2017.25 562.34 L1983.22 551.69 L1949.06 542.78 L1914.91 535.48 L1880.88 529.91 L1846.72 525.95 L1812.69 523.36 L1778.54 522.37 L1744.38 523.97 L1710.35 528.68 L1676.19 536.84 L1642.04 548.60 L1608.01 564.07 L1573.85 583.25 L1539.82 606.02 L1505.67 632.26 L1471.51 661.34 L1437.48 692.90 L1403.33 726.31 L1369.29 759.60 L1335.14 791.90 L1300.98 823.71 L1266.95 855.02 L1232.80 885.58 L1198.64 915.41 L1164.61 945.36 L1130.46 976.17 L1096.42 1008.72 L1062.27 1043.37 L1028.12 1080.99 L994.08 1122.08 L959.93 1167.00 L925.90 1216.01 L891.74 1269.59 L857.59 1327.38 L823.56 1389.14 L789.40 1454.23 L755.25 1520.81 L721.22 1586.90 L687.06 1649.02 L653.03 1702.98 L618.87 1743.20 L584.72 1761.51 L550.69 1739.98 L516.53 1611.89 L516.53 2467.65 Z" stroke-linecap="round"/>
	</defs>
	<defs>
		<clipPath id="clipPath2">
			<use xlink:href="#path2"/>
		</clipPath>
	</defs>
	<use xlink:href="#path2" style="stroke:none;fill:#3333FF;fill-opacity:0.30"/>
	<use xlink:href="#path2" style="fill:none;stroke:#0000FF;stroke-opacity:0.30;stroke-width:17.28" clip-path="url(#clipPath2)"/>
	<line x1="516.53" y1="2455.28" x2="550.56" y2="2374.34" stroke-linecap="round" style="stroke:#FF0000;stroke-width:8.64"/>
	<line x1="550.56" y1="2374.34" x2="584.72" y2="2264.32" stroke-linecap="round" style="stroke:#FF0000;stroke-width:8.64"/>
	<line x1="584.72" y1="2264.32" x2="618.75" y2="2137.72" stroke-linecap="round" style="stroke:#FF0000;stroke-width:8.64"/>
	<line x1="618.75" y1="2137.72" x2="652.90" y2="2003.08" stroke-linecap="round" style="stroke:#FF0000;stroke-width:8.64"/>
	<line x1="652.90" y1="2003.08" x2="687.06" y2="1866.21" stroke-linecap="round" style="stroke:#FF0000;stroke-width:8.64"/>
	<line x1="687.06" y1="1866.21" x2="721.09" y2="1731.32" stroke-linecap="round" style="stroke:#FF0000;stroke-width:8.64"/>
	<line x1="721.09" y1="1731.32" x2="755.25" y2="1600.76" stroke-linecap="round" style="stroke:#FF0000;stroke-width:8.64"/>
	<line x1="755.25" y1="1600.76" x2="789.40" y2="1476.63" stroke-linecap="round" style="stroke:#FF0000;stroke-width:8.64"/>
	<line x1="789.40" y1="1476.63" x2="823.43" y2="1359.93" stroke-linecap="round" style="stroke:#FF0000;stroke-width:8.64"/>
	<line x1="823.43" y1="1359.93" x2="857.59" y2="1251.52" stroke-linecap="round" style="stroke:#FF0000;stroke-width:8.64"/>
	<line x1="857.59" y1="1251.52" x2="891.62" y2="1151.53" stroke-linecap="round" style="stroke:#FF0000;stroke-width:8.64"/>
	<line x1="891.62" y1="1151.53" x2="925.77" y2="1060.20" stroke-linecap="round" style="stroke:#FF0000;stroke-width:8.64"/>
	<line x1="925.77" y1="1060.20" x2="959.93" y2="977.41" stroke-linecap="round" style="stroke:#FF0000;stroke-width:8.64"/>
	<line x1="959.93" y1="977.41" x2="993.96" y2="902.91" stroke-linecap="round" style="stroke:#FF0000;stroke-width:8.64"/>
	<line x1="993.96" y1="902.91" x2="1028.12" y2="836.45" stroke-linecap="round" style="stroke:#FF0000;stroke-width:8.64"/>
	<line x1="1028.12" y1="836.45" x2="1062.27" y2="777.79" stroke-linecap="round" style="stroke:#FF0000;stroke-width:8.64"/>
	<line x1="1062.27" y1="777.79" x2="1096.30" y2="726.31" stroke-linecap="round" style="stroke:#FF0000;stroke-width:8.64"/>
	<line x1="1096.30" y1="726.31" x2="1130.46" y2="681.76" stroke-linecap="round" style="stroke:#FF0000;stroke-width:8.64"/>
	<line x1="1130.46" y1="681.76" x2="1164.49" y2="643.64" stroke-linecap="round" style="stroke:#FF0000;stroke-width:8.64"/>
	<line x1="1164.49" y1="643.64" x2="1198.64" y2="611.47" stroke-linecap="round" style="stroke:#FF0000;stroke-width:8.64"/>
	<line x1="1198.64" y1="611.47" x2="1232.80" y2="584.98" stroke-linecap="round" style="stroke:#FF0000;stroke-width:8.64"/>
	<line x1="1232.80" y1="584.98" x2="1266.83" y2="563.58" stroke-linecap="round" style="stroke:#FF0000;stroke-width:8.64"/>
	<line x1="1266.83" y1="563.58" x2="1300.98" y2="547.12" stroke-linecap="round" style="stroke:#FF0000;stroke-width:8.64"/>
	<line x1="1300.98" y1="547.12" x2="1335.02" y2="535.48" stroke-linecap="round" style="stroke:#FF0000;stroke-width:8.64"/>
	<line x1="1335.02" y1="535.48" x2="1369.17" y2="528.18" stroke-linecap="round" style="stroke:#FF0000;stroke-width:8.64"/>
	<line x1="1369.17" y1="528.18" x2="1403.33" y2="524.84" stroke-linecap="round" style="stroke:#FF0000;stroke-width:8.64"/>
	<line x1="1403.33" y1="524.84" x2="1437.36" y2="525.34" stroke-linecap="round" style="stroke:#FF0000;stroke-width:8.64"/>
	<line x1="1437.36" y1="525.34" x2="1471.51" y2="529.05" stroke-linecap="round" style="stroke:#FF0000;stroke-width:8.64"/>
	<line x1="1471.51" y1="529.05" x2="1505.67" y2="535.98" stroke-linecap="round" style="stroke:#FF0000;stroke-width:8.64"/>
	<line x1="1505.67" y1="535.98" x2="1539.70" y2="545.75" stroke-linecap="round" style="stroke:#FF0000;stroke-width:8.64"/>
	<line x1="1539.70" y1="545.75" x2="1573.85" y2="558.13" stroke-linecap="round" style="stroke:#FF0000;stroke-width:8.64"/>
	<line x1="1573.85" y1="558.13" x2="1607.88" y2="572.73" stroke-linecap="round" style="stroke:#FF0000;stroke-width:8.64"/>
	<line x1="1607.88" y1="572.73" x2="1642.04" y2="589.44" stroke-linecap="round" style="stroke:#FF0000;stroke-width:8.64"/>
	<line x1="1642.04" y1="589.44" x2="1676.19" y2="608.00" stroke-linecap="round" style="stroke:#FF0000;stroke-width:8.64"/>
	<line x1="1676.19" y1="608.00" x2="1710.22" y2="628.30" stroke-linecap="round" style="stroke:#FF0000;stroke-width:8.64"/>
	<line x1="1710.22" y1="628.30" x2="1744.38" y2="649.96" stroke-linecap="round" style="stroke:#FF0000;stroke-width:8.64"/>
	<line x1="1744.38" y1="649.96" x2="1778.41" y2="673.10" stroke-linecap="round" style="stroke:#FF0000;stroke-width:8.64"/>
	<line x1="1778.41" y1="673.10" x2="1812.57" y2="697.23" stroke-linecap="round" style="stroke:#FF0000;stroke-width:8.64"/>
	<line x1="1812.57" y1="697.23" x2="1846.72" y2="720.87" stroke-linecap="round" style="stroke:#FF0000;stroke-width:8.64"/>
	<line x1="1846.72" y1="720.87" x2="1880.75" y2="743.76" stroke-linecap="round" style="stroke:#FF0000;stroke-width:8.64"/>
	<line x1="1880.75" y1="743.76" x2="1914.91" y2="765.91" stroke-linecap="round" style="stroke:#FF0000;stroke-width:8.64"/>
	<line x1="1914.91" y1="765.91" x2="1949.06" y2="787.07" stroke-linecap="round" style="stroke:#FF0000;stroke-width:8.64"/>
	<line x1="1949.06" y1="787.07" x2="1983.09" y2="807.37" stroke-linecap="round" style="stroke:#FF0000;stroke-width:8.64"/>
	<line x1="1983.09" y1="807.37" x2="2017.25" y2="826.92" stroke-linecap="round" style="stroke:#FF0000;stroke-width:8.64"/>
	<line x1="2017.25" y1="826.92" x2="2051.28" y2="845.49" stroke-linecap="round" style="stroke:#FF0000;stroke-width:8.64"/>
	<line x1="2051.28" y1="845.49" x2="2085.43" y2="863.18" stroke-linecap="round" style="stroke:#FF0000;stroke-width:8.64"/>
	<line x1="2085.43" y1="863.18" x2="2119.59" y2="879.89" stroke-linecap="round" style="stroke:#FF0000;stroke-width:8.64"/>
	<line x1="2119.59" y1="879.89" x2="2153.62" y2="895.85" stroke-linecap="round" style="stroke:#FF0000;stroke-width:8.64"/>
	<line x1="2153.62" y1="895.85" x2="2187.78" y2="910.95" stroke-linecap="round" style="stroke:#FF0000;stroke-width:8.64"/>
	<line x1="2187.78" y1="910.95" x2="2221.81" y2="925.18" stroke-linecap="round" style="stroke:#FF0000;stroke-width:8.64"/>
	<line x1="2221.81" y1="925.18" x2="2255.96" y2="938.67" stroke-linecap="round" style="stroke:#FF0000;stroke-width:8.64"/>
	<line x1="2255.96" y1="938.67" x2="2290.12" y2="951.30" stroke-linecap="round" style="stroke:#FF0000;stroke-width:8.64"/>
	<line x1="2290.12" y1="951.30" x2="2324.15" y2="963.18" stroke-linecap="round" style="stroke:#FF0000;stroke-width:8.64"/>
	<line x1="2324.15" y1="963.18" x2="2358.30" y2="974.31" stroke-linecap="round" style="stroke:#FF0000;stroke-width:8.64"/>
	<line x1="2358.30" y1="974.31" x2="2392.46" y2="984.59" stroke-linecap="round" style="stroke:#FF0000;stroke-width:8.64"/>
	<line x1="2392.46" y1="984.59" x2="2426.49" y2="994.36" stroke-linecap="round" style="stroke:#FF0000;stroke-width:8.64"/>
	<line x1="2426.49" y1="994.36" x2="2460.64" y2="1003.27" stroke-linecap="round" style="stroke:#FF0000;stroke-width:8.64"/>
	<line x1="2460.64" y1="1003.27" x2="2494.68" y2="1011.69" stroke-linecap="round" style="stroke:#FF0000;stroke-width:8.64"/>
	<line x1="2494.68" y1="1011.69" x2="2528.83" y2="1019.73" stroke-linecap="round" style="stroke:#FF0000;stroke-width:8.64"/>
	<line x1="2528.83" y1="1019.73" x2="2562.99" y2="1027.65" stroke-linecap="round" style="stroke:#FF0000;stroke-width:8.64"/>
	<line x1="2562.99" y1="1027.65" x2="2597.02" y2="1035.32" stroke-linecap="round" style="stroke:#FF0000;stroke-width:8.64"/>
	<line x1="2597.02" y1="1035.32" x2="2631.17" y2="1042.75" stroke-linecap="round" style="stroke:#FF0000;stroke-width:8.64"/>
	<line x1="2631.17" y1="1042.75" x2="2665.20" y2="1050.05" stroke-linecap="round" style="stroke:#FF0000;stroke-width:8.64"/>
	<line x1="2665.20" y1="1050.05" x2="2699.36" y2="1057.11" stroke-linecap="round" style="stroke:#FF0000;stroke-width:8.64"/>
	<line x1="2699.36" y1="1057.11" x2="2733.51" y2="1063.91" stroke-linecap="round" style="stroke:#FF0000;stroke-width:8.64"/>
	<line x1="2733.51" y1="1063.91" x2="2767.55" y2="1070.59" stroke-linecap="round" style="stroke:#FF0000;stroke-width:8.64"/>
	<line x1="2767.55" y1="1070.59" x2="2801.70" y2="1077.15" stroke-linecap="round" style="stroke:#FF0000;stroke-width:8.64"/>
	<line x1="2801.70" y1="1077.15" x2="2835.86" y2="1083.47" stroke-linecap="round" style="stroke:#FF0000;stroke-width:8.64"/>
	<line x1="2835.86" y1="1083.47" x2="2869.89" y2="1089.65" stroke-linecap="round" style="stroke:#FF0000;stroke-width:8.64"/>
	<line x1="2869.89" y1="1089.65" x2="2904.04" y2="1095.59" stroke-linecap="round" style="stroke:#FF0000;stroke-width:8.64"/>
	<line x1="2904.04" y1="1095.59" x2="2938.07" y2="1101.53" stroke-linecap="round" style="stroke:#FF0000;stroke-width:8.64"/>
	<line x1="2938.07" y1="1101.53" x2="2972.23" y2="1107.10" stroke-linecap="round" style="stroke:#FF0000;stroke-width:8.64"/>
	<line x1="2972.23" y1="1107.10" x2="3006.38" y2="1112.67" stroke-linecap="round" style="stroke:#FF0000;stroke-width:8.64"/>
	<line x1="3006.38" y1="1112.67" x2="3040.41" y2="1117.99" stroke-linecap="round" style="stroke:#FF0000;stroke-width:8.64"/>
	<line x1="3040.41" y1="1117.99" x2="3074.57" y2="1123.19" stroke-linecap="round" style="stroke:#FF0000;stroke-width:8.64"/>
	<line x1="3074.57" y1="1123.19" x2="3108.60" y2="1128.26" stroke-linecap="round" style="stroke:#FF0000;stroke-width:8.64"/>
	<line x1="3108.60" y1="1128.26" x2="3142.76" y2="1133.21" stroke-linecap="round" style="stroke:#FF0000;stroke-width:8.64"/>
	<line x1="3142.76" y1="1133.21" x2="3176.91" y2="1137.92" stroke-linecap="round" style="stroke:#FF0000;stroke-width:8.64"/>
	<line x1="3176.91" y1="1137.92" x2="3210.94" y2="1142.62" stroke-linecap="round" style="stroke:#FF0000;stroke-width:8.64"/>
	<line x1="3210.94" y1="1142.62" x2="3245.10" y2="1147.07" stroke-linecap="round" style="stroke:#FF0000;stroke-width:8.64"/>
	<line x1="3245.10" y1="1147.07" x2="3279.25" y2="1151.41" stroke-linecap="round" style="stroke:#FF0000;stroke-width:8.64"/>
	<line x1="3279.25" y1="1151.41" x2="3313.28" y2="1155.61" stroke-linecap="round" style="stroke:#FF0000;stroke-width:8.64"/>
	<line x1="3313.28" y1="1155.61" x2="3347.44" y2="1159.82" stroke-linecap="round" style="stroke:#FF0000;stroke-width:8.64"/>
	<line x1="3347.44" y1="1159.82" x2="3381.47" y2="1163.78" stroke-linecap="round" style="stroke:#FF0000;stroke-width:8.64"/>
	<line x1="3381.47" y1="1163.78" x2="3415.62" y2="1167.62" stroke-linecap="round" style="stroke:#FF0000;stroke-width:8.64"/>
	<line x1="3415.62" y1="1167.62" x2="3449.78" y2="1171.45" stroke-linecap="round" style="stroke:#FF0000;stroke-width:8.64"/>
	<line x1="3449.78" y1="1171.45" x2="3483.81" y2="1175.04" stroke-linecap="round" style="stroke:#FF0000;stroke-width:8.64"/>
	<line x1="3483.81" y1="1175.04" x2="3517.97" y2="1178.63" stroke-linecap="round" style="stroke:#FF0000;stroke-width:8.64"/>
	<line x1="3517.97" y1="1178.63" x2="3552.00" y2="1182.10" stroke-linecap="round" style="stroke:#FF0000;stroke-width:8.64"/>
	<line x1="3552.00" y1="1182.10" x2="3586.15" y2="1185.44" stroke-linecap="round" style="stroke:#FF0000;stroke-width:8.64"/>
	<line x1="3586.15" y1="1185.44" x2="3620.31" y2="1188.66" stroke-linecap="round" style="stroke:#FF0000;stroke-width:8.64"/>
	<line x1="3620.31" y1="1188.66" x2="3654.34" y2="1191.75" stroke-linecap="round" style="stroke:#FF0000;stroke-width:8.64"/>
	<line x1="3654.34" y1="1191.75" x2="3688.49" y2="1194.84" stroke-linecap="round" style="stroke:#FF0000;stroke-width:8.64"/>
	<line x1="3688.49" y1="1194.84" x2="3722.65" y2="1197.81" stroke-linecap="round" style="stroke:#FF0000;stroke-width:8.64"/>
	<line x1="3722.65" y1="1197.81" x2="3756.68" y2="1200.66" stroke-linecap="round" style="stroke:#FF0000;stroke-width:8.64"/>
	<line x1="3756.68" y1="1200.66" x2="3790.83" y2="1203.38" stroke-linecap="round" style="stroke:#FF0000;stroke-width:8.64"/>
	<line x1="3790.83" y1="1203.38" x2="3824.86" y2="1206.11" stroke-linecap="round" style="stroke:#FF0000;stroke-width:8.64"/>
	<line x1="3824.86" y1="1206.11" x2="3859.02" y2="1208.70" stroke-linecap="round" style="stroke:#FF0000;stroke-width:8.64"/>
	<line x1="516.53" y1="2351.94" x2="550.56" y2="2253.68" stroke-linecap="round" style="stroke:#0000FF;stroke-width:8.64"/>
	<line x1="550.56" y1="2253.68" x2="584.72" y2="2167.67" stroke-linecap="round" style="stroke:#0000FF;stroke-width:8.64"/>
	<line x1="584.72" y1="2167.67" x2="618.75" y2="2089.83" stroke-linecap="round" style="stroke:#0000FF;stroke-width:8.64"/>
	<line x1="618.75" y1="2089.83" x2="652.90" y2="2017.81" stroke-linecap="round" style="stroke:#0000FF;stroke-width:8.64"/>
	<line x1="652.90" y1="2017.81" x2="687.06" y2="1950.48" stroke-linecap="round" style="stroke:#0000FF;stroke-width:8.64"/>
	<line x1="687.06" y1="1950.48" x2="721.09" y2="1887.12" stroke-linecap="round" style="stroke:#0000FF;stroke-width:8.64"/>
	<line x1="721.09" y1="1887.12" x2="755.25" y2="1827.23" stroke-linecap="round" style="stroke:#0000FF;stroke-width:8.64"/>
	<line x1="755.25" y1="1827.23" x2="789.40" y2="1770.30" stroke-linecap="round" style="stroke:#0000FF;stroke-width:8.64"/>
	<line x1="789.40" y1="1770.30" x2="823.43" y2="1715.97" stroke-linecap="round" style="stroke:#0000FF;stroke-width:8.64"/>
	<line x1="823.43" y1="1715.97" x2="857.59" y2="1664.24" stroke-linecap="round" style="stroke:#0000FF;stroke-width:8.64"/>
	<line x1="857.59" y1="1664.24" x2="891.62" y2="1614.62" stroke-linecap="round" style="stroke:#0000FF;stroke-width:8.64"/>
	<line x1="891.62" y1="1614.62" x2="925.77" y2="1567.10" stroke-linecap="round" style="stroke:#0000FF;stroke-width:8.64"/>
	<line x1="925.77" y1="1567.10" x2="959.93" y2="1521.55" stroke-linecap="round" style="stroke:#0000FF;stroke-width:8.64"/>
	<line x1="959.93" y1="1521.55" x2="993.96" y2="1477.74" stroke-linecap="round" style="stroke:#0000FF;stroke-width:8.64"/>
	<line x1="993.96" y1="1477.74" x2="1028.12" y2="1435.67" stroke-linecap="round" style="stroke:#0000FF;stroke-width:8.64"/>
	<line x1="1028.12" y1="1435.67" x2="1062.27" y2="1395.20" stroke-linecap="round" style="stroke:#0000FF;stroke-width:8.64"/>
	<line x1="1062.27" y1="1395.20" x2="1096.30" y2="1356.22" stroke-linecap="round" style="stroke:#0000FF;stroke-width:8.64"/>
	<line x1="1096.30" y1="1356.22" x2="1130.46" y2="1318.72" stroke-linecap="round" style="stroke:#0000FF;stroke-width:8.64"/>
	<line x1="1130.46" y1="1318.72" x2="1164.49" y2="1282.46" stroke-linecap="round" style="stroke:#0000FF;stroke-width:8.64"/>
	<line x1="1164.49" y1="1282.46" x2="1198.64" y2="1247.69" stroke-linecap="round" style="stroke:#0000FF;stroke-width:8.64"/>
	<line x1="1198.64" y1="1247.69" x2="1232.80" y2="1214.03" stroke-linecap="round" style="stroke:#0000FF;stroke-width:8.64"/>
	<line x1="1232.80" y1="1214.03" x2="1266.83" y2="1181.60" stroke-linecap="round" style="stroke:#0000FF;stroke-width:8.64"/>
	<line x1="1266.83" y1="1181.60" x2="1300.98" y2="1150.42" stroke-linecap="round" style="stroke:#0000FF;stroke-width:8.64"/>
	<line x1="1300.98" y1="1150.42" x2="1335.02" y2="1120.59" stroke-linecap="round" style="stroke:#0000FF;stroke-width:8.64"/>
	<line x1="1335.02" y1="1120.59" x2="1369.17" y2="1092.13" stroke-linecap="round" style="stroke:#0000FF;stroke-width:8.64"/>
	<line x1="1369.17" y1="1092.13" x2="1403.33" y2="1064.90" stroke-linecap="round" style="stroke:#0000FF;stroke-width:8.64"/>
	<line x1="1403.33" y1="1064.90" x2="1437.36" y2="1039.53" stroke-linecap="round" style="stroke:#0000FF;stroke-width:8.64"/>
	<line x1="1437.36" y1="1039.53" x2="1471.51" y2="1017.26" stroke-linecap="round" style="stroke:#0000FF;stroke-width:8.64"/>
	<line x1="1471.51" y1="1017.26" x2="1505.67" y2="997.83" stroke-linecap="round" style="stroke:#0000FF;stroke-width:8.64"/>
	<line x1="1505.67" y1="997.83" x2="1539.70" y2="981.12" stroke-linecap="round" style="stroke:#0000FF;stroke-width:8.64"/>
	<line x1="1539.70" y1="981.12" x2="1573.85" y2="967.26" stroke-linecap="round" style="stroke:#0000FF;stroke-width:8.64"/>
	<line x1="1573.85" y1="967.26" x2="1607.88" y2="956.25" stroke-linecap="round" style="stroke:#0000FF;stroke-width:8.64"/>
	<line x1="1607.88" y1="956.25" x2="1642.04" y2="947.71" stroke-linecap="round" style="stroke:#0000FF;stroke-width:8.64"/>
	<line x1="1642.04" y1="947.71" x2="1676.19" y2="941.77" stroke-linecap="round" style="stroke:#0000FF;stroke-width:8.64"/>
	<line x1="1676.19" y1="941.77" x2="1710.22" y2="938.30" stroke-linecap="round" style="stroke:#0000FF;stroke-width:8.64"/>
	<line x1="1710.22" y1="938.30" x2="1744.38" y2="937.06" stroke-linecap="round" style="stroke:#0000FF;stroke-width:8.64"/>
	<line x1="1744.38" y1="937.06" x2="1778.41" y2="938.30" stroke-linecap="round" style="stroke:#0000FF;stroke-width:8.64"/>
	<line x1="1778.41" y1="938.30" x2="1812.57" y2="941.40" stroke-linecap="round" style="stroke:#0000FF;stroke-width:8.64"/>
	<line x1="1812.57" y1="941.40" x2="1846.72" y2="945.60" stroke-linecap="round" style="stroke:#0000FF;stroke-width:8.64"/>
	<line x1="1846.72" y1="945.60" x2="1880.75" y2="950.31" stroke-linecap="round" style="stroke:#0000FF;stroke-width:8.64"/>
	<line x1="1880.75" y1="950.31" x2="1914.91" y2="955.75" stroke-linecap="round" style="stroke:#0000FF;stroke-width:8.64"/>
	<line x1="1914.91" y1="955.75" x2="1949.06" y2="961.69" stroke-linecap="round" style="stroke:#0000FF;stroke-width:8.64"/>
	<line x1="1949.06" y1="961.69" x2="1983.09" y2="968.13" stroke-linecap="round" style="stroke:#0000FF;stroke-width:8.64"/>
	<line x1="1983.09" y1="968.13" x2="2017.25" y2="974.93" stroke-linecap="round" style="stroke:#0000FF;stroke-width:8.64"/>
	<line x1="2017.25" y1="974.93" x2="2051.28" y2="982.11" stroke-linecap="round" style="stroke:#0000FF;stroke-width:8.64"/>
	<line x1="2051.28" y1="982.11" x2="2085.43" y2="989.66" stroke-linecap="round" style="stroke:#0000FF;stroke-width:8.64"/>
	<line x1="2085.43" y1="989.66" x2="2119.59" y2="997.58" stroke-linecap="round" style="stroke:#0000FF;stroke-width:8.64"/>
	<line x1="2119.59" y1="997.58" x2="2153.62" y2="1005.62" stroke-linecap="round" style="stroke:#0000FF;stroke-width:8.64"/>
	<line x1="2153.62" y1="1005.62" x2="2187.78" y2="1013.92" stroke-linecap="round" style="stroke:#0000FF;stroke-width:8.64"/>
	<line x1="2187.78" y1="1013.92" x2="2221.81" y2="1022.45" stroke-linecap="round" style="stroke:#0000FF;stroke-width:8.64"/>
	<line x1="2221.81" y1="1022.45" x2="2255.96" y2="1031.12" stroke-linecap="round" style="stroke:#0000FF;stroke-width:8.64"/>
	<line x1="2255.96" y1="1031.12" x2="2290.12" y2="1039.53" stroke-linecap="round" style="stroke:#0000FF;stroke-width:8.64"/>
	<line x1="2290.12" y1="1039.53" x2="2324.15" y2="1047.45" stroke-linecap="round" style="stroke:#0000FF;stroke-width:8.64"/>
	<line x1="2324.15" y1="1047.45" x2="2358.30" y2="1054.88" stroke-linecap="round" style="stroke:#0000FF;stroke-width:8.64"/>
	<line x1="2358.30" y1="1054.88" x2="2392.46" y2="1061.93" stroke-linecap="round" style="stroke:#0000FF;stroke-width:8.64"/>
	<line x1="2392.46" y1="1061.93" x2="2426.49" y2="1068.37" stroke-linecap="round" style="stroke:#0000FF;stroke-width:8.64"/>
	<line x1="2426.49" y1="1068.37" x2="2460.64" y2="1074.31" stroke-linecap="round" style="stroke:#0000FF;stroke-width:8.64"/>
	<line x1="2460.64" y1="1074.31" x2="2494.68" y2="1079.88" stroke-linecap="round" style="stroke:#0000FF;stroke-width:8.64"/>
	<line x1="2494.68" y1="1079.88" x2="2528.83" y2="1085.32" stroke-linecap="round" style="stroke:#0000FF;stroke-width:8.64"/>
	<line x1="2528.83" y1="1085.32" x2="2562.99" y2="1090.52" stroke-linecap="round" style="stroke:#0000FF;stroke-width:8.64"/>
	<line x1="2562.99" y1="1090.52" x2="2597.02" y2="1095.72" stroke-linecap="round" style="stroke:#0000FF;stroke-width:8.64"/>
	<line x1="2597.02" y1="1095.72" x2="2631.17" y2="1100.67" stroke-linecap="round" style="stroke:#0000FF;stroke-width:8.64"/>
	<line x1="2631.17" y1="1100.67" x2="2665.20" y2="1105.62" stroke-linecap="round" style="stroke:#0000FF;stroke-width:8.64"/>
	<line x1="2665.20" y1="1105.62" x2="2699.36" y2="1110.32" stroke-linecap="round" style="stroke:#0000FF;stroke-width:8.64"/>
	<line x1="2699.36" y1="1110.32" x2="2733.51" y2="1115.02" stroke-linecap="round" style="stroke:#0000FF;stroke-width:8.64"/>
	<line x1="2733.51" y1="1115.02" x2="2767.55" y2="1119.48" stroke-linecap="round" style="stroke:#0000FF;stroke-width:8.64"/>
	<line x1="2767.55" y1="1119.48" x2="2801.70" y2="1123.93" stroke-linecap="round" style="stroke:#0000FF;stroke-width:8.64"/>
	<line x1="2801.70" y1="1123.93" x2="2835.86" y2="1128.14" stroke-linecap="round" style="stroke:#0000FF;stroke-width:8.64"/>
	<line x1="2835.86" y1="1128.14" x2="2869.89" y2="1132.22" stroke-linecap="round" style="stroke:#0000FF;stroke-width:8.64"/>
	<line x1="2869.89" y1="1132.22" x2="2904.04" y2="1136.18" stroke-linecap="round" style="stroke:#0000FF;stroke-width:8.64"/>
	<line x1="2904.04" y1="1136.18" x2="2938.07" y2="1140.14" stroke-linecap="round" style="stroke:#0000FF;stroke-width:8.64"/>
	<line x1="2938.07" y1="1140.14" x2="2972.23" y2="1143.86" stroke-linecap="round" style="stroke:#0000FF;stroke-width:8.64"/>
	<line x1="2972.23" y1="1143.86" x2="3006.38" y2="1147.45" stroke-linecap="round" style="stroke:#0000FF;stroke-width:8.64"/>
	<line x1="3006.38" y1="1147.45" x2="3040.41" y2="1150.91" stroke-linecap="round" style="stroke:#0000FF;stroke-width:8.64"/>
	<line x1="3040.41" y1="1150.91" x2="3074.57" y2="1154.38" stroke-linecap="round" style="stroke:#0000FF;stroke-width:8.64"/>
	<line x1="3074.57" y1="1154.38" x2="3108.60" y2="1157.59" stroke-linecap="round" style="stroke:#0000FF;stroke-width:8.64"/>
	<line x1="3108.60" y1="1157.59" x2="3142.76" y2="1160.69" stroke-linecap="round" style="stroke:#0000FF;stroke-width:8.64"/>
	<line x1="3142.76" y1="1160.69" x2="3176.91" y2="1163.66" stroke-linecap="round" style="stroke:#0000FF;stroke-width:8.64"/>
	<line x1="3176.91" y1="1163.66" x2="3210.94" y2="1166.63" stroke-linecap="round" style="stroke:#0000FF;stroke-width:8.64"/>
	<line x1="3210.94" y1="1166.63" x2="3245.10" y2="1169.35" stroke-linecap="round" style="stroke:#0000FF;stroke-width:8.64"/>
	<line x1="3245.10" y1="1169.35" x2="3279.25" y2="1172.07" stroke-linecap="round" style="stroke:#0000FF;stroke-width:8.64"/>
	<line x1="3279.25" y1="1172.07" x2="3313.28" y2="1174.67" stroke-linecap="round" style="stroke:#0000FF;stroke-width:8.64"/>
	<line x1="3313.28" y1="1174.67" x2="3347.44" y2="1177.02" stroke-linecap="round" style="stroke:#0000FF;stroke-width:8.64"/>
	<line x1="3347.44" y1="1177.02" x2="3381.47" y2="1179.37" stroke-linecap="round" style="stroke:#0000FF;stroke-width:8.64"/>
	<line x1="3381.47" y1="1179.37" x2="3415.62" y2="1181.60" stroke-linecap="round" style="stroke:#0000FF;stroke-width:8.64"/>
	<line x1="3415.62" y1="1181.60" x2="3449.78" y2="1183.83" stroke-linecap="round" style="stroke:#0000FF;stroke-width:8.64"/>
	<line x1="3449.78" y1="1183.83" x2="3483.81" y2="1185.81" stroke-linecap="round" style="stroke:#0000FF;stroke-width:8.64"/>
	<line x1="3483.81" y1="1185.81" x2="3517.97" y2="1187.79" stroke-linecap="round" style="stroke:#0000FF;stroke-width:8.64"/>
	<line x1="3517.97" y1="1187.79" x2="3552.00" y2="1189.65" stroke-linecap="round" style="stroke:#0000FF;stroke-width:8.64"/>
	<line x1="3552.00" y1="1189.65" x2="3586.15" y2="1191.38" stroke-linecap="round" style="stroke:#0000FF;stroke-width:8.64"/>
	<line x1="3586.15" y1="1191.38" x2="3620.31" y2="1192.99" stroke-linecap="round" style="stroke:#0000FF;stroke-width:8.64"/>
	<line x1="3620.31" y1="1192.99" x2="3654.34" y2="1194.60" stroke-linecap="round" style="stroke:#0000FF;stroke-width:8.64"/>
	<line x1="3654.34" y1="1194.60" x2="3688.49" y2="1195.96" stroke-linecap="round" style="stroke:#0000FF;stroke-width:8.64"/>
	<line x1="3688.49" y1="1195.96" x2="3722.65" y2="1197.32" stroke-linecap="round" style="stroke:#0000FF;stroke-width:8.64"/>
	<line x1="3722.65" y1="1197.32" x2="3756.68" y2="1198.68" stroke-linecap="round" style="stroke:#0000FF;stroke-width:8.64"/>
	<line x1="3756.68" y1="1198.68" x2="3790.83" y2="1199.92" stroke-linecap="round" style="stroke:#0000FF;stroke-width:8.64"/>
	<line x1="3790.83" y1="1199.92" x2="3824.86" y2="1201.03" stroke-linecap="round" style="stroke:#0000FF;stroke-width:8.64"/>
	<line x1="3824.86" y1="1201.03" x2="3859.02" y2="1202.02" stroke-linecap="round" style="stroke:#0000FF;stroke-width:8.64"/>
	<line x1="482.50" y1="2489.19" x2="442.41" y2="2489.19" style="stroke:#000000;stroke-width:5.76"/>
	<text x="422.48" y="2524.21" style="font-family:'Helvetica';font-size:99.99px;fill:#000000" text-anchor="end">0.0</text>
	<line x1="482.50" y1="2011.50" x2="442.41" y2="2011.50" style="stroke:#000000;stroke-width:5.76"/>
	<text x="422.48" y="2046.52" style="font-family:'Helvetica';font-size:99.99px;fill:#000000" text-anchor="end">20.0</text>
	<line x1="482.50" y1="1533.81" x2="442.41" y2="1533.81" style="stroke:#000000;stroke-width:5.76"/>
	<text x="422.48" y="1568.83" style="font-family:'Helvetica';font-size:99.99px;fill:#000000" text-anchor="end">40.0</text>
	<line x1="482.50" y1="1056.12" x2="442.41" y2="1056.12" style="stroke:#000000;stroke-width:5.76"/>
	<text x="422.48" y="1091.14" style="font-family:'Helvetica';font-size:99.99px;fill:#000000" text-anchor="end">60.0</text>
	<line x1="482.50" y1="578.43" x2="442.41" y2="578.43" style="stroke:#000000;stroke-width:5.76"/>
	<text x="422.48" y="613.45" style="font-family:'Helvetica';font-size:99.99px;fill:#000000" text-anchor="end">80.0</text>
	<line x1="482.50" y1="100.86" x2="442.41" y2="100.86" style="stroke:#000000;stroke-width:5.76"/>
	<text x="422.48" y="135.89" style="font-family:'Helvetica';font-size:99.99px;fill:#000000" text-anchor="end">100.0</text>
	<line x1="482.50" y1="2489.19" x2="482.50" y2="100.86" style="stroke:#000000;stroke-width:5.76"/>
	<line x1="482.50" y1="2489.19" x2="482.50" y2="2529.16" style="stroke:#000000;stroke-width:5.76"/>
	<text x="482.50" y="2619.14" style="font-family:'Helvetica';font-size:99.99px;fill:#000000" text-anchor="middle">0</text>
	<line x1="1157.81" y1="2489.19" x2="1157.81" y2="2529.16" style="stroke:#000000;stroke-width:5.76"/>
	<text x="1157.81" y="2619.14" style="font-family:'Helvetica';font-size:99.99px;fill:#000000" text-anchor="middle">2</text>
	<line x1="1833.11" y1="2489.19" x2="1833.11" y2="2529.16" style="stroke:#000000;stroke-width:5.76"/>
	<text x="1833.11" y="2619.14" style="font-family:'Helvetica';font-size:99.99px;fill:#000000" text-anchor="middle">4</text>
	<line x1="2508.41" y1="2489.19" x2="2508.41" y2="2529.16" style="stroke:#000000;stroke-width:5.76"/>
	<text x="2508.41" y="2619.14" style="font-family:'Helvetica';font-size:99.99px;fill:#000000" text-anchor="middle">6</text>
	<line x1="3183.72" y1="2489.19" x2="3183.72" y2="2529.16" style="stroke:#000000;stroke-width:5.76"/>
	<text x="3183.72" y="2619.14" style="font-family:'Helvetica';font-size:99.99px;fill:#000000" text-anchor="middle">8</text>
	<line x1="3859.02" y1="2489.19" x2="3859.02" y2="2529.16" style="stroke:#000000;stroke-width:5.76"/>
	<text x="3859.02" y="2619.14" style="font-family:'Helvetica';font-size:99.99px;fill:#000000" text-anchor="middle">10</text>
	<line x1="482.50" y1="2489.19" x2="3859.02" y2="2489.19" style="stroke:#000000;stroke-width:5.76"/>
	<text x="2170.82" y="2729.16" style="font-family:'Helvetica';font-size:99.99px;fill:#000000" text-anchor="middle">Years from surgery</text>
</svg>
